G04*
G04 #@! TF.GenerationSoftware,Altium Limited,Altium Designer,21.2.2 (38)*
G04*
G04 Layer_Color=16711935*
%FSTAX24Y24*%
%MOIN*%
G70*
G04*
G04 #@! TF.SameCoordinates,E8B1D116-6B3C-4CC1-BC5D-0A1EC4A5AECB*
G04*
G04*
G04 #@! TF.FilePolarity,Negative*
G04*
G01*
G75*
%ADD66R,0.0336X0.0415*%
%ADD73R,0.0474X0.0651*%
%ADD75R,0.0651X0.0474*%
%ADD82R,0.0513X0.0867*%
%ADD83R,0.0356X0.1222*%
%ADD105C,0.0907*%
%ADD106C,0.0710*%
%ADD107R,0.0710X0.0710*%
%ADD108O,0.0730X0.0980*%
%ADD109R,0.0730X0.0980*%
%ADD110C,0.1655*%
%ADD111C,0.0671*%
%ADD112C,0.0631*%
%ADD113R,0.0631X0.0631*%
%ADD114C,0.0730*%
%ADD115R,0.0730X0.0730*%
%ADD116C,0.0237*%
%ADD117C,0.1497*%
%ADD118C,0.2049*%
%ADD119R,0.0730X0.0730*%
%ADD120R,0.0710X0.0710*%
%ADD121C,0.0474*%
%ADD149R,0.0497X0.0336*%
G04:AMPARAMS|DCode=150|XSize=45.4mil|YSize=47.4mil|CornerRadius=0mil|HoleSize=0mil|Usage=FLASHONLY|Rotation=225.000|XOffset=0mil|YOffset=0mil|HoleType=Round|Shape=Rectangle|*
%AMROTATEDRECTD150*
4,1,4,-0.0007,0.0328,0.0328,-0.0007,0.0007,-0.0328,-0.0328,0.0007,-0.0007,0.0328,0.0*
%
%ADD150ROTATEDRECTD150*%

%ADD151R,0.0474X0.0454*%
%ADD152R,0.0454X0.0474*%
D66*
X040433Y017205D02*
D03*
X039803D02*
D03*
D73*
X011004Y038091D02*
D03*
X011752D02*
D03*
X037126Y022913D02*
D03*
X036378D02*
D03*
X037283Y025591D02*
D03*
X036535D02*
D03*
D75*
X033839Y020295D02*
D03*
Y021043D02*
D03*
X03252Y021063D02*
D03*
Y020315D02*
D03*
D82*
X03939Y04061D02*
D03*
X042776D02*
D03*
X023425Y010925D02*
D03*
X020039D02*
D03*
X036004Y040571D02*
D03*
X038209D02*
D03*
X034823D02*
D03*
X032618D02*
D03*
X031437D02*
D03*
X028642D02*
D03*
X027461Y04065D02*
D03*
X024075D02*
D03*
X028878Y010945D02*
D03*
X031083D02*
D03*
X024902D02*
D03*
X027106D02*
D03*
X032854D02*
D03*
X035059D02*
D03*
X036831D02*
D03*
X039035D02*
D03*
X040236Y010965D02*
D03*
X043622D02*
D03*
D83*
X041378Y039154D02*
D03*
X040787Y039154D02*
D03*
X040197D02*
D03*
X041968Y039154D02*
D03*
X021437Y012382D02*
D03*
X022028Y012382D02*
D03*
X022618D02*
D03*
X020846Y012382D02*
D03*
X036811Y039114D02*
D03*
X037402D02*
D03*
X034016D02*
D03*
X033425D02*
D03*
X03063Y039114D02*
D03*
X030039Y039114D02*
D03*
X029449D02*
D03*
X026654Y039193D02*
D03*
X024882Y039193D02*
D03*
X025472D02*
D03*
X026063Y039193D02*
D03*
X029685Y012402D02*
D03*
X030276D02*
D03*
X025709D02*
D03*
X026299D02*
D03*
X033661D02*
D03*
X034252D02*
D03*
X037638D02*
D03*
X038228D02*
D03*
X041043Y012421D02*
D03*
X042815Y012421D02*
D03*
X042224D02*
D03*
X041634Y012421D02*
D03*
D105*
X047579Y025079D02*
D03*
X046579Y026079D02*
D03*
Y024079D02*
D03*
X048579D02*
D03*
Y026079D02*
D03*
Y016591D02*
D03*
Y014591D02*
D03*
X046579D02*
D03*
Y016591D02*
D03*
X047579Y015591D02*
D03*
D106*
X024Y02874D02*
D03*
X025D02*
D03*
X021433Y025457D02*
D03*
X015433Y022457D02*
D03*
X014433Y025457D02*
D03*
X017433D02*
D03*
X021433Y022457D02*
D03*
X029528Y03748D02*
D03*
X028528D02*
D03*
X036535Y018409D02*
D03*
Y019409D02*
D03*
X017996Y038346D02*
D03*
X016496D02*
D03*
X021858D02*
D03*
X020358D02*
D03*
D107*
X026Y02874D02*
D03*
X030528Y03748D02*
D03*
D108*
X032465Y030512D02*
D03*
X030465D02*
D03*
X028465D02*
D03*
X027465D02*
D03*
X026465D02*
D03*
X029465D02*
D03*
X031465D02*
D03*
X033465D02*
D03*
X034465D02*
D03*
D109*
X025465D02*
D03*
D110*
X04576Y029262D02*
D03*
X041517Y033505D02*
D03*
X039749Y023252D02*
D03*
X035507Y027494D02*
D03*
D111*
X039926Y032621D02*
D03*
X03639Y029085D02*
D03*
X037097Y029792D02*
D03*
X037805Y030499D02*
D03*
X038512Y031206D02*
D03*
X039219Y031914D02*
D03*
X042047Y024843D02*
D03*
X042754Y02555D02*
D03*
X043461Y026257D02*
D03*
X044169Y026964D02*
D03*
X025949Y020492D02*
D03*
X026949D02*
D03*
X024949D02*
D03*
X023949D02*
D03*
X027949D02*
D03*
D112*
X033622Y032913D02*
D03*
D113*
Y034803D02*
D03*
D114*
X048465Y029083D02*
D03*
X036535Y020642D02*
D03*
X042531Y022126D02*
D03*
X036535Y016248D02*
D03*
X032992Y03748D02*
D03*
X013406D02*
D03*
X014417Y035571D02*
D03*
D115*
X048465Y028083D02*
D03*
X036535Y021642D02*
D03*
Y015248D02*
D03*
D116*
X047146Y032953D02*
D03*
Y031378D02*
D03*
D117*
X023272Y014626D02*
D03*
X028626D02*
D03*
D118*
X047992Y040118D02*
D03*
Y011378D02*
D03*
X011378D02*
D03*
X011378Y040118D02*
D03*
D119*
X043531Y022126D02*
D03*
X033992Y03748D02*
D03*
X014406D02*
D03*
X013417Y035571D02*
D03*
D120*
X036535Y017409D02*
D03*
D121*
X013618Y030276D02*
D03*
X012618D02*
D03*
X011618D02*
D03*
D149*
X037835Y033957D02*
D03*
X038701D02*
D03*
X038701Y033583D02*
D03*
X037835Y033209D02*
D03*
X038701D02*
D03*
D150*
X041561Y03164D02*
D03*
X041116Y031195D02*
D03*
X042388Y030813D02*
D03*
X041943Y030368D02*
D03*
X043097Y030105D02*
D03*
X042651Y029659D02*
D03*
X043924Y029278D02*
D03*
X043478Y028832D02*
D03*
D151*
X043465Y034331D02*
D03*
Y034961D02*
D03*
X044331Y034331D02*
D03*
Y034961D02*
D03*
X025276Y036969D02*
D03*
Y036339D02*
D03*
X021299Y019173D02*
D03*
Y018543D02*
D03*
Y020177D02*
D03*
Y020807D02*
D03*
X018583Y020197D02*
D03*
Y020827D02*
D03*
Y018543D02*
D03*
Y019173D02*
D03*
X032677Y024547D02*
D03*
Y023917D02*
D03*
Y025354D02*
D03*
Y025984D02*
D03*
D152*
X011693Y034528D02*
D03*
X011063D02*
D03*
X036339Y033071D02*
D03*
X036969D02*
D03*
X036339Y034016D02*
D03*
X036969D02*
D03*
X011693Y035709D02*
D03*
X011063D02*
D03*
X029094Y034074D02*
D03*
X029724D02*
D03*
X042835Y017205D02*
D03*
X042205D02*
D03*
X036969Y034961D02*
D03*
X036339D02*
D03*
X014252Y040118D02*
D03*
X013622D02*
D03*
X014252Y011378D02*
D03*
X013622D02*
D03*
X011693Y03689D02*
D03*
X011063D02*
D03*
X045748Y011378D02*
D03*
X045118D02*
D03*
X036929Y032205D02*
D03*
X036299D02*
D03*
X037047Y023976D02*
D03*
X036417D02*
D03*
X026102Y025039D02*
D03*
X026732D02*
D03*
X026122Y02622D02*
D03*
X026752D02*
D03*
X026083Y023799D02*
D03*
X026713D02*
D03*
X045748Y040118D02*
D03*
X045118D02*
D03*
X030079Y025374D02*
D03*
X029449D02*
D03*
Y02624D02*
D03*
X030079D02*
D03*
X029449Y024547D02*
D03*
X030079D02*
D03*
X03187Y023661D02*
D03*
X03124D02*
D03*
X029449Y023681D02*
D03*
X030079D02*
D03*
X03187Y025374D02*
D03*
X03124D02*
D03*
X03187Y024547D02*
D03*
X03124D02*
D03*
X03189Y02624D02*
D03*
X03126D02*
D03*
M02*
