G04*
G04 #@! TF.GenerationSoftware,Altium Limited,Altium Designer,21.2.2 (38)*
G04*
G04 Layer_Color=32768*
%FSTAX24Y24*%
%MOIN*%
G70*
G04*
G04 #@! TF.SameCoordinates,E8B1D116-6B3C-4CC1-BC5D-0A1EC4A5AECB*
G04*
G04*
G04 #@! TF.FilePolarity,Positive*
G04*
G01*
G75*
%ADD10C,0.0079*%
%ADD11C,0.0100*%
%ADD12C,0.0157*%
%ADD13C,0.0197*%
%ADD14C,0.0276*%
%ADD16C,0.0039*%
D10*
X025866Y017382D02*
X026024D01*
Y017539D01*
Y017382D02*
X026181D01*
X026024Y017224D02*
Y017382D01*
X047579Y024606D02*
Y025079D01*
X047106D02*
X047579D01*
Y025551D01*
Y025079D02*
X048051D01*
X025Y028622D02*
Y028858D01*
X024882Y02874D02*
X025118D01*
X039495Y028773D02*
X039606Y028661D01*
X039718Y028773D01*
X039606Y028661D02*
X039718Y02855D01*
X039495D02*
X039606Y028661D01*
X030354Y024961D02*
Y025197D01*
X030118Y024961D02*
X030354D01*
Y024724D02*
Y024961D01*
X030591D01*
X044208Y03346D02*
X044291Y033543D01*
X044375Y03346D01*
X044291Y033543D02*
X044375Y033627D01*
X044208D02*
X044291Y033543D01*
X045118Y034409D02*
X045202Y034493D01*
X045035D02*
X045118Y034409D01*
X045035Y034326D02*
X045118Y034409D01*
X045202Y034326D01*
X042953Y030591D02*
X04312Y030424D01*
X042786D02*
X042953Y030591D01*
X04312Y030758D01*
X042786D02*
X042953Y030591D01*
X048465Y028504D02*
Y028661D01*
X048346Y028583D02*
X048543D01*
X041378Y027008D02*
X041489Y027119D01*
X041267D02*
X041378Y027008D01*
X041267Y026897D02*
X041378Y027008D01*
X041489Y026897D01*
X043268Y037008D02*
X043425D01*
X043268Y03685D02*
Y037008D01*
X04311D02*
X043268D01*
Y037165D01*
X012406Y032647D02*
X012602D01*
X0126D02*
Y032844D01*
X012595Y032649D02*
X012792D01*
X012598Y032461D02*
Y032657D01*
X040879Y040467D02*
X041076D01*
X041083Y040472D02*
X04128D01*
X041083D02*
Y040669D01*
Y040276D02*
Y040472D01*
X025748Y040236D02*
Y040433D01*
Y04063D01*
X025551Y040433D02*
X025748D01*
X025755Y040427D02*
X025952D01*
X037106Y040374D02*
Y040571D01*
X037303D01*
X037106D02*
Y040768D01*
X036909Y040571D02*
X037106D01*
X015984Y014508D02*
X016181D01*
X015984Y014311D02*
Y014508D01*
X015787D02*
X015984D01*
Y014705D01*
X01752Y032598D02*
X017677D01*
Y032441D02*
Y032598D01*
Y032756D01*
Y032598D02*
X017835D01*
X021739Y011069D02*
X021936D01*
X021535Y011063D02*
X021732D01*
Y010866D02*
Y011063D01*
Y01126D01*
X041706Y010951D02*
X041902D01*
X041909Y010945D02*
X042106D01*
X041909Y010748D02*
Y010945D01*
Y011142D01*
X041083Y040236D02*
Y040433D01*
Y04063D01*
X040886Y040433D02*
X041083D01*
X04109Y040427D02*
X041286D01*
X010886Y021772D02*
Y021969D01*
X010689D02*
X010886D01*
Y022165D01*
Y021969D02*
X011083D01*
X045433Y040118D02*
X04563D01*
X045433Y039921D02*
Y040118D01*
X045236D02*
X045433D01*
Y040315D01*
X037106Y040571D02*
X037303D01*
X037106D02*
Y040768D01*
X036909Y040571D02*
X037106D01*
Y040374D02*
Y040571D01*
X036457Y021142D02*
X036654D01*
X036535Y021063D02*
Y02122D01*
X03372Y040374D02*
Y040571D01*
X033524D02*
X03372D01*
Y040768D01*
Y040571D02*
X033917D01*
X029836Y040565D02*
X030032D01*
X030039Y040571D02*
X030236D01*
X030039D02*
Y040768D01*
Y040374D02*
Y040571D01*
X025768Y040315D02*
Y040512D01*
Y040709D01*
Y040512D02*
X025965D01*
X025564Y040506D02*
X025761D01*
X013937Y040118D02*
X014134D01*
X013937Y039921D02*
Y040118D01*
X01374D02*
X013937D01*
Y040315D01*
X02998Y010945D02*
Y011142D01*
Y010945D02*
X030177D01*
X02998Y010748D02*
Y010945D01*
X029783D02*
X02998D01*
X026004D02*
Y011142D01*
Y010945D02*
X026201D01*
X026004Y010748D02*
Y010945D01*
X025807D02*
X026004D01*
X033957D02*
Y011142D01*
Y010945D02*
X034154D01*
X033957Y010748D02*
Y010945D01*
X03376D02*
X033957D01*
X037933D02*
Y011142D01*
Y010945D02*
X03813D01*
X037933Y010748D02*
Y010945D01*
X037736D02*
X037933D01*
X025947Y020492D02*
X02638D01*
X025947Y020074D02*
Y020507D01*
X025516Y020492D02*
X025949D01*
Y020925D01*
X021732Y011083D02*
Y01128D01*
Y010886D02*
Y011083D01*
X021929D01*
X021528Y011089D02*
X021725D01*
X041929Y011102D02*
Y011299D01*
Y010906D02*
Y011102D01*
X041732D02*
X041929D01*
X041936Y011108D02*
X042133D01*
X013937Y011378D02*
X014134D01*
X013937Y011181D02*
Y011378D01*
X01374D02*
X013937D01*
Y011575D01*
X029409Y03748D02*
X029646D01*
X029528Y037362D02*
Y037598D01*
X037933Y010945D02*
Y011142D01*
Y010748D02*
Y010945D01*
X03813D01*
X037729Y010951D02*
X037926D01*
X033957Y010945D02*
Y011142D01*
Y010748D02*
Y010945D01*
X034154D01*
X033753Y010951D02*
X03395D01*
X02998Y010945D02*
Y011142D01*
Y010748D02*
Y010945D01*
X030177D01*
X029777Y010951D02*
X029973D01*
X042953Y022126D02*
X04311D01*
X043032Y022008D02*
Y022205D01*
X026004Y010945D02*
Y011142D01*
Y010748D02*
Y010945D01*
X026201D01*
X0258Y010951D02*
X025997D01*
X047579Y015591D02*
X048051D01*
X047579D02*
Y016063D01*
X047106Y015591D02*
X047579D01*
Y015118D02*
Y015591D01*
X041024Y017087D02*
Y01748D01*
X04063D02*
X041024D01*
Y017874D01*
Y01748D02*
X041417D01*
X036535Y015669D02*
Y015827D01*
X036417Y015748D02*
X036614D01*
X045433Y011378D02*
Y011575D01*
X045236Y011378D02*
X045433D01*
Y011181D02*
Y011378D01*
X04563D01*
X010886Y025157D02*
Y025354D01*
X010689D02*
X010886D01*
Y025551D01*
Y025354D02*
X011083D01*
X017461Y010945D02*
Y011142D01*
Y010748D02*
Y010945D01*
X017657D01*
X017257Y010951D02*
X017454D01*
X048248Y020138D02*
X048445D01*
X048642D01*
X048445D02*
Y020335D01*
X048439Y019934D02*
Y020131D01*
X033524Y040571D02*
X03372D01*
Y040768D01*
Y040571D02*
X033917D01*
X03372Y040374D02*
Y040571D01*
X029449Y034173D02*
X029843D01*
X029449D02*
Y034567D01*
X029055Y034173D02*
X029449D01*
Y03378D02*
Y034173D01*
X027362Y032677D02*
Y034331D01*
X031535Y032677D02*
Y034331D01*
X027362Y032677D02*
X031535D01*
Y034331D02*
Y035669D01*
X027362Y034331D02*
Y035669D01*
X031535D01*
X037672Y033469D02*
X037756Y033386D01*
X037672Y033302D02*
X037756Y033386D01*
X037839Y033302D01*
X037756Y033386D02*
X037839Y033469D01*
X033413Y03748D02*
X033571D01*
X033492Y037362D02*
Y037559D01*
X048425Y037205D02*
Y037402D01*
Y037205D02*
X048622D01*
X048425Y037008D02*
Y037205D01*
X048228D02*
X048425D01*
X015984Y018563D02*
Y01876D01*
X015787Y018563D02*
X015984D01*
Y018366D02*
Y018563D01*
X016181D01*
X010886Y018287D02*
X011083D01*
X010689D02*
X010886D01*
Y018091D02*
Y018287D01*
X010892Y018294D02*
Y018491D01*
X023504Y024173D02*
Y024331D01*
Y024173D02*
X023661D01*
X023504Y024016D02*
Y024173D01*
X023346D02*
X023504D01*
X030039Y040386D02*
Y040583D01*
Y040779D01*
X029842Y040583D02*
X030039D01*
X030046Y040577D02*
X030243D01*
X036535Y018291D02*
Y018528D01*
X036417Y018409D02*
X036654D01*
X021043Y03372D02*
X02128D01*
X021043Y033484D02*
Y03372D01*
Y033957D01*
X020807Y03372D02*
X021043D01*
X017049Y038346D02*
X017246D01*
Y038543D01*
Y038346D02*
X017443D01*
X017246Y03815D02*
Y038346D01*
X01685Y028484D02*
X017244D01*
Y028091D02*
Y028484D01*
X017638D01*
X017244D02*
Y028878D01*
X016811Y035886D02*
X017047D01*
Y03565D02*
Y035886D01*
X017042Y035881D02*
X017278D01*
X017047D02*
Y036117D01*
X021142Y028484D02*
X021378D01*
Y028248D02*
Y028484D01*
X021373Y028479D02*
X021609D01*
X021378D02*
Y028715D01*
X020911Y038346D02*
X021108D01*
Y038543D01*
Y038346D02*
X021305D01*
X021108Y03815D02*
Y038346D01*
X010886Y014409D02*
Y014606D01*
X010689D02*
X010886D01*
Y014803D01*
Y014606D02*
X011083D01*
X012618Y030276D02*
X012894D01*
X012618Y03D02*
Y030276D01*
X012343D02*
X012618D01*
Y030551D01*
X015984Y020807D02*
X016181D01*
X015984Y02061D02*
Y020807D01*
X015787D02*
X015984D01*
Y021004D01*
X020035Y015204D02*
Y01544D01*
Y014967D02*
Y015204D01*
X020271D01*
X019798D02*
X020035D01*
X015984Y016555D02*
Y016752D01*
X015787Y016555D02*
X015984D01*
Y016358D02*
Y016555D01*
X016181D01*
X012303Y028051D02*
X0125D01*
Y028248D01*
Y028051D02*
X012697D01*
X0125Y027854D02*
Y028051D01*
X013827Y03748D02*
X013984D01*
X013906Y037362D02*
Y037559D01*
X013839Y035571D02*
X013996D01*
X013917Y035492D02*
Y035689D01*
D11*
X033622Y033858D02*
X033858D01*
X033622D02*
Y034094D01*
X033386Y033858D02*
X033622D01*
Y033622D02*
Y033858D01*
D12*
X040497Y023252D02*
G03*
X040497Y023252I-000748J0D01*
G01*
X036255Y027494D02*
G03*
X036255Y027494I-000748J0D01*
G01*
X042265Y033505D02*
G03*
X042265Y033505I-000748J0D01*
G01*
X046508Y029262D02*
G03*
X046508Y029262I-000748J0D01*
G01*
D13*
X046467Y028555D02*
G03*
X046467Y029969I-000707J000707D01*
G01*
X039042Y022544D02*
G03*
X040456Y022544I000707J000707D01*
G01*
X034799Y028201D02*
G03*
X034799Y026787I000707J-000707D01*
G01*
X042224Y034212D02*
G03*
X04081Y034212I-000707J-000707D01*
G01*
X040456Y022544D02*
X043461Y02555D01*
X046467Y028555D01*
X034799Y028201D02*
X037805Y031206D01*
X04081Y034212D01*
X034799Y026787D02*
X036921Y024666D01*
X039042Y022544D01*
X042224Y034212D02*
X044345Y03209D01*
X046467Y029969D01*
X040633Y028378D02*
X04119Y027821D01*
X040633Y028378D02*
X04119Y028935D01*
X040076D02*
X040633Y028378D01*
X040076Y027821D02*
X040633Y028378D01*
D14*
X031122Y035197D02*
G03*
X031122Y035197I-000059J0D01*
G01*
D16*
X033344Y028542D02*
Y02862D01*
X033268Y028622D02*
X033346D01*
Y028701D01*
Y028622D02*
X033425D01*
X04Y017205D02*
X040236D01*
X040118Y017087D02*
Y017323D01*
X03252Y020565D02*
Y020801D01*
X032402Y020683D02*
X032638D01*
X023091Y018132D02*
X023327D01*
X023209Y018014D02*
Y01825D01*
X038268Y033504D02*
Y033583D01*
X038346D01*
X038268D02*
Y033661D01*
X038189Y033583D02*
X038268D01*
X046079Y023579D02*
Y026591D01*
Y023579D02*
X049091D01*
Y026591D01*
X046079D02*
X049091D01*
X045079Y022244D02*
X045315D01*
X045197Y022126D02*
Y022362D01*
X041297Y031376D02*
X04138Y031459D01*
X041297D02*
X04138Y031376D01*
X042124Y030549D02*
X042207Y030632D01*
X042124D02*
X042207Y030549D01*
X043465Y034587D02*
Y034705D01*
X043406Y034646D02*
X043524D01*
X042832Y02984D02*
X042916Y029924D01*
X042832D02*
X042916Y02984D01*
X043659Y029013D02*
X043743Y029097D01*
X043659D02*
X043743Y029013D01*
X044331Y034587D02*
Y034705D01*
X044272Y034646D02*
X04439D01*
X029882Y028543D02*
Y02878D01*
X029764Y028661D02*
X03D01*
X031122Y028543D02*
Y02878D01*
X031004Y028661D02*
X03124D01*
X039391Y034982D02*
X039558Y035149D01*
X039391D02*
X039558Y034982D01*
X026043Y023799D02*
X02628D01*
X026161Y023681D02*
Y023917D01*
X026063Y025039D02*
X026299D01*
X026181Y024921D02*
Y025157D01*
X026083Y026339D02*
X026319D01*
X026201Y02622D02*
Y026457D01*
X026063Y0275D02*
X026299D01*
X026181Y027382D02*
Y027618D01*
X026164Y022344D02*
Y022423D01*
X026161Y022343D02*
X02624D01*
X026161Y022264D02*
Y022343D01*
X026083D02*
X026161D01*
X027913Y028543D02*
Y028858D01*
X027756Y028701D02*
X028071D01*
X03622Y037087D02*
X036457D01*
X036339Y036969D02*
Y037205D01*
X048425Y034843D02*
Y035157D01*
X048268Y035D02*
X048583D01*
X039213Y037087D02*
X039449D01*
X039331Y036969D02*
Y037205D01*
X046693Y034882D02*
Y035118D01*
X046575Y035D02*
X046811D01*
X038346Y036929D02*
Y037244D01*
X038189Y037087D02*
X038504D01*
X037165D02*
X03748D01*
X037323Y036929D02*
Y037244D01*
X045157Y024803D02*
Y025039D01*
X045039Y024921D02*
X045276D01*
X047992Y032165D02*
Y032362D01*
Y032165D02*
X048189D01*
X047992Y031969D02*
Y032165D01*
X047795D02*
X047992D01*
X017697Y023957D02*
X017933D01*
Y024193D01*
Y023957D02*
X018169D01*
X017933Y02372D02*
Y023957D01*
X029067Y016457D02*
X029303D01*
X029185Y016339D02*
Y016575D01*
X023091Y016632D02*
X023327D01*
X023209Y016514D02*
Y01675D01*
X01122Y03689D02*
X011535D01*
X011378Y036732D02*
Y037047D01*
X011378Y034469D02*
Y034587D01*
X011319Y034528D02*
X011437D01*
X036654Y033012D02*
Y03313D01*
X036594Y033071D02*
X036713D01*
X036654Y033957D02*
Y034075D01*
X036594Y034016D02*
X036713D01*
X011378Y03565D02*
Y035768D01*
X011319Y035709D02*
X011437D01*
X029409Y034014D02*
Y034133D01*
X02935Y034074D02*
X029469D01*
X04252Y017146D02*
Y017264D01*
X042461Y017205D02*
X042579D01*
X025217Y036654D02*
X025335D01*
X025276Y036594D02*
Y036713D01*
X036654Y034902D02*
Y03502D01*
X036594Y034961D02*
X036713D01*
X013937Y040059D02*
Y040177D01*
X013878Y040118D02*
X013996D01*
X013937Y011319D02*
Y011437D01*
X013878Y011378D02*
X013996D01*
X011378Y036831D02*
Y036949D01*
X011319Y03689D02*
X011437D01*
X045433Y011319D02*
Y011437D01*
X045374Y011378D02*
X045492D01*
X036614Y032146D02*
Y032264D01*
X036555Y032205D02*
X036673D01*
X02124Y018858D02*
X021358D01*
X021299Y018799D02*
Y018917D01*
X02124Y020492D02*
X021358D01*
X021299Y020433D02*
Y020551D01*
X018524Y020512D02*
X018642D01*
X018583Y020453D02*
Y020571D01*
X033681Y020669D02*
X033996D01*
X033839Y020512D02*
Y020827D01*
X032362Y020689D02*
X032677D01*
X03252Y020531D02*
Y020846D01*
X011378Y037933D02*
Y038248D01*
X01122Y038091D02*
X011535D01*
X036752Y022756D02*
Y023071D01*
X036594Y022913D02*
X036909D01*
X036909Y025433D02*
Y025748D01*
X036752Y025591D02*
X037067D01*
X018524Y018858D02*
X018642D01*
X018583Y018799D02*
Y018917D01*
X036732Y023917D02*
Y024035D01*
X036673Y023976D02*
X036791D01*
X026417Y02498D02*
Y025098D01*
X026358Y025039D02*
X026476D01*
X026437Y026161D02*
Y02628D01*
X026378Y02622D02*
X026496D01*
X026398Y02374D02*
Y023858D01*
X026339Y023799D02*
X026457D01*
X045433Y040059D02*
Y040177D01*
X045374Y040118D02*
X045492D01*
X032618Y024232D02*
X032736D01*
X032677Y024173D02*
Y024291D01*
X029764Y025315D02*
Y025433D01*
X029705Y025374D02*
X029823D01*
X029764Y026181D02*
Y026299D01*
X029705Y02624D02*
X029823D01*
X029764Y024488D02*
Y024606D01*
X029705Y024547D02*
X029823D01*
X031555Y023602D02*
Y02372D01*
X031496Y023661D02*
X031614D01*
X029764Y023622D02*
Y02374D01*
X029705Y023681D02*
X029823D01*
X031555Y025315D02*
Y025433D01*
X031496Y025374D02*
X031614D01*
X031555Y024488D02*
Y024606D01*
X031496Y024547D02*
X031614D01*
X031575Y026181D02*
Y026299D01*
X031516Y02624D02*
X031634D01*
X032618Y025669D02*
X032736D01*
X032677Y02561D02*
Y025728D01*
X046079Y017102D02*
X049091D01*
Y014091D02*
Y017102D01*
X046079Y014091D02*
X049091D01*
X046079D02*
Y017102D01*
X034882Y02311D02*
Y023189D01*
X034803Y02311D02*
X034882D01*
Y023031D02*
Y02311D01*
X034961D01*
X045118Y018819D02*
X045433D01*
X045276Y018661D02*
Y018976D01*
X029185Y01815D02*
Y018386D01*
X029067Y018268D02*
X029303D01*
X029185Y017244D02*
Y01748D01*
X029067Y017362D02*
X029303D01*
X027047Y015D02*
X027362D01*
X027205Y014843D02*
Y015157D01*
X025906Y015D02*
X02622D01*
X026063Y014843D02*
Y015157D01*
X024764Y015D02*
X025079D01*
X024921Y014843D02*
Y015157D01*
X03619Y033798D02*
X036357Y033631D01*
X03619D02*
X036357Y033798D01*
X036019Y031855D02*
X036186Y031688D01*
X036019D02*
X036186Y031855D01*
X037476Y035044D02*
X037643Y034877D01*
X037476D02*
X037643Y035044D01*
X03128Y020709D02*
X031516D01*
X031398Y020591D02*
Y020827D01*
X030138Y020709D02*
X030374D01*
X030256Y020591D02*
Y020827D01*
X034799Y020687D02*
X035114D01*
X034957Y02053D02*
Y020844D01*
X03372Y020669D02*
X033957D01*
X033839Y020551D02*
Y020787D01*
X011378Y037913D02*
Y038228D01*
X01122Y038071D02*
X011535D01*
X01565Y031575D02*
Y03189D01*
X015492Y031732D02*
X015807D01*
X01565Y033307D02*
Y033622D01*
X015492Y033465D02*
X015807D01*
X025335Y036609D02*
Y037003D01*
X025138Y036806D02*
X025532D01*
X024803Y033031D02*
X025197D01*
X025Y032835D02*
Y033228D01*
X02002Y020295D02*
Y020374D01*
X020098D01*
X02002D02*
Y020453D01*
X019941Y020374D02*
X02002D01*
X020039Y017343D02*
X020118D01*
X020039D02*
Y017421D01*
X019961Y017343D02*
X020039D01*
X020037Y017262D02*
Y017341D01*
X02Y018681D02*
Y018917D01*
X019882Y018799D02*
X020118D01*
X011378Y03437D02*
Y034685D01*
X01122Y034528D02*
X011535D01*
X011378Y035551D02*
Y035866D01*
X01122Y035709D02*
X011535D01*
M02*
