G04*
G04 #@! TF.GenerationSoftware,Altium Limited,Altium Designer,21.2.2 (38)*
G04*
G04 Layer_Color=65535*
%FSTAX24Y24*%
%MOIN*%
G70*
G04*
G04 #@! TF.SameCoordinates,E8B1D116-6B3C-4CC1-BC5D-0A1EC4A5AECB*
G04*
G04*
G04 #@! TF.FilePolarity,Positive*
G04*
G01*
G75*
%ADD10C,0.0079*%
%ADD11C,0.0100*%
%ADD12C,0.0157*%
%ADD13C,0.0197*%
%ADD14C,0.0276*%
%ADD15C,0.0315*%
%ADD16C,0.0039*%
%ADD17C,0.0060*%
%ADD18C,0.0050*%
%ADD19C,0.0070*%
%ADD20C,0.0118*%
G36*
X016732Y036437D02*
X015984D01*
X01622Y036791D01*
X01626Y036791D01*
X016575Y037028D01*
X016732Y037067D01*
Y036437D01*
D02*
G37*
G36*
X01752Y036988D02*
X017638D01*
X017835Y036791D01*
X017874D01*
X018071Y036594D01*
Y036476D01*
X01811Y036437D01*
X017362D01*
Y037067D01*
X017441D01*
X01752Y036988D01*
D02*
G37*
G36*
X025715Y029512D02*
X025215D01*
X025465Y029762D01*
X025715Y029512D01*
D02*
G37*
G36*
X021063Y029035D02*
X020315D01*
X020551Y02939D01*
X020591Y02939D01*
X020906Y029626D01*
X021063Y029665D01*
Y029035D01*
D02*
G37*
G36*
X02185Y029587D02*
X021969D01*
X022165Y02939D01*
X022205D01*
X022402Y029193D01*
Y029075D01*
X022441Y029035D01*
X021693D01*
Y029665D01*
X021772D01*
X02185Y029587D01*
D02*
G37*
G36*
X028154Y019705D02*
X02776D01*
X027957Y019902D01*
X028154Y019705D01*
D02*
G37*
G36*
X030607Y019274D02*
X030457D01*
Y019374D01*
X030607D01*
Y019274D01*
D02*
G37*
G36*
X035106Y014504D02*
X034957D01*
Y014604D01*
X035106D01*
Y014504D01*
D02*
G37*
G36*
X018797Y020364D02*
X018574D01*
X018573D01*
X01857D01*
X018565Y020364D01*
X01856Y020363D01*
X018554Y020362D01*
X018548Y02036D01*
X018542Y020357D01*
X018537Y020354D01*
X018537Y020353D01*
X018536Y020352D01*
X018534Y02035D01*
X018532Y020346D01*
X01853Y020341D01*
X018528Y020335D01*
X018527Y020329D01*
X018526Y020321D01*
Y020317D01*
X018527Y020314D01*
X018527Y020309D01*
X018528Y020304D01*
X01853Y020299D01*
X018532Y020294D01*
X018534Y020289D01*
X018535Y020288D01*
X018536Y020287D01*
X018538Y020285D01*
X01854Y020282D01*
X018546Y020278D01*
X018549Y020275D01*
X018553Y020274D01*
X018554D01*
X018555Y020274D01*
X018558Y020273D01*
X018562Y020273D01*
X018567D01*
X018574Y020272D01*
X018583Y020272D01*
X018593D01*
X018797D01*
Y020188D01*
X018567D01*
X018567D01*
X018564D01*
X018561D01*
X018556Y020189D01*
X018551Y020189D01*
X018545Y02019D01*
X018538Y020191D01*
X018531Y020193D01*
X018524Y020195D01*
X018515Y020197D01*
X018508Y020201D01*
X0185Y020204D01*
X018492Y020209D01*
X018485Y020214D01*
X018479Y02022D01*
X018473Y020227D01*
X018473Y020227D01*
X018472Y020228D01*
X018471Y020231D01*
X018469Y020234D01*
X018467Y020238D01*
X018465Y020242D01*
X018462Y020247D01*
X018459Y020254D01*
X018456Y020261D01*
X018454Y020268D01*
X018451Y020277D01*
X018449Y020286D01*
X018448Y020296D01*
X018446Y020305D01*
X018445Y020316D01*
X018445Y020328D01*
Y020334D01*
X018445Y020339D01*
X018446Y020344D01*
X018447Y020351D01*
X018447Y020358D01*
X018448Y020365D01*
X018451Y020382D01*
X018456Y0204D01*
X01846Y020409D01*
X018463Y020417D01*
X018467Y020425D01*
X018472Y020433D01*
X018473Y020434D01*
X018473Y020435D01*
X018475Y020437D01*
X018478Y020439D01*
X01848Y020442D01*
X018484Y020446D01*
X018489Y020449D01*
X018493Y020453D01*
X018499Y020457D01*
X018506Y02046D01*
X018513Y020463D01*
X018521Y020466D01*
X018531Y020469D01*
X01854Y020471D01*
X01855Y020472D01*
X018562Y020472D01*
X018797D01*
Y020364D01*
D02*
G37*
G36*
Y020031D02*
X01867Y01995D01*
X018669Y019949D01*
X018668Y019949D01*
X018666Y019948D01*
X018663Y019946D01*
X01866Y019944D01*
X018656Y019942D01*
X018647Y019936D01*
X018637Y019931D01*
X018626Y019925D01*
X018614Y019919D01*
X018603Y019914D01*
X018604D01*
X018605Y019914D01*
X018608D01*
X018611Y019915D01*
X018615Y019916D01*
X01862Y019916D01*
X018625Y019917D01*
X018631Y019918D01*
X018645Y019919D01*
X01866Y01992D01*
X018676Y019921D01*
X018694Y019922D01*
X018797D01*
Y019835D01*
X01845D01*
Y019922D01*
X018603Y020017D01*
X018604D01*
X018605Y020018D01*
X018606Y020019D01*
X018609Y02002D01*
X018611Y020022D01*
X018615Y020024D01*
X018623Y020029D01*
X018634Y020034D01*
X018646Y02004D01*
X018659Y020047D01*
X018675Y020054D01*
X018674D01*
X018673Y020053D01*
X018671Y020053D01*
X018669Y020052D01*
X018663Y020051D01*
X018655Y020049D01*
X018646Y020048D01*
X018637Y020046D01*
X018627Y020045D01*
X018618Y020045D01*
X01845D01*
Y020131D01*
X018797D01*
Y020031D01*
D02*
G37*
G36*
Y019636D02*
X018613Y019586D01*
X018797Y019538D01*
Y019398D01*
X01845D01*
Y019497D01*
X018698D01*
X01845Y019561D01*
Y019629D01*
X018698Y019695D01*
X01845D01*
Y019775D01*
X018797D01*
Y019636D01*
D02*
G37*
G36*
Y019077D02*
X018717D01*
Y019234D01*
X018667D01*
Y019107D01*
X01859D01*
Y019234D01*
X018533D01*
Y019077D01*
X01845D01*
Y019338D01*
X018797D01*
Y019077D01*
D02*
G37*
G36*
Y018928D02*
X01845D01*
Y019035D01*
X018797D01*
Y018928D01*
D02*
G37*
G36*
X018901Y016917D02*
X018307D01*
Y01878D01*
X018901D01*
Y016917D01*
D02*
G37*
%LPC*%
G36*
X018777Y018661D02*
X018431D01*
Y018474D01*
Y018555D01*
X018563D01*
Y018522D01*
X018431Y018471D01*
Y018353D01*
X018581Y018416D01*
X018585Y018409D01*
X018588Y018403D01*
X018592Y018397D01*
X018595Y018392D01*
X018602Y018384D01*
X018608Y018377D01*
X018614Y018373D01*
X018618Y018369D01*
X018621Y018367D01*
X018622Y018367D01*
X018631Y018362D01*
X01864Y018359D01*
X018649Y018357D01*
X018657Y018356D01*
X018664Y018355D01*
X01867Y018354D01*
X018672D01*
X018674D01*
X018674D01*
X018675D01*
X018683Y018355D01*
X018691Y018356D01*
X018699Y018357D01*
X018706Y018359D01*
X018718Y018364D01*
X018729Y01837D01*
X018734Y018374D01*
X018738Y018377D01*
X018741Y01838D01*
X018744Y018382D01*
X018746Y018384D01*
X018748Y018386D01*
X018748Y018387D01*
X018749Y018387D01*
X018754Y018394D01*
X018758Y018401D01*
X018762Y018408D01*
X018765Y018416D01*
X01877Y018432D01*
X018774Y018446D01*
X018775Y018453D01*
X018776Y01846D01*
X018776Y018466D01*
X018777Y018471D01*
X018777Y018475D01*
Y018364D01*
Y018661D01*
D02*
G37*
G36*
X018783Y018318D02*
X018425D01*
X018603D01*
X018588Y018317D01*
X018574Y018316D01*
X018561Y018314D01*
X018549Y018311D01*
X018537Y018307D01*
X018526Y018303D01*
X018516Y018299D01*
X018508Y018295D01*
X0185Y018291D01*
X018493Y018287D01*
X018487Y018282D01*
X018482Y018279D01*
X018478Y018276D01*
X018475Y018274D01*
X018474Y018273D01*
X018473Y018272D01*
X018465Y018263D01*
X018457Y018254D01*
X018451Y018244D01*
X018445Y018234D01*
X018441Y018224D01*
X018437Y018214D01*
X018434Y018204D01*
X018431Y018195D01*
X018429Y018187D01*
X018428Y018179D01*
X018427Y018172D01*
X018426Y018165D01*
Y01816D01*
X018425Y018156D01*
Y018153D01*
X018426Y01814D01*
X018427Y018127D01*
X01843Y018115D01*
X018433Y018104D01*
X018437Y018094D01*
X018441Y018084D01*
X018445Y018074D01*
X01845Y018067D01*
X018455Y018059D01*
X018459Y018053D01*
X018463Y018048D01*
X018467Y018043D01*
X018471Y01804D01*
X018473Y018037D01*
X018474Y018035D01*
X018475Y018035D01*
X018485Y018026D01*
X018495Y018019D01*
X018505Y018013D01*
X018516Y018008D01*
X018527Y018003D01*
X018539Y018D01*
X018549Y017996D01*
X01856Y017994D01*
X018569Y017992D01*
X018578Y01799D01*
X018586Y01799D01*
X018593Y017989D01*
X018599D01*
X018603Y017988D01*
X018783D01*
X018607D01*
X018622Y017989D01*
X018635Y01799D01*
X018649Y017993D01*
X018661Y017995D01*
X018672Y017999D01*
X018682Y018003D01*
X018692Y018007D01*
X018701Y018011D01*
X018709Y018016D01*
X018715Y018019D01*
X018721Y018023D01*
X018726Y018027D01*
X01873Y01803D01*
X018733Y018032D01*
X018734Y018034D01*
X018735Y018034D01*
X018744Y018043D01*
X018751Y018052D01*
X018757Y018062D01*
X018763Y018072D01*
X018767Y018082D01*
X018771Y018091D01*
X018774Y018101D01*
X018777Y01811D01*
X018779Y018119D01*
X01878Y018127D01*
X018781Y018134D01*
X018782Y01814D01*
Y018145D01*
X018783Y018149D01*
Y018152D01*
X018782Y018166D01*
X018781Y01818D01*
X018778Y018192D01*
X018775Y018204D01*
X018771Y018215D01*
X018767Y018225D01*
X018762Y018234D01*
X018758Y018243D01*
X018753Y01825D01*
X018748Y018256D01*
X018744Y018262D01*
X01874Y018266D01*
X018737Y01827D01*
X018734Y018272D01*
X018733Y018274D01*
X018732Y018274D01*
X018722Y018282D01*
X018712Y018289D01*
X018701Y018295D01*
X018691Y018299D01*
X01868Y018304D01*
X018669Y018307D01*
X018658Y01831D01*
X018649Y018313D01*
X018639Y018314D01*
X01863Y018316D01*
X018623Y018317D01*
X018616Y018317D01*
X018611D01*
X018606Y018318D01*
X018783D01*
D02*
G37*
G36*
X018777Y017943D02*
X018431D01*
Y017779D01*
X018431Y017764D01*
X018432Y017752D01*
X018433Y01774D01*
X018436Y01773D01*
X018438Y017721D01*
X01844Y017712D01*
X018443Y017705D01*
X018446Y017699D01*
X018449Y017693D01*
X018451Y017688D01*
X018454Y017685D01*
X018456Y017682D01*
X018458Y01768D01*
X01846Y017678D01*
X01846Y017677D01*
X018461D01*
X018467Y017673D01*
X018473Y017669D01*
X018485Y017663D01*
X018496Y017659D01*
X018507Y017656D01*
X018516Y017654D01*
X01852Y017653D01*
X018523D01*
X018526Y017653D01*
X018777D01*
X01853D01*
X018542Y017653D01*
X018552Y017656D01*
X018562Y017659D01*
X01857Y017663D01*
X018578Y017669D01*
X018584Y017674D01*
X01859Y01768D01*
X018594Y017687D01*
X018599Y017693D01*
X018602Y017699D01*
X018605Y017705D01*
X018608Y01771D01*
X018609Y017715D01*
X01861Y017718D01*
X018611Y01772D01*
Y017721D01*
X018614Y01771D01*
X018618Y017702D01*
X018623Y017694D01*
X018628Y017688D01*
X018632Y017683D01*
X018636Y01768D01*
X018638Y017678D01*
X018639Y017677D01*
X018647Y017672D01*
X018656Y017668D01*
X018663Y017666D01*
X018671Y017664D01*
X018677Y017663D01*
X018682Y017662D01*
X018685D01*
X018686D01*
X018686D01*
X018693D01*
X018699Y017663D01*
X018711Y017666D01*
X018722Y01767D01*
X018731Y017675D01*
X018739Y01768D01*
X018745Y017684D01*
X018747Y017686D01*
X018748Y017687D01*
X018749Y017687D01*
X01875Y017688D01*
X018754Y017693D01*
X018759Y017698D01*
X018763Y017705D01*
X018766Y017711D01*
X018771Y017724D01*
X018774Y017737D01*
X018776Y017749D01*
X018776Y017754D01*
X018777Y017759D01*
X018777Y017762D01*
Y017943D01*
D02*
G37*
G36*
X018783Y017625D02*
X018425D01*
Y017295D01*
D01*
Y01746D01*
X018426Y017447D01*
X018427Y017433D01*
X01843Y017422D01*
X018433Y017411D01*
X018437Y0174D01*
X018441Y01739D01*
X018445Y017381D01*
X01845Y017373D01*
X018455Y017366D01*
X018459Y01736D01*
X018463Y017354D01*
X018467Y017349D01*
X018471Y017346D01*
X018473Y017343D01*
X018474Y017342D01*
X018475Y017341D01*
X018485Y017333D01*
X018495Y017326D01*
X018505Y01732D01*
X018516Y017314D01*
X018527Y01731D01*
X018539Y017306D01*
X018549Y017303D01*
X01856Y017301D01*
X018569Y017299D01*
X018578Y017297D01*
X018586Y017296D01*
X018593Y017295D01*
X018599D01*
X018603Y017295D01*
X018783D01*
X018607D01*
X018622Y017295D01*
X018635Y017297D01*
X018649Y017299D01*
X018661Y017302D01*
X018672Y017305D01*
X018682Y01731D01*
X018692Y017313D01*
X018701Y017318D01*
X018709Y017322D01*
X018715Y017326D01*
X018721Y01733D01*
X018726Y017334D01*
X01873Y017336D01*
X018733Y017338D01*
X018734Y01734D01*
X018735Y017341D01*
X018744Y017349D01*
X018751Y017359D01*
X018757Y017368D01*
X018763Y017378D01*
X018767Y017388D01*
X018771Y017398D01*
X018774Y017407D01*
X018777Y017417D01*
X018779Y017425D01*
X01878Y017433D01*
X018781Y017441D01*
X018782Y017447D01*
Y017451D01*
X018783Y017455D01*
Y017459D01*
D01*
Y01746D01*
Y017459D01*
X018782Y017473D01*
X018781Y017486D01*
X018778Y017499D01*
X018775Y01751D01*
X018771Y017521D01*
X018767Y017532D01*
X018762Y01754D01*
X018758Y017549D01*
X018753Y017556D01*
X018748Y017563D01*
X018744Y017568D01*
X01874Y017573D01*
X018737Y017577D01*
X018734Y017579D01*
X018733Y01758D01*
X018732Y017581D01*
X018722Y017589D01*
X018712Y017595D01*
X018701Y017601D01*
X018691Y017606D01*
X01868Y01761D01*
X018669Y017614D01*
X018658Y017617D01*
X018649Y017619D01*
X018639Y017621D01*
X01863Y017622D01*
X018623Y017623D01*
X018616Y017624D01*
X018611D01*
X018606Y017625D01*
X018783D01*
D02*
G37*
G36*
X018777Y01728D02*
X018431D01*
Y017035D01*
D01*
Y017107D01*
X018694D01*
Y017035D01*
X018777D01*
Y01728D01*
D02*
G37*
%LPD*%
G36*
X018704Y018506D02*
X018703Y018499D01*
X018702Y018493D01*
X0187Y018487D01*
X018698Y018482D01*
X018696Y018479D01*
X018693Y018475D01*
X01869Y018472D01*
X018687Y01847D01*
X018681Y018467D01*
X018675Y018465D01*
X018673Y018465D01*
X018671D01*
X01867D01*
X01867D01*
X018664Y018465D01*
X018659Y018467D01*
X018655Y018469D01*
X018651Y018471D01*
X018649Y018474D01*
X018647Y018475D01*
X018646Y018477D01*
X018645Y018477D01*
X018643Y018482D01*
X01864Y018487D01*
X018639Y018493D01*
X018638Y018498D01*
X018638Y018503D01*
X018637Y018506D01*
Y018555D01*
X018704D01*
Y018506D01*
D02*
G37*
G36*
X018618Y018203D02*
X018627Y018202D01*
X018635Y018201D01*
X018649Y018198D01*
X018661Y018195D01*
X01867Y018191D01*
X018679Y018187D01*
X018686Y018182D01*
X018691Y018177D01*
X018695Y018173D01*
X018699Y018168D01*
X018701Y018163D01*
X018703Y01816D01*
X018704Y018156D01*
X018704Y018154D01*
Y018151D01*
X018703Y018143D01*
X0187Y018136D01*
X018696Y018129D01*
X01869Y018124D01*
X018683Y018119D01*
X018675Y018115D01*
X018667Y018112D01*
X018659Y018109D01*
X01865Y018107D01*
X018642Y018106D01*
X018634Y018104D01*
X018627Y018103D01*
X018621D01*
X018617Y018103D01*
X018614D01*
X018613D01*
X018602D01*
X018592Y018103D01*
X018582Y018104D01*
X018573Y018104D01*
X018566Y018106D01*
X018558Y018107D01*
X018552Y018108D01*
X018547Y018109D01*
X018542Y01811D01*
X018538Y018111D01*
X018534Y018112D01*
X018532Y018113D01*
X01853Y018114D01*
X018528Y018114D01*
X018528Y018115D01*
X018527D01*
X018523Y018117D01*
X01852Y01812D01*
X018514Y018126D01*
X01851Y018132D01*
X018507Y018139D01*
X018505Y018144D01*
X018504Y018149D01*
X018504Y018153D01*
Y018154D01*
X018504Y018158D01*
X018505Y018162D01*
X018508Y01817D01*
X018513Y018177D01*
X018519Y018183D01*
X018526Y018187D01*
X018534Y018191D01*
X018543Y018195D01*
X018552Y018197D01*
X018561Y018199D01*
X01857Y018201D01*
X018578Y018202D01*
X018585Y018203D01*
X018592D01*
X018596Y018203D01*
X018599D01*
X0186D01*
X01861D01*
X018618Y018203D01*
D02*
G37*
G36*
X018703Y017798D02*
X018703Y017792D01*
X018702Y017786D01*
X0187Y017781D01*
X018699Y017777D01*
X018697Y017774D01*
X018694Y017771D01*
X018688Y017767D01*
X018683Y017764D01*
X018678Y017763D01*
X018675Y017762D01*
X018674D01*
X018674D01*
X01867Y017763D01*
X018666Y017763D01*
X01866Y017766D01*
X018657Y017768D01*
X018656Y017769D01*
X018655Y01777D01*
X018654Y01777D01*
X018651Y017774D01*
X018649Y017777D01*
X018647Y017782D01*
X018646Y017786D01*
X018645Y01779D01*
X018645Y017793D01*
Y017846D01*
X018703D01*
Y017798D01*
D02*
G37*
G36*
X018571Y017798D02*
X01857Y017789D01*
X018569Y017783D01*
X018568Y017777D01*
X018566Y017773D01*
X018564Y017769D01*
X018562Y017767D01*
X018561Y017766D01*
X018561Y017765D01*
X018557Y017762D01*
X018553Y01776D01*
X018549Y017758D01*
X018546Y017757D01*
X018543Y017757D01*
X018541Y017756D01*
X018539D01*
X018539D01*
X018534Y017757D01*
X018531Y017758D01*
X018527Y017759D01*
X018523Y017761D01*
X018521Y017763D01*
X018519Y017764D01*
X018517Y017765D01*
X018517Y017765D01*
X018514Y017769D01*
X018511Y017774D01*
X01851Y017779D01*
X018509Y017783D01*
X018508Y017787D01*
X018508Y017791D01*
Y017846D01*
X018571D01*
Y017798D01*
D02*
G37*
G36*
X018588Y017624D02*
X018574Y017622D01*
X018561Y01762D01*
X018549Y017617D01*
X018537Y017614D01*
X018526Y01761D01*
X018516Y017606D01*
X018508Y017602D01*
X0185Y017597D01*
X018493Y017593D01*
X018487Y017589D01*
X018482Y017586D01*
X018478Y017583D01*
X018475Y017581D01*
X018474Y017579D01*
X018473Y017579D01*
X018465Y01757D01*
X018457Y01756D01*
X018451Y017551D01*
X018445Y01754D01*
X018441Y017531D01*
X018437Y017521D01*
X018434Y017511D01*
X018431Y017502D01*
X018429Y017494D01*
X018428Y017485D01*
X018427Y017478D01*
X018426Y017472D01*
Y017467D01*
X018425Y017463D01*
Y017625D01*
X018603D01*
X018588Y017624D01*
D02*
G37*
G36*
X018618Y017509D02*
X018627Y017509D01*
X018635Y017508D01*
X018649Y017505D01*
X018661Y017502D01*
X01867Y017498D01*
X018679Y017494D01*
X018686Y017489D01*
X018691Y017484D01*
X018695Y017479D01*
X018699Y017474D01*
X018701Y01747D01*
X018703Y017466D01*
X018704Y017463D01*
X018704Y01746D01*
Y017458D01*
X018703Y017449D01*
X0187Y017442D01*
X018696Y017436D01*
X01869Y01743D01*
X018683Y017425D01*
X018675Y017421D01*
X018667Y017418D01*
X018659Y017415D01*
X01865Y017413D01*
X018642Y017412D01*
X018634Y017411D01*
X018627Y01741D01*
X018621D01*
X018617Y017409D01*
X018614D01*
X018613D01*
X018602D01*
X018592Y01741D01*
X018582Y017411D01*
X018573Y017411D01*
X018566Y017412D01*
X018558Y017413D01*
X018552Y017414D01*
X018547Y017415D01*
X018542Y017417D01*
X018538Y017418D01*
X018534Y017419D01*
X018532Y01742D01*
X01853Y01742D01*
X018528Y017421D01*
X018528Y017421D01*
X018527D01*
X018523Y017424D01*
X01852Y017426D01*
X018514Y017432D01*
X01851Y017439D01*
X018507Y017445D01*
X018505Y017451D01*
X018504Y017456D01*
X018504Y017459D01*
Y01746D01*
X018504Y017465D01*
X018505Y017469D01*
X018508Y017477D01*
X018513Y017483D01*
X018519Y017489D01*
X018526Y017494D01*
X018534Y017498D01*
X018543Y017501D01*
X018552Y017504D01*
X018561Y017506D01*
X01857Y017507D01*
X018578Y017508D01*
X018585Y017509D01*
X018592D01*
X018596Y01751D01*
X018599D01*
X0186D01*
X01861D01*
X018618Y017509D01*
D02*
G37*
G36*
X018694Y017208D02*
X018431D01*
Y01728D01*
X018694D01*
Y017208D01*
D02*
G37*
D10*
X026686Y016634D02*
G03*
X026686Y016634I-000111J0D01*
G01*
X032045Y03314D02*
G03*
X03211Y032561I000152J-000276D01*
G01*
X033241Y033651D02*
G03*
X032659Y033726I-000306J-000076D01*
G01*
X029009Y026417D02*
G03*
X029009Y026417I-000111J0D01*
G01*
X040473Y026073D02*
G03*
X040115Y026538I-00027J000162D01*
G01*
X039266Y026558D02*
G03*
X038903Y026103I-000088J-000303D01*
G01*
X044455Y029264D02*
G03*
X044278Y029088I-000088J-000088D01*
G01*
X022217Y013917D02*
G03*
X022642Y013484I000429J-000004D01*
G01*
X029256Y013484D02*
G03*
X029689Y013917I-0J000433D01*
G01*
X029689Y018839D02*
G03*
X029286Y019433I-00061J00002D01*
G01*
X022659Y0194D02*
G03*
X022217Y018915I00016J-000589D01*
G01*
X022663Y019402D02*
G03*
X022917Y019833I-000224J000422D01*
G01*
X02902Y019862D02*
G03*
X029334Y019413I000478J0D01*
G01*
X023311Y021004D02*
G03*
X022917Y02061I0J-000394D01*
G01*
X02902Y02061D02*
G03*
X028626Y021004I-000394J0D01*
G01*
X015177Y026673D02*
G03*
X015374Y026476I000197J0D01*
G01*
X019075D02*
G03*
X019311Y026713I0J000236D01*
G01*
Y030295D02*
G03*
X019114Y030492I-000197J0D01*
G01*
X015413D02*
G03*
X015177Y030256I0J-000236D01*
G01*
X018358Y028484D02*
G03*
X018358Y028484I-001114J0D01*
G01*
X017362Y034705D02*
G03*
X017362Y037067I-000315J001181D01*
G01*
X016732D02*
G03*
X016732Y034705I000315J-001181D01*
G01*
X021693Y027303D02*
G03*
X021693Y029665I-000315J001181D01*
G01*
X021063D02*
G03*
X021063Y027303I000315J-001181D01*
G01*
X01991Y0162D02*
G03*
X02016Y0162I000125J0D01*
G01*
X032254Y021224D02*
X032785D01*
X032254Y020142D02*
Y021224D01*
Y020142D02*
X032785D01*
Y021224D01*
X022667Y017866D02*
Y018398D01*
Y017866D02*
X02375D01*
Y018398D01*
X022667D02*
X02375D01*
X026024Y016358D02*
X02685D01*
Y018406D01*
X025197D02*
X02685D01*
X025197Y016358D02*
Y018406D01*
Y016358D02*
X026024D01*
X045738Y021978D02*
Y02251D01*
X044656D02*
X045738D01*
X044656Y021978D02*
Y02251D01*
Y021978D02*
X045738D01*
X0265Y02824D02*
Y02924D01*
X0235D02*
X0265D01*
X0235Y02824D02*
Y02924D01*
Y02824D02*
X0265D01*
X0255D02*
Y02924D01*
X0245Y02824D02*
Y02924D01*
X026499Y028244D02*
Y029244D01*
X023499D02*
X026499D01*
X023499Y028244D02*
Y029244D01*
Y028244D02*
X026499D01*
X025499D02*
Y029244D01*
X024499Y028244D02*
Y029244D01*
X029616Y029203D02*
X030148D01*
X029616Y02812D02*
Y029203D01*
Y02812D02*
X030148D01*
Y029203D01*
X030856D02*
X031388D01*
X030856Y02812D02*
Y029203D01*
Y02812D02*
X031388D01*
Y029203D01*
X031213Y032874D02*
X031331Y032992D01*
X031213Y032874D02*
X031331Y032756D01*
X031213Y032874D02*
X032787D01*
X031961Y03314D02*
X032045D01*
Y033066D02*
Y03314D01*
X032945Y033031D02*
Y034881D01*
X032659Y033726D02*
Y033809D01*
Y033726D02*
X032742D01*
X032827Y034763D02*
X032945Y034881D01*
X033063Y034763D01*
X038904Y03487D02*
X03928Y034495D01*
X040045Y03526D01*
X03967Y035636D02*
X040045Y03526D01*
X038904Y03487D02*
X03967Y035636D01*
X037536Y028393D02*
X037704Y028226D01*
X037536Y028393D02*
X039875Y030731D01*
X040042Y030564D01*
X04149Y029117D02*
X041657Y02895D01*
X039318Y026611D02*
X041657Y02895D01*
X039151Y026778D02*
X039318Y026611D01*
X02562Y023533D02*
Y024065D01*
Y023533D02*
X026703D01*
Y024065D01*
X02562D02*
X026703D01*
X028583Y023189D02*
Y026299D01*
Y023189D02*
X032126D01*
Y026732D01*
X028583D02*
X032126D01*
X028583Y026299D02*
Y026732D01*
X02564Y024774D02*
Y025305D01*
Y024774D02*
X026722D01*
Y025305D01*
X02564D02*
X026722D01*
X025659Y026073D02*
Y026604D01*
Y026073D02*
X026742D01*
Y026604D01*
X025659D02*
X026742D01*
X02564Y027234D02*
Y027766D01*
Y027234D02*
X026722D01*
Y027766D01*
X02564D02*
X026722D01*
X027244Y028315D02*
X028583D01*
X027244D02*
Y029087D01*
X028583Y028315D02*
Y029087D01*
X027244D02*
X028583D01*
X041133Y026985D02*
Y027152D01*
X040966D02*
X041133D01*
X040115Y026538D02*
X040174Y026479D01*
X040115Y026538D02*
X040174Y026597D01*
X039826Y025845D02*
X041133Y027152D01*
X039213Y026505D02*
X039266Y026558D01*
X039207Y026617D02*
X039266Y026558D01*
X038489Y026958D02*
X039603Y025845D01*
X038489Y026791D02*
Y026958D01*
X038656D01*
X044932Y033515D02*
X045405Y033042D01*
X044792Y03243D02*
X045405Y033042D01*
X044319Y032903D02*
X044792Y03243D01*
X043818Y034629D02*
X044291Y034156D01*
X043707Y034629D02*
X043818D01*
X043206Y034128D02*
X043707Y034629D01*
X043206Y034017D02*
Y034128D01*
Y034017D02*
X043679Y033543D01*
X044005Y034911D02*
X044478Y034437D01*
X044005Y034911D02*
X044617Y035523D01*
X04509Y03505D01*
X045118Y033797D02*
X045591Y033324D01*
X045703D01*
X046204Y033825D01*
Y033936D01*
X045731Y034409D02*
X046204Y033936D01*
X036073Y036545D02*
Y037628D01*
X036604D01*
Y036545D02*
Y037628D01*
X036073Y036545D02*
X036604D01*
X047756Y035386D02*
X049094D01*
Y034614D02*
Y035386D01*
X047756Y034614D02*
Y035386D01*
Y034614D02*
X049094D01*
X039065Y036545D02*
Y037628D01*
X039596D01*
Y036545D02*
Y037628D01*
X039065Y036545D02*
X039596D01*
X046152Y034734D02*
X047234D01*
X046152D02*
Y035266D01*
X047234D01*
Y034734D02*
Y035266D01*
X037961Y036417D02*
Y037756D01*
X038732D01*
X037961Y036417D02*
X038732D01*
Y037756D01*
X037709Y036417D02*
Y037756D01*
X036937Y036417D02*
X037709D01*
X036937Y037756D02*
X037709D01*
X036937Y036417D02*
Y037756D01*
X041984Y03245D02*
X044812Y029622D01*
X041065Y031532D02*
X041984Y03245D01*
X041065Y031532D02*
X043894Y028703D01*
X044278Y029088D01*
X044455Y029264D02*
X044812Y029622D01*
X044616Y024656D02*
X045699D01*
X044616D02*
Y025187D01*
X045699D01*
Y024656D02*
Y025187D01*
X047965Y027583D02*
X048965D01*
Y029583D01*
X047965D02*
X048965D01*
X047965Y027583D02*
Y029583D01*
Y028583D02*
X048965D01*
X042937Y027843D02*
X043104Y027676D01*
X04071Y025282D02*
X043104Y027676D01*
X040543Y025449D02*
X04071Y025282D01*
X042046Y028734D02*
X042213Y028567D01*
X039652Y02634D02*
X039819Y026173D01*
X039652Y02634D02*
X042046Y028734D01*
X040984Y036496D02*
X040984Y036102D01*
Y037953D02*
X045512D01*
X045512Y03752D02*
X045512Y037953D01*
X045512Y036102D02*
Y036496D01*
X040984Y036102D02*
X045512D01*
X040984Y03752D02*
X040984Y037953D01*
X02689Y038701D02*
X02752D01*
Y040079D01*
X023976Y038701D02*
X024606D01*
X023976D02*
Y040079D01*
Y041063D02*
Y04126D01*
X02752D01*
Y041063D02*
Y04126D01*
X029726Y016191D02*
Y016722D01*
X028644D02*
X029726D01*
X028644Y016191D02*
Y016722D01*
Y016191D02*
X029726D01*
X022667Y016366D02*
Y016898D01*
Y016366D02*
X02375D01*
Y016898D01*
X022667D02*
X02375D01*
X035925Y038878D02*
Y040059D01*
Y038878D02*
X036555D01*
X037657D02*
X038287D01*
Y040098D01*
Y041083D02*
Y041358D01*
X035925Y041083D02*
Y041358D01*
X038287D01*
X014764Y014862D02*
Y015217D01*
X017205D01*
X014764Y013839D02*
Y014154D01*
Y013839D02*
X017205D01*
Y014862D02*
Y015217D01*
Y013839D02*
Y014154D01*
X01689Y031299D02*
Y034016D01*
X018465D01*
Y031181D02*
Y034016D01*
X01689Y031181D02*
X018465D01*
X01689D02*
Y031299D01*
X016929Y031063D02*
X018425D01*
X012067Y036496D02*
Y037283D01*
X010689D02*
X012067D01*
X010689Y036496D02*
X012067D01*
X010689D02*
Y037283D01*
X043386Y010197D02*
Y010433D01*
X040433Y010197D02*
X043386D01*
X040433D02*
Y010453D01*
Y011457D02*
Y012756D01*
X041063D01*
X042756D02*
X043386D01*
Y011457D02*
Y012756D01*
X042224Y038701D02*
X042854D01*
Y040079D01*
X039311Y038701D02*
X039941D01*
X039311D02*
Y040079D01*
Y041063D02*
Y04126D01*
X042854D01*
Y041063D02*
Y04126D01*
X010098Y020787D02*
Y02315D01*
Y020787D02*
X010374D01*
X010098Y02315D02*
X010374D01*
X011358D02*
X012579D01*
Y02252D02*
Y02315D01*
Y020787D02*
Y021417D01*
X011398Y020787D02*
X012579D01*
X04437Y041102D02*
X046496D01*
X04437Y039764D02*
Y040472D01*
Y039134D02*
X046496D01*
Y039764D02*
Y040472D01*
X036035Y021142D02*
X037035D01*
Y020142D02*
Y022142D01*
X036035Y020142D02*
X037035D01*
X036035D02*
Y022142D01*
X037035D01*
X012874Y041102D02*
X015D01*
X012874Y039764D02*
Y040472D01*
Y039134D02*
X015D01*
Y039764D02*
Y040472D01*
X022642Y013484D02*
X029256D01*
X029689Y018839D02*
X029689Y013917D01*
X022217D02*
Y018915D01*
X022917Y019811D02*
Y02061D01*
X02902Y019862D02*
Y02061D01*
X023311Y021004D02*
X028626D01*
X019961Y012815D02*
X020591D01*
X019961Y011437D02*
Y012815D01*
X022874D02*
X023504D01*
Y011437D02*
Y012815D01*
Y010256D02*
Y010453D01*
X019961Y010256D02*
X023504D01*
X019961D02*
Y010453D01*
X012874Y012362D02*
X015D01*
X012874Y011024D02*
Y011732D01*
Y010394D02*
X015D01*
Y011024D02*
Y011732D01*
X029027Y036984D02*
Y037984D01*
X030027Y036984D02*
Y037984D01*
X028026Y036984D02*
X031026D01*
X028026D02*
Y037984D01*
X031026Y037984D01*
Y036984D02*
Y037984D01*
X029028Y03698D02*
Y03798D01*
X030028Y03698D02*
Y03798D01*
X028028Y03698D02*
X031028D01*
X028028D02*
Y03798D01*
X031028D01*
Y03698D02*
Y03798D01*
X039409Y011457D02*
Y012756D01*
X03878D02*
X039409D01*
X036457D02*
X037087D01*
X036457Y011457D02*
Y012756D01*
Y010197D02*
Y010453D01*
Y010197D02*
X039409D01*
Y010433D01*
X035433Y011457D02*
Y012756D01*
X034803D02*
X035433D01*
X03248D02*
X03311D01*
X03248Y011457D02*
Y012756D01*
Y010197D02*
Y010453D01*
Y010197D02*
X035433D01*
Y010433D01*
X031457Y011457D02*
Y012756D01*
X030827D02*
X031457D01*
X028504D02*
X029134D01*
X028504Y011457D02*
Y012756D01*
Y010197D02*
Y010453D01*
Y010197D02*
X031457D01*
Y010433D01*
X044032Y021626D02*
Y022626D01*
X042031D02*
X044032D01*
X042031Y021626D02*
Y022626D01*
Y021626D02*
X044032D01*
X043032Y021626D02*
Y022626D01*
X02748Y011457D02*
Y012756D01*
X02685D02*
X02748D01*
X024528D02*
X025157D01*
X024528Y011457D02*
Y012756D01*
Y010197D02*
Y010453D01*
Y010197D02*
X02748D01*
Y010433D01*
X042559Y019764D02*
X043898D01*
X042559Y018346D02*
Y019764D01*
Y018346D02*
X043898D01*
Y019764D01*
X044331Y014331D02*
Y02063D01*
X044055Y014331D02*
X044331D01*
X044173Y02063D02*
X044331D01*
X037677Y014331D02*
X037795D01*
X037677D02*
Y02063D01*
X037874D01*
X036035Y014748D02*
X037035D01*
Y016748D01*
X036035D02*
X037035D01*
X036035Y014748D02*
Y016748D01*
Y015748D02*
X037035D01*
X045661Y01815D02*
Y019488D01*
X04489Y01815D02*
X045661D01*
X04489Y019488D02*
X045661D01*
X04489Y01815D02*
Y019488D01*
X046496Y011024D02*
Y011732D01*
X04437Y010394D02*
X046496D01*
X04437Y011024D02*
Y011732D01*
Y012362D02*
X046496D01*
X010098Y024173D02*
Y026535D01*
Y024173D02*
X010374D01*
X010098Y026535D02*
X010374D01*
X011358D02*
X012579D01*
Y025906D02*
Y026535D01*
Y024173D02*
Y024803D01*
X011398Y024173D02*
X012579D01*
X018937Y011457D02*
Y012756D01*
X018307D02*
X018937D01*
X015984D02*
X016614D01*
X015984Y011457D02*
Y012756D01*
Y010197D02*
Y010453D01*
Y010197D02*
X018937D01*
Y010433D01*
X046634Y021614D02*
X047933D01*
X046634Y020984D02*
Y021614D01*
Y018661D02*
Y019291D01*
Y018661D02*
X047933D01*
X048937D02*
X049193D01*
Y021614D01*
X048957D02*
X049193D01*
X028644Y018002D02*
X029726D01*
X028644D02*
Y018533D01*
X029726D01*
Y018002D02*
Y018533D01*
X028644Y017096D02*
X029726D01*
X028644D02*
Y017628D01*
X029726D01*
Y017096D02*
Y017628D01*
X026811Y015689D02*
X027598D01*
X026811Y014311D02*
Y015689D01*
X027598Y014311D02*
Y015689D01*
X026811Y014311D02*
X027598D01*
X025669D02*
X026457D01*
Y015689D01*
X025669Y014311D02*
Y015689D01*
X026457D01*
X032539Y041358D02*
X034902D01*
X032539Y041083D02*
Y041358D01*
X034902Y041083D02*
Y041358D01*
Y038878D02*
Y040098D01*
X034272Y038878D02*
X034902D01*
X032539D02*
X033169D01*
X032539D02*
Y040059D01*
X024528Y014311D02*
X025315D01*
Y015689D01*
X024528Y014311D02*
Y015689D01*
X025315D01*
X036078Y033144D02*
X036844Y033909D01*
X035703Y033519D02*
X036078Y033144D01*
X035703Y033519D02*
X036468Y034285D01*
X036844Y033909D01*
X027362Y032677D02*
Y034331D01*
X031535Y032677D02*
Y034331D01*
X027362Y032677D02*
X031535D01*
Y034331D02*
Y035669D01*
X027362Y034331D02*
Y035669D01*
X031535D01*
X037255Y032272D02*
X037728Y032746D01*
X036642Y032885D02*
X037255Y032272D01*
X036642Y032885D02*
X037116Y033358D01*
X038368Y033386D02*
X038842Y033859D01*
Y03397D01*
X038341Y034472D02*
X038842Y03397D01*
X038229Y034472D02*
X038341D01*
X037756Y033998D02*
X038229Y034472D01*
X035532Y031577D02*
X036297Y032342D01*
X036673Y031967D01*
X035907Y031201D02*
X036673Y031967D01*
X035532Y031577D02*
X035907Y031201D01*
X036988Y034766D02*
X037754Y035531D01*
X03813Y035155D01*
X037364Y03439D02*
X03813Y035155D01*
X036988Y034766D02*
X037364Y03439D01*
X034492Y03698D02*
Y03798D01*
X032492D02*
X034492D01*
X032492Y03698D02*
Y03798D01*
Y03698D02*
X034492D01*
X033492Y03698D02*
Y03798D01*
X049213Y036024D02*
Y038386D01*
X048937D02*
X049213D01*
X048937Y036024D02*
X049213D01*
X046732D02*
X047953D01*
X046732D02*
Y036654D01*
Y037756D02*
Y038386D01*
X047913D01*
X031132Y020167D02*
Y02125D01*
X031663D01*
Y020167D02*
Y02125D01*
X031132Y020167D02*
X031663D01*
X02999D02*
Y02125D01*
X030522D01*
Y020167D02*
Y02125D01*
X02999Y020167D02*
X030522D01*
X017205Y017894D02*
Y018209D01*
Y018917D02*
Y019272D01*
X014764Y017894D02*
X017205D01*
X014764D02*
Y018209D01*
Y019272D02*
X017205D01*
X014764Y018917D02*
Y019272D01*
X011398Y016811D02*
X012697D01*
Y017441D01*
Y019134D02*
Y019764D01*
X011398D02*
X012697D01*
X010138D02*
X010394D01*
X010138Y016811D02*
Y019764D01*
Y016811D02*
X010374D01*
X024016Y02189D02*
X024409D01*
X022559D02*
Y026417D01*
X022992D01*
X024016D02*
X024409D01*
Y02189D02*
Y026417D01*
X022559Y02189D02*
X022992D01*
X028563Y038772D02*
Y040071D01*
Y038772D02*
X029193D01*
X030886D02*
X031516D01*
Y040071D01*
Y041075D02*
Y041331D01*
X028563D02*
X031516D01*
X028563Y041094D02*
Y041331D01*
X036039Y018911D02*
X037039D01*
X036039Y017911D02*
X037039D01*
X036039Y016911D02*
Y019911D01*
X037039D01*
Y016911D02*
Y019911D01*
X036039Y016911D02*
X037039D01*
X036035Y018909D02*
X037035D01*
X036035Y017909D02*
X037035D01*
X036035Y016909D02*
Y019909D01*
X037035D01*
Y016909D02*
Y019909D01*
X036035Y016909D02*
X037035D01*
X034571Y020018D02*
Y021356D01*
X035342D01*
X034571Y020018D02*
X035342D01*
Y021356D01*
X033573Y020128D02*
Y021211D01*
X034104D01*
Y020128D02*
Y021211D01*
X033573Y020128D02*
X034104D01*
X023091Y033091D02*
Y036319D01*
X018996Y033091D02*
Y036319D01*
Y033091D02*
X019547D01*
Y032146D02*
Y033091D01*
X019862Y032146D02*
Y033091D01*
X020217D01*
Y032146D02*
Y033091D01*
X020531Y032146D02*
Y033091D01*
X020886D01*
Y032146D02*
Y033091D01*
X021201Y032146D02*
Y033091D01*
X021555D01*
Y032146D02*
Y033091D01*
X02187Y032146D02*
Y033091D01*
X022224D01*
Y032146D02*
Y033091D01*
X022539Y032146D02*
Y033091D01*
X023091D01*
X015593Y037874D02*
Y041378D01*
X0189D01*
Y037874D02*
Y041378D01*
X015593Y037874D02*
X0189D01*
X010709Y038457D02*
X012047D01*
Y037685D02*
Y038457D01*
X010709Y037685D02*
Y038457D01*
Y037685D02*
X012047D01*
X015264Y031063D02*
Y032402D01*
X016035D01*
X015264Y031063D02*
X016035D01*
Y032402D01*
Y032795D02*
Y034134D01*
X015264Y032795D02*
X016035D01*
X015264Y034134D02*
X016035D01*
X015264Y032795D02*
Y034134D01*
X019311Y026713D02*
Y027736D01*
X015374Y026476D02*
X019075D01*
X015177Y026673D02*
Y027736D01*
Y029232D02*
Y030256D01*
X015413Y030492D02*
X019114D01*
X019311Y029232D02*
Y030295D01*
X017362Y037067D02*
Y037303D01*
X016732Y037067D02*
Y037303D01*
Y034469D02*
Y034705D01*
X017362Y034469D02*
Y034705D01*
Y034469D02*
X017913D01*
X018386Y034941D01*
Y037303D01*
X017362D02*
X018386D01*
X015709D02*
X016732D01*
X016181Y034469D02*
X016732D01*
X015709Y034941D02*
X016181Y034469D01*
X015709Y034941D02*
Y037303D01*
X015984Y036437D02*
X016732D01*
Y037067D01*
X017362Y036437D02*
X01811D01*
X017362D02*
Y037067D01*
X021693Y029665D02*
Y029902D01*
X021063Y029665D02*
Y029902D01*
Y027067D02*
Y027303D01*
X021693Y027067D02*
Y027303D01*
Y027067D02*
X022244D01*
X022717Y027539D01*
Y029902D01*
X021693D02*
X022717D01*
X020039D02*
X021063D01*
X020512Y027067D02*
X021063D01*
X020039Y027539D02*
X020512Y027067D01*
X020039Y027539D02*
Y029902D01*
X020315Y029035D02*
X021063D01*
Y029665D01*
X021693Y029035D02*
X022441D01*
X021693D02*
Y029665D01*
X024528Y035523D02*
X025945D01*
X024528Y038086D02*
X025945D01*
Y035523D02*
Y038086D01*
X024528Y035523D02*
Y038086D01*
X023717Y032421D02*
Y033839D01*
X02628Y032421D02*
Y033839D01*
X023717Y032421D02*
X02628D01*
X023717Y033839D02*
X02628D01*
X019455Y037874D02*
Y041378D01*
X022762D01*
Y037874D02*
Y041378D01*
X019455Y037874D02*
X022762D01*
X010098Y013425D02*
Y015787D01*
Y013425D02*
X010374D01*
X010098Y015787D02*
X010374D01*
X011358D02*
X012579D01*
Y015157D02*
Y015787D01*
Y013425D02*
Y014055D01*
X011398Y013425D02*
X012579D01*
X019459Y018533D02*
X020541D01*
X019459D02*
Y019065D01*
X020541D01*
Y018533D02*
Y019065D01*
X017441Y020138D02*
Y021476D01*
X014528D02*
X017441D01*
X014528Y020138D02*
X017441D01*
X014528D02*
Y021476D01*
X01437Y020138D02*
Y021476D01*
X02016Y0162D02*
X020704D01*
X019405D02*
X01991D01*
X020704Y0142D02*
Y0162D01*
X019405Y0142D02*
X020704D01*
X019405D02*
Y0162D01*
X017205Y015886D02*
Y016201D01*
Y016909D02*
Y017264D01*
X014764Y015886D02*
X017205D01*
X014764D02*
Y016201D01*
Y017264D02*
X017205D01*
X014764Y016909D02*
Y017264D01*
X012067Y034134D02*
Y034921D01*
X010689D02*
X012067D01*
X010689Y034134D02*
X012067D01*
X010689D02*
Y034921D01*
X011043Y027382D02*
Y02872D01*
Y027382D02*
X013957D01*
X011043Y02872D02*
X013957D01*
Y027382D02*
Y02872D01*
X014114Y027382D02*
Y02872D01*
X014906Y03698D02*
Y03798D01*
X012906D02*
X014906D01*
X012906Y03698D02*
Y03798D01*
Y03698D02*
X014906D01*
X013906D02*
Y03798D01*
X010689Y035315D02*
Y036102D01*
Y035315D02*
X012067D01*
X010689Y036102D02*
X012067D01*
Y035315D02*
Y036102D01*
X012917Y035071D02*
Y036071D01*
Y035071D02*
X014917D01*
Y036071D01*
X012917D02*
X014917D01*
X013917Y035071D02*
Y036071D01*
D11*
X033104Y032874D02*
G03*
X033104Y032874I-000159J0D01*
G01*
X039873Y025733D02*
G03*
X039873Y025733I-000159J0D01*
G01*
X035394Y033858D02*
G03*
X035394Y033858I-001772J0D01*
G01*
X04378Y019055D02*
G03*
X04378Y019055I-000551J0D01*
G01*
X043307D02*
G03*
X043307Y019055I-000079J0D01*
G01*
X033622Y035354D02*
X03374D01*
X033622D02*
Y035472D01*
X033504Y035354D02*
X033622D01*
Y035236D02*
Y035354D01*
X032383Y034706D02*
X032646Y034313D01*
Y034706D02*
X032383Y034313D01*
X030691Y033368D02*
Y033302D01*
X030822Y033171D01*
X030953Y033302D01*
Y033368D01*
X030822Y033171D02*
Y032974D01*
X041297Y027428D02*
X04176Y027335D01*
X041482Y027613D02*
X041575Y027149D01*
X037979Y02705D02*
X037932Y027004D01*
Y026818D01*
X038118D01*
X038164Y026864D01*
X037932Y026818D02*
X037793Y026679D01*
D12*
X040497Y023252D02*
G03*
X040497Y023252I-000748J0D01*
G01*
X036255Y027494D02*
G03*
X036255Y027494I-000748J0D01*
G01*
X042265Y033505D02*
G03*
X042265Y033505I-000748J0D01*
G01*
X046508Y029262D02*
G03*
X046508Y029262I-000748J0D01*
G01*
D13*
X046467Y028555D02*
G03*
X046467Y029969I-000707J000707D01*
G01*
X039042Y022544D02*
G03*
X040456Y022544I000707J000707D01*
G01*
X034799Y028201D02*
G03*
X034799Y026787I000707J-000707D01*
G01*
X042224Y034212D02*
G03*
X04081Y034212I-000707J-000707D01*
G01*
X040456Y022544D02*
X043461Y02555D01*
X046467Y028555D01*
X034799Y028201D02*
X037805Y031206D01*
X04081Y034212D01*
X034799Y026787D02*
X036921Y024666D01*
X039042Y022544D01*
X042224Y034212D02*
X044345Y03209D01*
X046467Y029969D01*
D14*
X031122Y035197D02*
G03*
X031122Y035197I-000059J0D01*
G01*
D15*
X019685Y015925D02*
D03*
D16*
X018898Y018937D02*
Y020472D01*
X018346Y018937D02*
Y020472D01*
X03311Y029134D02*
X033583D01*
X03311Y02811D02*
Y029134D01*
Y02811D02*
X033583D01*
Y029134D01*
X046079Y023579D02*
Y026591D01*
Y023579D02*
X049091D01*
Y026591D01*
X046079D02*
X049091D01*
X025925Y021831D02*
X026398D01*
Y022854D01*
X025925D02*
X026398D01*
X025925Y021831D02*
Y022854D01*
X043317Y034406D02*
X043428Y034518D01*
X045981Y033435D02*
X046092Y033546D01*
X046831Y030591D02*
Y031496D01*
Y030591D02*
X047539D01*
X046831Y032835D02*
Y03374D01*
X047539D01*
X048445Y030591D02*
X049213D01*
Y03374D01*
X048445D02*
X049213D01*
X013996Y021988D02*
X02187D01*
X013996D02*
Y025925D01*
X02187D01*
Y021988D02*
Y025925D01*
X045886Y039744D02*
X046004Y039862D01*
X045886Y039744D02*
X046004D01*
X046004Y039744D01*
Y039862D01*
X01439Y039744D02*
X014508Y039862D01*
X01439Y039744D02*
X014508D01*
X014508Y039744D01*
Y039862D01*
X01439Y011004D02*
X014508Y011122D01*
X01439Y011004D02*
X014508D01*
X014508Y011004D01*
Y011122D01*
X046079Y017102D02*
X049091D01*
Y014091D02*
Y017102D01*
X046079Y014091D02*
X049091D01*
X046079D02*
Y017102D01*
X035453Y023445D02*
X035531D01*
X035453Y022776D02*
X035531D01*
Y023445D01*
X034232Y022776D02*
X034311D01*
X034232Y023445D02*
X034311D01*
X034232Y022776D02*
Y023445D01*
X034705D02*
X035059D01*
X046004Y011004D02*
Y011122D01*
X046004Y011004D02*
X046004Y011004D01*
X045886Y011004D02*
X046004D01*
X045886D02*
X046004Y011122D01*
X038619Y03436D02*
X03873Y034249D01*
X01937Y020039D02*
X019449D01*
X01937Y020709D02*
X019449D01*
X01937Y020039D02*
Y020709D01*
X020591D02*
X020669D01*
X020591Y020039D02*
X020669D01*
Y020709D01*
X019843Y020039D02*
X020197D01*
X020276Y016831D02*
Y017854D01*
X019803Y016831D02*
X020276D01*
X019803D02*
Y017854D01*
X020276D01*
X010768Y03122D02*
X014468D01*
X010768Y029331D02*
Y03122D01*
Y029331D02*
X014468D01*
Y03122D01*
D17*
X035268Y015394D02*
X035391D01*
X030171D02*
Y018484D01*
Y015394D02*
X030296D01*
X035391D02*
Y018484D01*
X035268D02*
X035391D01*
X030171D02*
X030296D01*
X035233Y025418D02*
X036414Y026599D01*
X0378Y022851D02*
X038981Y024032D01*
D18*
X035552Y025736D02*
X038118Y02317D01*
X036117Y026302D02*
X038684Y023735D01*
D19*
X034965Y029912D02*
Y031082D01*
X024905Y029912D02*
Y031082D01*
Y029912D02*
X034965D01*
X024905Y031082D02*
X034965D01*
D20*
X01126Y03187D02*
X014016D01*
X014134D01*
Y033445D01*
X011063D02*
X014134D01*
X011063Y03187D02*
Y033445D01*
Y03187D02*
X01126D01*
M02*
