M48
;Layer_Color=9474304
;FILE_FORMAT=2:4
INCH,LZ
;TYPE=PLATED
T1F00S00C0.0118
T2F00S00C0.0197
T3F00S00C0.0217
T4F00S00C0.0236
T5F00S00C0.0315
T6F00S00C0.0394
T7F00S00C0.0402
T8F00S00C0.0420
T9F00S00C0.0472
T10F00S00C0.0512
T11F00S00C0.0551
T12F00S00C0.1024
T13F00S00C0.1260
%
T01
X012992Y010787
X013622Y011417
X01237Y012415
X012398Y013468
X017458Y013213
X017402Y014488
X018232Y014025
X018788Y015448
X017894Y011358
X020039Y010925
X021439Y012384
X022028Y012402
X022603Y012388
X023189Y013189
X02402Y013774
X024921Y014606
X025394Y012756
Y01248
Y012205
X026496Y012047
Y012441
Y012795
X02937Y012756
Y01248
Y012205
X030515Y012041
X030512Y012441
X030513Y012772
X030523Y013933
X030951Y013843
X031472Y013836
X031929Y013833
X033346Y012756
Y01248
Y012205
X034551Y012117
X034547Y012402
X034545Y012683
X034738Y013988
X03748
X037345Y012749
X037343Y012402
X037349Y012063
X038522Y012017
X038524Y012402
X038522Y012726
X037953Y015157
X040475Y014126
X041278Y014132
X042087Y01437
X042184Y013716
X042198Y01317
X042876Y014126
X045787Y012992
X04622Y011339
X045118Y011457
X044449Y010669
X047402Y029921
X046929Y030709
X044488Y029685
X04311Y030118
X042402Y030866
X040157Y031063
X039291Y031102
X039404Y029988
X040512Y029921
X039963Y028875
X040218Y028598
X039094Y028307
X039089Y029003
X038657Y028763
X037179Y028393
X03744Y02735
X03792Y027512
X037184Y026902
X036925Y02705
X036545Y02555
X035962Y025652
X035079Y025512
X035042Y025812
X034776Y02535
X034378Y025288
X033933Y025169
X033305Y025102
X033239Y026427
X032992Y027304
X033221Y02764
X032589Y028107
X032078Y02818
X032142Y027359
X031346Y026737
X032126Y025827
X031395Y023649
X03148Y021975
X031787Y022105
X032064Y021857
X032359Y021816
X032478Y021466
X032895Y021918
X032891Y022301
X032987Y022624
X033072Y022992
X03488Y02256
X035396Y022219
X03591Y021511
X035504Y021048
X035591Y020039
X034997Y019869
X035079Y019409
X03453Y019427
X034035Y019834
X033726Y019863
X032766Y019637
X03251Y019398
X032473Y019854
X032024Y019388
X031353Y019474
X031378Y020394
X031465Y021133
X033841Y021393
X0359Y02295
X035276Y023583
X035126Y024584
X034692Y02493
X034199Y02669
X035079Y02878
X035236Y029331
X036112Y030874
X036772Y030827
X031654Y029567
X031967Y029227
X037397Y024772
X037763Y0248
X038134Y024412
X038428Y02366
X037835Y023386
X037152Y022886
X038326Y021594
X038761Y021832
X037205Y020394
Y019252
X038346Y017717
X03874Y017677
X040475Y016434
X042026Y019941
X042992Y02063
X04563Y020748
X046191Y020142
X045842Y023908
X045472Y024961
X044843Y02437
X043858Y02315
X043253Y02788
X042615Y027892
X044803Y027598
X041368Y026259
X04112Y026458
X040787Y02622
X040118Y026102
X040136Y025082
X039311Y026455
X035684Y017979
X035313Y017181
X035804Y016903
X034544Y015949
X032795Y015827
X031642Y018095
X029475Y018752
X030268Y020683
X030291Y021041
X030036Y021655
X028808Y021352
X028268Y021417
X028454Y021785
X02708Y021936
X02698Y022784
X026711Y023075
X026611Y023354
X026244Y024201
X027116Y02436
X027458Y024383
X027205Y024016
X027315Y02507
X027237Y025393
X02662Y025512
X02542Y025759
X024606Y026024
X025Y025039
X025196Y023708
X022126Y023701
X022244Y025
X020157Y023701
X019798Y022687
X018071Y022795
X017638Y02374
X017047Y021738
X017205Y019961
X016686Y019667
X018071Y019764
X018583Y020197
Y020827
X019156Y020633
X019646Y020866
X020394Y019961
X020787Y019449
X021263Y020194
X021694Y018658
X022557Y018814
X022515Y019117
X022704Y017607
X023664Y017624
X025475Y017828
X025504Y017029
X02532Y016625
X025632Y015962
X026181Y01815
X027446Y021091
X030771Y02021
X030816Y024307
X030842Y024616
X029834Y024608
X029392Y024658
X029038Y025026
X028545Y02485
X028783Y025459
X028875Y026063
X029449Y026235
X029391Y026644
X029672Y026741
X030018Y026191
X030532Y026279
X030721Y026508
X030521Y027783
X029722Y027937
X029885Y028338
X029856Y028722
X029418Y028982
X028886Y029044
X02897Y029723
X028268Y028583
X028212Y02727
X028228Y02685
X027632Y027045
X027348Y0294
X026535Y029288
X031054Y0294
X031069Y029722
X031097Y029017
X031102Y028346
X029409Y023661
X029534Y023239
X02878Y015906
X022466Y01652
X021943Y017109
X021299Y016535
X019646Y018189
X01925Y017945
X022826Y021426
X023086Y027894
X013181Y026544
X013189Y02315
X013329Y022278
X013346Y021654
X01474Y019653
X0155Y019872
X01174Y036324
X011303Y037432
X011084Y03742
X010839Y03743
X010394Y037087
X010398Y036813
X010396Y036548
X012323Y038701
X014252Y039373
X014738Y039952
X014748Y040561
X01373Y040509
X013413Y040515
X013424Y040854
X013722Y040849
X018548Y037904
X024755Y037651
X02511Y037647
X025264Y037048
X026142Y035197
X027441Y034291
X027803Y03445
X028976Y035276
X030205Y035257
X030524Y034086
X031037Y033909
X030097Y03295
X026693Y032913
X029432Y036701
X029043Y039094
X03063Y039114
X02811Y039921
X024075Y04065
X031311Y037697
X031637Y037596
X032247Y036931
X033754Y036614
X034646Y03622
X03498Y034429
X035279Y034511
X035748Y034291
X034743Y034075
X033697Y033432
X032913Y032323
X032598Y032008
X03166Y034014
X031322Y033993
X031311Y03507
X031652
X033461Y038328
X035634Y03773
X036181Y03815
X036339Y037402
X036356Y036781
X037323Y03748
X038386Y036693
X038469Y035886
X037662Y035855
X037504Y035498
X037732Y033934
X03809Y033952
X039213Y033937
X038964Y034399
X039365Y034966
X039251Y035643
X039759Y036774
X040765Y037718
X041382Y038054
X041959Y038049
X042343Y037739
X042402Y035276
X042716Y03448
X043583Y035827
X040959Y035636
X040709Y035264
X040236Y034331
X039202Y033192
X038701Y033209
X038648Y032495
X036929Y032205
Y03126
X035525Y03189
X036339Y033071
X036969Y034016
X040847Y032644
X040157Y031811
X041902Y032005
X043282Y031963
X043604Y031613
X043465Y032992
X044926Y033066
X044961Y03194
X045589Y032205
X045996Y03273
X046388Y032677
X046457Y031654
X045827Y031378
X04563Y033898
X046238Y035554
X046496Y03815
X045748Y040118
X045118Y040116
X048799Y03498
X04792Y032855
X04752Y032794
X048342Y032291
T02
X014817Y011379
X013616Y015144
X03772Y016164
X036296Y022724
X024496Y021854
X021397Y021594
X022701Y030535
X011906Y025066
X011569Y025063
X012336Y034325
X012706
X012717Y034723
X01234Y034727
X012296Y03649
X012705Y036484
X016299Y035866
X020118
Y036654
X021102
Y035866
Y035079
X022087
Y035866
Y036654
X023189Y037835
X024055Y035906
X024986Y034089
X025827Y033228
X02815Y033386
X02685Y035315
X026417Y036811
X020118Y035079
X021732Y031693
X01565Y032106
T03
X047146Y031378
Y032953
T04
X011618Y030276
X012618
X013618
T05
X03639Y029085
X037097Y029792
X037805Y030499
X038512Y031206
X042754Y02555
X042047Y024843
X043461Y026257
X044169Y026964
X027949Y020492
X026949
X025949
X024949
X023949
X033622Y032913
Y034803
X039926Y032621
X039219Y031914
T06
X017433Y025457
X021433
Y022457
X015433
X014433Y025457
T07
X036535Y015248
X048465Y028083
Y029083
X043531Y022126
X042531
X036535Y021642
Y020642
Y019409
Y018409
Y017409
Y016248
X026Y02874
X025
X024
X014417Y035571
X013417
X013406Y03748
X014406
X028528
X029528
X030528
X032992
X033992
T08
X031465Y030512
X032465
X033465
X034465
X030465
X029465
X028465
X027465
X026465
X025465
T09
X016496Y038346
X017996
X020358
X021858
T10
X047579Y015591
Y025079
T11
X046579Y014591
X048579
Y016591
Y024079
Y026079
X046579
Y024079
Y016591
T12
X023272Y014626
X028626
X039749Y023252
X035507Y027494
X04576Y029262
X041517Y033505
T13
X011378Y011378
X047992
X011378Y040118
X047992
M30
