G04*
G04 #@! TF.GenerationSoftware,Altium Limited,Altium Designer,21.2.2 (38)*
G04*
G04 Layer_Color=8388736*
%FSTAX24Y24*%
%MOIN*%
G70*
G04*
G04 #@! TF.SameCoordinates,E8B1D116-6B3C-4CC1-BC5D-0A1EC4A5AECB*
G04*
G04*
G04 #@! TF.FilePolarity,Negative*
G04*
G01*
G75*
%ADD63R,0.0356X0.0316*%
%ADD64R,0.0290X0.0750*%
%ADD65R,0.0415X0.0336*%
%ADD66R,0.0336X0.0415*%
G04:AMPARAMS|DCode=67|XSize=68mil|YSize=29mil|CornerRadius=0mil|HoleSize=0mil|Usage=FLASHONLY|Rotation=225.000|XOffset=0mil|YOffset=0mil|HoleType=Round|Shape=Rectangle|*
%AMROTATEDRECTD67*
4,1,4,0.0138,0.0343,0.0343,0.0138,-0.0138,-0.0343,-0.0343,-0.0138,0.0138,0.0343,0.0*
%
%ADD67ROTATEDRECTD67*%

%ADD68O,0.1182X0.0297*%
G04:AMPARAMS|DCode=69|XSize=41.5mil|YSize=33.6mil|CornerRadius=0mil|HoleSize=0mil|Usage=FLASHONLY|Rotation=315.000|XOffset=0mil|YOffset=0mil|HoleType=Round|Shape=Rectangle|*
%AMROTATEDRECTD69*
4,1,4,-0.0265,0.0028,-0.0028,0.0265,0.0265,-0.0028,0.0028,-0.0265,-0.0265,0.0028,0.0*
%
%ADD69ROTATEDRECTD69*%

G04:AMPARAMS|DCode=70|XSize=58mil|YSize=37.9mil|CornerRadius=0mil|HoleSize=0mil|Usage=FLASHONLY|Rotation=225.000|XOffset=0mil|YOffset=0mil|HoleType=Round|Shape=Rectangle|*
%AMROTATEDRECTD70*
4,1,4,0.0071,0.0339,0.0339,0.0071,-0.0071,-0.0339,-0.0339,-0.0071,0.0071,0.0339,0.0*
%
%ADD70ROTATEDRECTD70*%

%ADD71R,0.0690X0.0198*%
%ADD72R,0.0198X0.0690*%
%ADD73R,0.0474X0.0651*%
G04:AMPARAMS|DCode=74|XSize=71.8mil|YSize=61.9mil|CornerRadius=0mil|HoleSize=0mil|Usage=FLASHONLY|Rotation=45.000|XOffset=0mil|YOffset=0mil|HoleType=Round|Shape=Rectangle|*
%AMROTATEDRECTD74*
4,1,4,-0.0035,-0.0473,-0.0473,-0.0035,0.0035,0.0473,0.0473,0.0035,-0.0035,-0.0473,0.0*
%
%ADD74ROTATEDRECTD74*%

%ADD75R,0.0651X0.0474*%
G04:AMPARAMS|DCode=76|XSize=73mil|YSize=29.7mil|CornerRadius=0mil|HoleSize=0mil|Usage=FLASHONLY|Rotation=225.000|XOffset=0mil|YOffset=0mil|HoleType=Round|Shape=Round|*
%AMOVALD76*
21,1,0.0433,0.0297,0.0000,0.0000,225.0*
1,1,0.0297,0.0153,0.0153*
1,1,0.0297,-0.0153,-0.0153*
%
%ADD76OVALD76*%

G04:AMPARAMS|DCode=77|XSize=73mil|YSize=29.7mil|CornerRadius=0mil|HoleSize=0mil|Usage=FLASHONLY|Rotation=225.000|XOffset=0mil|YOffset=0mil|HoleType=Round|Shape=Rectangle|*
%AMROTATEDRECTD77*
4,1,4,0.0153,0.0363,0.0363,0.0153,-0.0153,-0.0363,-0.0363,-0.0153,0.0153,0.0363,0.0*
%
%ADD77ROTATEDRECTD77*%

%ADD78R,0.0611X0.0218*%
%ADD79R,0.0828X0.0828*%
%ADD80R,0.2245X0.0867*%
%ADD81R,0.0867X0.1379*%
%ADD82R,0.0513X0.0867*%
%ADD83R,0.0356X0.1222*%
%ADD84R,0.1064X0.0552*%
%ADD85R,0.1415X0.0852*%
%ADD86R,0.0867X0.0513*%
%ADD87R,0.1222X0.0356*%
%ADD88R,0.0671X0.0474*%
%ADD89R,0.0336X0.0497*%
%ADD90R,0.0631X0.0946*%
%ADD91O,0.0395X0.0789*%
G04:AMPARAMS|DCode=92|XSize=71.8mil|YSize=61.9mil|CornerRadius=0mil|HoleSize=0mil|Usage=FLASHONLY|Rotation=315.000|XOffset=0mil|YOffset=0mil|HoleType=Round|Shape=Rectangle|*
%AMROTATEDRECTD92*
4,1,4,-0.0473,0.0035,-0.0035,0.0473,0.0473,-0.0035,0.0035,-0.0473,-0.0473,0.0035,0.0*
%
%ADD92ROTATEDRECTD92*%

%ADD93R,0.0867X0.2245*%
%ADD94R,0.3320X0.2792*%
%ADD95R,0.0461X0.0890*%
%ADD96R,0.0867X0.1340*%
%ADD97R,0.0474X0.1104*%
%ADD98R,0.0867X0.1458*%
%ADD99R,0.0867X0.0474*%
%ADD100R,0.1458X0.0867*%
%ADD101R,0.0474X0.0867*%
%ADD102R,0.0946X0.1182*%
%ADD103R,0.0710X0.0297*%
%ADD104O,0.0710X0.0297*%
%ADD105C,0.0907*%
%ADD106C,0.0710*%
%ADD107R,0.0710X0.0710*%
%ADD108O,0.0730X0.0980*%
%ADD109R,0.0730X0.0980*%
%ADD110C,0.1655*%
%ADD111C,0.0671*%
%ADD112C,0.0631*%
%ADD113R,0.0631X0.0631*%
%ADD114C,0.0730*%
%ADD115R,0.0730X0.0730*%
%ADD116C,0.0237*%
%ADD117C,0.1497*%
%ADD118C,0.2049*%
%ADD119R,0.0730X0.0730*%
%ADD120R,0.0710X0.0710*%
%ADD121C,0.0474*%
G36*
X019528Y037218D02*
X018897D01*
Y036426D01*
X019528D01*
Y037218D01*
D02*
G37*
G36*
X023189D02*
X022598D01*
Y036426D01*
X023189D01*
Y037218D01*
D02*
G37*
D63*
X032953Y028996D02*
D03*
Y028248D02*
D03*
X03374Y028622D02*
D03*
X026555Y021969D02*
D03*
Y022717D02*
D03*
X025768Y022343D02*
D03*
X020433Y017343D02*
D03*
X019646Y016968D02*
D03*
Y017717D02*
D03*
D64*
X035031Y018819D02*
D03*
X034532D02*
D03*
X034032D02*
D03*
X033531D02*
D03*
X033031D02*
D03*
X032531D02*
D03*
X032032D02*
D03*
X031532D02*
D03*
X031031D02*
D03*
X030531D02*
D03*
Y015059D02*
D03*
X031031D02*
D03*
X031532D02*
D03*
X032032D02*
D03*
X032531D02*
D03*
X033031D02*
D03*
X033531D02*
D03*
X034032D02*
D03*
X034532D02*
D03*
X035031D02*
D03*
D65*
X03252Y020368D02*
D03*
Y020998D02*
D03*
X029882Y028346D02*
D03*
Y028976D02*
D03*
X031122Y028346D02*
D03*
Y028976D02*
D03*
X036339Y036772D02*
D03*
Y037402D02*
D03*
X039331Y036772D02*
D03*
Y037402D02*
D03*
X031398Y020394D02*
D03*
Y021024D02*
D03*
X030256Y020394D02*
D03*
Y021024D02*
D03*
X033839Y020354D02*
D03*
Y020984D02*
D03*
D66*
X023524Y018132D02*
D03*
X022894D02*
D03*
X044882Y022244D02*
D03*
X045512D02*
D03*
X026476Y023799D02*
D03*
X025846D02*
D03*
X026496Y025039D02*
D03*
X025866D02*
D03*
X026516Y026339D02*
D03*
X025886D02*
D03*
X026496Y0275D02*
D03*
X025866D02*
D03*
X047008Y035D02*
D03*
X046378D02*
D03*
X045472Y024921D02*
D03*
X044843D02*
D03*
X02887Y016457D02*
D03*
X0295D02*
D03*
X023524Y016632D02*
D03*
X022894D02*
D03*
X0295Y018268D02*
D03*
X02887D02*
D03*
X0295Y017362D02*
D03*
X02887D02*
D03*
X020315Y018799D02*
D03*
X019685D02*
D03*
D67*
X035361Y025079D02*
D03*
X038896Y024372D02*
D03*
X038543Y024725D02*
D03*
X038189Y025079D02*
D03*
X037835Y025432D02*
D03*
X037482Y025786D02*
D03*
X037128Y026139D02*
D03*
X036775Y026493D02*
D03*
X035714Y024725D02*
D03*
X036068Y024372D02*
D03*
X036421Y024018D02*
D03*
X036775Y023665D02*
D03*
X037128Y023311D02*
D03*
X037482Y022957D02*
D03*
D68*
X0275Y016632D02*
D03*
Y017132D02*
D03*
Y017632D02*
D03*
Y018132D02*
D03*
X024547Y016632D02*
D03*
Y017132D02*
D03*
Y017632D02*
D03*
Y018132D02*
D03*
D69*
X039697Y035288D02*
D03*
X039252Y034843D02*
D03*
X036496Y033937D02*
D03*
X036051Y033492D02*
D03*
X03588Y031549D02*
D03*
X036325Y031994D02*
D03*
X037336Y034738D02*
D03*
X037782Y035183D02*
D03*
D70*
X038722Y027424D02*
D03*
X040844Y029545D02*
D03*
X039076Y02707D02*
D03*
X041197Y029192D02*
D03*
X038369Y027778D02*
D03*
X04049Y029899D02*
D03*
X038015Y028131D02*
D03*
X040137Y030252D02*
D03*
X040141Y026124D02*
D03*
X042262Y028245D02*
D03*
X040494Y02577D02*
D03*
X042615Y027892D02*
D03*
D71*
X028071Y026043D02*
D03*
Y025059D02*
D03*
Y024862D02*
D03*
Y024665D02*
D03*
Y024469D02*
D03*
Y024272D02*
D03*
Y024075D02*
D03*
Y023878D02*
D03*
Y025256D02*
D03*
Y025453D02*
D03*
Y02565D02*
D03*
Y025846D02*
D03*
Y026437D02*
D03*
Y02624D02*
D03*
Y023681D02*
D03*
Y023484D02*
D03*
X032638Y025059D02*
D03*
Y024862D02*
D03*
Y023878D02*
D03*
Y024075D02*
D03*
Y024272D02*
D03*
Y024469D02*
D03*
Y024665D02*
D03*
Y025256D02*
D03*
Y025453D02*
D03*
Y02565D02*
D03*
Y025846D02*
D03*
Y026043D02*
D03*
Y02624D02*
D03*
Y026437D02*
D03*
Y023681D02*
D03*
Y023484D02*
D03*
D72*
X030453Y027244D02*
D03*
X030256D02*
D03*
X028878D02*
D03*
X029075D02*
D03*
X029272D02*
D03*
X029469D02*
D03*
X029665D02*
D03*
X03065D02*
D03*
X030846D02*
D03*
X031043D02*
D03*
X03124D02*
D03*
X031437D02*
D03*
X029862D02*
D03*
X031831D02*
D03*
X031634D02*
D03*
X030059D02*
D03*
Y022677D02*
D03*
X030846D02*
D03*
X031043D02*
D03*
X03124D02*
D03*
X031437D02*
D03*
X031634D02*
D03*
X031831D02*
D03*
X030256D02*
D03*
X029862D02*
D03*
X029665D02*
D03*
X029469D02*
D03*
X029272D02*
D03*
X029075D02*
D03*
X030453D02*
D03*
X03065D02*
D03*
X028878D02*
D03*
D73*
X028287Y028701D02*
D03*
X027539D02*
D03*
X048051Y035D02*
D03*
X048799D02*
D03*
X011004Y03689D02*
D03*
X011752D02*
D03*
X011004Y038071D02*
D03*
X011752D02*
D03*
X011004Y034528D02*
D03*
X011752D02*
D03*
Y035709D02*
D03*
X011004D02*
D03*
D74*
X043775Y03406D02*
D03*
X044808Y033027D02*
D03*
X045635Y033893D02*
D03*
X044602Y034926D02*
D03*
D75*
X038346Y036713D02*
D03*
Y037461D02*
D03*
X037323D02*
D03*
Y036713D02*
D03*
X045276Y019193D02*
D03*
Y018445D02*
D03*
X027205Y014626D02*
D03*
Y015374D02*
D03*
X026063D02*
D03*
Y014626D02*
D03*
X024921Y015374D02*
D03*
Y014626D02*
D03*
X034957Y020313D02*
D03*
Y021061D02*
D03*
X01565Y031358D02*
D03*
Y032106D02*
D03*
Y033839D02*
D03*
Y033091D02*
D03*
D76*
X040916Y031029D02*
D03*
X041623Y030322D02*
D03*
X041977Y029968D02*
D03*
X042331Y029615D02*
D03*
X042684Y029261D02*
D03*
X043038Y028908D02*
D03*
X043391Y028554D02*
D03*
X04127Y030675D02*
D03*
X044247Y030824D02*
D03*
X0446Y03047D02*
D03*
X042479Y032592D02*
D03*
X042832Y032238D02*
D03*
X043186Y031885D02*
D03*
X04354Y031531D02*
D03*
X043893Y031177D02*
D03*
D77*
X044989Y030152D02*
D03*
D78*
X046939Y032677D02*
D03*
Y032421D02*
D03*
Y032165D02*
D03*
Y031909D02*
D03*
Y031654D02*
D03*
D79*
X047992Y03061D02*
D03*
Y03372D02*
D03*
D80*
X041791Y037008D02*
D03*
X044744D02*
D03*
D81*
X013563Y032657D02*
D03*
X011634D02*
D03*
D82*
X024055Y040571D02*
D03*
X027441D02*
D03*
X036004D02*
D03*
X038209D02*
D03*
X043307Y010945D02*
D03*
X040512D02*
D03*
X03939Y040571D02*
D03*
X042776D02*
D03*
X023425Y010945D02*
D03*
X020039D02*
D03*
X036535D02*
D03*
X039331D02*
D03*
X032559D02*
D03*
X035354D02*
D03*
X028583Y010945D02*
D03*
X031378D02*
D03*
X024606Y010945D02*
D03*
X027402D02*
D03*
X016063Y010945D02*
D03*
X018858D02*
D03*
X034823Y040571D02*
D03*
X032618D02*
D03*
X031437Y040583D02*
D03*
X028642D02*
D03*
D83*
X024862Y039114D02*
D03*
X026634Y039114D02*
D03*
X026043D02*
D03*
X025453Y039114D02*
D03*
X036811Y039114D02*
D03*
X037402D02*
D03*
X0425Y012402D02*
D03*
X041909Y012402D02*
D03*
X041319D02*
D03*
X040197Y039114D02*
D03*
X041968Y039114D02*
D03*
X041378D02*
D03*
X040787Y039114D02*
D03*
X022618Y012402D02*
D03*
X020846Y012402D02*
D03*
X021437D02*
D03*
X022028Y012402D02*
D03*
X037343Y012402D02*
D03*
X037933D02*
D03*
X038524Y012402D02*
D03*
X033366Y012402D02*
D03*
X033957D02*
D03*
X034547Y012402D02*
D03*
X02939D02*
D03*
X02998D02*
D03*
X030571Y012402D02*
D03*
X025413Y012402D02*
D03*
X026004D02*
D03*
X026594Y012402D02*
D03*
X01687D02*
D03*
X017461D02*
D03*
X018051Y012402D02*
D03*
X034016Y039114D02*
D03*
X033425D02*
D03*
X03063Y039126D02*
D03*
X030039D02*
D03*
X029449Y039126D02*
D03*
D84*
X017461Y014508D02*
D03*
X014508D02*
D03*
X014508Y018563D02*
D03*
X017461D02*
D03*
X014508Y016555D02*
D03*
X017461D02*
D03*
D85*
X017677Y033504D02*
D03*
Y031693D02*
D03*
D86*
X010886Y023071D02*
D03*
Y020866D02*
D03*
Y026457D02*
D03*
Y024252D02*
D03*
X048445Y01874D02*
D03*
Y021535D02*
D03*
X048425Y036102D02*
D03*
Y038307D02*
D03*
X010886Y019685D02*
D03*
Y01689D02*
D03*
Y015709D02*
D03*
Y013504D02*
D03*
D87*
X012343Y022264D02*
D03*
Y021673D02*
D03*
Y02565D02*
D03*
Y025059D02*
D03*
X046988Y019547D02*
D03*
Y020138D02*
D03*
X046988Y020728D02*
D03*
X046968Y036909D02*
D03*
Y0375D02*
D03*
X012343Y018878D02*
D03*
Y018287D02*
D03*
X012343Y017697D02*
D03*
X012343Y014902D02*
D03*
Y014311D02*
D03*
D88*
X046398Y039469D02*
D03*
X044468D02*
D03*
X046398Y040768D02*
D03*
X044468D02*
D03*
X014902Y039469D02*
D03*
X012972D02*
D03*
X014902Y040768D02*
D03*
X012972D02*
D03*
X014902Y010728D02*
D03*
X012972D02*
D03*
X014902Y012028D02*
D03*
X012972D02*
D03*
X044468D02*
D03*
X046398D02*
D03*
X044468Y010728D02*
D03*
X046398D02*
D03*
D89*
X035256Y022677D02*
D03*
Y023543D02*
D03*
X034882Y022677D02*
D03*
X034508D02*
D03*
Y023543D02*
D03*
X019646Y020807D02*
D03*
Y019941D02*
D03*
X02002Y020807D02*
D03*
X020394D02*
D03*
Y019941D02*
D03*
D90*
X042992Y02063D02*
D03*
X04378D02*
D03*
X042205D02*
D03*
X041417D02*
D03*
X04063D02*
D03*
X039843D02*
D03*
X039055D02*
D03*
X038268D02*
D03*
X042895Y014392D02*
D03*
X043682D02*
D03*
X042108D02*
D03*
X04132D02*
D03*
X040533D02*
D03*
X039745D02*
D03*
X038958D02*
D03*
X03817D02*
D03*
D91*
X031199Y036142D02*
D03*
X030699D02*
D03*
X030199D02*
D03*
X029699D02*
D03*
X029199D02*
D03*
X028699D02*
D03*
X028199D02*
D03*
X027699D02*
D03*
X031199Y032205D02*
D03*
X030699D02*
D03*
X030199D02*
D03*
X029699D02*
D03*
X029199D02*
D03*
X028699D02*
D03*
X028199D02*
D03*
X027699D02*
D03*
D92*
X038272Y033902D02*
D03*
X037239Y032869D02*
D03*
D93*
X023504Y022697D02*
D03*
Y02565D02*
D03*
D94*
X021043Y035822D02*
D03*
D95*
X022382Y031619D02*
D03*
X021713D02*
D03*
X021045D02*
D03*
X020374D02*
D03*
X019705D02*
D03*
D96*
X019075Y028484D02*
D03*
X015413D02*
D03*
D97*
X017047Y036791D02*
D03*
Y03498D02*
D03*
X021378Y02939D02*
D03*
Y027579D02*
D03*
D98*
X026398Y036806D02*
D03*
D99*
X024075Y035901D02*
D03*
Y036806D02*
D03*
Y037712D02*
D03*
D100*
X025Y031969D02*
D03*
D101*
X024094Y034291D02*
D03*
X025D02*
D03*
X025906D02*
D03*
D102*
X015079Y020807D02*
D03*
X01689D02*
D03*
X013406Y028051D02*
D03*
X011594D02*
D03*
D103*
X018955Y01595D02*
D03*
D104*
X018955Y01445D02*
D03*
Y01545D02*
D03*
Y01495D02*
D03*
X021165Y01595D02*
D03*
Y01545D02*
D03*
Y01495D02*
D03*
Y01445D02*
D03*
D105*
X047579Y025079D02*
D03*
X046579Y026079D02*
D03*
Y024079D02*
D03*
X048579D02*
D03*
Y026079D02*
D03*
Y016591D02*
D03*
Y014591D02*
D03*
X046579D02*
D03*
Y016591D02*
D03*
X047579Y015591D02*
D03*
D106*
X024Y02874D02*
D03*
X025D02*
D03*
X021433Y025457D02*
D03*
X015433Y022457D02*
D03*
X014433Y025457D02*
D03*
X017433D02*
D03*
X021433Y022457D02*
D03*
X029528Y03748D02*
D03*
X028528D02*
D03*
X036535Y018409D02*
D03*
Y019409D02*
D03*
X017996Y038346D02*
D03*
X016496D02*
D03*
X021858D02*
D03*
X020358D02*
D03*
D107*
X026Y02874D02*
D03*
X030528Y03748D02*
D03*
D108*
X032465Y030512D02*
D03*
X030465D02*
D03*
X028465D02*
D03*
X027465D02*
D03*
X026465D02*
D03*
X029465D02*
D03*
X031465D02*
D03*
X033465D02*
D03*
X034465D02*
D03*
D109*
X025465D02*
D03*
D110*
X04576Y029262D02*
D03*
X041517Y033505D02*
D03*
X039749Y023252D02*
D03*
X035507Y027494D02*
D03*
D111*
X039926Y032621D02*
D03*
X03639Y029085D02*
D03*
X037097Y029792D02*
D03*
X037805Y030499D02*
D03*
X038512Y031206D02*
D03*
X039219Y031914D02*
D03*
X042047Y024843D02*
D03*
X042754Y02555D02*
D03*
X043461Y026257D02*
D03*
X044169Y026964D02*
D03*
X025949Y020492D02*
D03*
X026949D02*
D03*
X024949D02*
D03*
X023949D02*
D03*
X027949D02*
D03*
D112*
X033622Y032913D02*
D03*
D113*
Y034803D02*
D03*
D114*
X048465Y029083D02*
D03*
X036535Y020642D02*
D03*
X042531Y022126D02*
D03*
X036535Y016248D02*
D03*
X032992Y03748D02*
D03*
X013406D02*
D03*
X014417Y035571D02*
D03*
D115*
X048465Y028083D02*
D03*
X036535Y021642D02*
D03*
Y015248D02*
D03*
D116*
X047146Y032953D02*
D03*
Y031378D02*
D03*
D117*
X023272Y014626D02*
D03*
X028626D02*
D03*
D118*
X047992Y040118D02*
D03*
Y011378D02*
D03*
X011378D02*
D03*
X011378Y040118D02*
D03*
D119*
X043531Y022126D02*
D03*
X033992Y03748D02*
D03*
X014406D02*
D03*
X013417Y035571D02*
D03*
D120*
X036535Y017409D02*
D03*
D121*
X013618Y030276D02*
D03*
X012618D02*
D03*
X011618D02*
D03*
M02*
