G04*
G04 #@! TF.GenerationSoftware,Altium Limited,Altium Designer,21.2.2 (38)*
G04*
G04 Layer_Color=32896*
%FSTAX24Y24*%
%MOIN*%
G70*
G04*
G04 #@! TF.SameCoordinates,E8B1D116-6B3C-4CC1-BC5D-0A1EC4A5AECB*
G04*
G04*
G04 #@! TF.FilePolarity,Positive*
G04*
G01*
G75*
%ADD10C,0.0079*%
%ADD16C,0.0039*%
%ADD153C,0.0059*%
G36*
X019127Y03491D02*
X019134Y034903D01*
X019139Y034885D01*
X019141Y034824D01*
X019121Y034813D01*
X019125Y034791D01*
X019139Y034782D01*
X019166Y034732D01*
X019179Y034718D01*
X019184Y034709D01*
X019202Y034691D01*
X019215Y034669D01*
X019224Y03466D01*
X019229Y034651D01*
X019242Y034637D01*
X019256Y034615D01*
X019269Y034606D01*
X019274Y034597D01*
X019292Y034579D01*
X019297Y034569D01*
X01931Y034556D01*
X019315Y034547D01*
X019328Y034538D01*
X019342Y034515D01*
X019351Y034506D01*
X019355Y034497D01*
X019362Y034486D01*
X019371Y034482D01*
X019396Y034457D01*
X019409Y034434D01*
X019418Y034425D01*
X019432Y034403D01*
X01945Y034371D01*
X019459Y034362D01*
X019454Y034344D01*
X019448Y034342D01*
X019434Y034346D01*
X019421Y034333D01*
X019398Y034337D01*
X019364Y034371D01*
X019351Y034394D01*
X019342Y034403D01*
X019337Y034412D01*
X019297Y034452D01*
X019283Y034475D01*
X019274Y034484D01*
X01926Y034506D01*
X019251Y034511D01*
X019247Y03452D01*
X019229Y034538D01*
X019224Y034547D01*
X019218Y034554D01*
X019211Y034556D01*
X019206Y034565D01*
X019188Y034583D01*
X019184Y034592D01*
X019177Y034603D01*
X01917Y034606D01*
X019166Y034615D01*
X019145Y034635D01*
X019127Y034639D01*
X019116Y034628D01*
X019121Y034592D01*
X019134Y034579D01*
X019143Y034556D01*
X019179Y03452D01*
X019193Y034497D01*
X019247Y034443D01*
X01926Y034421D01*
X019292Y034389D01*
X019297Y03438D01*
X019333Y034344D01*
X019339Y034319D01*
X019351Y034312D01*
X019357Y034283D01*
X019373Y034267D01*
X01938Y034238D01*
X019396Y034222D01*
X0194Y034209D01*
X019407Y034202D01*
X01943Y034206D01*
X019439Y03422D01*
X019452Y034206D01*
X019459Y034204D01*
X019473Y034182D01*
X019482Y034177D01*
X019495Y034154D01*
X019504Y034145D01*
X019509Y034136D01*
X019522Y034127D01*
X019536Y034105D01*
X019567Y034073D01*
X019579Y034053D01*
X019588Y034048D01*
X019594Y034042D01*
X019612Y03401D01*
X019633Y033985D01*
X019644Y03397D01*
X019657Y033956D01*
X019671Y033933D01*
X01968Y033924D01*
X019685Y033911D01*
X019698Y033897D01*
X019703Y033888D01*
X019721Y03387D01*
X019734Y033848D01*
X019743Y033839D01*
X019757Y033816D01*
X019766Y033807D01*
X01977Y033798D01*
X019788Y03378D01*
X019802Y033757D01*
X019811Y033748D01*
X019818Y033733D01*
X019824Y03373D01*
X019829Y033721D01*
X01984Y033706D01*
X019847Y033703D01*
X01986Y033681D01*
X019869Y033672D01*
X019883Y033649D01*
X019892Y03364D01*
X01991Y033609D01*
X019933Y033577D01*
X019953Y033552D01*
X01996Y033545D01*
X019964Y033527D01*
X019996Y033487D01*
X020005Y033478D01*
X020009Y033455D01*
X020023Y033442D01*
X020032Y033419D01*
X020045Y033406D01*
X02005Y033388D01*
X020057Y033381D01*
X020066Y033376D01*
X020077Y033347D01*
X020086Y033338D01*
X020095Y033315D01*
X020109Y033302D01*
X020118Y033279D01*
X020131Y033266D01*
X020136Y033248D01*
X02014Y033239D01*
X020154Y033225D01*
X020158Y033203D01*
X020176Y033176D01*
X02019Y033153D01*
X020199Y033144D01*
X020203Y033121D01*
X020217Y033108D01*
X020224Y033083D01*
X020235Y033067D01*
X020244Y033045D01*
X020246Y033038D01*
X020255Y033033D01*
X020262Y033027D01*
X020266Y033009D01*
X020271Y033D01*
X020285Y032986D01*
X020289Y032959D01*
X020307Y032941D01*
X020312Y032918D01*
X020321Y032909D01*
X02033Y032887D01*
X020334Y032873D01*
X020348Y03286D01*
X020352Y032828D01*
X02037Y032788D01*
X020375Y03277D01*
X020388Y032738D01*
X020397Y032702D01*
X020411Y03267D01*
X020415Y032652D01*
X02042Y032589D01*
X020429Y032567D01*
X020433Y03253D01*
X020438Y032517D01*
X020442Y032377D01*
X020438Y032345D01*
X020433Y032291D01*
X02042Y03226D01*
X020415Y032242D01*
X020411Y032183D01*
X020406Y032179D01*
X020413Y032172D01*
X020436Y032185D01*
X020454Y032203D01*
X02046Y032183D01*
X020447Y032161D01*
X020438Y032152D01*
X020433Y032129D01*
X02042Y032115D01*
X020415Y032106D01*
X020388Y032093D01*
X020379Y032084D01*
X020375Y032052D01*
X02037Y032043D01*
X020332Y032005D01*
X020314Y032009D01*
X020305Y032018D01*
X020282Y032032D01*
X020271Y032043D01*
X020275Y032057D01*
X020282Y032064D01*
X020289Y032066D01*
X020298Y032088D01*
X020294Y032111D01*
X020273Y032131D01*
X020264Y032136D01*
X020237Y032163D01*
X020215Y032176D01*
X020188Y032203D01*
X020165Y032212D01*
X020133Y032226D01*
X020127Y032224D01*
X020131Y03221D01*
X020151Y032185D01*
X020165Y032167D01*
X020172Y032165D01*
X020185Y032142D01*
X020199Y032129D01*
X020212Y032106D01*
X020221Y032097D01*
X020239Y032057D01*
X020235Y03203D01*
X020228Y032023D01*
X020185Y032039D01*
X020169Y03205D01*
X02016Y032059D01*
X02014Y03207D01*
X020127Y032093D01*
X020113Y032106D01*
X020109Y032115D01*
X020095Y032129D01*
X020097Y032145D01*
X020106Y03214D01*
X020136Y032111D01*
X02014Y032102D01*
X020158Y032084D01*
X020163Y032075D01*
X020183Y032068D01*
X020192Y032073D01*
X020194Y032088D01*
X020178Y032109D01*
X020169Y032113D01*
X020163Y032129D01*
X020145Y032147D01*
X02014Y032156D01*
X020122Y032174D01*
X020109Y032197D01*
X0201Y032206D01*
X020097Y032212D01*
X020088Y032217D01*
X020077Y032228D01*
X020072Y032242D01*
X020036Y032278D01*
X020032Y032287D01*
X019991Y032327D01*
X019978Y03235D01*
X019946Y032382D01*
X019933Y032404D01*
X019906Y032431D01*
X019901Y03244D01*
X019838Y032503D01*
X019824Y032526D01*
X019797Y032553D01*
X019784Y032576D01*
X019707Y032652D01*
X019703Y032661D01*
X019685Y032679D01*
X019678Y032695D01*
X019671Y032697D01*
X019666Y032706D01*
X019621Y032752D01*
X019617Y032761D01*
X01961Y032772D01*
X019601Y032776D01*
X019563Y032815D01*
X019558Y032824D01*
X019547Y032839D01*
X019538Y032844D01*
X019531Y032851D01*
X019527Y03286D01*
X019513Y032869D01*
X019509Y032878D01*
X019502Y032885D01*
X019495Y032887D01*
X019482Y032909D01*
X019473Y032918D01*
X019468Y032927D01*
X019452Y032939D01*
X019443Y032952D01*
X019434Y032957D01*
X019418Y032982D01*
X019387Y033013D01*
X019376Y033033D01*
X019366Y033038D01*
X01936Y033045D01*
X019355Y033054D01*
X019339Y033065D01*
X019319Y033085D01*
X019315Y033094D01*
X019292Y033117D01*
X019288Y033126D01*
X019251Y033162D01*
X019249Y033169D01*
X01924Y033173D01*
X019233Y03318D01*
X01922Y033203D01*
X019206Y033212D01*
X019202Y033221D01*
X019195Y033227D01*
X019186Y033232D01*
X019177Y033245D01*
X019168Y03325D01*
X019154Y033273D01*
X019145Y033277D01*
X019134Y033293D01*
X019127Y0333D01*
X019121Y033302D01*
X019116Y033311D01*
X019103Y033324D01*
X019098Y033333D01*
X019078Y033358D01*
X019039Y033397D01*
X019026Y033419D01*
X018972Y033473D01*
X018954Y033505D01*
X018945Y033527D01*
X01894Y033536D01*
X018927Y033559D01*
X018922Y033568D01*
X018909Y033582D01*
X018904Y033591D01*
X018893Y033602D01*
X018886Y033604D01*
X018882Y033613D01*
X018859Y033636D01*
X018857Y033642D01*
X018848Y033647D01*
X018836Y033658D01*
X018832Y033667D01*
X018667Y033832D01*
X018645Y033845D01*
X01862Y033866D01*
X018586Y0339D01*
X018577Y033904D01*
X018568Y033913D01*
X018559Y033918D01*
X018548Y033929D01*
X018545Y033936D01*
X018536Y03394D01*
X018525Y033951D01*
X018521Y03396D01*
X018496Y033976D01*
X018469Y034003D01*
X01846Y034008D01*
X018448Y034019D01*
X018444Y034028D01*
X018435Y034037D01*
X018446Y034039D01*
X018455Y03403D01*
X018478Y034017D01*
X018487Y034008D01*
X018496Y034003D01*
X018532Y033967D01*
X018552Y033956D01*
X018557Y033947D01*
X018563Y03394D01*
X018573Y033936D01*
X0186Y033909D01*
X018609Y033904D01*
X01862Y033893D01*
X018624Y033884D01*
X018631Y033877D01*
X01864Y033873D01*
X018681Y033841D01*
X018685Y033832D01*
X018694Y033827D01*
X01873Y033791D01*
X018739Y033787D01*
X018864Y033663D01*
X018868Y033654D01*
X018963Y033559D01*
X018967Y03355D01*
X018983Y033539D01*
X018992Y033525D01*
X019001Y033521D01*
X01903Y033491D01*
X019035Y033482D01*
X019053Y033473D01*
X019057Y033464D01*
X019064Y033457D01*
X019071Y03346D01*
X019066Y033478D01*
X019048Y033509D01*
X019035Y033518D01*
X01903Y033527D01*
X019012Y033545D01*
X019008Y033554D01*
X018994Y033564D01*
X01899Y033577D01*
X018909Y033658D01*
X018904Y033667D01*
X018891Y033681D01*
X018886Y03369D01*
X01887Y033701D01*
X018861Y033715D01*
X018852Y033719D01*
X018834Y033746D01*
X018807Y033773D01*
X018798Y033778D01*
X018782Y033789D01*
X018778Y033798D01*
X018771Y033805D01*
X018762Y033809D01*
X018753Y033823D01*
X018744Y033827D01*
X018737Y033834D01*
X018733Y033843D01*
X018717Y033854D01*
X018708Y033863D01*
X018699Y033868D01*
X018667Y0339D01*
X018647Y033911D01*
X018642Y03392D01*
X018636Y033927D01*
X018627Y033931D01*
X01862Y033938D01*
X018618Y033945D01*
X018609Y033949D01*
X018597Y03396D01*
X018593Y033974D01*
X018611Y033979D01*
X018606Y033988D01*
X018595Y034008D01*
X018586Y034012D01*
X018563Y034039D01*
X018527Y034076D01*
X018518Y03408D01*
X018496Y034103D01*
X018487Y034107D01*
X018455Y034139D01*
X018446Y034143D01*
X018419Y03417D01*
X01841Y034175D01*
X018399Y034191D01*
X018363Y034218D01*
X018361Y034224D01*
X018351Y034229D01*
X01834Y03424D01*
X018338Y034247D01*
X018315Y03426D01*
X018302Y034274D01*
X018293Y034279D01*
X018286Y034285D01*
X018284Y034292D01*
X018261Y034301D01*
X018239Y034297D01*
X018236Y034294D01*
X01825Y034272D01*
X018268Y034263D01*
X018273Y034254D01*
X018284Y034242D01*
X018293Y034238D01*
X018333Y034197D01*
X018342Y034193D01*
X01837Y034166D01*
X018379Y034161D01*
X018388Y034152D01*
X018397Y034148D01*
X018428Y034116D01*
X018437Y034112D01*
X018455Y034094D01*
X018464Y034089D01*
X018476Y034073D01*
X018491Y034062D01*
X0185Y034053D01*
X018516Y034046D01*
X018521Y034037D01*
X018534Y034024D01*
X018532Y034017D01*
X018523Y034021D01*
X018514Y03403D01*
X018494Y034042D01*
X018489Y034051D01*
X018471Y03406D01*
X018467Y034069D01*
X018439Y034087D01*
X018428Y034098D01*
X018419Y034103D01*
X018401Y034121D01*
X018379Y034134D01*
X01837Y034143D01*
X018361Y034148D01*
X018342Y034166D01*
X018315Y034175D01*
X018297Y034166D01*
X018266Y034179D01*
X018257Y034175D01*
X01825Y034168D01*
X018254Y034136D01*
X018273Y034118D01*
X018286Y034087D01*
X018313Y034028D01*
X018322Y033992D01*
X018336Y03396D01*
X018399Y03383D01*
X018412Y033807D01*
X018421Y033798D01*
X018426Y033771D01*
X018444Y033753D01*
X018448Y033717D01*
X018467Y033676D01*
X01848Y033654D01*
X018489Y033631D01*
X018503Y033609D01*
X018525Y033577D01*
X018543Y033545D01*
X018552Y033536D01*
X018557Y033514D01*
X018579Y033482D01*
X018584Y033473D01*
X018593Y033464D01*
X018604Y033435D01*
X018611Y033428D01*
X018629Y033397D01*
X018656Y033347D01*
X01866Y033333D01*
X018656Y03332D01*
X018649Y033318D01*
X018642Y033324D01*
X018638Y033333D01*
X018629Y033342D01*
X018624Y033361D01*
X018611Y033383D01*
X018588Y033424D01*
X01857Y033451D01*
X018566Y03346D01*
X018559Y033467D01*
X018536Y033462D01*
X018534Y033451D01*
X018548Y033428D01*
X018552Y03341D01*
X018557Y033397D01*
X018566Y033388D01*
X018575Y033365D01*
X018579Y033338D01*
X018588Y033329D01*
X018597Y033297D01*
X018606Y033275D01*
X018618Y033245D01*
X018622Y033223D01*
X018633Y033207D01*
X018638Y033194D01*
X018642Y033176D01*
X018647Y033162D01*
X018656Y033153D01*
X01866Y033135D01*
X018665Y033112D01*
X018683Y033072D01*
X01869Y033042D01*
X018699Y03302D01*
X018706Y032995D01*
X01871Y032954D01*
X018724Y032923D01*
X018733Y03286D01*
X018737Y032837D01*
X018742Y032824D01*
X018746Y032752D01*
X018742Y03272D01*
X018733Y032711D01*
X018719Y032679D01*
X018715Y032643D01*
X01871Y03263D01*
X018706Y032562D01*
X01871Y032548D01*
X018706Y032535D01*
X018701Y032485D01*
X018688Y032454D01*
X018692Y032409D01*
X018708Y032406D01*
X018721Y03242D01*
X018744Y032433D01*
X018757Y032447D01*
X018767Y032452D01*
X018773Y032458D01*
X018782Y032481D01*
X018796Y032494D01*
X018807Y032515D01*
X018816Y032519D01*
X01883Y032524D01*
X018832Y032512D01*
X018809Y032481D01*
X018805Y032472D01*
X018791Y032458D01*
X018787Y032449D01*
X018773Y032436D01*
X01876Y032413D01*
X018751Y032409D01*
X018746Y0324D01*
X018739Y032393D01*
X01873Y032388D01*
X018724Y032382D01*
X018719Y032373D01*
X018694Y032357D01*
X018676Y032339D01*
X018631Y032321D01*
X018624Y032327D01*
X018629Y032345D01*
X018633Y032359D01*
X018613Y032366D01*
X018584Y032377D01*
X018577Y032384D01*
X018548Y032395D01*
X018509Y03242D01*
X0185Y032429D01*
X018469Y032447D01*
X018444Y032467D01*
X018433Y032479D01*
X018424Y032483D01*
X018322Y032585D01*
X018318Y032594D01*
X018282Y03263D01*
X018268Y032652D01*
X018236Y032684D01*
X018223Y032706D01*
X018214Y032715D01*
X018209Y032724D01*
X018191Y032742D01*
X018178Y032765D01*
X018151Y032792D01*
X018137Y032815D01*
X018128Y032824D01*
X018124Y032833D01*
X018083Y032873D01*
X01807Y032896D01*
X018061Y032905D01*
X018054Y032921D01*
X018047Y032923D01*
X018042Y032932D01*
X018031Y032948D01*
X018022Y032952D01*
X018015Y032959D01*
X018011Y032968D01*
X018002Y032973D01*
X017988Y032995D01*
X017979Y033004D01*
X017966Y033027D01*
X017934Y033058D01*
X017923Y033079D01*
X017914Y033083D01*
X017894Y033103D01*
X01788Y033126D01*
X017848Y033157D01*
X017835Y03318D01*
X017803Y033212D01*
X017799Y033221D01*
X017781Y033239D01*
X017767Y033261D01*
X01774Y033288D01*
X017727Y033311D01*
X017718Y03332D01*
X017713Y033329D01*
X017695Y033347D01*
X017682Y03337D01*
X017673Y033379D01*
X017659Y033401D01*
X01765Y03341D01*
X017645Y033419D01*
X017609Y033455D01*
X017596Y033478D01*
X017587Y033487D01*
X01758Y033503D01*
X017573Y033505D01*
X017569Y033514D01*
X017548Y033539D01*
X017519Y033568D01*
X017515Y033577D01*
X017479Y033613D01*
X017465Y033636D01*
X017411Y03369D01*
X017406Y033699D01*
X017395Y03371D01*
X017388Y033712D01*
X017384Y033721D01*
X017377Y033728D01*
X017368Y033733D01*
X017332Y033769D01*
X017323Y033773D01*
X017314Y033791D01*
X017305Y033796D01*
X017298Y033803D01*
X0173Y033809D01*
X017309Y033805D01*
X017323Y033791D01*
X017345Y033778D01*
X017377Y033746D01*
X017384Y033744D01*
X017388Y033735D01*
X017395Y033728D01*
X017404Y033724D01*
X017422Y033701D01*
X017431Y033697D01*
X01747Y033658D01*
X017474Y033649D01*
X017627Y033496D01*
X01763Y033489D01*
X017652Y033476D01*
X017664Y033464D01*
X017668Y033455D01*
X017684Y033439D01*
X017693Y033435D01*
X017749Y033379D01*
X017754Y03337D01*
X017794Y033329D01*
X017799Y03332D01*
X017806Y033313D01*
X017812Y033311D01*
X017817Y033302D01*
X01786Y033245D01*
X01788Y033225D01*
X017885Y033216D01*
X017903Y033198D01*
X017916Y033176D01*
X017925Y033167D01*
X017927Y03316D01*
X017936Y033155D01*
X017959Y033142D01*
X01797Y033144D01*
X017973Y033155D01*
X017957Y033185D01*
X017952Y033194D01*
X017934Y033212D01*
X01793Y03323D01*
X017912Y033248D01*
X017898Y03327D01*
X017887Y033282D01*
X017878Y033286D01*
X017867Y033302D01*
X017853Y033311D01*
X017842Y033331D01*
X017835Y033333D01*
X01783Y033342D01*
X017821Y033351D01*
X017819Y033358D01*
X01781Y033363D01*
X017803Y03337D01*
X017799Y033379D01*
X017783Y03339D01*
X017767Y033415D01*
X017756Y033435D01*
X017747Y033439D01*
X01774Y033446D01*
X017736Y033455D01*
X017722Y033464D01*
X017718Y033473D01*
X017706Y033489D01*
X017697Y033494D01*
X017691Y0335D01*
X017686Y033509D01*
X017677Y033514D01*
X017664Y033536D01*
X017655Y033545D01*
X017641Y033568D01*
X017609Y0336D01*
X017603Y033615D01*
X017594Y03362D01*
X017587Y033627D01*
X017573Y033649D01*
X017564Y033658D01*
X017562Y033665D01*
X017553Y03367D01*
X017546Y033676D01*
X017533Y033699D01*
X017524Y033708D01*
X017519Y033717D01*
X017479Y033757D01*
X017474Y033767D01*
X017463Y033778D01*
X017456Y03378D01*
X017442Y033803D01*
X017431Y033814D01*
X017409Y033827D01*
X017395Y033841D01*
X017386Y033845D01*
X01735Y033882D01*
X017321Y033897D01*
X017316Y033906D01*
X017305Y033918D01*
X017258Y033938D01*
X017262Y033956D01*
X017269Y033963D01*
X01735Y033958D01*
X0174Y033931D01*
X017431Y033913D01*
X017485Y033859D01*
X017492Y033857D01*
X017497Y033848D01*
X017503Y033841D01*
X017512Y033836D01*
X017519Y03383D01*
X017524Y033821D01*
X017539Y033809D01*
X017548Y033796D01*
X017555Y033794D01*
X017569Y033771D01*
X017582Y033762D01*
X017587Y033753D01*
X017594Y033746D01*
X017603Y033742D01*
X017605Y03373D01*
X017589Y033728D01*
X017576Y033751D01*
X017567Y033755D01*
X01756Y033762D01*
X017555Y033771D01*
X017539Y033782D01*
X017535Y033791D01*
X017526Y033796D01*
X017519Y033803D01*
X017515Y033812D01*
X017508Y033818D01*
X017499Y033823D01*
X017485Y033836D01*
X017463Y033845D01*
X017456Y033843D01*
X017461Y03383D01*
X017476Y033809D01*
X017483Y033807D01*
X017494Y033787D01*
X017503Y033782D01*
X01751Y033776D01*
X017521Y033755D01*
X017528Y033753D01*
X01753Y033746D01*
X017553Y033733D01*
X017562Y033719D01*
X017605Y033699D01*
X017609Y03369D01*
X017657Y033642D01*
X017679Y033629D01*
X017776Y033532D01*
X017781Y033518D01*
X017758Y033509D01*
X017749Y033491D01*
X017781Y033451D01*
X017794Y033437D01*
X017808Y033415D01*
X017817Y033406D01*
X017819Y033399D01*
X017828Y033394D01*
X017835Y033388D01*
X017848Y033365D01*
X017948Y033266D01*
X017952Y033257D01*
X017988Y033221D01*
X018002Y033198D01*
X018011Y033189D01*
X018024Y033167D01*
X018033Y033157D01*
X018038Y033148D01*
X018049Y033137D01*
X018056Y033135D01*
X01807Y033112D01*
X018079Y033103D01*
X018083Y033094D01*
X018092Y03309D01*
X018097Y033081D01*
X01811Y033058D01*
X018124Y033049D01*
X018133Y033027D01*
X018146Y033013D01*
X018151Y033004D01*
X018162Y033002D01*
X018176Y033006D01*
X018178Y033D01*
X018164Y032991D01*
X018169Y032973D01*
X018187Y032964D01*
X018191Y032945D01*
X018205Y032932D01*
X018209Y032923D01*
X018223Y032914D01*
X018239Y032885D01*
X018248Y03288D01*
X018259Y032864D01*
X018273Y032851D01*
X018277Y032837D01*
X018291Y032824D01*
X018293Y032817D01*
X018302Y032812D01*
X018313Y032801D01*
X018318Y032792D01*
X018333Y032781D01*
X01834Y032765D01*
X018358Y032747D01*
X018361Y032745D01*
X018381Y032724D01*
X018385Y032715D01*
X018421Y032679D01*
X018426Y03267D01*
X018433Y032664D01*
X018442Y032659D01*
X018457Y032634D01*
X0185Y032591D01*
X018523Y032582D01*
X018545Y032578D01*
X018552Y032571D01*
X018557Y032562D01*
X018568Y032551D01*
X018575Y032548D01*
X018588Y032526D01*
X01862Y032494D01*
X018622Y032488D01*
X018631Y032483D01*
X018654Y032474D01*
X018663Y032479D01*
X01867Y032485D01*
X018679Y032517D01*
X018688Y032539D01*
X018683Y032598D01*
X018679Y03263D01*
X01867Y032652D01*
X018663Y032722D01*
X018654Y032745D01*
X018647Y03277D01*
X018642Y03281D01*
X018624Y032851D01*
X018615Y032887D01*
X018606Y032909D01*
X018602Y032941D01*
X018597Y032959D01*
X018588Y032968D01*
X018579Y033004D01*
X018575Y033031D01*
X018561Y033063D01*
X018557Y033081D01*
X018543Y033103D01*
X018539Y033117D01*
X018534Y033144D01*
X018521Y033157D01*
X018514Y033191D01*
X018503Y033207D01*
X018494Y03323D01*
X018489Y033252D01*
X01848Y033261D01*
X018469Y033291D01*
X018453Y03332D01*
X018385Y03346D01*
X018381Y033469D01*
X018372Y033478D01*
X018361Y033507D01*
X018345Y033536D01*
X018277Y033676D01*
X018273Y033685D01*
X018264Y033694D01*
X018252Y033724D01*
X018236Y033753D01*
X01823Y033769D01*
X018221Y033773D01*
X018214Y03378D01*
X018209Y033803D01*
X018196Y033816D01*
X018191Y033834D01*
X018178Y033857D01*
X018169Y033879D01*
X018162Y033895D01*
X018155Y033897D01*
X018142Y033933D01*
X018133Y033942D01*
X018128Y03396D01*
X018115Y033983D01*
X018106Y034006D01*
X018092Y034028D01*
X018083Y034051D01*
X01807Y034073D01*
X018061Y034096D01*
X018054Y034112D01*
X018047Y034114D01*
X018031Y034157D01*
X018024Y034177D01*
X018029Y034186D01*
X018024Y0342D01*
X01802Y034218D01*
X018024Y034236D01*
X018038Y034249D01*
X018045Y034274D01*
X018056Y034285D01*
X01807Y034308D01*
X018106Y034344D01*
X01811Y034353D01*
X018124Y034366D01*
X018137Y034389D01*
X018148Y034391D01*
X018162Y034387D01*
X018203Y034364D01*
X018232Y034344D01*
X018236Y034335D01*
X018259Y034321D01*
X018264Y034312D01*
X018279Y034306D01*
X018293Y034292D01*
X018315Y034283D01*
X01832Y034274D01*
X018329Y034269D01*
X018354Y034249D01*
X01837Y034238D01*
X018399Y034218D01*
X018403Y034209D01*
X01841Y034202D01*
X018419Y034197D01*
X018478Y034139D01*
X018487Y034134D01*
X018496Y034125D01*
X018505Y034121D01*
X018516Y034109D01*
X018518Y034103D01*
X018527Y034098D01*
X018559Y034076D01*
X018568Y034071D01*
X018593Y034051D01*
X018618Y034035D01*
X018649Y034017D01*
X018658Y034008D01*
X018681Y033994D01*
X01869Y033985D01*
X018706Y033979D01*
X01871Y03397D01*
X018717Y033963D01*
X018739Y033949D01*
X018748Y03394D01*
X018757Y033936D01*
X018821Y033873D01*
X018827Y03387D01*
X01883Y033859D01*
X018827Y033843D01*
X018836Y033834D01*
X018848Y033814D01*
X018857Y033809D01*
X01892Y033746D01*
X01894Y033735D01*
X018945Y033726D01*
X018951Y033719D01*
X01896Y033715D01*
X018972Y033699D01*
X019008Y033676D01*
X019012Y033667D01*
X019019Y033661D01*
X019039Y033649D01*
X019042Y033642D01*
X019064Y033629D01*
X019096Y033597D01*
X019118Y033584D01*
X01915Y033552D01*
X019159Y033548D01*
X019168Y033534D01*
X019177Y03353D01*
X019184Y033523D01*
X019179Y033514D01*
X019168Y033512D01*
X019145Y033521D01*
X019143Y033514D01*
X019163Y033485D01*
X019173Y03348D01*
X019191Y033462D01*
X019204Y033457D01*
X019229Y033433D01*
X019231Y033426D01*
X01924Y033421D01*
X019251Y03341D01*
X019254Y033403D01*
X019263Y033399D01*
X019292Y03337D01*
X019294Y033363D01*
X019303Y033358D01*
X019333Y033329D01*
X019337Y03332D01*
X019344Y033313D01*
X019353Y033309D01*
X019364Y033293D01*
X019378Y033284D01*
X019391Y033261D01*
X019396Y033248D01*
X019394Y033245D01*
X019376Y033264D01*
X019366Y033268D01*
X019355Y033279D01*
X019353Y033286D01*
X019344Y033291D01*
X019337Y033297D01*
X019333Y033306D01*
X019326Y033313D01*
X019303Y033327D01*
X019292Y033338D01*
X01929Y033345D01*
X019276Y033349D01*
X019269Y033342D01*
X019274Y03332D01*
X01929Y033309D01*
X01931Y033288D01*
X019315Y033279D01*
X019333Y033261D01*
X019337Y033252D01*
X019353Y033241D01*
X019362Y033227D01*
X019371Y033223D01*
X019378Y033216D01*
X019382Y033207D01*
X019396Y033198D01*
X019407Y033178D01*
X019414Y033176D01*
X019421Y03316D01*
X01943Y033155D01*
X019436Y033148D01*
X019421Y033146D01*
X019412Y033155D01*
X019405Y033148D01*
X019423Y033117D01*
X019436Y033108D01*
X019452Y033079D01*
X019461Y033074D01*
X019482Y033054D01*
X019486Y033045D01*
X019504Y033027D01*
X019518Y033004D01*
X019549Y032973D01*
X019563Y03295D01*
X01959Y032923D01*
X019594Y032914D01*
X019612Y032896D01*
X019617Y032887D01*
X019624Y03288D01*
X019633Y032876D01*
X019648Y032851D01*
X01966Y032839D01*
X019678Y032835D01*
X019691Y03283D01*
X019694Y032833D01*
X019671Y032873D01*
X019662Y032882D01*
X019657Y032891D01*
X019644Y032905D01*
X019642Y032925D01*
X019662Y032914D01*
X019666Y032905D01*
X019707Y032864D01*
X019712Y032855D01*
X019725Y032842D01*
X019727Y032835D01*
X019736Y03283D01*
X019743Y032824D01*
X019757Y032801D01*
X019784Y032774D01*
X019788Y032765D01*
X019795Y032754D01*
X019804Y032749D01*
X01982Y032724D01*
X019851Y032693D01*
X019865Y03267D01*
X019892Y032643D01*
X019897Y032634D01*
X019915Y032616D01*
X019928Y032594D01*
X01996Y032562D01*
X019973Y032539D01*
X019982Y03253D01*
X019987Y032521D01*
X020005Y032503D01*
X020018Y032481D01*
X020045Y032454D01*
X020059Y032431D01*
X020068Y032422D01*
X020072Y032413D01*
X020091Y032395D01*
X020104Y032373D01*
X020122Y032341D01*
X020131Y032336D01*
X020145Y032314D01*
X020165Y032276D01*
X020174Y032271D01*
X02019Y032246D01*
X020199Y032237D01*
X020203Y032224D01*
X020221Y032206D01*
X020226Y032197D01*
X020255Y032167D01*
X020264Y032163D01*
X020278Y032149D01*
X0203Y03214D01*
X020318Y032145D01*
X02033Y032156D01*
X020339Y032188D01*
X020352Y032219D01*
X020348Y032323D01*
X020343Y032336D01*
X020336Y032406D01*
X020332Y032429D01*
X020327Y032465D01*
X020316Y032476D01*
X020307Y03253D01*
X020298Y032553D01*
X020296Y032587D01*
X020307Y032598D01*
X020312Y032616D01*
X020305Y032623D01*
X020296Y032627D01*
X020289Y032634D01*
X020285Y03267D01*
X020275Y032679D01*
X020271Y032697D01*
X020257Y03272D01*
X020248Y032742D01*
X020235Y032765D01*
X020226Y032774D01*
X020219Y032799D01*
X020212Y032806D01*
X020203Y032828D01*
X020199Y032846D01*
X020185Y032855D01*
X020188Y032876D01*
X020199Y032864D01*
X020212Y032842D01*
X020221Y032833D01*
X020226Y032815D01*
X020239Y032801D01*
X020244Y03277D01*
X020248Y032761D01*
X020275Y032742D01*
X020282Y03274D01*
X020289Y032747D01*
X020294Y032765D01*
X020289Y032792D01*
X02028Y032801D01*
X020262Y032833D01*
X020253Y032842D01*
X020248Y03286D01*
X02023Y032878D01*
X020226Y032896D01*
X020208Y032914D01*
X020194Y032936D01*
X020185Y032945D01*
X020181Y032964D01*
X020174Y03297D01*
X020165Y032975D01*
X020158Y032982D01*
X020154Y033D01*
X020142Y033002D01*
X020136Y032995D01*
X020131Y032982D01*
X020129Y032979D01*
X020122Y032986D01*
X020127Y033018D01*
X020109Y033022D01*
X0201Y033031D01*
X020091Y033054D01*
X020082Y033058D01*
X020072Y033081D01*
X020068Y03309D01*
X020059Y033099D01*
X02005Y033121D01*
X020036Y033135D01*
X020032Y033153D01*
X020027Y033162D01*
X020009Y033189D01*
X020005Y033198D01*
X019991Y033212D01*
X019987Y033239D01*
X019969Y033257D01*
X019937Y033315D01*
X019928Y03332D01*
X019915Y033342D01*
X019906Y033351D01*
X019899Y033376D01*
X019883Y033388D01*
X019869Y03341D01*
X01986Y033419D01*
X019856Y033442D01*
X01984Y033453D01*
X019836Y033471D01*
X019824Y033487D01*
X019815Y033496D01*
X019811Y033505D01*
X019797Y033518D01*
X019786Y033548D01*
X01977Y033564D01*
X019766Y033577D01*
X019743Y033609D01*
X019739Y033618D01*
X019732Y033624D01*
X019725Y033627D01*
X019716Y033649D01*
X0197Y033679D01*
X019691Y033683D01*
X019678Y033715D01*
X019669Y033719D01*
X019662Y033726D01*
X019657Y033753D01*
X019621Y033789D01*
X019615Y033818D01*
X019601Y033823D01*
X019585Y033825D01*
X019581Y033852D01*
X019567Y033861D01*
X019563Y03387D01*
X019551Y033882D01*
X019545Y033884D01*
X01954Y033893D01*
X019513Y03392D01*
X0195Y033942D01*
X019491Y033951D01*
X019468Y033992D01*
X019461Y034003D01*
X019454Y034006D01*
X01945Y034015D01*
X019439Y03403D01*
X019432Y034033D01*
X019418Y034055D01*
X019409Y034064D01*
X019396Y034087D01*
X019387Y034096D01*
X019382Y034114D01*
X019364Y034132D01*
X019351Y034154D01*
X019342Y034163D01*
X019337Y034173D01*
X019319Y034191D01*
X019306Y034213D01*
X019297Y034222D01*
X019283Y034245D01*
X019256Y034272D01*
X019251Y034281D01*
X019233Y034299D01*
X01922Y034321D01*
X019211Y03433D01*
X019197Y034353D01*
X019188Y034362D01*
X019184Y034371D01*
X019166Y034389D01*
X019152Y034412D01*
X019143Y034421D01*
X019136Y034436D01*
X01913Y034439D01*
X019125Y034448D01*
X019114Y034463D01*
X019107Y034466D01*
X019094Y034488D01*
X019085Y034497D01*
X019071Y03452D01*
X019062Y034529D01*
X019057Y034547D01*
X019039Y034565D01*
X019033Y03459D01*
X019024Y034594D01*
X019017Y034601D01*
X019008Y034637D01*
X018994Y034669D01*
X01899Y034714D01*
X018985Y034723D01*
X01899Y034736D01*
X018985Y03475D01*
X01899Y034763D01*
X018994Y034795D01*
X018999Y034809D01*
X019012Y034822D01*
X019026Y034845D01*
X019035Y034854D01*
X019039Y034867D01*
X019064Y034883D01*
X019073Y034892D01*
X019096Y034906D01*
X019105Y034915D01*
X019127Y03491D01*
D02*
G37*
G36*
X018417Y03406D02*
X018415Y034057D01*
X018412Y03406D01*
X018415Y034062D01*
X018417Y03406D01*
D02*
G37*
G36*
X018588Y033979D02*
X018582Y033976D01*
X018566Y033988D01*
X018563Y03399D01*
X018557Y033997D01*
X018568Y033999D01*
X018588Y033979D01*
D02*
G37*
G36*
X01975Y034048D02*
X019763Y034044D01*
X01977Y034037D01*
X019797Y033988D01*
X019811Y033974D01*
X019815Y033965D01*
X019824Y033956D01*
X019829Y033947D01*
X019833Y033933D01*
X019831Y033927D01*
X019813Y033931D01*
X019802Y033947D01*
X019793Y033956D01*
X019791Y033963D01*
X019788Y033965D01*
X01977Y033992D01*
X019766Y034006D01*
X019748Y034024D01*
X019741Y034048D01*
X019734Y034055D01*
X019736Y034062D01*
X01975Y034048D01*
D02*
G37*
G36*
X019978Y033654D02*
X019976Y033651D01*
X019973Y033654D01*
X019976Y033656D01*
X019978Y033654D01*
D02*
G37*
G36*
X02Y033622D02*
X019998Y03362D01*
X019996Y033622D01*
X019991Y033627D01*
X019998Y033629D01*
X02Y033622D01*
D02*
G37*
G36*
X020023Y033591D02*
Y033586D01*
X020021Y033584D01*
X020018Y033591D01*
X020021Y033593D01*
X020023Y033591D01*
D02*
G37*
G36*
X019459Y03313D02*
X019457Y033124D01*
X019448Y033128D01*
X019445Y03313D01*
X019457Y033133D01*
X019459Y03313D01*
D02*
G37*
G36*
X018688Y033266D02*
Y033261D01*
X018706Y033221D01*
X018712Y033196D01*
X018724Y033185D01*
X018737Y033148D01*
X018746Y033139D01*
X018751Y033121D01*
X018744Y03311D01*
X018735Y033115D01*
X018726Y033142D01*
X018717Y033146D01*
X01871Y033153D01*
X018706Y03318D01*
X018688Y033198D01*
X018683Y03323D01*
X01867Y033252D01*
X018674Y033275D01*
X018676Y033277D01*
X018688Y033266D01*
D02*
G37*
G36*
X019482Y033103D02*
X019475Y033101D01*
X019473Y033103D01*
X019475Y03311D01*
X019482Y033103D01*
D02*
G37*
G36*
X018223Y032959D02*
X018221Y032957D01*
X018214Y032959D01*
X018221Y032961D01*
X018223Y032959D01*
D02*
G37*
G36*
X018243Y032934D02*
X018245Y032932D01*
X018239Y03293D01*
X018236Y032936D01*
X018239Y032939D01*
X018243Y032934D01*
D02*
G37*
G36*
X020172Y032914D02*
X020176Y032896D01*
X020169Y032894D01*
X020163Y0329D01*
X020165Y032916D01*
X020169D01*
X020172Y032914D01*
D02*
G37*
G36*
X019664Y032984D02*
X019673Y032979D01*
X019685Y032968D01*
X019691Y032952D01*
X0197Y032948D01*
X019707Y032941D01*
X019712Y032932D01*
X019725Y032918D01*
X01973Y032909D01*
X019736Y032903D01*
X019745Y032898D01*
X019752Y032878D01*
X01975Y032876D01*
X01973Y032887D01*
X019727Y032894D01*
X019725Y032896D01*
X019685Y032936D01*
X01968Y032945D01*
X019657Y032968D01*
X019653Y032977D01*
X019648Y032991D01*
X019655Y032993D01*
X019664Y032984D01*
D02*
G37*
G36*
X017249Y032828D02*
X017246Y032821D01*
X017228Y032826D01*
X017226Y032828D01*
X017228Y03283D01*
X017249Y032828D01*
D02*
G37*
G36*
X018767Y033092D02*
X018773Y033085D01*
X018778Y033067D01*
X018791Y033045D01*
X018798Y033015D01*
X018809Y033009D01*
X018814Y032991D01*
Y032959D01*
X018816Y032957D01*
X018823Y032932D01*
X018827Y032833D01*
X018825Y032799D01*
X018821Y032839D01*
X018814Y03286D01*
X018818Y032869D01*
X0188Y032909D01*
X018796Y032964D01*
X018791Y032977D01*
X018787Y032995D01*
X018778Y033018D01*
X018767Y033047D01*
X018755Y033067D01*
X018751Y033085D01*
X018753Y033097D01*
X018767Y033092D01*
D02*
G37*
G36*
X01827Y032912D02*
X018282Y032896D01*
X018291Y032891D01*
X018295Y032882D01*
X018306Y032871D01*
X018315Y032867D01*
X018329Y032844D01*
X018338Y032839D01*
X018349Y032824D01*
X018365Y032812D01*
X018372Y032797D01*
X018381Y032788D01*
X018374Y032785D01*
X018365Y032794D01*
X018345Y032806D01*
X01834Y032815D01*
X018333Y032821D01*
X018329D01*
X018327Y032824D01*
X018318Y032833D01*
X018315Y032839D01*
X018306Y032844D01*
X0183Y032851D01*
X018286Y032873D01*
X018277Y032878D01*
X018273Y032887D01*
X018259Y0329D01*
X018261Y032916D01*
X01827Y032912D01*
D02*
G37*
G36*
X018832Y032765D02*
Y032761D01*
X01883Y03274D01*
X018827Y032788D01*
X01883Y03279D01*
X018832Y032765D01*
D02*
G37*
G36*
X017251Y0339D02*
X017267Y033893D01*
X017264Y033886D01*
X017235Y033875D01*
X01723Y033852D01*
X017244Y03383D01*
X017249Y033816D01*
X017239Y033807D01*
X017235Y033789D01*
X017239Y033708D01*
X017258Y033667D01*
X017262Y033658D01*
X017271Y033649D01*
X017276Y033631D01*
X01728Y033622D01*
X017298Y033595D01*
X017303Y033577D01*
X017316Y033554D01*
X017325Y033532D01*
X017334Y033523D01*
X017348Y033487D01*
X017357Y033478D01*
X017361Y03346D01*
X017366Y033437D01*
X017384Y033397D01*
X017391Y033367D01*
X017402Y033356D01*
X017406Y033338D01*
X017411Y033315D01*
X01742Y033306D01*
X017429Y033284D01*
X017447Y033243D01*
X017454Y033218D01*
X01747Y033203D01*
X017474Y033167D01*
X017483Y033157D01*
X017492Y033135D01*
X017494Y033124D01*
X017497Y033121D01*
X017501Y033103D01*
X017515Y03309D01*
X017519Y033045D01*
X017533Y033031D01*
X017539Y033006D01*
X017555Y032968D01*
X017551Y032932D01*
X017546Y032927D01*
X017551Y032914D01*
X017546Y032882D01*
X017537Y03286D01*
X017533Y032815D01*
X017515Y032788D01*
X01751Y032756D01*
X017497Y032742D01*
X017479Y032711D01*
X017458Y032686D01*
X017445Y032673D01*
X017415Y032661D01*
X017395Y032655D01*
X017373Y032668D01*
X01735Y032677D01*
X017318Y032682D01*
X017305Y032686D01*
X017287Y032691D01*
X017264Y0327D01*
X017233Y032713D01*
X017215Y032718D01*
X017201Y032731D01*
X017176Y032738D01*
X017165Y032754D01*
X017136Y032765D01*
X017124Y032776D01*
X017109Y032783D01*
X017104Y032792D01*
X017097Y032799D01*
X017075Y032812D01*
X017066Y032821D01*
X017057Y032826D01*
X01703Y032844D01*
X017021Y032848D01*
X017007Y032862D01*
X016976Y03288D01*
X016953Y032889D01*
X016944Y032894D01*
X016921Y032907D01*
X016912Y032912D01*
X016894Y03293D01*
X016854Y032952D01*
X016847Y032959D01*
X016833Y032986D01*
X01684Y032997D01*
X016858Y033002D01*
X016894Y032997D01*
X016917Y032988D01*
X016935Y032984D01*
X016944Y032979D01*
X016967Y032966D01*
X017009Y03295D01*
X01703Y032943D01*
X017052Y03293D01*
X017061Y032921D01*
X017084Y032907D01*
X017106Y032898D01*
X017115Y032894D01*
X017138Y03288D01*
X017156Y032876D01*
X017165Y032867D01*
X017174Y032862D01*
X017188Y032858D01*
X017208Y032846D01*
X017203Y032828D01*
X017199Y032815D01*
X01721Y032799D01*
X017228Y032794D01*
X017242Y03279D01*
X01726Y032772D01*
X017278Y032767D01*
X017285Y032761D01*
X017287Y032754D01*
X017305Y032749D01*
X017332Y032745D01*
X017341Y032736D01*
X017373Y032731D01*
X017395Y03274D01*
X017406Y032747D01*
X017411Y032765D01*
X017406Y032788D01*
X017397Y03281D01*
X017393Y032878D01*
X017375Y032918D01*
X017366Y032954D01*
X017348Y033D01*
X017341Y033024D01*
X01733Y033036D01*
X017325Y033054D01*
X017321Y03309D01*
X017307Y033103D01*
X017303Y033135D01*
X017298Y033144D01*
X017289Y033153D01*
X017285Y033171D01*
X01728Y033203D01*
X017262Y03323D01*
X017258Y03327D01*
X017249Y033279D01*
X017239Y033302D01*
X017235Y033351D01*
X017217Y033392D01*
X01721Y033417D01*
X017199Y033428D01*
X017194Y03346D01*
X01719Y033469D01*
X017181Y033478D01*
X017176Y033496D01*
X01717Y033521D01*
X017158Y03355D01*
X017154Y033568D01*
X017145Y033595D01*
X017149Y033609D01*
X017131Y033627D01*
X017122Y033663D01*
X017106Y033683D01*
X017093Y033688D01*
X017086Y033694D01*
X017091Y033753D01*
X017109Y03378D01*
X017113Y033789D01*
X017127Y033803D01*
X01714Y033825D01*
X017149Y033834D01*
X017163Y033857D01*
X017217Y033911D01*
X017219Y033918D01*
X01723Y03392D01*
X017251Y0339D01*
D02*
G37*
G36*
X01885Y032679D02*
Y032625D01*
Y032621D01*
X018845Y032562D01*
X018843Y03256D01*
X018836Y032567D01*
X018845Y032598D01*
X018841Y032652D01*
X018836Y032666D01*
X018839Y032682D01*
X01885Y032679D01*
D02*
G37*
G36*
X020478Y032305D02*
Y0323D01*
X020472Y032289D01*
X020469Y032305D01*
X020476Y032312D01*
X020478Y032305D01*
D02*
G37*
G36*
X020474Y032242D02*
X020467Y032235D01*
X02046Y032242D01*
X020469Y03226D01*
Y032264D01*
X020472Y032267D01*
X020474Y032242D01*
D02*
G37*
G36*
X01872Y03124D02*
X016858D01*
Y031834D01*
X01872D01*
Y03124D01*
D02*
G37*
G36*
X019716Y031364D02*
X019636D01*
Y031612D01*
X01957Y031364D01*
X019502D01*
X019438Y031612D01*
Y031364D01*
X019339D01*
Y03171D01*
X019479D01*
X019527Y031526D01*
X019577Y03171D01*
X019716D01*
Y031364D01*
D02*
G37*
G36*
X020072D02*
X019986D01*
Y031531D01*
X019986Y031541D01*
X019987Y03155D01*
X019989Y03156D01*
X01999Y031568D01*
X019992Y031576D01*
X019993Y031583D01*
X019994Y031585D01*
X019994Y031586D01*
X019995Y031588D01*
Y031588D01*
X019988Y031573D01*
X019981Y031559D01*
X019975Y031547D01*
X019969Y031537D01*
X019965Y031528D01*
X019963Y031525D01*
X019961Y031522D01*
X01996Y03152D01*
X019959Y031518D01*
X019958Y031517D01*
Y031517D01*
X019862Y031364D01*
X019776D01*
Y03171D01*
X019862D01*
Y031607D01*
X019862Y03159D01*
X019861Y031573D01*
X01986Y031558D01*
X019859Y031544D01*
X019858Y031538D01*
X019857Y031533D01*
X019856Y031528D01*
X019856Y031524D01*
X019855Y031521D01*
Y031519D01*
X019855Y031517D01*
Y031517D01*
X01986Y031528D01*
X019866Y031539D01*
X019872Y03155D01*
X019877Y031561D01*
X019883Y03157D01*
X019885Y031573D01*
X019887Y031577D01*
X019889Y031579D01*
X01989Y031582D01*
X01989Y031583D01*
X019891Y031583D01*
X019972Y03171D01*
X020072D01*
Y031364D01*
D02*
G37*
G36*
X020413Y031475D02*
X020413Y031464D01*
X020412Y031453D01*
X02041Y031444D01*
X020407Y031435D01*
X020404Y031427D01*
X020401Y031419D01*
X020398Y031413D01*
X020394Y031407D01*
X02039Y031402D01*
X020387Y031398D01*
X020383Y031394D01*
X02038Y031391D01*
X020378Y031388D01*
X020376Y031387D01*
X020375Y031386D01*
X020374Y031386D01*
X020366Y031381D01*
X020358Y031377D01*
X02035Y031373D01*
X020341Y03137D01*
X020323Y031365D01*
X020306Y031362D01*
X020299Y03136D01*
X020292Y03136D01*
X020285Y031359D01*
X02028Y031359D01*
X020275Y031358D01*
X020269D01*
X020257Y031359D01*
X020246Y031359D01*
X020236Y031361D01*
X020227Y031363D01*
X020218Y031365D01*
X020209Y031367D01*
X020202Y03137D01*
X020195Y031372D01*
X020188Y031375D01*
X020183Y031378D01*
X020179Y03138D01*
X020175Y031382D01*
X020172Y031384D01*
X020169Y031386D01*
X020168Y031386D01*
X020168Y031387D01*
X020161Y031393D01*
X020155Y031399D01*
X02015Y031406D01*
X020145Y031413D01*
X020141Y031421D01*
X020138Y031429D01*
X020136Y031437D01*
X020134Y031445D01*
X020132Y031452D01*
X020131Y031458D01*
X02013Y031465D01*
X020129Y03147D01*
X020129Y031475D01*
Y031478D01*
Y03148D01*
Y031481D01*
Y03171D01*
X020212D01*
Y031507D01*
Y031496D01*
X020213Y031488D01*
X020214Y031481D01*
Y031475D01*
X020214Y031471D01*
X020215Y031469D01*
X020215Y031467D01*
Y031466D01*
X020216Y031463D01*
X020218Y031459D01*
X020223Y031453D01*
X020226Y031451D01*
X020228Y031449D01*
X020229Y031448D01*
X02023Y031448D01*
X020235Y031445D01*
X02024Y031443D01*
X020245Y031442D01*
X02025Y031441D01*
X020254Y03144D01*
X020258Y03144D01*
X020262D01*
X02027Y03144D01*
X020276Y031441D01*
X020282Y031443D01*
X020287Y031445D01*
X020291Y031447D01*
X020293Y031449D01*
X020294Y03145D01*
X020295Y031451D01*
X020298Y031455D01*
X020301Y031461D01*
X020303Y031467D01*
X020304Y031473D01*
X020305Y031478D01*
X020305Y031483D01*
Y031486D01*
Y031487D01*
Y03171D01*
X020413D01*
Y031475D01*
D02*
G37*
G36*
X019279Y031364D02*
X019018D01*
Y031447D01*
X019175D01*
Y031503D01*
X019048D01*
Y03158D01*
X019175D01*
Y031631D01*
X019018D01*
Y03171D01*
X019279D01*
Y031364D01*
D02*
G37*
G36*
X018976D02*
X018869D01*
Y03171D01*
X018976D01*
Y031364D01*
D02*
G37*
G36*
X011378Y015433D02*
X010484D01*
Y027166D01*
X011378D01*
Y015433D01*
D02*
G37*
%LPC*%
G36*
X018158Y034301D02*
X018151Y034299D01*
X018155Y034281D01*
X018162Y034274D01*
X018176D01*
X018178Y034276D01*
X018173Y034285D01*
X018158Y034301D01*
D02*
G37*
G36*
X01744Y033868D02*
X017438Y033866D01*
X01744Y033863D01*
X017442Y033866D01*
X01744Y033868D01*
D02*
G37*
G36*
X019885Y033588D02*
X019879Y033577D01*
X019885Y033566D01*
X01989D01*
X019897Y033573D01*
X019892Y033582D01*
X019885Y033588D01*
D02*
G37*
G36*
X01993Y033525D02*
X019928Y033523D01*
X01993Y033521D01*
X019933Y033523D01*
X01993Y033525D01*
D02*
G37*
G36*
X019123Y033363D02*
X019116Y033356D01*
X019121Y033333D01*
X019145Y0333D01*
X019148Y033297D01*
X019184Y033261D01*
X019188Y033252D01*
X019204Y033241D01*
X019213Y033232D01*
X019227Y033227D01*
X019229Y033248D01*
X019215Y033261D01*
X019202Y033284D01*
X01917Y033324D01*
X019159Y03334D01*
X01915Y033345D01*
X019143Y033351D01*
X019139Y033361D01*
X019123Y033363D01*
D02*
G37*
G36*
X01924Y033223D02*
X019238Y033221D01*
X01924Y033218D01*
X019242Y033221D01*
X01924Y033223D01*
D02*
G37*
G36*
X020129Y033047D02*
X020127Y033045D01*
X020124Y033042D01*
X020122Y033031D01*
X020129Y033024D01*
X020133Y033042D01*
X020129Y033047D01*
D02*
G37*
G36*
X019714Y032808D02*
X019712Y032806D01*
X019714Y032803D01*
X019716Y032806D01*
X019714Y032808D01*
D02*
G37*
G36*
X019736Y032785D02*
X019734Y032783D01*
X019736Y032781D01*
X019739Y032783D01*
X019736Y032785D01*
D02*
G37*
G36*
X020305Y032573D02*
X020303Y032571D01*
X020309Y032564D01*
X020321Y032567D01*
Y032571D01*
X020305Y032573D01*
D02*
G37*
G36*
X017377Y033264D02*
X01737Y033257D01*
X017375Y033243D01*
X017377Y033241D01*
X017384Y033252D01*
X017379Y033261D01*
X017377Y033264D01*
D02*
G37*
G36*
X017382Y033227D02*
X017375Y033207D01*
X017379Y033189D01*
X017388Y033167D01*
X017393Y033157D01*
X0174Y033151D01*
X017406Y033148D01*
Y033144D01*
X017411Y033085D01*
X017424Y033054D01*
X017431Y033002D01*
X017438Y032986D01*
X017458Y032961D01*
X017463Y032957D01*
X01747Y032964D01*
X017474Y032982D01*
X01747Y033036D01*
X017461Y033058D01*
X017456Y033076D01*
X017451Y033099D01*
X017438Y033112D01*
X017431Y033137D01*
X01742Y033153D01*
X017411Y033162D01*
X017406Y033212D01*
X0174Y033218D01*
X017382Y033227D01*
D02*
G37*
G36*
X017463Y032948D02*
X017461Y032941D01*
X017463Y032939D01*
X017465Y032945D01*
X017463Y032948D01*
D02*
G37*
G36*
X018602Y03171D02*
X018416D01*
X018412Y03171D01*
X018407Y031709D01*
X018401Y031709D01*
X018394Y031708D01*
X018387Y031707D01*
X018372Y031703D01*
X018357Y031698D01*
X018349Y031695D01*
X018342Y031691D01*
X018335Y031687D01*
X018328Y031682D01*
X018328Y031681D01*
X018327Y031681D01*
X018325Y031679D01*
X018323Y031677D01*
X018321Y031674D01*
X018318Y031671D01*
X018315Y031667D01*
X018311Y031662D01*
X018305Y031651D01*
X0183Y031639D01*
X018298Y031632D01*
X018297Y031624D01*
X018296Y031617D01*
X018295Y031608D01*
Y031607D01*
Y031607D01*
Y031605D01*
Y031603D01*
X018296Y031597D01*
X018297Y03159D01*
X018298Y031582D01*
X0183Y031573D01*
X018303Y031564D01*
X018308Y031555D01*
X018308Y031554D01*
X01831Y031551D01*
X018314Y031547D01*
X018318Y031541D01*
X018325Y031535D01*
X018333Y031528D01*
X018338Y031525D01*
X018344Y031521D01*
X01835Y031518D01*
X018357Y031514D01*
X018294Y031364D01*
X018412D01*
X018463Y031496D01*
X018496D01*
Y031364D01*
X018602D01*
Y03171D01*
D02*
G37*
G36*
X017884D02*
X017703D01*
X0177Y03171D01*
X017695Y031709D01*
X01769Y031709D01*
X017678Y031707D01*
X017665Y031704D01*
X017652Y031699D01*
X017646Y031696D01*
X017639Y031692D01*
X017634Y031688D01*
X017629Y031683D01*
X017628Y031682D01*
X017628Y031681D01*
X017627Y03168D01*
X017625Y031678D01*
X017621Y031672D01*
X017616Y031664D01*
X017611Y031655D01*
X017607Y031644D01*
X017604Y031632D01*
X017603Y031626D01*
Y031619D01*
Y031619D01*
Y031618D01*
Y031615D01*
X017604Y03161D01*
X017605Y031604D01*
X017607Y031596D01*
X017609Y031589D01*
X017613Y03158D01*
X017618Y031572D01*
X017618Y031571D01*
X017621Y031569D01*
X017624Y031565D01*
X017629Y031561D01*
X017635Y031556D01*
X017642Y031552D01*
X017651Y031547D01*
X017662Y031544D01*
X017661D01*
X017659Y031543D01*
X017656Y031542D01*
X017651Y031541D01*
X017646Y031538D01*
X01764Y031535D01*
X017634Y031532D01*
X017628Y031528D01*
X017621Y031523D01*
X017615Y031517D01*
X01761Y031511D01*
X017604Y031503D01*
X0176Y031495D01*
X017597Y031485D01*
X017594Y031475D01*
X017594Y031463D01*
Y031459D01*
X017594Y031457D01*
Y031453D01*
X017595Y031449D01*
X017597Y03144D01*
X0176Y031429D01*
X017604Y031418D01*
X01761Y031406D01*
X017614Y0314D01*
X017618Y031394D01*
Y031393D01*
X017619Y031393D01*
X017621Y031391D01*
X017623Y031389D01*
X017626Y031387D01*
X017629Y031384D01*
X017634Y031382D01*
X01764Y031379D01*
X017646Y031376D01*
X017653Y031373D01*
X017662Y031371D01*
X017671Y031369D01*
X017681Y031366D01*
X017693Y031365D01*
X017705Y031364D01*
X017719Y031364D01*
X017884D01*
Y03171D01*
D02*
G37*
G36*
X017221D02*
X016976D01*
Y031627D01*
X017048D01*
Y031364D01*
X017149D01*
Y031627D01*
X017221D01*
Y03171D01*
D02*
G37*
G36*
X018093Y031716D02*
X01809D01*
X018086Y031715D01*
X018081D01*
X018075Y031714D01*
X018068Y031713D01*
X01806Y031712D01*
X018051Y03171D01*
X018042Y031707D01*
X018032Y031704D01*
X018023Y0317D01*
X018013Y031696D01*
X018003Y03169D01*
X017993Y031684D01*
X017984Y031677D01*
X017975Y031668D01*
X017974Y031667D01*
X017973Y031666D01*
X017971Y031663D01*
X017968Y031659D01*
X017964Y031654D01*
X01796Y031648D01*
X017956Y031642D01*
X017952Y031634D01*
X017948Y031625D01*
X017944Y031615D01*
X01794Y031605D01*
X017936Y031594D01*
X017934Y031582D01*
X017931Y031568D01*
X01793Y031555D01*
X017929Y03154D01*
Y031536D01*
X01793Y031532D01*
Y031526D01*
X017931Y031519D01*
X017931Y031511D01*
X017933Y031502D01*
X017935Y031493D01*
X017937Y031482D01*
X017941Y031472D01*
X017944Y03146D01*
X017949Y031449D01*
X017954Y031439D01*
X01796Y031428D01*
X017967Y031418D01*
X017976Y031408D01*
X017976Y031407D01*
X017978Y031406D01*
X01798Y031404D01*
X017984Y0314D01*
X017989Y031396D01*
X017994Y031392D01*
X018Y031388D01*
X018008Y031383D01*
X018015Y031378D01*
X018025Y031374D01*
X018035Y03137D01*
X018045Y031366D01*
X018056Y031363D01*
X018068Y03136D01*
X018081Y031359D01*
X018094Y031358D01*
X018097D01*
X018101Y031359D01*
X018106D01*
X018113Y03136D01*
X01812Y031361D01*
X018128Y031362D01*
X018136Y031364D01*
X018145Y031367D01*
X018155Y03137D01*
X018165Y031374D01*
X018175Y031378D01*
X018185Y031384D01*
X018195Y03139D01*
X018204Y031398D01*
X018213Y031406D01*
X018214Y031407D01*
X018215Y031409D01*
X018217Y031411D01*
X01822Y031415D01*
X018223Y03142D01*
X018228Y031426D01*
X018232Y031433D01*
X018236Y031441D01*
X01824Y031449D01*
X018244Y031459D01*
X018248Y03147D01*
X018252Y031482D01*
X018255Y031494D01*
X018257Y031507D01*
X018258Y031522D01*
X018259Y031536D01*
Y03154D01*
X018258Y031544D01*
Y031549D01*
X018258Y031556D01*
X018257Y031564D01*
X018255Y031572D01*
X018253Y031582D01*
X018251Y031591D01*
X018248Y031602D01*
X018245Y031613D01*
X01824Y031624D01*
X018235Y031635D01*
X018229Y031645D01*
X018223Y031655D01*
X018215Y031665D01*
X018215Y031666D01*
X018213Y031667D01*
X018211Y03167D01*
X018207Y031673D01*
X018203Y031677D01*
X018197Y031681D01*
X018191Y031686D01*
X018184Y031691D01*
X018175Y031695D01*
X018166Y0317D01*
X018156Y031704D01*
X018145Y031708D01*
X018133Y031711D01*
X018121Y031714D01*
X018107Y031715D01*
X018093Y031716D01*
D02*
G37*
G36*
X0174D02*
X017396D01*
X017392Y031715D01*
X017388D01*
X017382Y031714D01*
X017374Y031713D01*
X017366Y031712D01*
X017357Y03171D01*
X017348Y031707D01*
X017339Y031704D01*
X017329Y0317D01*
X017319Y031696D01*
X017309Y03169D01*
X0173Y031684D01*
X01729Y031677D01*
X017282Y031668D01*
X017281Y031667D01*
X017279Y031666D01*
X017277Y031663D01*
X017274Y031659D01*
X017271Y031654D01*
X017267Y031648D01*
X017263Y031642D01*
X017259Y031634D01*
X017254Y031625D01*
X01725Y031615D01*
X017246Y031605D01*
X017243Y031594D01*
X01724Y031582D01*
X017238Y031568D01*
X017236Y031555D01*
X017236Y03154D01*
Y031536D01*
X017236Y031532D01*
Y031526D01*
X017237Y031519D01*
X017238Y031511D01*
X01724Y031502D01*
X017242Y031493D01*
X017244Y031482D01*
X017247Y031472D01*
X017251Y03146D01*
X017255Y031449D01*
X017261Y031439D01*
X017267Y031428D01*
X017274Y031418D01*
X017282Y031408D01*
X017283Y031407D01*
X017284Y031406D01*
X017287Y031404D01*
X01729Y0314D01*
X017295Y031396D01*
X017301Y031392D01*
X017307Y031388D01*
X017314Y031383D01*
X017322Y031378D01*
X017331Y031374D01*
X017341Y03137D01*
X017351Y031366D01*
X017363Y031363D01*
X017374Y03136D01*
X017388Y031359D01*
X017401Y031358D01*
X017404D01*
X017408Y031359D01*
X017413D01*
X017419Y03136D01*
X017426Y031361D01*
X017434Y031362D01*
X017443Y031364D01*
X017452Y031367D01*
X017462Y03137D01*
X017472Y031374D01*
X017481Y031378D01*
X017492Y031384D01*
X017501Y03139D01*
X017511Y031398D01*
X01752Y031406D01*
X01752Y031407D01*
X017522Y031409D01*
X017524Y031411D01*
X017527Y031415D01*
X01753Y03142D01*
X017534Y031426D01*
X017538Y031433D01*
X017543Y031441D01*
X017547Y031449D01*
X017551Y031459D01*
X017555Y03147D01*
X017558Y031482D01*
X017561Y031494D01*
X017563Y031507D01*
X017565Y031522D01*
X017566Y031536D01*
Y03154D01*
X017565Y031544D01*
Y031549D01*
X017564Y031556D01*
X017563Y031564D01*
X017562Y031572D01*
X01756Y031582D01*
X017558Y031591D01*
X017555Y031602D01*
X017551Y031613D01*
X017547Y031624D01*
X017542Y031635D01*
X017536Y031645D01*
X017529Y031655D01*
X017522Y031665D01*
X017521Y031666D01*
X01752Y031667D01*
X017517Y03167D01*
X017514Y031673D01*
X017509Y031677D01*
X017504Y031681D01*
X017497Y031686D01*
X01749Y031691D01*
X017481Y031695D01*
X017473Y0317D01*
X017462Y031704D01*
X017451Y031708D01*
X01744Y031711D01*
X017427Y031714D01*
X017414Y031715D01*
X0174Y031716D01*
D02*
G37*
%LPD*%
G36*
X018496Y03157D02*
X018447D01*
X018443Y031571D01*
X018439Y031571D01*
X018434Y031572D01*
X018428Y031573D01*
X018423Y031576D01*
X018418Y031578D01*
X018418Y031579D01*
X018416Y03158D01*
X018415Y031582D01*
X018412Y031584D01*
X01841Y031588D01*
X018408Y031592D01*
X018406Y031597D01*
X018406Y031603D01*
Y031603D01*
Y031605D01*
Y031606D01*
X018406Y031608D01*
X018408Y031614D01*
X018411Y03162D01*
X018413Y031623D01*
X018416Y031626D01*
X018419Y031629D01*
X018423Y031631D01*
X018428Y031633D01*
X018434Y031635D01*
X01844Y031636D01*
X018447Y031637D01*
X018496D01*
Y03157D01*
D02*
G37*
G36*
X017787Y031578D02*
X017734D01*
X017731Y031578D01*
X017727Y031579D01*
X017723Y03158D01*
X017718Y031582D01*
X017715Y031584D01*
X017711Y031587D01*
X017711Y031588D01*
X01771Y031589D01*
X017709Y03159D01*
X017707Y031593D01*
X017704Y031599D01*
X017704Y031603D01*
X017703Y031607D01*
Y031607D01*
Y031608D01*
X017704Y031611D01*
X017705Y031616D01*
X017707Y031621D01*
X017712Y031627D01*
X017715Y03163D01*
X017718Y031632D01*
X017722Y031633D01*
X017727Y031635D01*
X017733Y031636D01*
X017739Y031636D01*
X017787D01*
Y031578D01*
D02*
G37*
G36*
Y031441D02*
X017731D01*
X017728Y031441D01*
X017724Y031442D01*
X017719Y031443D01*
X017715Y031445D01*
X01771Y031447D01*
X017706Y03145D01*
X017706Y031451D01*
X017705Y031452D01*
X017704Y031454D01*
X017701Y031457D01*
X0177Y03146D01*
X017699Y031464D01*
X017698Y031467D01*
X017697Y031472D01*
Y031472D01*
Y031474D01*
X017698Y031476D01*
X017698Y031479D01*
X017699Y031482D01*
X017701Y031486D01*
X017703Y03149D01*
X017706Y031494D01*
X017707Y031494D01*
X017708Y031495D01*
X01771Y031497D01*
X017713Y031499D01*
X017718Y031501D01*
X017724Y031502D01*
X01773Y031504D01*
X017739Y031504D01*
X017787D01*
Y031441D01*
D02*
G37*
G36*
X018097Y031637D02*
X018101Y031636D01*
X018104Y031634D01*
X018109Y031632D01*
X018114Y031629D01*
X018118Y031624D01*
X018123Y031619D01*
X018128Y031612D01*
X018132Y031603D01*
X018136Y031594D01*
X018139Y031582D01*
X018142Y031568D01*
X018143Y03156D01*
X018144Y031552D01*
X018144Y031543D01*
Y031534D01*
Y031532D01*
Y031529D01*
X018144Y031525D01*
Y031518D01*
X018143Y031511D01*
X018142Y031503D01*
X01814Y031494D01*
X018138Y031485D01*
X018136Y031476D01*
X018132Y031467D01*
X018128Y031459D01*
X018124Y031452D01*
X018118Y031446D01*
X018111Y031441D01*
X018103Y031438D01*
X018099Y031437D01*
X018095Y031437D01*
X018093D01*
X01809Y031437D01*
X018085Y031438D01*
X01808Y03144D01*
X018073Y031443D01*
X018067Y031447D01*
X018061Y031453D01*
X018058Y031456D01*
X018056Y03146D01*
Y031461D01*
X018055Y031461D01*
X018055Y031463D01*
X018054Y031465D01*
X018053Y031467D01*
X018052Y031471D01*
X018051Y031475D01*
X01805Y03148D01*
X018049Y031485D01*
X018048Y031491D01*
X018047Y031499D01*
X018045Y031506D01*
X018045Y031515D01*
X018044Y031525D01*
X018044Y031535D01*
Y031546D01*
Y031547D01*
Y03155D01*
X018044Y031554D01*
Y03156D01*
X018045Y031567D01*
X018047Y031575D01*
X018048Y031583D01*
X01805Y031592D01*
X018053Y0316D01*
X018056Y031608D01*
X01806Y031616D01*
X018065Y031623D01*
X01807Y031629D01*
X018077Y031633D01*
X018084Y031636D01*
X018092Y031637D01*
X018095D01*
X018097Y031637D01*
D02*
G37*
G36*
X017404D02*
X017407Y031636D01*
X017411Y031634D01*
X017415Y031632D01*
X01742Y031629D01*
X017425Y031624D01*
X01743Y031619D01*
X017434Y031612D01*
X017439Y031603D01*
X017443Y031594D01*
X017446Y031582D01*
X017449Y031568D01*
X01745Y03156D01*
X01745Y031552D01*
X017451Y031543D01*
Y031534D01*
Y031532D01*
Y031529D01*
X01745Y031525D01*
Y031518D01*
X017449Y031511D01*
X017448Y031503D01*
X017446Y031494D01*
X017445Y031485D01*
X017442Y031476D01*
X017439Y031467D01*
X017434Y031459D01*
X01743Y031452D01*
X017424Y031446D01*
X017418Y031441D01*
X01741Y031438D01*
X017406Y031437D01*
X017401Y031437D01*
X0174D01*
X017397Y031437D01*
X017392Y031438D01*
X017386Y03144D01*
X01738Y031443D01*
X017373Y031447D01*
X017367Y031453D01*
X017365Y031456D01*
X017362Y03146D01*
Y031461D01*
X017362Y031461D01*
X017361Y031463D01*
X017361Y031465D01*
X01736Y031467D01*
X017359Y031471D01*
X017357Y031475D01*
X017356Y03148D01*
X017355Y031485D01*
X017354Y031491D01*
X017353Y031499D01*
X017352Y031506D01*
X017351Y031515D01*
X017351Y031525D01*
X01735Y031535D01*
Y031546D01*
Y031547D01*
Y03155D01*
X017351Y031554D01*
Y03156D01*
X017352Y031567D01*
X017353Y031575D01*
X017354Y031583D01*
X017356Y031592D01*
X017359Y0316D01*
X017362Y031608D01*
X017366Y031616D01*
X017371Y031623D01*
X017377Y031629D01*
X017383Y031633D01*
X01739Y031636D01*
X017399Y031637D01*
X017401D01*
X017404Y031637D01*
D02*
G37*
%LPC*%
G36*
X011181Y026969D02*
X010758D01*
Y026648D01*
X010854D01*
X010903Y026718D01*
X010904Y026718D01*
X010906Y026721D01*
X010908Y026725D01*
X010913Y026731D01*
X010919Y026739D01*
X010927Y026749D01*
X010937Y026762D01*
X010949Y026776D01*
X01095Y026777D01*
X01095Y026778D01*
X010952Y02678D01*
X010955Y026783D01*
X010961Y026791D01*
X010969Y026799D01*
X010978Y026808D01*
X010987Y026817D01*
X010995Y026826D01*
X010999Y026829D01*
X011003Y026832D01*
X011004Y026833D01*
X011007Y026834D01*
X011011Y026836D01*
X011015Y026838D01*
X011021Y026841D01*
X011028Y026843D01*
X011035Y026844D01*
X011043Y026845D01*
X011043D01*
X011046D01*
X01105Y026844D01*
X011055Y026844D01*
X01106Y026842D01*
X011065Y02684D01*
X01107Y026837D01*
X011075Y026833D01*
X011075Y026833D01*
X011077Y026831D01*
X011079Y026829D01*
X011081Y026825D01*
X011083Y026821D01*
X011085Y026816D01*
X011087Y02681D01*
X011087Y026804D01*
Y026802D01*
X011087Y0268D01*
X011086Y026796D01*
X011083Y026789D01*
X011081Y026785D01*
X011078Y02678D01*
X011074Y026776D01*
X01107Y026771D01*
X011064Y026767D01*
X011057Y026763D01*
X011049Y026759D01*
X011039Y026756D01*
X011028Y026754D01*
X011015Y026753D01*
X011035Y026648D01*
X011036D01*
X011039Y026648D01*
X011043Y026649D01*
X011047Y02665D01*
X011054Y026652D01*
X01106Y026653D01*
X011068Y026656D01*
X011077Y026659D01*
X011095Y026667D01*
X011104Y026671D01*
X011113Y026676D01*
X011121Y026682D01*
X01113Y026689D01*
X011138Y026697D01*
X011145Y026705D01*
X011146Y026705D01*
X011146Y026707D01*
X011148Y026709D01*
X011151Y026713D01*
X011154Y026717D01*
X011156Y026722D01*
X011159Y026728D01*
X011163Y026735D01*
X011167Y026743D01*
X01117Y026751D01*
X011175Y02677D01*
X01118Y026791D01*
X01118Y026802D01*
X011181Y026813D01*
Y026819D01*
X01118Y026824D01*
X01118Y02683D01*
X011179Y026837D01*
X011178Y026844D01*
X011177Y026852D01*
X011172Y026869D01*
X011165Y026888D01*
X011161Y026897D01*
X011157Y026906D01*
X011151Y026915D01*
X011144Y026923D01*
X011144Y026924D01*
X011142Y026925D01*
X01114Y026927D01*
X011138Y02693D01*
X011134Y026933D01*
X01113Y026937D01*
X011125Y026941D01*
X011119Y026945D01*
X011112Y026949D01*
X011105Y026953D01*
X011097Y026957D01*
X011089Y02696D01*
X011079Y026962D01*
X01107Y026964D01*
X011059Y026966D01*
X011048Y026966D01*
X011047D01*
X011046D01*
X011044D01*
X011041Y026966D01*
X011037D01*
X011033Y026965D01*
X011023Y026964D01*
X011011Y02696D01*
X010998Y026957D01*
X010984Y026951D01*
X010971Y026943D01*
X01097D01*
X010969Y026941D01*
X010967Y02694D01*
X010964Y026938D01*
X01096Y026934D01*
X010955Y02693D01*
X01095Y026924D01*
X010943Y026917D01*
X010936Y026909D01*
X010928Y026899D01*
X010919Y026888D01*
X010909Y026875D01*
X010898Y026861D01*
X010887Y026844D01*
X010874Y026827D01*
X01086Y026806D01*
Y026969D01*
X011181D01*
Y026969D01*
D02*
G37*
G36*
X011175Y026627D02*
X010758D01*
Y026232D01*
X010758D01*
Y026367D01*
X011175Y026232D01*
X011175D01*
Y026367D01*
X010948Y026433D01*
X010947D01*
X010944Y026434D01*
X01094Y026436D01*
X010935Y026437D01*
X010929Y026439D01*
X010923Y026441D01*
X010908Y026445D01*
X011175Y026522D01*
Y026627D01*
X010758Y026497D01*
Y026627D01*
X011175D01*
Y026627D01*
D02*
G37*
G36*
Y026057D02*
X010758D01*
Y025686D01*
X011175D01*
Y025851D01*
X011174Y025856D01*
Y025864D01*
X011173Y025873D01*
X011171Y025883D01*
X011169Y025894D01*
X011167Y025906D01*
X011163Y025918D01*
X011159Y025931D01*
X011154Y025944D01*
X011148Y025957D01*
X011141Y02597D01*
X011133Y025982D01*
X011123Y025994D01*
X011112Y026004D01*
X011112Y026005D01*
X01111Y026006D01*
X011106Y026009D01*
X011101Y026013D01*
X011095Y026017D01*
X011088Y02602D01*
X01108Y026026D01*
X011071Y02603D01*
X01106Y026035D01*
X01105Y02604D01*
X011037Y026044D01*
X011025Y026049D01*
X011012Y026052D01*
X010997Y026055D01*
X010983Y026056D01*
X010968Y026057D01*
X011175D01*
Y026057D01*
D02*
G37*
G36*
Y025626D02*
X010758D01*
Y025255D01*
X011175D01*
Y025479D01*
X011174Y025484D01*
X011173Y02549D01*
X011173Y025497D01*
X011172Y025505D01*
X011171Y025513D01*
X011166Y025531D01*
X01116Y02555D01*
X011156Y025559D01*
X011152Y025568D01*
X011146Y025576D01*
X01114Y025584D01*
X01114Y025585D01*
X011139Y025586D01*
X011137Y025588D01*
X011135Y025591D01*
X011131Y025593D01*
X011127Y025597D01*
X011122Y025601D01*
X011117Y025605D01*
X011104Y025612D01*
X011089Y025618D01*
X01108Y02562D01*
X011071Y025622D01*
X011062Y025624D01*
X011051Y025624D01*
X011051D01*
X01105D01*
X011048D01*
X011045D01*
X011039Y025624D01*
X01103Y025622D01*
X01102Y02562D01*
X011009Y025618D01*
X010999Y025614D01*
X010988Y025609D01*
X010986Y025608D01*
X010983Y025607D01*
X010978Y025602D01*
X010971Y025597D01*
X010964Y025588D01*
X010955Y025578D01*
X010951Y025572D01*
X010947Y025565D01*
X010943Y025558D01*
X010939Y02555D01*
X010758Y025626D01*
X011175D01*
Y025626D01*
D02*
G37*
G36*
Y025217D02*
X010758D01*
Y024822D01*
X010758D01*
X011175Y024951D01*
Y025086D01*
X010758Y025217D01*
X011175D01*
Y025217D01*
D02*
G37*
G36*
X011181Y024803D02*
X010751D01*
Y024407D01*
X010751D01*
Y024601D01*
X010752Y024596D01*
Y02459D01*
X010753Y024582D01*
X010755Y024574D01*
X010756Y024564D01*
X010759Y024554D01*
X010762Y024543D01*
X010766Y024531D01*
X01077Y02452D01*
X010776Y024508D01*
X010782Y024495D01*
X01079Y024484D01*
X010799Y024472D01*
X010809Y024462D01*
X01081Y024461D01*
X010812Y024459D01*
X010815Y024457D01*
X01082Y024453D01*
X010826Y024449D01*
X010833Y024444D01*
X010841Y024439D01*
X01085Y024434D01*
X010861Y024429D01*
X010873Y024424D01*
X010886Y02442D01*
X0109Y024415D01*
X010915Y024412D01*
X010931Y024409D01*
X010948Y024407D01*
X010965Y024407D01*
X010969D01*
X010974Y024407D01*
X010981D01*
X010989Y024408D01*
X010998Y024409D01*
X011009Y024411D01*
X01102Y024413D01*
X011032Y024416D01*
X011044Y02442D01*
X011057Y024424D01*
X01107Y024429D01*
X011083Y024435D01*
X011096Y024442D01*
X011108Y02445D01*
X01112Y024459D01*
X011121Y02446D01*
X011123Y024462D01*
X011126Y024464D01*
X01113Y024469D01*
X011135Y024474D01*
X011139Y024481D01*
X011145Y024489D01*
X011151Y024497D01*
X011156Y024508D01*
X011162Y024518D01*
X011167Y024531D01*
X011172Y024544D01*
X011175Y024558D01*
X011178Y024573D01*
X01118Y024589D01*
X011181Y024606D01*
Y02461D01*
X01118Y024615D01*
Y024621D01*
X011179Y024628D01*
X011178Y024636D01*
X011177Y024646D01*
X011174Y024657D01*
X011171Y024668D01*
X011167Y024679D01*
X011162Y024691D01*
X011157Y024703D01*
X01115Y024714D01*
X011142Y024726D01*
X011134Y024737D01*
X011123Y024748D01*
X011123Y024748D01*
X011121Y02475D01*
X011117Y024753D01*
X011113Y024756D01*
X011107Y024761D01*
X0111Y024766D01*
X011092Y02477D01*
X011083Y024775D01*
X011072Y024781D01*
X01106Y024785D01*
X011048Y02479D01*
X011034Y024794D01*
X01102Y024798D01*
X011004Y0248D01*
X010988Y024802D01*
X01097Y024803D01*
X011181D01*
Y024803D01*
D02*
G37*
G36*
X011175Y024373D02*
X010758D01*
Y024024D01*
X011175D01*
Y024241D01*
X011174Y024245D01*
X011173Y024251D01*
X011173Y024257D01*
X011171Y024272D01*
X011167Y024287D01*
X011161Y024303D01*
X011157Y02431D01*
X011152Y024318D01*
X011147Y024325D01*
X011141Y024331D01*
X01114Y024331D01*
X01114Y024332D01*
X011138Y024333D01*
X011135Y024335D01*
X011128Y02434D01*
X011119Y024346D01*
X011108Y024352D01*
X011095Y024357D01*
X011081Y02436D01*
X011073Y024361D01*
X011065D01*
X011064D01*
X011064D01*
X01106D01*
X011054Y024361D01*
X011047Y024359D01*
X011037Y024357D01*
X011028Y024354D01*
X011018Y02435D01*
X011009Y024344D01*
X011007Y024343D01*
X011005Y02434D01*
X011Y024336D01*
X010995Y024331D01*
X01099Y024323D01*
X010984Y024314D01*
X010978Y024304D01*
X010974Y024291D01*
Y024292D01*
X010974Y024295D01*
X010972Y024298D01*
X010971Y024304D01*
X010967Y02431D01*
X010964Y024317D01*
X01096Y024324D01*
X010955Y024332D01*
X010949Y02434D01*
X010942Y024347D01*
X010934Y024354D01*
X010925Y02436D01*
X010915Y024365D01*
X010904Y024369D01*
X010891Y024372D01*
X010877Y024373D01*
X011175D01*
Y024373D01*
D02*
G37*
G36*
Y023829D02*
X010758D01*
Y023434D01*
X010758D01*
Y02357D01*
X011175Y023434D01*
X011175D01*
Y023569D01*
X010948Y023635D01*
X010947D01*
X010944Y023637D01*
X01094Y023638D01*
X010935Y023639D01*
X010929Y023641D01*
X010923Y023643D01*
X010908Y023647D01*
X011175Y023724D01*
Y023829D01*
X010758Y0237D01*
Y023829D01*
X011175D01*
Y023829D01*
D02*
G37*
G36*
Y023418D02*
X010758D01*
Y023105D01*
X011175D01*
Y023418D01*
D02*
G37*
G36*
Y023051D02*
X010758D01*
Y02268D01*
X011175D01*
Y022845D01*
X011174Y022851D01*
Y022858D01*
X011173Y022867D01*
X011171Y022877D01*
X011169Y022888D01*
X011167Y0229D01*
X011163Y022912D01*
X011159Y022925D01*
X011154Y022939D01*
X011148Y022952D01*
X011141Y022964D01*
X011133Y022977D01*
X011123Y022988D01*
X011112Y022998D01*
X011112Y022999D01*
X01111Y023D01*
X011106Y023003D01*
X011101Y023007D01*
X011095Y023011D01*
X011088Y023015D01*
X01108Y02302D01*
X011071Y023024D01*
X01106Y023029D01*
X01105Y023034D01*
X011037Y023038D01*
X011025Y023043D01*
X011012Y023046D01*
X010997Y023049D01*
X010983Y02305D01*
X010968Y023051D01*
X011175D01*
Y023051D01*
D02*
G37*
G36*
Y022479D02*
X010758D01*
Y022187D01*
X011175D01*
Y022315D01*
X01086D01*
Y022479D01*
X011175D01*
Y022479D01*
D02*
G37*
G36*
X011181Y022134D02*
X010751D01*
Y021737D01*
X010751D01*
Y021932D01*
X010752Y021927D01*
Y021921D01*
X010753Y021913D01*
X010755Y021905D01*
X010756Y021895D01*
X010759Y021885D01*
X010762Y021874D01*
X010766Y021862D01*
X01077Y02185D01*
X010776Y021838D01*
X010782Y021826D01*
X01079Y021815D01*
X010799Y021803D01*
X010809Y021793D01*
X01081Y021792D01*
X010812Y02179D01*
X010815Y021787D01*
X01082Y021784D01*
X010826Y02178D01*
X010833Y021775D01*
X010841Y02177D01*
X01085Y021765D01*
X010861Y02176D01*
X010873Y021755D01*
X010886Y021751D01*
X0109Y021746D01*
X010915Y021743D01*
X010931Y02174D01*
X010948Y021738D01*
X010965Y021737D01*
X010969D01*
X010974Y021738D01*
X010981D01*
X010989Y021739D01*
X010998Y02174D01*
X011009Y021742D01*
X01102Y021744D01*
X011032Y021747D01*
X011044Y021751D01*
X011057Y021754D01*
X01107Y02176D01*
X011083Y021766D01*
X011096Y021773D01*
X011108Y021781D01*
X01112Y02179D01*
X011121Y021791D01*
X011123Y021793D01*
X011126Y021795D01*
X01113Y0218D01*
X011135Y021805D01*
X011139Y021812D01*
X011145Y021819D01*
X011151Y021828D01*
X011156Y021838D01*
X011162Y021849D01*
X011167Y021861D01*
X011172Y021875D01*
X011175Y021888D01*
X011178Y021903D01*
X01118Y02192D01*
X011181Y021937D01*
Y021941D01*
X01118Y021945D01*
Y021951D01*
X011179Y021958D01*
X011178Y021967D01*
X011177Y021977D01*
X011174Y021987D01*
X011171Y021999D01*
X011167Y02201D01*
X011162Y022021D01*
X011157Y022033D01*
X01115Y022045D01*
X011142Y022057D01*
X011134Y022068D01*
X011123Y022079D01*
X011123Y022079D01*
X011121Y022081D01*
X011117Y022084D01*
X011113Y022087D01*
X011107Y022092D01*
X0111Y022096D01*
X011092Y022101D01*
X011083Y022106D01*
X011072Y022111D01*
X01106Y022116D01*
X011048Y022121D01*
X011034Y022125D01*
X01102Y022128D01*
X011004Y022131D01*
X010988Y022133D01*
X01097Y022134D01*
X011181D01*
Y022134D01*
D02*
G37*
G36*
X011175Y021695D02*
X010758D01*
Y021325D01*
X011175D01*
Y021549D01*
X011174Y021554D01*
X011173Y02156D01*
X011173Y021567D01*
X011172Y021575D01*
X011171Y021583D01*
X011166Y021601D01*
X01116Y02162D01*
X011156Y021629D01*
X011152Y021638D01*
X011146Y021646D01*
X01114Y021654D01*
X01114Y021655D01*
X011139Y021656D01*
X011137Y021658D01*
X011135Y021661D01*
X011131Y021663D01*
X011127Y021667D01*
X011122Y021671D01*
X011117Y021674D01*
X011104Y021682D01*
X011089Y021688D01*
X01108Y02169D01*
X011071Y021692D01*
X011062Y021693D01*
X011051Y021694D01*
X011051D01*
X01105D01*
X011048D01*
X011045D01*
X011039Y021693D01*
X01103Y021692D01*
X01102Y02169D01*
X011009Y021688D01*
X010999Y021684D01*
X010988Y021679D01*
X010986Y021678D01*
X010983Y021676D01*
X010978Y021672D01*
X010971Y021667D01*
X010964Y021658D01*
X010955Y021648D01*
X010951Y021642D01*
X010947Y021635D01*
X010943Y021628D01*
X010939Y02162D01*
X010758Y021695D01*
X011175D01*
Y021695D01*
D02*
G37*
G36*
Y021289D02*
X010758D01*
Y020995D01*
X010758D01*
Y021081D01*
X011075D01*
Y020995D01*
X011175D01*
Y021289D01*
D02*
G37*
G36*
Y020959D02*
X010758D01*
Y020603D01*
X011175D01*
Y020723D01*
X011022Y02082D01*
X011021Y020821D01*
X01102Y020822D01*
X011017Y020823D01*
X011014Y020825D01*
X01101Y020828D01*
X011005Y02083D01*
X010995Y020837D01*
X010982Y020843D01*
X010969Y020851D01*
X010955Y020858D01*
X010942Y020864D01*
X010942D01*
X010944Y020863D01*
X010947D01*
X010951Y020862D01*
X010955Y020862D01*
X010961Y020861D01*
X010968Y02086D01*
X010975Y020859D01*
X010992Y020857D01*
X01101Y020856D01*
X01103Y020855D01*
X011051Y020854D01*
X011175D01*
Y020959D01*
D02*
G37*
G36*
X011181Y020549D02*
X010751D01*
Y020153D01*
X010751D01*
Y020347D01*
X010752Y020342D01*
Y020336D01*
X010753Y020328D01*
X010755Y02032D01*
X010756Y02031D01*
X010759Y0203D01*
X010762Y020289D01*
X010766Y020277D01*
X01077Y020265D01*
X010776Y020254D01*
X010782Y020241D01*
X01079Y02023D01*
X010799Y020218D01*
X010809Y020208D01*
X01081Y020207D01*
X010812Y020205D01*
X010815Y020202D01*
X01082Y020199D01*
X010826Y020195D01*
X010833Y02019D01*
X010841Y020185D01*
X01085Y02018D01*
X010861Y020175D01*
X010873Y02017D01*
X010886Y020166D01*
X0109Y020161D01*
X010915Y020158D01*
X010931Y020155D01*
X010948Y020153D01*
X010965Y020153D01*
X010969D01*
X010974Y020153D01*
X010981D01*
X010989Y020154D01*
X010998Y020155D01*
X011009Y020157D01*
X01102Y020159D01*
X011032Y020162D01*
X011044Y020166D01*
X011057Y02017D01*
X01107Y020175D01*
X011083Y020181D01*
X011096Y020188D01*
X011108Y020196D01*
X01112Y020205D01*
X011121Y020206D01*
X011123Y020208D01*
X011126Y02021D01*
X01113Y020215D01*
X011135Y02022D01*
X011139Y020227D01*
X011145Y020235D01*
X011151Y020243D01*
X011156Y020254D01*
X011162Y020264D01*
X011167Y020277D01*
X011172Y02029D01*
X011175Y020303D01*
X011178Y020318D01*
X01118Y020335D01*
X011181Y020352D01*
Y020356D01*
X01118Y02036D01*
Y020366D01*
X011179Y020374D01*
X011178Y020382D01*
X011177Y020392D01*
X011174Y020402D01*
X011171Y020414D01*
X011167Y020425D01*
X011162Y020437D01*
X011157Y020448D01*
X01115Y02046D01*
X011142Y020472D01*
X011134Y020483D01*
X011123Y020494D01*
X011123Y020494D01*
X011121Y020496D01*
X011117Y020499D01*
X011113Y020502D01*
X011107Y020507D01*
X0111Y020511D01*
X011092Y020516D01*
X011083Y020521D01*
X011072Y020526D01*
X01106Y020531D01*
X011048Y020536D01*
X011034Y02054D01*
X01102Y020543D01*
X011004Y020546D01*
X010988Y020548D01*
X01097Y020549D01*
X011181D01*
Y020549D01*
D02*
G37*
G36*
Y020124D02*
X010751D01*
Y01976D01*
X010751D01*
Y019945D01*
X010752Y019941D01*
Y019935D01*
X010753Y019928D01*
X010755Y019919D01*
X010756Y01991D01*
X010759Y0199D01*
X010761Y019889D01*
X010765Y019878D01*
X01077Y019867D01*
X010775Y019855D01*
X010782Y019844D01*
X010789Y019833D01*
X010797Y019822D01*
X010807Y019812D01*
X010808Y019811D01*
X01081Y01981D01*
X010813Y019807D01*
X010818Y019804D01*
X010824Y0198D01*
X01083Y019796D01*
X010839Y019791D01*
X010848Y019786D01*
X010858Y019781D01*
X01087Y019777D01*
X010883Y019772D01*
X010896Y019768D01*
X010911Y019765D01*
X010927Y019762D01*
X010944Y019761D01*
X010963Y01976D01*
X010967D01*
X010972Y019761D01*
X010979D01*
X010987Y019762D01*
X010997Y019763D01*
X011007Y019764D01*
X011019Y019766D01*
X011032Y019769D01*
X011044Y019772D01*
X011057Y019776D01*
X011071Y019781D01*
X011084Y019786D01*
X011096Y019793D01*
X011109Y019801D01*
X011121Y019809D01*
X011121Y01981D01*
X011123Y019812D01*
X011127Y019815D01*
X01113Y019819D01*
X011135Y019824D01*
X01114Y01983D01*
X011145Y019837D01*
X011151Y019845D01*
X011157Y019855D01*
X011162Y019865D01*
X011167Y019876D01*
X011172Y019888D01*
X011176Y019902D01*
X011178Y019916D01*
X01118Y019931D01*
X011181Y019947D01*
Y019955D01*
X01118Y019961D01*
X01118Y019968D01*
X011178Y019975D01*
X011177Y019985D01*
X011175Y019994D01*
X011173Y020004D01*
X01117Y020015D01*
X011166Y020025D01*
X011162Y020036D01*
X011156Y020046D01*
X01115Y020056D01*
X011143Y020065D01*
X011135Y020074D01*
X011135Y020074D01*
X011133Y020076D01*
X011131Y020078D01*
X011127Y020081D01*
X011122Y020084D01*
X011117Y020088D01*
X01111Y020092D01*
X011103Y020097D01*
X011095Y020101D01*
X011085Y020106D01*
X011075Y02011D01*
X011064Y020114D01*
X011053Y020118D01*
X011041Y02012D01*
X011028Y020123D01*
X011014Y020124D01*
X011008Y020005D01*
X011009D01*
X01101D01*
X011012D01*
X011014D01*
X011022Y020004D01*
X011031Y020003D01*
X011041Y020001D01*
X011051Y019998D01*
X01106Y019994D01*
X011068Y019989D01*
X011068Y019988D01*
X011071Y019986D01*
X011074Y019983D01*
X011077Y019978D01*
X011081Y019973D01*
X011084Y019966D01*
X011086Y019959D01*
X011087Y019951D01*
Y019949D01*
X011086Y019946D01*
X011085Y019942D01*
X011083Y019937D01*
X01108Y019932D01*
X011076Y019927D01*
X011072Y019922D01*
X011065Y019916D01*
X011057Y01991D01*
X011047Y019905D01*
X011035Y019901D01*
X011021Y019897D01*
X011005Y019894D01*
X010996Y019893D01*
X010986Y019892D01*
X010976Y019891D01*
X010965D01*
X010964D01*
X010961D01*
X010958D01*
X010953D01*
X010948Y019892D01*
X010942D01*
X010927Y019893D01*
X010912Y019895D01*
X010897Y019898D01*
X01089Y019899D01*
X010883Y019901D01*
X010877Y019904D01*
X010872Y019907D01*
X010871Y019907D01*
X010868Y019909D01*
X010864Y019913D01*
X01086Y019918D01*
X010856Y019924D01*
X010852Y019931D01*
X010849Y019941D01*
X010848Y01995D01*
Y019952D01*
X010849Y019955D01*
X010849Y019958D01*
X010852Y019967D01*
X010854Y019971D01*
X010856Y019977D01*
X01086Y019981D01*
X010865Y019987D01*
X01087Y019991D01*
X010877Y019996D01*
X010885Y02D01*
X010894Y020003D01*
X010905Y020006D01*
X010917Y020008D01*
X01091Y020124D01*
X011181D01*
Y020124D01*
D02*
G37*
G36*
X011175Y019562D02*
X010758D01*
Y019191D01*
X011175D01*
Y019416D01*
X011174Y01942D01*
X011173Y019426D01*
X011173Y019434D01*
X011172Y019441D01*
X011171Y01945D01*
X011166Y019468D01*
X01116Y019487D01*
X011156Y019496D01*
X011152Y019504D01*
X011146Y019513D01*
X01114Y019521D01*
X01114Y019521D01*
X011139Y019523D01*
X011137Y019525D01*
X011135Y019527D01*
X011131Y01953D01*
X011127Y019533D01*
X011122Y019537D01*
X011117Y019541D01*
X011104Y019548D01*
X011089Y019555D01*
X01108Y019557D01*
X011071Y019559D01*
X011062Y01956D01*
X011051Y019561D01*
X011051D01*
X01105D01*
X011048D01*
X011045D01*
X011039Y01956D01*
X01103Y019559D01*
X01102Y019557D01*
X011009Y019554D01*
X010999Y019551D01*
X010988Y019546D01*
X010986Y019545D01*
X010983Y019543D01*
X010978Y019539D01*
X010971Y019533D01*
X010964Y019525D01*
X010955Y019515D01*
X010951Y019509D01*
X010947Y019502D01*
X010943Y019495D01*
X010939Y019487D01*
X010758Y019562D01*
X011175D01*
Y019562D01*
D02*
G37*
G36*
Y019141D02*
X010758D01*
Y018827D01*
X011175D01*
Y019141D01*
D02*
G37*
G36*
Y018792D02*
X010758D01*
Y018497D01*
X010758D01*
Y018584D01*
X011075D01*
Y018497D01*
X011175D01*
Y018792D01*
D02*
G37*
G36*
Y018486D02*
X010758D01*
Y018132D01*
X011175D01*
Y018321D01*
X011174Y018326D01*
Y018333D01*
X011173Y01834D01*
X011173Y018347D01*
X011171Y018364D01*
X011168Y018381D01*
X011164Y018396D01*
X011161Y018404D01*
X011159Y018411D01*
Y018412D01*
X011158Y018412D01*
X011157Y018414D01*
X011156Y018417D01*
X011152Y018423D01*
X011148Y018431D01*
X011141Y01844D01*
X011133Y018449D01*
X011123Y018458D01*
X011112Y018466D01*
X011112D01*
X011111Y018467D01*
X011109Y018468D01*
X011107Y018469D01*
X0111Y018473D01*
X011092Y018476D01*
X011081Y01848D01*
X01107Y018483D01*
X011056Y018486D01*
X011042Y018486D01*
X011175D01*
Y018486D01*
D02*
G37*
G36*
X011181Y018078D02*
X010751D01*
Y017682D01*
X010751D01*
Y017876D01*
X010752Y017872D01*
Y017866D01*
X010753Y017858D01*
X010755Y017849D01*
X010756Y017839D01*
X010759Y01783D01*
X010762Y017818D01*
X010766Y017807D01*
X01077Y017795D01*
X010776Y017783D01*
X010782Y017771D01*
X01079Y017759D01*
X010799Y017748D01*
X010809Y017737D01*
X01081Y017736D01*
X010812Y017735D01*
X010815Y017732D01*
X01082Y017729D01*
X010826Y017725D01*
X010833Y017719D01*
X010841Y017715D01*
X01085Y01771D01*
X010861Y017704D01*
X010873Y0177D01*
X010886Y017695D01*
X0109Y017691D01*
X010915Y017687D01*
X010931Y017685D01*
X010948Y017683D01*
X010965Y017682D01*
X010969D01*
X010974Y017683D01*
X010981D01*
X010989Y017683D01*
X010998Y017685D01*
X011009Y017687D01*
X01102Y017689D01*
X011032Y017691D01*
X011044Y017695D01*
X011057Y017699D01*
X01107Y017704D01*
X011083Y01771D01*
X011096Y017717D01*
X011108Y017725D01*
X01112Y017735D01*
X011121Y017735D01*
X011123Y017737D01*
X011126Y01774D01*
X01113Y017744D01*
X011135Y01775D01*
X011139Y017756D01*
X011145Y017764D01*
X011151Y017773D01*
X011156Y017783D01*
X011162Y017794D01*
X011167Y017806D01*
X011172Y017819D01*
X011175Y017833D01*
X011178Y017848D01*
X01118Y017864D01*
X011181Y017881D01*
Y017885D01*
X01118Y01789D01*
Y017896D01*
X011179Y017903D01*
X011178Y017912D01*
X011177Y017921D01*
X011174Y017932D01*
X011171Y017943D01*
X011167Y017954D01*
X011162Y017966D01*
X011157Y017978D01*
X01115Y01799D01*
X011142Y018002D01*
X011134Y018013D01*
X011123Y018023D01*
X011123Y018024D01*
X011121Y018026D01*
X011117Y018028D01*
X011113Y018032D01*
X011107Y018036D01*
X0111Y018041D01*
X011092Y018045D01*
X011083Y018051D01*
X011072Y018056D01*
X01106Y018061D01*
X011048Y018066D01*
X011034Y01807D01*
X01102Y018073D01*
X011004Y018076D01*
X010988Y018078D01*
X01097Y018078D01*
X011181D01*
Y018078D01*
D02*
G37*
G36*
Y017654D02*
X010751D01*
Y01729D01*
X010751D01*
Y017474D01*
X010752Y01747D01*
Y017464D01*
X010753Y017457D01*
X010755Y017448D01*
X010756Y017439D01*
X010759Y017429D01*
X010761Y017418D01*
X010765Y017408D01*
X01077Y017396D01*
X010775Y017385D01*
X010782Y017374D01*
X010789Y017363D01*
X010797Y017351D01*
X010807Y017342D01*
X010808Y017341D01*
X01081Y01734D01*
X010813Y017337D01*
X010818Y017334D01*
X010824Y01733D01*
X01083Y017325D01*
X010839Y017321D01*
X010848Y017316D01*
X010858Y017311D01*
X01087Y017306D01*
X010883Y017302D01*
X010896Y017298D01*
X010911Y017294D01*
X010927Y017292D01*
X010944Y01729D01*
X010963Y01729D01*
X010967D01*
X010972Y01729D01*
X010979D01*
X010987Y017291D01*
X010997Y017292D01*
X011007Y017294D01*
X011019Y017296D01*
X011032Y017298D01*
X011044Y017302D01*
X011057Y017305D01*
X011071Y017311D01*
X011084Y017316D01*
X011096Y017323D01*
X011109Y01733D01*
X011121Y017339D01*
X011121Y01734D01*
X011123Y017342D01*
X011127Y017344D01*
X01113Y017348D01*
X011135Y017353D01*
X01114Y017359D01*
X011145Y017366D01*
X011151Y017374D01*
X011157Y017384D01*
X011162Y017394D01*
X011167Y017406D01*
X011172Y017418D01*
X011176Y017431D01*
X011178Y017445D01*
X01118Y01746D01*
X011181Y017477D01*
Y017485D01*
X01118Y01749D01*
X01118Y017497D01*
X011178Y017505D01*
X011177Y017514D01*
X011175Y017523D01*
X011173Y017534D01*
X01117Y017544D01*
X011166Y017555D01*
X011162Y017565D01*
X011156Y017575D01*
X01115Y017586D01*
X011143Y017595D01*
X011135Y017603D01*
X011135Y017604D01*
X011133Y017605D01*
X011131Y017607D01*
X011127Y017611D01*
X011122Y017614D01*
X011117Y017618D01*
X01111Y017622D01*
X011103Y017626D01*
X011095Y017631D01*
X011085Y017635D01*
X011075Y017639D01*
X011064Y017643D01*
X011053Y017647D01*
X011041Y01765D01*
X011028Y017653D01*
X011014Y017654D01*
X011008Y017534D01*
X011009D01*
X01101D01*
X011012D01*
X011014D01*
X011022Y017534D01*
X011031Y017532D01*
X011041Y01753D01*
X011051Y017527D01*
X01106Y017523D01*
X011068Y017518D01*
X011068Y017517D01*
X011071Y017515D01*
X011074Y017512D01*
X011077Y017508D01*
X011081Y017502D01*
X011084Y017496D01*
X011086Y017489D01*
X011087Y017481D01*
Y017478D01*
X011086Y017475D01*
X011085Y017471D01*
X011083Y017467D01*
X01108Y017462D01*
X011076Y017456D01*
X011072Y017451D01*
X011065Y017445D01*
X011057Y01744D01*
X011047Y017435D01*
X011035Y01743D01*
X011021Y017426D01*
X011005Y017424D01*
X010996Y017422D01*
X010986Y017422D01*
X010976Y017421D01*
X010965D01*
X010964D01*
X010961D01*
X010958D01*
X010953D01*
X010948Y017422D01*
X010942D01*
X010927Y017423D01*
X010912Y017425D01*
X010897Y017428D01*
X01089Y017429D01*
X010883Y017431D01*
X010877Y017433D01*
X010872Y017436D01*
X010871Y017437D01*
X010868Y017439D01*
X010864Y017443D01*
X01086Y017447D01*
X010856Y017454D01*
X010852Y017461D01*
X010849Y01747D01*
X010848Y01748D01*
Y017482D01*
X010849Y017485D01*
X010849Y017488D01*
X010852Y017496D01*
X010854Y017501D01*
X010856Y017506D01*
X01086Y017511D01*
X010865Y017516D01*
X01087Y017521D01*
X010877Y017525D01*
X010885Y017529D01*
X010894Y017532D01*
X010905Y017535D01*
X010917Y017537D01*
X01091Y017654D01*
X011181D01*
Y017654D01*
D02*
G37*
G36*
X011175Y017254D02*
X010758D01*
Y016884D01*
X011175D01*
Y017049D01*
X011174Y017054D01*
Y017061D01*
X011173Y017071D01*
X011171Y01708D01*
X011169Y017092D01*
X011167Y017103D01*
X011163Y017116D01*
X011159Y017129D01*
X011154Y017142D01*
X011148Y017155D01*
X011141Y017168D01*
X011133Y01718D01*
X011123Y017191D01*
X011112Y017202D01*
X011112Y017202D01*
X01111Y017204D01*
X011106Y017206D01*
X011101Y01721D01*
X011095Y017214D01*
X011088Y017218D01*
X01108Y017223D01*
X011071Y017228D01*
X01106Y017233D01*
X01105Y017238D01*
X011037Y017242D01*
X011025Y017246D01*
X011012Y01725D01*
X010997Y017252D01*
X010983Y017254D01*
X010968Y017254D01*
X011175D01*
Y017254D01*
D02*
G37*
G36*
Y016846D02*
X010758D01*
Y016451D01*
X010758D01*
X011175Y016579D01*
Y016714D01*
X010758Y016846D01*
X011175D01*
Y016846D01*
D02*
G37*
G36*
Y016417D02*
X010751D01*
Y016075D01*
X010751D01*
Y016241D01*
X010752Y016236D01*
X010753Y01623D01*
X010753Y016222D01*
X010754Y016213D01*
X010755Y016204D01*
X010759Y016184D01*
X010765Y016163D01*
X010769Y016152D01*
X010774Y016142D01*
X010778Y016132D01*
X010784Y016123D01*
X010785Y016122D01*
X010786Y016121D01*
X010788Y016118D01*
X010791Y016115D01*
X010794Y016112D01*
X010799Y016108D01*
X010804Y016104D01*
X01081Y016099D01*
X010817Y016095D01*
X010825Y016091D01*
X010833Y016087D01*
X010843Y016083D01*
X010854Y01608D01*
X010866Y016077D01*
X010878Y016076D01*
X010892Y016075D01*
X011175D01*
Y016205D01*
X010906D01*
X010905D01*
X010902D01*
X010896Y016206D01*
X010889Y016207D01*
X010882Y016209D01*
X010875Y016211D01*
X010868Y016214D01*
X010862Y016218D01*
X010862Y016218D01*
X01086Y01622D01*
X010858Y016223D01*
X010856Y016228D01*
X010853Y016233D01*
X010851Y01624D01*
X01085Y016248D01*
X010849Y016258D01*
Y016262D01*
X01085Y016266D01*
X01085Y016272D01*
X010852Y016278D01*
X010853Y016284D01*
X010856Y01629D01*
X010859Y016296D01*
X01086Y016297D01*
X010861Y016299D01*
X010863Y016301D01*
X010866Y016304D01*
X010873Y01631D01*
X010877Y016312D01*
X010881Y016314D01*
X010882D01*
X010884Y016314D01*
X010887Y016315D01*
X010892Y016316D01*
X010898D01*
X010907Y016316D01*
X010917Y016317D01*
X01093D01*
X011175D01*
Y016417D01*
D02*
G37*
G36*
X011181Y016026D02*
X010681D01*
Y015629D01*
X010681D01*
Y015965D01*
X010682Y015958D01*
X010683Y01595D01*
X010685Y01594D01*
X010687Y015931D01*
X010691Y01592D01*
X010696Y01591D01*
X010696Y015908D01*
X010699Y015905D01*
X010703Y0159D01*
X010709Y015895D01*
X010717Y015889D01*
X010727Y015882D01*
X010734Y015879D01*
X01074Y015875D01*
X010747Y015873D01*
X010756Y01587D01*
Y015869D01*
X010755Y015866D01*
X010755Y015862D01*
X010754Y015857D01*
X010753Y01585D01*
X010752Y015843D01*
X010751Y015828D01*
Y015824D01*
X010752Y01582D01*
Y015813D01*
X010753Y015806D01*
X010755Y015797D01*
X010757Y015787D01*
X010759Y015776D01*
X010762Y015765D01*
X010766Y015753D01*
X01077Y015742D01*
X010776Y015729D01*
X010783Y015717D01*
X010791Y015705D01*
X0108Y015694D01*
X01081Y015684D01*
X010811Y015683D01*
X010813Y015681D01*
X010816Y015679D01*
X010822Y015675D01*
X010828Y015671D01*
X010834Y015667D01*
X010843Y015662D01*
X010852Y015657D01*
X010863Y015652D01*
X010874Y015646D01*
X010887Y015642D01*
X010901Y015638D01*
X010915Y015635D01*
X010931Y015632D01*
X010948Y01563D01*
X010965Y015629D01*
X010969D01*
X010974Y01563D01*
X01098D01*
X010988Y015631D01*
X010997Y015632D01*
X011008Y015634D01*
X01102Y015636D01*
X011032Y015639D01*
X011044Y015643D01*
X011057Y015646D01*
X01107Y015652D01*
X011083Y015658D01*
X011096Y015665D01*
X011108Y015673D01*
X01112Y015682D01*
X011121Y015683D01*
X011123Y015685D01*
X011126Y015687D01*
X01113Y015692D01*
X011135Y015697D01*
X011139Y015704D01*
X011145Y015711D01*
X011151Y01572D01*
X011156Y01573D01*
X011162Y015741D01*
X011167Y015753D01*
X011172Y015767D01*
X011175Y01578D01*
X011178Y015795D01*
X01118Y015812D01*
X011181Y015829D01*
Y015833D01*
X01118Y015837D01*
Y015843D01*
X011179Y01585D01*
X011178Y015859D01*
X011177Y015869D01*
X011174Y015879D01*
X011171Y01589D01*
X011167Y015902D01*
X011162Y015913D01*
X011157Y015925D01*
X01115Y015937D01*
X011142Y015949D01*
X011134Y01596D01*
X011123Y015971D01*
X011123Y015971D01*
X011121Y015973D01*
X011117Y015976D01*
X011113Y015979D01*
X011107Y015984D01*
X0111Y015988D01*
X011092Y015993D01*
X011083Y015998D01*
X011072Y016003D01*
X01106Y016008D01*
X011048Y016013D01*
X011034Y016017D01*
X01102Y01602D01*
X011004Y016023D01*
X010988Y016025D01*
X01097Y016026D01*
X011181D01*
Y016026D01*
D02*
G37*
%LPD*%
G36*
X010758Y026964D02*
Y026969D01*
X01086D01*
X010758Y026964D01*
D02*
G37*
G36*
X010959Y026056D02*
X010952D01*
X010944Y026055D01*
X010935Y026053D01*
X010925Y026052D01*
X010914Y026049D01*
X010902Y026047D01*
X01089Y026043D01*
X010877Y026038D01*
X010865Y026033D01*
X010852Y026026D01*
X01084Y026018D01*
X010828Y02601D01*
X010816Y026D01*
X010816Y025999D01*
X010814Y025997D01*
X010811Y025994D01*
X010807Y02599D01*
X010803Y025984D01*
X010798Y025978D01*
X010793Y02597D01*
X010788Y025961D01*
X010782Y025951D01*
X010776Y02594D01*
X010772Y025928D01*
X010767Y025915D01*
X010763Y025901D01*
X010761Y025887D01*
X010759Y025871D01*
X010758Y025854D01*
Y026057D01*
X010964D01*
X010959Y026056D01*
D02*
G37*
G36*
X01098Y025922D02*
X010985Y025921D01*
X010995Y02592D01*
X011007Y025918D01*
X01102Y025914D01*
X011034Y02591D01*
X011047Y025903D01*
X011047D01*
X011048Y025902D01*
X011052Y025899D01*
X011057Y025895D01*
X011064Y025889D01*
X01107Y025881D01*
X011075Y025871D01*
X011079Y02586D01*
X011079Y025853D01*
X01108Y025847D01*
Y025814D01*
X010854D01*
Y025848D01*
X010854Y025852D01*
X010856Y025858D01*
X010858Y025866D01*
X010862Y025874D01*
X010867Y025883D01*
X010875Y025892D01*
X010879Y025896D01*
X010885Y0259D01*
X010885D01*
X010886Y025901D01*
X010888Y025902D01*
X010891Y025904D01*
X010893Y025906D01*
X010897Y025908D01*
X010907Y025912D01*
X010919Y025915D01*
X010933Y025919D01*
X01095Y025922D01*
X010969Y025923D01*
X010969D01*
X010971D01*
X010973D01*
X010976D01*
X01098Y025922D01*
D02*
G37*
G36*
X011052Y02549D02*
X011058Y025488D01*
X011066Y025485D01*
X01107Y025483D01*
X011073Y025479D01*
X011077Y025475D01*
X011079Y02547D01*
X011082Y025464D01*
X011084Y025458D01*
X011085Y02545D01*
X011086Y025441D01*
Y025383D01*
X011006D01*
Y025441D01*
X011007Y025446D01*
X011007Y025451D01*
X011009Y025458D01*
X01101Y025464D01*
X011013Y02547D01*
X011016Y025476D01*
X011016Y025477D01*
X011018Y025479D01*
X01102Y025481D01*
X011023Y025484D01*
X011028Y025486D01*
X011032Y025488D01*
X011038Y02549D01*
X011045Y025491D01*
X011046D01*
X011047D01*
X011049D01*
X011052Y02549D01*
D02*
G37*
G36*
X010917Y025422D02*
Y025383D01*
X010758D01*
Y025484D01*
X010917Y025422D01*
D02*
G37*
G36*
X011049Y025006D02*
X010931Y024973D01*
Y02504D01*
X011049Y025006D01*
D02*
G37*
G36*
X01084Y025063D02*
Y024951D01*
X010758Y024926D01*
Y025086D01*
X01084Y025063D01*
D02*
G37*
G36*
X01096Y024802D02*
X010953D01*
X010945Y024801D01*
X010935Y0248D01*
X010925Y024798D01*
X010913Y024796D01*
X0109Y024793D01*
X010888Y024789D01*
X010874Y024785D01*
X010861Y024779D01*
X010848Y024773D01*
X010835Y024766D01*
X010823Y024757D01*
X010811Y024747D01*
X01081Y024746D01*
X010809Y024745D01*
X010806Y024741D01*
X010802Y024737D01*
X010797Y024731D01*
X010792Y024725D01*
X010787Y024718D01*
X010782Y024708D01*
X010776Y024699D01*
X01077Y024688D01*
X010765Y024676D01*
X010761Y024664D01*
X010757Y02465D01*
X010754Y024636D01*
X010752Y024621D01*
X010751Y024605D01*
Y024803D01*
X010965D01*
X01096Y024802D01*
D02*
G37*
G36*
X010987Y024664D02*
X010994D01*
X011003Y024663D01*
X011012Y024662D01*
X011022Y024661D01*
X011032Y024658D01*
X011042Y024655D01*
X011052Y024651D01*
X011061Y024646D01*
X01107Y02464D01*
X011077Y024634D01*
X011082Y024626D01*
X011085Y024617D01*
X011087Y024607D01*
Y024604D01*
X011086Y024601D01*
X011085Y024597D01*
X011083Y024592D01*
X01108Y024587D01*
X011076Y024581D01*
X011071Y024576D01*
X011064Y02457D01*
X011056Y024564D01*
X011046Y024559D01*
X011034Y024554D01*
X01102Y02455D01*
X011003Y024547D01*
X010994Y024546D01*
X010984Y024545D01*
X010973Y024544D01*
X010962D01*
X010961D01*
X010957D01*
X010951Y024545D01*
X010944D01*
X010935Y024546D01*
X010925Y024548D01*
X010915Y02455D01*
X010904Y024552D01*
X010893Y024555D01*
X010883Y024559D01*
X010873Y024564D01*
X010864Y024569D01*
X010856Y024577D01*
X010851Y024584D01*
X010847Y024594D01*
X010847Y024599D01*
X010846Y024604D01*
Y024605D01*
X010847Y024609D01*
X010847Y024615D01*
X010849Y024622D01*
X010853Y02463D01*
X010858Y024638D01*
X010865Y024645D01*
X010869Y024648D01*
X010874Y024651D01*
X010875D01*
X010875Y024651D01*
X010877Y024652D01*
X01088Y024653D01*
X010883Y024654D01*
X010887Y024655D01*
X010892Y024657D01*
X010898Y024658D01*
X010904Y024659D01*
X010911Y024661D01*
X01092Y024662D01*
X010929Y024663D01*
X01094Y024664D01*
X010951Y024664D01*
X010963Y024665D01*
X010977D01*
X010978D01*
X010982D01*
X010987Y024664D01*
D02*
G37*
G36*
X010869Y024372D02*
X010866D01*
X010861Y024371D01*
X01085Y024369D01*
X010837Y024365D01*
X010823Y02436D01*
X010809Y024354D01*
X010801Y024349D01*
X010794Y024344D01*
X010793D01*
X010793Y024342D01*
X010791Y02434D01*
X010788Y024338D01*
X010786Y024334D01*
X010783Y02433D01*
X01078Y024324D01*
X010776Y024317D01*
X010772Y02431D01*
X010769Y024301D01*
X010767Y024291D01*
X010764Y02428D01*
X010761Y024268D01*
X010759Y024254D01*
X010759Y024239D01*
X010758Y024222D01*
Y024373D01*
X010873D01*
X010869Y024372D01*
D02*
G37*
G36*
X011055Y024241D02*
X011061Y024239D01*
X011068Y024236D01*
X011074Y024231D01*
X011077Y024228D01*
X01108Y024223D01*
X011082Y024218D01*
X011084Y024213D01*
X011085Y024206D01*
X011085Y024198D01*
Y024141D01*
X011015D01*
Y024204D01*
X011016Y024208D01*
X011016Y024213D01*
X011018Y024218D01*
X01102Y024223D01*
X011022Y024228D01*
X011026Y024232D01*
X011027Y024232D01*
X011028Y024233D01*
X01103Y024235D01*
X011034Y024237D01*
X011041Y02424D01*
X011045Y024241D01*
X01105Y024241D01*
X011051D01*
X011051D01*
X011055Y024241D01*
D02*
G37*
G36*
X010893Y024248D02*
X010896Y024247D01*
X0109Y024246D01*
X010905Y024244D01*
X01091Y024241D01*
X010914Y024237D01*
X010915Y024237D01*
X010916Y024235D01*
X010918Y024233D01*
X010921Y024229D01*
X010923Y024224D01*
X010925Y024216D01*
X010926Y024209D01*
X010927Y024199D01*
Y024141D01*
X01085D01*
Y024207D01*
X010851Y024211D01*
X010852Y024216D01*
X010853Y024222D01*
X010855Y024228D01*
X010858Y024233D01*
X010862Y024237D01*
X010862Y024238D01*
X010864Y024239D01*
X010866Y024241D01*
X010869Y024243D01*
X010873Y024245D01*
X010878Y024247D01*
X010883Y024248D01*
X010888Y024249D01*
X010889D01*
X010891D01*
X010893Y024248D01*
D02*
G37*
G36*
X011079Y02323D02*
X011018D01*
Y023382D01*
X010925D01*
Y02323D01*
X010858D01*
Y023418D01*
X011079D01*
Y02323D01*
D02*
G37*
G36*
X010959Y02305D02*
X010952D01*
X010944Y023049D01*
X010935Y023047D01*
X010925Y023046D01*
X010914Y023044D01*
X010902Y023041D01*
X01089Y023037D01*
X010877Y023032D01*
X010865Y023027D01*
X010852Y023021D01*
X01084Y023013D01*
X010828Y023004D01*
X010816Y022994D01*
X010816Y022994D01*
X010814Y022992D01*
X010811Y022988D01*
X010807Y022984D01*
X010803Y022979D01*
X010798Y022972D01*
X010793Y022964D01*
X010788Y022955D01*
X010782Y022945D01*
X010776Y022934D01*
X010772Y022922D01*
X010767Y02291D01*
X010763Y022895D01*
X010761Y022881D01*
X010759Y022865D01*
X010758Y022849D01*
Y023051D01*
X010964D01*
X010959Y02305D01*
D02*
G37*
G36*
X01098Y022916D02*
X010985Y022916D01*
X010995Y022914D01*
X011007Y022912D01*
X01102Y022908D01*
X011034Y022904D01*
X011047Y022897D01*
X011047D01*
X011048Y022897D01*
X011052Y022893D01*
X011057Y022889D01*
X011064Y022883D01*
X01107Y022875D01*
X011075Y022865D01*
X011079Y022854D01*
X011079Y022847D01*
X01108Y022841D01*
Y022808D01*
X010854D01*
Y022842D01*
X010854Y022846D01*
X010856Y022852D01*
X010858Y02286D01*
X010862Y022868D01*
X010867Y022877D01*
X010875Y022886D01*
X010879Y022891D01*
X010885Y022895D01*
X010885D01*
X010886Y022895D01*
X010888Y022897D01*
X010891Y022898D01*
X010893Y0229D01*
X010897Y022902D01*
X010907Y022906D01*
X010919Y02291D01*
X010933Y022914D01*
X01095Y022916D01*
X010969Y022917D01*
X010969D01*
X010971D01*
X010973D01*
X010976D01*
X01098Y022916D01*
D02*
G37*
G36*
X01096Y022133D02*
X010953D01*
X010945Y022132D01*
X010935Y022131D01*
X010925Y022129D01*
X010913Y022126D01*
X0109Y022124D01*
X010888Y02212D01*
X010874Y022115D01*
X010861Y02211D01*
X010848Y022103D01*
X010835Y022096D01*
X010823Y022088D01*
X010811Y022078D01*
X01081Y022077D01*
X010809Y022075D01*
X010806Y022072D01*
X010802Y022068D01*
X010797Y022062D01*
X010792Y022056D01*
X010787Y022048D01*
X010782Y022039D01*
X010776Y02203D01*
X01077Y022019D01*
X010765Y022007D01*
X010761Y021995D01*
X010757Y021981D01*
X010754Y021967D01*
X010752Y021951D01*
X010751Y021936D01*
Y022134D01*
X010965D01*
X01096Y022133D01*
D02*
G37*
G36*
X010987Y021995D02*
X010994D01*
X011003Y021994D01*
X011012Y021993D01*
X011022Y021991D01*
X011032Y021989D01*
X011042Y021985D01*
X011052Y021981D01*
X011061Y021977D01*
X01107Y021971D01*
X011077Y021964D01*
X011082Y021957D01*
X011085Y021948D01*
X011087Y021937D01*
Y021935D01*
X011086Y021932D01*
X011085Y021928D01*
X011083Y021923D01*
X01108Y021918D01*
X011076Y021912D01*
X011071Y021907D01*
X011064Y021901D01*
X011056Y021895D01*
X011046Y02189D01*
X011034Y021885D01*
X01102Y021881D01*
X011003Y021878D01*
X010994Y021876D01*
X010984Y021876D01*
X010973Y021875D01*
X010962D01*
X010961D01*
X010957D01*
X010951Y021876D01*
X010944D01*
X010935Y021877D01*
X010925Y021878D01*
X010915Y02188D01*
X010904Y021882D01*
X010893Y021886D01*
X010883Y02189D01*
X010873Y021895D01*
X010864Y0219D01*
X010856Y021907D01*
X010851Y021915D01*
X010847Y021924D01*
X010847Y02193D01*
X010846Y021935D01*
Y021936D01*
X010847Y02194D01*
X010847Y021946D01*
X010849Y021953D01*
X010853Y02196D01*
X010858Y021968D01*
X010865Y021976D01*
X010869Y021979D01*
X010874Y021981D01*
X010875D01*
X010875Y021982D01*
X010877Y021983D01*
X01088Y021983D01*
X010883Y021985D01*
X010887Y021986D01*
X010892Y021987D01*
X010898Y021989D01*
X010904Y02199D01*
X010911Y021991D01*
X01092Y021993D01*
X010929Y021994D01*
X01094Y021995D01*
X010951Y021995D01*
X010963Y021996D01*
X010977D01*
X010978D01*
X010982D01*
X010987Y021995D01*
D02*
G37*
G36*
X011052Y02156D02*
X011058Y021558D01*
X011066Y021555D01*
X01107Y021552D01*
X011073Y021548D01*
X011077Y021545D01*
X011079Y02154D01*
X011082Y021534D01*
X011084Y021528D01*
X011085Y02152D01*
X011086Y021511D01*
Y021453D01*
X011006D01*
Y021511D01*
X011007Y021516D01*
X011007Y021521D01*
X011009Y021528D01*
X01101Y021534D01*
X011013Y02154D01*
X011016Y021546D01*
X011016Y021547D01*
X011018Y021548D01*
X01102Y02155D01*
X011023Y021554D01*
X011028Y021556D01*
X011032Y021558D01*
X011038Y02156D01*
X011045Y021561D01*
X011046D01*
X011047D01*
X011049D01*
X011052Y02156D01*
D02*
G37*
G36*
X010917Y021492D02*
Y021453D01*
X010758D01*
Y021554D01*
X010917Y021492D01*
D02*
G37*
G36*
X011075Y021203D02*
X010758D01*
Y021289D01*
X011075D01*
Y021203D01*
D02*
G37*
G36*
X010942Y02074D02*
X010942D01*
X010944Y020739D01*
X010946Y020738D01*
X010948Y020736D01*
X010951Y020734D01*
X010955Y020732D01*
X010966Y020726D01*
X010978Y020719D01*
X010993Y020712D01*
X011009Y020704D01*
X011028Y020696D01*
X011027D01*
X011026Y020696D01*
X011024Y020697D01*
X011021Y020698D01*
X011013Y020699D01*
X011004Y020701D01*
X010993Y020703D01*
X010982Y020705D01*
X010971Y020706D01*
X010959Y020706D01*
X010758D01*
Y020854D01*
X010942Y02074D01*
D02*
G37*
G36*
X01096Y020548D02*
X010953D01*
X010945Y020547D01*
X010935Y020546D01*
X010925Y020544D01*
X010913Y020542D01*
X0109Y020539D01*
X010888Y020535D01*
X010874Y02053D01*
X010861Y020525D01*
X010848Y020519D01*
X010835Y020511D01*
X010823Y020503D01*
X010811Y020493D01*
X01081Y020492D01*
X010809Y02049D01*
X010806Y020487D01*
X010802Y020483D01*
X010797Y020477D01*
X010792Y020471D01*
X010787Y020463D01*
X010782Y020454D01*
X010776Y020445D01*
X01077Y020434D01*
X010765Y020422D01*
X010761Y02041D01*
X010757Y020396D01*
X010754Y020382D01*
X010752Y020366D01*
X010751Y020351D01*
Y020549D01*
X010965D01*
X01096Y020548D01*
D02*
G37*
G36*
X010987Y02041D02*
X010994D01*
X011003Y020409D01*
X011012Y020408D01*
X011022Y020406D01*
X011032Y020404D01*
X011042Y0204D01*
X011052Y020397D01*
X011061Y020392D01*
X01107Y020386D01*
X011077Y02038D01*
X011082Y020372D01*
X011085Y020363D01*
X011087Y020353D01*
Y02035D01*
X011086Y020347D01*
X011085Y020343D01*
X011083Y020338D01*
X01108Y020333D01*
X011076Y020327D01*
X011071Y020322D01*
X011064Y020316D01*
X011056Y02031D01*
X011046Y020305D01*
X011034Y0203D01*
X01102Y020296D01*
X011003Y020293D01*
X010994Y020292D01*
X010984Y020291D01*
X010973Y02029D01*
X010962D01*
X010961D01*
X010957D01*
X010951Y020291D01*
X010944D01*
X010935Y020292D01*
X010925Y020294D01*
X010915Y020296D01*
X010904Y020298D01*
X010893Y020301D01*
X010883Y020305D01*
X010873Y02031D01*
X010864Y020315D01*
X010856Y020322D01*
X010851Y02033D01*
X010847Y020339D01*
X010847Y020345D01*
X010846Y02035D01*
Y020351D01*
X010847Y020355D01*
X010847Y020361D01*
X010849Y020368D01*
X010853Y020376D01*
X010858Y020383D01*
X010865Y020391D01*
X010869Y020394D01*
X010874Y020397D01*
X010875D01*
X010875Y020397D01*
X010877Y020398D01*
X01088Y020399D01*
X010883Y0204D01*
X010887Y020401D01*
X010892Y020402D01*
X010898Y020404D01*
X010904Y020405D01*
X010911Y020406D01*
X01092Y020408D01*
X010929Y020409D01*
X01094Y02041D01*
X010951Y02041D01*
X010963Y020411D01*
X010977D01*
X010978D01*
X010982D01*
X010987Y02041D01*
D02*
G37*
G36*
X010906Y020124D02*
X010902Y020123D01*
X010897Y020122D01*
X010891Y020121D01*
X010883Y020119D01*
X010875Y020117D01*
X010866Y020114D01*
X010857Y020111D01*
X010847Y020107D01*
X010837Y020102D01*
X010828Y020097D01*
X010818Y020091D01*
X010809Y020084D01*
X0108Y020076D01*
X010792Y020067D01*
X010791Y020067D01*
X01079Y020065D01*
X010788Y020063D01*
X010786Y020059D01*
X010783Y020054D01*
X010779Y020048D01*
X010776Y020042D01*
X010772Y020034D01*
X010768Y020027D01*
X010765Y020017D01*
X010761Y020008D01*
X010758Y019997D01*
X010755Y019986D01*
X010753Y019974D01*
X010752Y019962D01*
X010751Y019949D01*
Y020124D01*
X010909D01*
X010906Y020124D01*
D02*
G37*
G36*
X011052Y019427D02*
X011058Y019425D01*
X011066Y019422D01*
X01107Y019419D01*
X011073Y019415D01*
X011077Y019411D01*
X011079Y019407D01*
X011082Y019401D01*
X011084Y019394D01*
X011085Y019386D01*
X011086Y019378D01*
Y019319D01*
X011006D01*
Y019378D01*
X011007Y019382D01*
X011007Y019388D01*
X011009Y019394D01*
X01101Y019401D01*
X011013Y019407D01*
X011016Y019413D01*
X011016Y019413D01*
X011018Y019415D01*
X01102Y019417D01*
X011023Y01942D01*
X011028Y019423D01*
X011032Y019425D01*
X011038Y019427D01*
X011045Y019428D01*
X011046D01*
X011047D01*
X011049D01*
X011052Y019427D01*
D02*
G37*
G36*
X010917Y019359D02*
Y019319D01*
X010758D01*
Y01942D01*
X010917Y019359D01*
D02*
G37*
G36*
X011079Y018953D02*
X011018D01*
Y019105D01*
X010925D01*
Y018953D01*
X010858D01*
Y019141D01*
X011079D01*
Y018953D01*
D02*
G37*
G36*
X011075Y018705D02*
X010758D01*
Y018792D01*
X011075D01*
Y018705D01*
D02*
G37*
G36*
X011032Y018486D02*
X011027Y018485D01*
X011021Y018484D01*
X011014Y018483D01*
X011008Y018481D01*
X010992Y018476D01*
X010984Y018473D01*
X010976Y018469D01*
X010968Y018464D01*
X01096Y018458D01*
X010953Y018452D01*
X010946Y018444D01*
X010945Y018444D01*
X010944Y018442D01*
X010942Y01844D01*
X01094Y018437D01*
X010937Y018432D01*
X010934Y018428D01*
X010931Y018422D01*
X010928Y018415D01*
X010924Y018408D01*
X010921Y018399D01*
X010918Y018391D01*
X010915Y018381D01*
X010913Y01837D01*
X010911Y018358D01*
X01091Y018347D01*
X01091Y018334D01*
Y018262D01*
X010758D01*
Y018486D01*
X011036D01*
X011032Y018486D01*
D02*
G37*
G36*
X011047Y018358D02*
X011053Y018356D01*
X01106Y018352D01*
X011064Y01835D01*
X011068Y018347D01*
X011071Y018342D01*
X011074Y018337D01*
X011076Y018331D01*
X011078Y018324D01*
X011079Y018316D01*
X01108Y018307D01*
Y01826D01*
X010999D01*
Y018308D01*
X010999Y018311D01*
X011Y018316D01*
X011001Y01832D01*
X011004Y018331D01*
X011009Y018341D01*
X011013Y018346D01*
X011016Y01835D01*
X011021Y018354D01*
X011026Y018356D01*
X011033Y018358D01*
X01104Y018359D01*
X011041D01*
X011042D01*
X011044D01*
X011047Y018358D01*
D02*
G37*
G36*
X01096Y018078D02*
X010953D01*
X010945Y018076D01*
X010935Y018076D01*
X010925Y018074D01*
X010913Y018071D01*
X0109Y018068D01*
X010888Y018064D01*
X010874Y01806D01*
X010861Y018055D01*
X010848Y018048D01*
X010835Y018041D01*
X010823Y018032D01*
X010811Y018022D01*
X01081Y018022D01*
X010809Y01802D01*
X010806Y018017D01*
X010802Y018013D01*
X010797Y018007D01*
X010792Y018D01*
X010787Y017993D01*
X010782Y017984D01*
X010776Y017975D01*
X01077Y017963D01*
X010765Y017952D01*
X010761Y017939D01*
X010757Y017925D01*
X010754Y017912D01*
X010752Y017896D01*
X010751Y01788D01*
Y018078D01*
X010965D01*
X01096Y018078D01*
D02*
G37*
G36*
X010987Y01794D02*
X010994D01*
X011003Y017939D01*
X011012Y017937D01*
X011022Y017936D01*
X011032Y017933D01*
X011042Y01793D01*
X011052Y017926D01*
X011061Y017921D01*
X01107Y017916D01*
X011077Y017909D01*
X011082Y017901D01*
X011085Y017893D01*
X011087Y017882D01*
Y017879D01*
X011086Y017876D01*
X011085Y017872D01*
X011083Y017868D01*
X01108Y017862D01*
X011076Y017857D01*
X011071Y017851D01*
X011064Y017845D01*
X011056Y017839D01*
X011046Y017834D01*
X011034Y01783D01*
X01102Y017826D01*
X011003Y017822D01*
X010994Y017821D01*
X010984Y01782D01*
X010973Y01782D01*
X010962D01*
X010961D01*
X010957D01*
X010951Y01782D01*
X010944D01*
X010935Y017822D01*
X010925Y017823D01*
X010915Y017825D01*
X010904Y017827D01*
X010893Y01783D01*
X010883Y017834D01*
X010873Y017839D01*
X010864Y017845D01*
X010856Y017852D01*
X010851Y01786D01*
X010847Y017869D01*
X010847Y017874D01*
X010846Y017879D01*
Y017881D01*
X010847Y017885D01*
X010847Y017891D01*
X010849Y017897D01*
X010853Y017905D01*
X010858Y017913D01*
X010865Y01792D01*
X010869Y017923D01*
X010874Y017926D01*
X010875D01*
X010875Y017927D01*
X010877Y017927D01*
X01088Y017928D01*
X010883Y017929D01*
X010887Y017931D01*
X010892Y017932D01*
X010898Y017933D01*
X010904Y017935D01*
X010911Y017936D01*
X01092Y017937D01*
X010929Y017939D01*
X01094Y017939D01*
X010951Y01794D01*
X010963Y01794D01*
X010977D01*
X010978D01*
X010982D01*
X010987Y01794D01*
D02*
G37*
G36*
X010906Y017653D02*
X010902Y017653D01*
X010897Y017652D01*
X010891Y017651D01*
X010883Y017649D01*
X010875Y017647D01*
X010866Y017643D01*
X010857Y01764D01*
X010847Y017636D01*
X010837Y017632D01*
X010828Y017626D01*
X010818Y01762D01*
X010809Y017613D01*
X0108Y017605D01*
X010792Y017597D01*
X010791Y017596D01*
X01079Y017595D01*
X010788Y017592D01*
X010786Y017588D01*
X010783Y017584D01*
X010779Y017578D01*
X010776Y017571D01*
X010772Y017564D01*
X010768Y017556D01*
X010765Y017547D01*
X010761Y017537D01*
X010758Y017527D01*
X010755Y017515D01*
X010753Y017504D01*
X010752Y017491D01*
X010751Y017478D01*
Y017654D01*
X010909D01*
X010906Y017653D01*
D02*
G37*
G36*
X010959Y017254D02*
X010952D01*
X010944Y017252D01*
X010935Y017251D01*
X010925Y01725D01*
X010914Y017247D01*
X010902Y017244D01*
X01089Y017241D01*
X010877Y017236D01*
X010865Y017231D01*
X010852Y017224D01*
X01084Y017216D01*
X010828Y017208D01*
X010816Y017198D01*
X010816Y017197D01*
X010814Y017195D01*
X010811Y017192D01*
X010807Y017188D01*
X010803Y017182D01*
X010798Y017176D01*
X010793Y017168D01*
X010788Y017159D01*
X010782Y017149D01*
X010776Y017138D01*
X010772Y017126D01*
X010767Y017113D01*
X010763Y017099D01*
X010761Y017084D01*
X010759Y017069D01*
X010758Y017052D01*
Y017254D01*
X010964D01*
X010959Y017254D01*
D02*
G37*
G36*
X01098Y01712D02*
X010985Y017119D01*
X010995Y017118D01*
X011007Y017116D01*
X01102Y017112D01*
X011034Y017107D01*
X011047Y017101D01*
X011047D01*
X011048Y0171D01*
X011052Y017097D01*
X011057Y017093D01*
X011064Y017086D01*
X01107Y017079D01*
X011075Y017069D01*
X011079Y017058D01*
X011079Y017051D01*
X01108Y017044D01*
Y017012D01*
X010854D01*
Y017046D01*
X010854Y01705D01*
X010856Y017056D01*
X010858Y017063D01*
X010862Y017072D01*
X010867Y01708D01*
X010875Y01709D01*
X010879Y017094D01*
X010885Y017098D01*
X010885D01*
X010886Y017099D01*
X010888Y0171D01*
X010891Y017101D01*
X010893Y017103D01*
X010897Y017105D01*
X010907Y017109D01*
X010919Y017113D01*
X010933Y017117D01*
X01095Y01712D01*
X010969Y01712D01*
X010969D01*
X010971D01*
X010973D01*
X010976D01*
X01098Y01712D01*
D02*
G37*
G36*
X011049Y016635D02*
X010931Y016602D01*
Y016669D01*
X011049Y016635D01*
D02*
G37*
G36*
X01084Y016692D02*
Y016579D01*
X010758Y016554D01*
Y016715D01*
X01084Y016692D01*
D02*
G37*
G36*
X010885Y016417D02*
X010879Y016416D01*
X010871Y016415D01*
X010864Y016413D01*
X010855Y016411D01*
X010846Y016409D01*
X010836Y016406D01*
X010827Y016402D01*
X010818Y016398D01*
X010809Y016392D01*
X0108Y016386D01*
X010793Y016379D01*
X010786Y016371D01*
X010785Y01637D01*
X010784Y016369D01*
X010782Y016366D01*
X01078Y016362D01*
X010778Y016358D01*
X010775Y016352D01*
X010772Y016346D01*
X010768Y016338D01*
X010765Y01633D01*
X010762Y016321D01*
X010759Y01631D01*
X010757Y0163D01*
X010755Y016288D01*
X010753Y016276D01*
X010752Y016263D01*
X010751Y016249D01*
Y016417D01*
X010891D01*
X010885Y016417D01*
D02*
G37*
G36*
X010959Y016025D02*
X010951Y016024D01*
X010941Y016024D01*
X01093Y016022D01*
X010917Y016019D01*
X010904Y016016D01*
X01089Y016013D01*
X010875Y016007D01*
X010861Y016001D01*
X010846Y015994D01*
X010831Y015985D01*
X010818Y015975D01*
X010805Y015963D01*
X010793Y01595D01*
X010792Y015951D01*
X01079Y015951D01*
X010787Y015954D01*
X010784Y015957D01*
X010781Y015963D01*
X010778Y01597D01*
X010776Y015978D01*
X010775Y01599D01*
Y015995D01*
X010776Y015999D01*
Y016005D01*
X010777Y016011D01*
X010778Y016017D01*
X010779Y016024D01*
X010685D01*
Y016023D01*
X010685Y016021D01*
Y016018D01*
X010684Y016013D01*
X010683Y016005D01*
X010683Y015996D01*
X010682Y015988D01*
X010681Y015978D01*
Y016026D01*
X010965D01*
X010959Y016025D01*
D02*
G37*
G36*
X010987Y015887D02*
X010994D01*
X011003Y015886D01*
X011012Y015885D01*
X011022Y015883D01*
X011032Y015881D01*
X011042Y015877D01*
X011052Y015873D01*
X011061Y015869D01*
X01107Y015863D01*
X011077Y015856D01*
X011082Y015849D01*
X011085Y01584D01*
X011087Y015829D01*
Y015827D01*
X011086Y015824D01*
X011085Y01582D01*
X011083Y015815D01*
X01108Y01581D01*
X011076Y015804D01*
X011071Y015799D01*
X011064Y015793D01*
X011056Y015787D01*
X011046Y015782D01*
X011034Y015777D01*
X01102Y015773D01*
X011003Y01577D01*
X010994Y015768D01*
X010984Y015768D01*
X010973Y015767D01*
X010962D01*
X010961D01*
X010957D01*
X010951Y015768D01*
X010944D01*
X010935Y015769D01*
X010925Y01577D01*
X010915Y015772D01*
X010904Y015774D01*
X010893Y015778D01*
X010883Y015782D01*
X010873Y015787D01*
X010864Y015792D01*
X010856Y015799D01*
X010851Y015807D01*
X010847Y015816D01*
X010847Y015822D01*
X010846Y015827D01*
Y015828D01*
X010847Y015832D01*
X010847Y015838D01*
X010849Y015845D01*
X010853Y015852D01*
X010858Y01586D01*
X010865Y015868D01*
X010869Y015871D01*
X010874Y015873D01*
X010875D01*
X010875Y015874D01*
X010877Y015875D01*
X01088Y015875D01*
X010883Y015877D01*
X010887Y015878D01*
X010892Y015879D01*
X010898Y015881D01*
X010904Y015882D01*
X010911Y015883D01*
X01092Y015885D01*
X010929Y015886D01*
X01094Y015887D01*
X010951Y015887D01*
X010963Y015888D01*
X010977D01*
X010978D01*
X010982D01*
X010987Y015887D01*
D02*
G37*
D10*
X039577Y016939D02*
Y01747D01*
X040659D01*
Y016939D02*
Y01747D01*
X039577Y016939D02*
X040659D01*
X040705Y031202D02*
X041554Y032051D01*
X040705Y031202D02*
X041123Y030784D01*
X041972Y031633D01*
X041554Y032051D02*
X041972Y031633D01*
X041532Y030375D02*
X042381Y031224D01*
X041532Y030375D02*
X04195Y029957D01*
X042799Y030806D01*
X042381Y031224D02*
X042799Y030806D01*
X04376Y034045D02*
Y035246D01*
X043169D02*
X04376D01*
X043169Y034045D02*
Y035246D01*
Y034045D02*
X04376D01*
X042241Y029666D02*
X04309Y030515D01*
X042241Y029666D02*
X042658Y029249D01*
X043507Y030098D01*
X04309Y030515D02*
X043507Y030098D01*
X043067Y028839D02*
X043917Y029688D01*
X043067Y028839D02*
X043485Y028422D01*
X044334Y029271D01*
X043917Y029688D02*
X044334Y029271D01*
X044626Y034045D02*
Y035246D01*
X044035D02*
X044626D01*
X044035Y034045D02*
Y035246D01*
Y034045D02*
X044626D01*
X039311Y041102D02*
Y041299D01*
X042854D01*
Y041102D02*
Y041299D01*
Y03874D02*
Y040118D01*
X042224Y03874D02*
X042854D01*
X039311D02*
Y040118D01*
Y03874D02*
X039941D01*
X023504Y010236D02*
Y010433D01*
X019961Y010236D02*
X023504D01*
X019961D02*
Y010433D01*
Y011417D02*
Y012795D01*
X020591D01*
X023504Y011417D02*
Y012795D01*
X022874D02*
X023504D01*
X010778Y034232D02*
Y034823D01*
X011978D01*
Y034232D02*
Y034823D01*
X010778Y034232D02*
X011978D01*
X037254Y032776D02*
Y033366D01*
X036053Y032776D02*
X037254D01*
X036053D02*
Y033366D01*
X037254D01*
Y03372D02*
Y034311D01*
X036053Y03372D02*
X037254D01*
X036053D02*
Y034311D01*
X037254D01*
X010778Y035413D02*
Y036004D01*
X011978D01*
Y035413D02*
Y036004D01*
X010778Y035413D02*
X011978D01*
X03001Y033778D02*
Y034369D01*
X028809Y033778D02*
X03001D01*
X028809D02*
Y034369D01*
X03001D01*
X041919Y016909D02*
Y0175D01*
X04312D01*
Y016909D02*
Y0175D01*
X041919Y016909D02*
X04312D01*
X02498Y036053D02*
X025571D01*
X02498D02*
Y037254D01*
X025571D01*
Y036053D02*
Y037254D01*
X036053Y034665D02*
Y035256D01*
X037254D01*
Y034665D02*
Y035256D01*
X036053Y034665D02*
X037254D01*
X013337Y039823D02*
Y040413D01*
X014537D01*
Y039823D02*
Y040413D01*
X013337Y039823D02*
X014537D01*
X013337Y011083D02*
Y011673D01*
X014537D01*
Y011083D02*
Y011673D01*
X013337Y011083D02*
X014537D01*
X010778Y036594D02*
Y037185D01*
X011978D01*
Y036594D02*
Y037185D01*
X010778Y036594D02*
X011978D01*
X044833Y011083D02*
Y011673D01*
X046033D01*
Y011083D02*
Y011673D01*
X044833Y011083D02*
X046033D01*
X036014Y031909D02*
Y0325D01*
X037215D01*
Y031909D02*
Y0325D01*
X036014Y031909D02*
X037215D01*
X021004Y018258D02*
X021594D01*
X021004D02*
Y019459D01*
X021594D01*
Y018258D02*
Y019459D01*
X021004Y021093D02*
X021594D01*
Y019892D02*
Y021093D01*
X021004Y019892D02*
X021594D01*
X021004D02*
Y021093D01*
X018287Y021112D02*
X018878D01*
Y019911D02*
Y021112D01*
X018287Y019911D02*
X018878D01*
X018287D02*
Y021112D01*
X034224Y02D02*
Y021339D01*
X033453D02*
X034224D01*
X033453Y02D02*
X034224D01*
X033453D02*
Y021339D01*
X032134Y02002D02*
Y021358D01*
Y02002D02*
X032906D01*
X032134Y021358D02*
X032906D01*
Y02002D02*
Y021358D01*
X010709Y037705D02*
X012047D01*
Y038476D01*
X010709Y037705D02*
Y038476D01*
X012047D01*
X036083Y023299D02*
X037421D01*
X036083Y022528D02*
Y023299D01*
X037421Y022528D02*
Y023299D01*
X036083Y022528D02*
X037421D01*
X03624Y025976D02*
X037579D01*
X03624Y025205D02*
Y025976D01*
X037579Y025205D02*
Y025976D01*
X03624Y025205D02*
X037579D01*
X018287Y019459D02*
X018878D01*
Y018258D02*
Y019459D01*
X018287Y018258D02*
X018878D01*
X018287D02*
Y019459D01*
X036132Y023681D02*
Y024272D01*
X037333D01*
Y023681D02*
Y024272D01*
X036132Y023681D02*
X037333D01*
X027018Y024744D02*
Y025335D01*
X025817Y024744D02*
X027018D01*
X025817D02*
Y025335D01*
X027018D01*
X027037Y025925D02*
Y026516D01*
X025837Y025925D02*
X027037D01*
X025837D02*
Y026516D01*
X027037D01*
X026998Y023504D02*
Y024094D01*
X025797Y023504D02*
X026998D01*
X025797D02*
Y024094D01*
X026998D01*
X044833Y039823D02*
Y040413D01*
X046033D01*
Y039823D02*
Y040413D01*
X044833Y039823D02*
X046033D01*
X035925Y041358D02*
X038287D01*
Y041083D02*
Y041358D01*
X035925Y041083D02*
Y041358D01*
Y038878D02*
Y040098D01*
Y038878D02*
X036555D01*
X037657D02*
X038287D01*
Y040059D01*
X032382Y023632D02*
X032972D01*
X032382D02*
Y024833D01*
X032972D01*
Y023632D02*
Y024833D01*
X029163Y025079D02*
Y025669D01*
X030364D01*
Y025079D02*
Y025669D01*
X029163Y025079D02*
X030364D01*
Y025945D02*
Y026535D01*
X029163Y025945D02*
X030364D01*
X029163D02*
Y026535D01*
X030364D01*
Y024252D02*
Y024843D01*
X029163Y024252D02*
X030364D01*
X029163D02*
Y024843D01*
X030364D01*
X030955Y023366D02*
Y023957D01*
X032156D01*
Y023366D02*
Y023957D01*
X030955Y023366D02*
X032156D01*
X030364Y023386D02*
Y023976D01*
X029163Y023386D02*
X030364D01*
X029163D02*
Y023976D01*
X030364D01*
X030955Y025079D02*
Y025669D01*
X032156D01*
Y025079D02*
Y025669D01*
X030955Y025079D02*
X032156D01*
X030955Y024252D02*
Y024843D01*
X032156D01*
Y024252D02*
Y024843D01*
X030955Y024252D02*
X032156D01*
X030974Y025945D02*
Y026535D01*
X032175D01*
Y025945D02*
Y026535D01*
X030974Y025945D02*
X032175D01*
X032382Y02627D02*
X032972D01*
Y025069D02*
Y02627D01*
X032382Y025069D02*
X032972D01*
X032382D02*
Y02627D01*
X034902Y038878D02*
Y040059D01*
X034272Y038878D02*
X034902D01*
X032539D02*
X033169D01*
X032539D02*
Y040098D01*
Y041083D02*
Y041358D01*
X034902Y041083D02*
Y041358D01*
X032539D02*
X034902D01*
X031516Y041083D02*
Y041319D01*
X028563D02*
X031516D01*
X028563Y041063D02*
Y041319D01*
Y03876D02*
Y040059D01*
Y03876D02*
X029193D01*
X030886D02*
X031516D01*
Y040059D01*
X023996Y03878D02*
X024626D01*
X023996D02*
Y040157D01*
X026909Y03878D02*
X027539D01*
Y040157D01*
Y041142D02*
Y041339D01*
X023996D02*
X027539D01*
X023996Y041142D02*
Y041339D01*
X028799Y011457D02*
Y012638D01*
X029429D01*
X030531D02*
X031161D01*
Y011417D02*
Y012638D01*
Y010157D02*
Y010433D01*
X028799Y010157D02*
Y010433D01*
Y010157D02*
X031161D01*
X024823Y011457D02*
Y012638D01*
X025453D01*
X026555D02*
X027185D01*
Y011417D02*
Y012638D01*
Y010157D02*
Y010433D01*
X024823Y010157D02*
Y010433D01*
Y010157D02*
X027185D01*
X032776Y011457D02*
Y012638D01*
X033406D01*
X034508D02*
X035138D01*
Y011417D02*
Y012638D01*
Y010157D02*
Y010433D01*
X032776Y010157D02*
Y010433D01*
Y010157D02*
X035138D01*
X036752Y011457D02*
Y012638D01*
X037382D01*
X038484D02*
X039114D01*
Y011417D02*
Y012638D01*
Y010157D02*
Y010433D01*
X036752Y010157D02*
Y010433D01*
Y010157D02*
X039114D01*
X043071Y012835D02*
X043701D01*
Y011457D02*
Y012835D01*
X040157D02*
X040787D01*
X040157Y011457D02*
Y012835D01*
Y010276D02*
Y010472D01*
Y010276D02*
X043701D01*
Y010472D01*
D16*
X018858Y03126D02*
X020394D01*
X018858Y031811D02*
X020394D01*
X037933Y033406D02*
Y03376D01*
Y034232D02*
X038602D01*
X037933Y034154D02*
Y034232D01*
X038602Y034154D02*
Y034232D01*
X037933Y032933D02*
X038602D01*
Y033012D01*
X037933Y032933D02*
Y033012D01*
D153*
X035846Y018642D02*
Y018327D01*
X035689D01*
X035637Y018379D01*
Y018432D01*
X035689Y018484D01*
X035846D01*
X035689D01*
X035637Y018537D01*
Y018589D01*
X035689Y018642D01*
X035846D01*
X035532D02*
X035322D01*
X035427D01*
Y018327D01*
X035217D02*
X035112D01*
X035164D01*
Y018642D01*
X035217Y018589D01*
X035846Y016398D02*
Y016083D01*
X035689D01*
X035637Y016135D01*
Y016345D01*
X035689Y016398D01*
X035846D01*
X035532D02*
X035427D01*
X035479D01*
Y016083D01*
X035532D01*
X035427D01*
X035112Y016398D02*
X035217D01*
X035269Y016345D01*
Y016135D01*
X035217Y016083D01*
X035112D01*
X035059Y016135D01*
Y016345D01*
X035112Y016398D01*
X034954Y016083D02*
X034849D01*
X034902D01*
Y016398D01*
X034954Y016345D01*
X035846Y015413D02*
Y015098D01*
X035689D01*
X035637Y015151D01*
Y015361D01*
X035689Y015413D01*
X035846D01*
X035532D02*
X035427D01*
X035479D01*
Y015098D01*
X035532D01*
X035427D01*
X035112Y015413D02*
X035217D01*
X035269Y015361D01*
Y015151D01*
X035217Y015098D01*
X035112D01*
X035059Y015151D01*
Y015361D01*
X035112Y015413D01*
X034954Y015361D02*
X034902Y015413D01*
X034797D01*
X034744Y015361D01*
Y015151D01*
X034797Y015098D01*
X034902D01*
X034954Y015151D01*
Y015361D01*
X035846Y020531D02*
Y020846D01*
X035689D01*
X035637Y020794D01*
Y020689D01*
X035689Y020636D01*
X035846D01*
X035532Y020846D02*
Y020531D01*
X035374D01*
X035322Y020584D01*
Y020636D01*
X035374Y020689D01*
X035532D01*
X035374D01*
X035322Y020741D01*
Y020794D01*
X035374Y020846D01*
X035532D01*
X035217Y020531D02*
X035112D01*
X035164D01*
Y020846D01*
X035217Y020794D01*
X034797Y020531D02*
Y020846D01*
X034954Y020689D01*
X034744D01*
X035846Y021398D02*
Y021713D01*
X035689D01*
X035637Y02166D01*
Y021555D01*
X035689Y021503D01*
X035846D01*
X035532Y021713D02*
Y021398D01*
X035374D01*
X035322Y02145D01*
Y021503D01*
X035374Y021555D01*
X035532D01*
X035374D01*
X035322Y021608D01*
Y02166D01*
X035374Y021713D01*
X035532D01*
X035217Y021398D02*
X035112D01*
X035164D01*
Y021713D01*
X035217Y02166D01*
X034744Y021713D02*
X034954D01*
Y021555D01*
X034849Y021608D01*
X034797D01*
X034744Y021555D01*
Y02145D01*
X034797Y021398D01*
X034902D01*
X034954Y02145D01*
X015059Y034862D02*
Y034547D01*
X014849D01*
X014744Y034862D02*
X014639D01*
X014692D01*
Y034547D01*
X014744D01*
X014639D01*
X014482D02*
Y034862D01*
X014324D01*
X014272Y03481D01*
Y034705D01*
X014324Y034652D01*
X014482D01*
X01401Y034862D02*
X014114D01*
X014167Y03481D01*
Y0346D01*
X014114Y034547D01*
X01401D01*
X013957Y0346D01*
Y03481D01*
X01401Y034862D01*
X013537Y034547D02*
Y034757D01*
X013432Y034862D01*
X013327Y034757D01*
Y034547D01*
Y034705D01*
X013537D01*
X013222Y034862D02*
Y034547D01*
X013065D01*
X013012Y0346D01*
Y03481D01*
X013065Y034862D01*
X013222D01*
X012698Y03481D02*
X01275Y034862D01*
X012855D01*
X012908Y03481D01*
Y0346D01*
X012855Y034547D01*
X01275D01*
X012698Y0346D01*
X014731Y036752D02*
X014941D01*
Y036594D01*
X014836Y036647D01*
X014784D01*
X014731Y036594D01*
Y036489D01*
X014784Y036437D01*
X014888D01*
X014941Y036489D01*
X014626Y036752D02*
Y036542D01*
X014521Y036437D01*
X014416Y036542D01*
Y036752D01*
X013786Y036699D02*
X013839Y036752D01*
X013944D01*
X013996Y036699D01*
Y036489D01*
X013944Y036437D01*
X013839D01*
X013786Y036489D01*
X013682Y036437D02*
Y036752D01*
X013472Y036437D01*
Y036752D01*
X013157D02*
X013367D01*
Y036437D01*
X013157D01*
X013367Y036594D02*
X013262D01*
X012842Y036699D02*
X012894Y036752D01*
X012999D01*
X013052Y036699D01*
Y036489D01*
X012999Y036437D01*
X012894D01*
X012842Y036489D01*
X029783Y036791D02*
Y036581D01*
X029679Y036476D01*
X029574Y036581D01*
Y036791D01*
X029416Y036476D02*
X029311D01*
X029259Y036529D01*
Y036634D01*
X029311Y036686D01*
X029416D01*
X029469Y036634D01*
Y036529D01*
X029416Y036476D01*
X030597Y036791D02*
X030807D01*
Y036634D01*
X030702Y036686D01*
X03065D01*
X030597Y036634D01*
Y036529D01*
X03065Y036476D01*
X030755D01*
X030807Y036529D01*
X030492Y036791D02*
Y036581D01*
X030387Y036476D01*
X030282Y036581D01*
Y036791D01*
X028878Y036739D02*
X028825Y036791D01*
X028721D01*
X028668Y036739D01*
Y036686D01*
X028721Y036634D01*
X028773D01*
X028721D01*
X028668Y036581D01*
Y036529D01*
X028721Y036476D01*
X028825D01*
X028878Y036529D01*
X028563Y036791D02*
Y036581D01*
X028458Y036476D01*
X028353Y036581D01*
Y036791D01*
X028248Y036739D02*
X028196Y036791D01*
X028091D01*
X028038Y036739D01*
Y036686D01*
X028091Y036634D01*
X028143D01*
X028091D01*
X028038Y036581D01*
Y036529D01*
X028091Y036476D01*
X028196D01*
X028248Y036529D01*
X025413Y028012D02*
Y027697D01*
X025256D01*
X025203Y027749D01*
Y027802D01*
X025256Y027854D01*
X025413D01*
X025256D01*
X025203Y027907D01*
Y027959D01*
X025256Y028012D01*
X025413D01*
X025099D02*
X024889D01*
X024994D01*
Y027697D01*
X024574D02*
X024784D01*
X024574Y027907D01*
Y027959D01*
X024626Y028012D01*
X024731D01*
X024784Y027959D01*
X024272D02*
X024219Y028012D01*
X024114D01*
X024062Y027959D01*
Y027907D01*
X024114Y027854D01*
X024167D01*
X024114D01*
X024062Y027802D01*
Y027749D01*
X024114Y027697D01*
X024219D01*
X024272Y027749D01*
X023957Y028012D02*
Y027802D01*
X023852Y027697D01*
X023747Y027802D01*
Y028012D01*
X023642Y027959D02*
X023589Y028012D01*
X023485D01*
X023432Y027959D01*
Y027907D01*
X023485Y027854D01*
X023537D01*
X023485D01*
X023432Y027802D01*
Y027749D01*
X023485Y027697D01*
X023589D01*
X023642Y027749D01*
X026345Y027959D02*
X026398Y028012D01*
X026503D01*
X026555Y027959D01*
Y027749D01*
X026503Y027697D01*
X026398D01*
X026345Y027749D01*
Y027854D01*
X02645D01*
X02624Y027697D02*
Y028012D01*
X02603Y027697D01*
Y028012D01*
X025925D02*
Y027697D01*
X025768D01*
X025715Y027749D01*
Y027959D01*
X025768Y028012D01*
X025925D01*
X035637Y017566D02*
X035689Y017618D01*
X035794D01*
X035846Y017566D01*
Y017356D01*
X035794Y017303D01*
X035689D01*
X035637Y017356D01*
Y017461D01*
X035742D01*
X035532Y017303D02*
Y017618D01*
X035322Y017303D01*
Y017618D01*
X035217D02*
Y017303D01*
X035059D01*
X035007Y017356D01*
Y017566D01*
X035059Y017618D01*
X035217D01*
X035846Y019534D02*
X035794Y019587D01*
X035689D01*
X035637Y019534D01*
Y019482D01*
X035689Y019429D01*
X035742D01*
X035689D01*
X035637Y019377D01*
Y019324D01*
X035689Y019272D01*
X035794D01*
X035846Y019324D01*
X035532Y019587D02*
Y019377D01*
X035427Y019272D01*
X035322Y019377D01*
Y019587D01*
X035217Y019534D02*
X035164Y019587D01*
X035059D01*
X035007Y019534D01*
Y019482D01*
X035059Y019429D01*
X035112D01*
X035059D01*
X035007Y019377D01*
Y019324D01*
X035059Y019272D01*
X035164D01*
X035217Y019324D01*
X01689Y03939D02*
Y03918D01*
X016785Y039075D01*
X01668Y03918D01*
Y03939D01*
X016575D02*
X01647D01*
X016522D01*
Y039075D01*
X016575D01*
X01647D01*
X016313D02*
Y03939D01*
X016103Y039075D01*
Y03939D01*
X018235Y039357D02*
X018287Y039409D01*
X018392D01*
X018445Y039357D01*
Y039147D01*
X018392Y039094D01*
X018287D01*
X018235Y039147D01*
Y039252D01*
X01834D01*
X01813Y039094D02*
Y039409D01*
X01792Y039094D01*
Y039409D01*
X017815D02*
Y039094D01*
X017658D01*
X017605Y039147D01*
Y039357D01*
X017658Y039409D01*
X017815D01*
X020748Y039318D02*
X020696Y03937D01*
X020591D01*
X020538Y039318D01*
Y039265D01*
X020591Y039213D01*
X020643D01*
X020591D01*
X020538Y03916D01*
Y039108D01*
X020591Y039055D01*
X020696D01*
X020748Y039108D01*
X020433Y03937D02*
Y03916D01*
X020328Y039055D01*
X020223Y03916D01*
Y03937D01*
X020118Y039318D02*
X020066Y03937D01*
X019961D01*
X019908Y039318D01*
Y039265D01*
X019961Y039213D01*
X020013D01*
X019961D01*
X019908Y03916D01*
Y039108D01*
X019961Y039055D01*
X020066D01*
X020118Y039108D01*
X021916Y03939D02*
X022126D01*
Y039232D01*
X022021Y039285D01*
X021969D01*
X021916Y039232D01*
Y039127D01*
X021969Y039075D01*
X022074D01*
X022126Y039127D01*
X021811Y03939D02*
Y03918D01*
X021706Y039075D01*
X021601Y03918D01*
Y03939D01*
M02*
