M48
;Layer_Color=9474304
;FILE_FORMAT=2:4
INCH,LZ
;TYPE=PLATED
T1F00S00C0.0118
T2F00S00C0.0157
T3F00S00C0.0197
T4F00S00C0.0217
T5F00S00C0.0236
T6F00S00C0.0315
T7F00S00C0.0394
T8F00S00C0.0402
T9F00S00C0.0420
T10F00S00C0.0472
T11F00S00C0.0512
T12F00S00C0.0551
T13F00S00C0.1024
T14F00S00C0.1181
%
T01
X010846Y010846
X011378Y01063
X011909Y010846
X012126Y011378
X011909Y011909
X011378Y012126
X010846Y011909
X01063Y011378
X012972Y01124
X014193Y011831
X014331Y010748
X013858Y014035
X01626Y012047
X018937Y011201
X021161Y0125
X022126Y012343
X02274Y012358
X023331
X024646Y011732
X024862Y012826
X025217Y012579
X025935Y012766
X025933Y012352
X025921Y012001
X029705Y011949
X029709Y012358
X029705Y012736
X0309Y012352
X030965Y014902
X030465Y014913
X022415Y014732
X022194Y014027
X021181Y014055
X01815Y014302
X034449Y014902
X034961Y014429
X034669Y012358
X033484Y012323
X033488Y011992
X033484Y012717
X037264Y012756
Y012343
Y011929
X038445Y012087
X038718Y013078
X039711Y013088
X040532Y013346
X041782Y013337
X04252Y014031
X043071Y014764
X044646Y014606
Y015492
X043012Y012362
X040512Y014764
X037867Y014562
X037756Y015118
X037028Y014764
X047461Y011909
X047244Y011378
X047461Y010846
X047992Y01063
X048524Y010846
X04874Y011378
X048524Y011909
X047992Y012126
X048091Y025531
X042461Y025571
X041968
X041437Y025591
X040965
X040984Y024075
X040983Y023169
X040177Y023209
X039547Y024843
X038898Y02511
X039272Y025866
X038701Y026634
X038524Y029528
X039145Y029779
X03714Y028827
X034306Y028039
X033642Y028189
X033031Y028327
X032618Y028248
X032599Y028838
X031526Y028828
X032323Y02748
X032523Y026903
X031391Y026628
X032067Y025512
X031763Y02482
X032185Y024232
X033886Y02426
X034193Y024114
X034078Y024537
X034135Y024893
X034173Y025276
X03378Y025315
X033564Y025983
X03379Y02621
X035358Y026154
X035604Y026367
X036113Y025922
X035965Y025316
X03624Y024469
X035906Y024193
X035366Y024396
X034562Y023731
X035531Y021949
X033739Y021486
X033729Y021128
X032777Y021133
X032164Y021128
X032126Y020787
X031687Y02086
X031791Y020531
X031692Y020158
X031454Y019863
X031317Y019511
X032376Y019528
X032262Y019161
X03307Y018555
X033469Y018568
X033965Y018594
X034469Y018482
X034977Y01872
X035198Y018918
X035452Y017953
X034961Y017185
X032402Y016634
X037776Y01626
X039075Y015925
X040062Y015807
X039841Y018348
X040498Y018918
X041378Y017972
X043642Y017362
X043091Y016713
X043262Y015915
X043044Y015713
X044606Y015925
X04498Y01626
X044705Y019331
X044291Y020039
X041949Y020945
X041772Y02187
X042441Y022165
X037972Y020984
X037461Y019252
X036922Y023121
X03786Y023334
X037468Y024134
X03722Y024446
X037224Y024941
X031908Y02214
X031595Y022193
X031537Y031
X03221Y030784
X034252Y030453
X030959Y030306
X030945Y030787
X030472Y030827
X028484Y030846
X026539Y030583
X026181Y030572
X024912Y030812
X024243Y030658
X024481Y031212
X023874Y030234
X022953Y029154
X022815Y028425
X021969Y028661
X023248Y027579
X024193Y027421
X02566Y028016
X025945Y028484
X026221Y028592
X027301Y028662
X027465Y028411
X028327Y028401
X02872Y028366
X028986Y028916
X030033Y028734
X03019Y028357
X030551Y027795
X02939Y027559
X028944Y027538
X028819Y027244
X028803Y026854
X028287Y026378
X027688Y026303
X027671Y025984
X027968Y025989
X027067Y025551
X027343Y02687
X027126Y027283
X02698Y027654
X028386Y027693
X028966Y02505
X029004Y024543
X029104Y024074
X029029Y023745
X028991Y023451
X029114Y02315
X02937Y022638
X030097Y022599
X030078Y022802
X030883Y023155
X030426Y02082
X03063Y019902
X030965Y018563
X030453Y018051
X029409Y018346
X029272Y019094
X028671Y019065
X027283Y018701
X027638Y016713
X027697Y016122
X025768
X025748Y016811
X024232Y017913
X024311Y018839
X024961Y018661
X022789Y019406
X022343Y019902
X022598Y020197
X022701Y020605
X023153Y020624
X02373Y021673
X024114
X025256
X025374Y021969
X02565Y022175
X026101Y0224
X026142Y023071
X025789Y023433
X025293Y023445
X025217Y024449
X025866Y02437
X025894Y023938
X026566Y023789
X028023Y023604
X028001Y023003
X027526Y022897
X027224Y022602
X027222Y022238
X027696Y022034
X027964Y021871
X028695Y021327
X029512Y021195
X029568Y025624
X0312Y026855
X025985Y026601
X025541Y025224
X024101Y023625
X023881Y023425
X022815Y017638
X02248Y017264
X023064Y016877
X02185Y01622
X020945Y017697
X02063Y018268
X021201Y018819
X019511Y018944
X019168Y019029
X018228Y018701
X018189Y018307
X017574Y017945
X01671Y017646
X01628Y019547
X016949Y020807
X016864Y021562
X016498Y021392
X015846Y021673
X017918Y020942
X018506Y020927
X017848Y01914
X020181Y020051
X018917Y02622
X018681
X018445
X017579Y027165
X017559Y027539
X021043Y031102
X02126
X022362Y03124
X022598
X028918Y017008
X029724Y016083
X030984Y015669
X013819Y01622
X013839Y018307
X014941Y019547
X015455Y019536
X013033Y020351
X014328Y031637
X015559Y031605
X015433Y040118
X013824Y039696
X013504Y040768
X011909Y04065
X012126Y040118
X011909Y039587
X011378Y03937
X010846Y039587
X01063Y040118
X010846Y04065
X011378Y040866
X012207Y038823
X01622Y038661
Y038406
Y03815
X01796Y037935
X018185Y037921
X018401Y03793
X019744Y037323
Y036732
Y036161
Y035551
Y03498
X020413
Y035551
Y036181
Y036732
Y037323
X021142
Y036732
Y036181
Y035551
Y035
X02189Y035571
Y036181
Y036732
Y037323
X022579
Y036732
Y036181
Y035591
X022618Y033839
X022362
X022106
X023071Y033268
Y033071
Y032874
X024186Y03147
X026476Y031552
X026368Y03259
X027521Y032022
X027881Y032055
X028258Y031959
X028248Y032854
X028695Y033688
X029424Y033706
X02972Y033844
X030138Y033917
X030465Y034535
X030448Y035265
X028658Y035423
X028302Y035303
X027885Y034037
X02705Y034379
X026738Y034368
X027254Y036312
X027549Y036281
X02939Y036358
X029469Y037746
X029805Y040075
X03063Y039705
X030636Y040723
X028287Y040377
X026161Y039252
X025118Y03813
X02498Y037175
X025429Y03679
X024252Y035315
X023957Y03939
X017938Y040227
X018425Y033878
X017348Y033832
X030945Y033524
X030871Y032015
X030439Y031927
X032657Y032992
Y034744
X033265Y034875
X033071Y036043
X03313Y037402
X03367Y038739
X03537Y037756
X035866Y036299
X036988Y036199
X037026Y036493
X037324Y036769
X037697Y037874
X038642
X038858Y036299
X038989Y034845
X039614Y03432
X040374Y034568
X041348Y03566
X041713Y036811
X04246Y036084
X042474Y03434
X042316Y033882
X043346Y033583
X043882Y034505
X044528Y034646
X045374Y035394
X044094Y035906
X044173Y037146
X044567Y037323
X045374Y037264
X045039Y040768
X039629Y040812
X039158Y040724
X038177Y040818
X037195Y041118
X03611Y040182
X036496Y034843
X037308Y03478
X037214Y032982
X036142Y033189
X031358Y035276
X040492Y038327
X04437Y032756
X048583Y034134
X048524Y039587
X04874Y040118
X048524Y04065
X047992Y040866
X047461Y04065
X047244Y040118
X047461Y039587
X047992Y03937
T02
X021063Y03313
X02126
X022087Y034823
X022362
X022638
X024094Y034236
X024095Y033943
X024095Y033658
T03
X016354Y010756
X019191Y013993
X020157Y013151
X027566Y012083
X027852Y015495
X045177Y012057
X046417Y01122
X04565Y021161
X044921Y024075
X037086Y027284
X036872Y018641
X037854Y017657
X04061Y016161
X029449Y017421
X028972Y018728
X030256Y018937
X027802Y018019
X020133Y021904
X01903Y021406
X011358Y022028
X011194Y025773
X026851Y037991
X027382Y038366
X031158Y037091
X036685Y033761
X036683Y033345
T04
X032362Y039366
X033937
T05
X036452Y02783
X014409Y027843
Y028843
Y029843
T06
X013533Y011984
X037961Y024071
Y025071
Y026071
Y027071
Y028071
Y029071
X040709Y028622
X042283
X044961Y028071
Y027071
Y026071
Y025071
X027929Y020472
X026929
X025929
X024929
X023929
T07
X016673Y022717
X015673Y025717
X018673
X022673
Y022717
T08
X019843Y015043
X036378Y014677
X047067Y018091
X048067
X036378Y017882
Y016882
Y015677
X03626Y01963
Y02063
Y02163
X034744
Y02063
Y01963
X019843Y017043
Y016043
X024921Y028091
Y029091
Y030091
X014358Y036693
X013358
Y037953
X014358
X028189Y037331
Y036331
X030236Y036362
Y037362
T09
X032016Y029488
X033016
X034016
X035016
X036016
X031016
X030016
X029016
X028016
X027016
T10
X016685Y038346
X018185
X020547
X022047
T11
X047583Y015528
Y020646
X047575Y036984
T12
X046583Y014528
X048583
Y016528
Y019646
Y021646
X046583
Y019646
Y016528
X046575Y035984
Y037984
X048575
Y035984
T13
X023252Y014606
X028606
X038461Y022321
X044461
Y030821
X038461
T14
X011378Y011378
X047992Y011378
X011378Y040118
X047992
M30
