G04*
G04 #@! TF.GenerationSoftware,Altium Limited,Altium Designer,21.2.2 (38)*
G04*
G04 Layer_Color=32896*
%FSTAX24Y24*%
%MOIN*%
G70*
G04*
G04 #@! TF.SameCoordinates,D9C69337-02A0-443D-9D67-ED1C811D3BAA*
G04*
G04*
G04 #@! TF.FilePolarity,Positive*
G04*
G01*
G75*
%ADD11C,0.0079*%
%ADD16C,0.0039*%
%ADD18C,0.0060*%
%ADD21C,0.0030*%
%ADD124C,0.0098*%
%ADD161C,0.0059*%
G36*
X038736Y037504D02*
X038586D01*
Y037604D01*
X038736D01*
Y037504D01*
D02*
G37*
G36*
X040163Y035831D02*
X040063D01*
Y035981D01*
X040163D01*
Y035831D01*
D02*
G37*
G36*
X013675Y017449D02*
X013681Y017443D01*
X013686Y017425D01*
X013688Y017364D01*
X013668Y017352D01*
X013672Y01733D01*
X013686Y017321D01*
X013713Y017271D01*
X013727Y017258D01*
X013731Y017249D01*
X013749Y017231D01*
X013763Y017208D01*
X013772Y017199D01*
X013776Y01719D01*
X01379Y017177D01*
X013803Y017154D01*
X013817Y017145D01*
X013821Y017136D01*
X013839Y017118D01*
X013844Y017109D01*
X013857Y017095D01*
X013862Y017086D01*
X013875Y017077D01*
X013889Y017055D01*
X013898Y017046D01*
X013902Y017037D01*
X013909Y017025D01*
X013918Y017021D01*
X013943Y016996D01*
X013957Y016974D01*
X013966Y016964D01*
X013979Y016942D01*
X013997Y01691D01*
X014006Y016901D01*
X014002Y016883D01*
X013995Y016881D01*
X013981Y016886D01*
X013968Y016872D01*
X013945Y016877D01*
X013911Y01691D01*
X013898Y016933D01*
X013889Y016942D01*
X013884Y016951D01*
X013844Y016992D01*
X01383Y017014D01*
X013821Y017023D01*
X013808Y017046D01*
X013799Y01705D01*
X013794Y017059D01*
X013776Y017077D01*
X013772Y017086D01*
X013765Y017093D01*
X013758Y017095D01*
X013754Y017104D01*
X013736Y017122D01*
X013731Y017131D01*
X013724Y017143D01*
X013717Y017145D01*
X013713Y017154D01*
X013693Y017174D01*
X013675Y017179D01*
X013663Y017168D01*
X013668Y017131D01*
X013681Y017118D01*
X01369Y017095D01*
X013727Y017059D01*
X01374Y017037D01*
X013794Y016983D01*
X013808Y01696D01*
X013839Y016928D01*
X013844Y016919D01*
X01388Y016883D01*
X013887Y016858D01*
X013898Y016852D01*
X013905Y016822D01*
X013921Y016807D01*
X013927Y016777D01*
X013943Y016761D01*
X013948Y016748D01*
X013954Y016741D01*
X013977Y016746D01*
X013986Y016759D01*
X013999Y016746D01*
X014006Y016743D01*
X01402Y016721D01*
X014029Y016716D01*
X014042Y016694D01*
X014051Y016685D01*
X014056Y016676D01*
X014069Y016667D01*
X014083Y016644D01*
X014114Y016613D01*
X014126Y016592D01*
X014135Y016588D01*
X014142Y016581D01*
X01416Y016549D01*
X01418Y016525D01*
X014191Y016509D01*
X014205Y016495D01*
X014218Y016473D01*
X014227Y016464D01*
X014232Y01645D01*
X014245Y016437D01*
X01425Y016428D01*
X014268Y01641D01*
X014281Y016387D01*
X01429Y016378D01*
X014304Y016356D01*
X014313Y016346D01*
X014317Y016337D01*
X014336Y016319D01*
X014349Y016297D01*
X014358Y016288D01*
X014365Y016272D01*
X014372Y01627D01*
X014376Y016261D01*
X014387Y016245D01*
X014394Y016243D01*
X014408Y01622D01*
X014417Y016211D01*
X01443Y016189D01*
X014439Y01618D01*
X014457Y016148D01*
X01448Y016116D01*
X0145Y016092D01*
X014507Y016085D01*
X014511Y016067D01*
X014543Y016026D01*
X014552Y016017D01*
X014557Y015995D01*
X01457Y015981D01*
X014579Y015959D01*
X014593Y015945D01*
X014597Y015927D01*
X014604Y01592D01*
X014613Y015916D01*
X014624Y015886D01*
X014633Y015877D01*
X014642Y015855D01*
X014656Y015841D01*
X014665Y015819D01*
X014678Y015805D01*
X014683Y015787D01*
X014687Y015778D01*
X014701Y015765D01*
X014705Y015742D01*
X014723Y015715D01*
X014737Y015692D01*
X014746Y015683D01*
X014751Y015661D01*
X014764Y015647D01*
X014771Y015622D01*
X014782Y015607D01*
X014791Y015584D01*
X014793Y015577D01*
X014802Y015573D01*
X014809Y015566D01*
X014814Y015548D01*
X014818Y015539D01*
X014832Y015525D01*
X014836Y015498D01*
X014854Y01548D01*
X014859Y015458D01*
X014868Y015449D01*
X014877Y015426D01*
X014881Y015413D01*
X014895Y015399D01*
X014899Y015368D01*
X014917Y015327D01*
X014922Y015309D01*
X014936Y015277D01*
X014945Y015241D01*
X014958Y01521D01*
X014963Y015192D01*
X014967Y015128D01*
X014976Y015106D01*
X014981Y01507D01*
X014985Y015056D01*
X01499Y014916D01*
X014985Y014885D01*
X014981Y014831D01*
X014967Y014799D01*
X014963Y014781D01*
X014958Y014722D01*
X014954Y014718D01*
X01496Y014711D01*
X014983Y014725D01*
X015001Y014743D01*
X015008Y014722D01*
X014994Y0147D01*
X014985Y014691D01*
X014981Y014668D01*
X014967Y014655D01*
X014963Y014646D01*
X014936Y014632D01*
X014926Y014623D01*
X014922Y014592D01*
X014917Y014583D01*
X014879Y014544D01*
X014861Y014549D01*
X014852Y014558D01*
X014829Y014571D01*
X014818Y014583D01*
X014823Y014596D01*
X014829Y014603D01*
X014836Y014605D01*
X014845Y014628D01*
X014841Y01465D01*
X01482Y014671D01*
X014811Y014675D01*
X014784Y014702D01*
X014762Y014716D01*
X014735Y014743D01*
X014712Y014752D01*
X014681Y014765D01*
X014674Y014763D01*
X014678Y01475D01*
X014699Y014725D01*
X014712Y014707D01*
X014719Y014704D01*
X014733Y014682D01*
X014746Y014668D01*
X01476Y014646D01*
X014769Y014637D01*
X014787Y014596D01*
X014782Y014569D01*
X014775Y014562D01*
X014733Y014578D01*
X014717Y014589D01*
X014708Y014598D01*
X014687Y01461D01*
X014674Y014632D01*
X01466Y014646D01*
X014656Y014655D01*
X014642Y014668D01*
X014645Y014684D01*
X014654Y01468D01*
X014683Y01465D01*
X014687Y014641D01*
X014705Y014623D01*
X01471Y014614D01*
X01473Y014607D01*
X014739Y014612D01*
X014742Y014628D01*
X014726Y014648D01*
X014717Y014653D01*
X01471Y014668D01*
X014692Y014686D01*
X014687Y014695D01*
X014669Y014713D01*
X014656Y014736D01*
X014647Y014745D01*
X014645Y014752D01*
X014636Y014756D01*
X014624Y014768D01*
X01462Y014781D01*
X014584Y014817D01*
X014579Y014826D01*
X014539Y014867D01*
X014525Y014889D01*
X014493Y014921D01*
X01448Y014944D01*
X014453Y014971D01*
X014448Y01498D01*
X014385Y015043D01*
X014372Y015065D01*
X014345Y015092D01*
X014331Y015115D01*
X014254Y015192D01*
X01425Y015201D01*
X014232Y015219D01*
X014225Y015234D01*
X014218Y015237D01*
X014214Y015246D01*
X014169Y015291D01*
X014164Y0153D01*
X014157Y015311D01*
X014148Y015316D01*
X01411Y015354D01*
X014105Y015363D01*
X014094Y015379D01*
X014085Y015383D01*
X014078Y01539D01*
X014074Y015399D01*
X01406Y015408D01*
X014056Y015417D01*
X014049Y015424D01*
X014042Y015426D01*
X014029Y015449D01*
X01402Y015458D01*
X014015Y015467D01*
X013999Y015478D01*
X01399Y015492D01*
X013981Y015496D01*
X013966Y015521D01*
X013934Y015553D01*
X013923Y015573D01*
X013914Y015577D01*
X013907Y015584D01*
X013902Y015593D01*
X013887Y015604D01*
X013866Y015625D01*
X013862Y015634D01*
X013839Y015656D01*
X013835Y015665D01*
X013799Y015701D01*
X013796Y015708D01*
X013787Y015713D01*
X013781Y015719D01*
X013767Y015742D01*
X013754Y015751D01*
X013749Y01576D01*
X013742Y015767D01*
X013733Y015771D01*
X013724Y015785D01*
X013715Y015789D01*
X013702Y015812D01*
X013693Y015816D01*
X013681Y015832D01*
X013675Y015839D01*
X013668Y015841D01*
X013663Y01585D01*
X01365Y015864D01*
X013645Y015873D01*
X013625Y015898D01*
X013587Y015936D01*
X013573Y015959D01*
X013519Y016013D01*
X013501Y016044D01*
X013492Y016067D01*
X013487Y016076D01*
X013474Y016098D01*
X013469Y016107D01*
X013456Y016121D01*
X013451Y01613D01*
X01344Y016141D01*
X013433Y016143D01*
X013429Y016152D01*
X013406Y016175D01*
X013404Y016182D01*
X013395Y016186D01*
X013384Y016198D01*
X013379Y016207D01*
X013215Y016371D01*
X013192Y016385D01*
X013167Y016405D01*
X013133Y016439D01*
X013124Y016443D01*
X013115Y016452D01*
X013106Y016457D01*
X013095Y016468D01*
X013093Y016475D01*
X013084Y01648D01*
X013072Y016491D01*
X013068Y0165D01*
X013043Y016516D01*
X013016Y016543D01*
X013007Y016547D01*
X012996Y016559D01*
X012991Y016568D01*
X012982Y016577D01*
X012993Y016579D01*
X013002Y01657D01*
X013025Y016556D01*
X013034Y016547D01*
X013043Y016543D01*
X013079Y016507D01*
X013099Y016495D01*
X013104Y016486D01*
X013111Y01648D01*
X01312Y016475D01*
X013147Y016448D01*
X013156Y016443D01*
X013167Y016432D01*
X013172Y016423D01*
X013178Y016416D01*
X013187Y016412D01*
X013228Y01638D01*
X013233Y016371D01*
X013242Y016367D01*
X013278Y016331D01*
X013287Y016326D01*
X013411Y016202D01*
X013415Y016193D01*
X01351Y016098D01*
X013514Y016089D01*
X01353Y016078D01*
X013539Y016065D01*
X013548Y01606D01*
X013578Y016031D01*
X013582Y016022D01*
X0136Y016013D01*
X013605Y016004D01*
X013611Y015997D01*
X013618Y015999D01*
X013614Y016017D01*
X013596Y016049D01*
X013582Y016058D01*
X013578Y016067D01*
X01356Y016085D01*
X013555Y016094D01*
X013542Y016103D01*
X013537Y016116D01*
X013456Y016198D01*
X013451Y016207D01*
X013438Y01622D01*
X013433Y016229D01*
X013418Y01624D01*
X013408Y016254D01*
X013399Y016259D01*
X013381Y016286D01*
X013354Y016313D01*
X013345Y016317D01*
X01333Y016328D01*
X013325Y016337D01*
X013318Y016344D01*
X013309Y016349D01*
X0133Y016362D01*
X013291Y016367D01*
X013284Y016374D01*
X01328Y016383D01*
X013264Y016394D01*
X013255Y016403D01*
X013246Y016407D01*
X013215Y016439D01*
X013194Y01645D01*
X01319Y016459D01*
X013183Y016466D01*
X013174Y016471D01*
X013167Y016477D01*
X013165Y016484D01*
X013156Y016489D01*
X013145Y0165D01*
X01314Y016513D01*
X013158Y016518D01*
X013154Y016527D01*
X013142Y016547D01*
X013133Y016552D01*
X013111Y016579D01*
X013075Y016615D01*
X013066Y016619D01*
X013043Y016642D01*
X013034Y016646D01*
X013002Y016678D01*
X012993Y016683D01*
X012966Y01671D01*
X012957Y016714D01*
X012946Y01673D01*
X01291Y016757D01*
X012908Y016764D01*
X012899Y016768D01*
X012887Y01678D01*
X012885Y016786D01*
X012863Y0168D01*
X012849Y016813D01*
X01284Y016818D01*
X012833Y016825D01*
X012831Y016831D01*
X012809Y01684D01*
X012786Y016836D01*
X012784Y016834D01*
X012797Y016811D01*
X012815Y016802D01*
X01282Y016793D01*
X012831Y016782D01*
X01284Y016777D01*
X012881Y016737D01*
X01289Y016732D01*
X012917Y016705D01*
X012926Y016701D01*
X012935Y016692D01*
X012944Y016687D01*
X012975Y016655D01*
X012984Y016651D01*
X013002Y016633D01*
X013011Y016628D01*
X013023Y016613D01*
X013039Y016601D01*
X013048Y016592D01*
X013063Y016586D01*
X013068Y016577D01*
X013081Y016563D01*
X013079Y016556D01*
X01307Y016561D01*
X013061Y01657D01*
X013041Y016581D01*
X013036Y01659D01*
X013018Y016599D01*
X013014Y016608D01*
X012987Y016626D01*
X012975Y016637D01*
X012966Y016642D01*
X012948Y01666D01*
X012926Y016674D01*
X012917Y016683D01*
X012908Y016687D01*
X01289Y016705D01*
X012863Y016714D01*
X012845Y016705D01*
X012813Y016719D01*
X012804Y016714D01*
X012797Y016707D01*
X012802Y016676D01*
X01282Y016658D01*
X012833Y016626D01*
X01286Y016568D01*
X012869Y016531D01*
X012883Y0165D01*
X012946Y016369D01*
X01296Y016346D01*
X012969Y016337D01*
X012973Y01631D01*
X012991Y016292D01*
X012996Y016256D01*
X013014Y016216D01*
X013027Y016193D01*
X013036Y016171D01*
X01305Y016148D01*
X013072Y016116D01*
X01309Y016085D01*
X013099Y016076D01*
X013104Y016053D01*
X013127Y016022D01*
X013131Y016013D01*
X01314Y016004D01*
X013151Y015974D01*
X013158Y015968D01*
X013176Y015936D01*
X013203Y015886D01*
X013208Y015873D01*
X013203Y015859D01*
X013196Y015857D01*
X01319Y015864D01*
X013185Y015873D01*
X013176Y015882D01*
X013172Y0159D01*
X013158Y015922D01*
X013136Y015963D01*
X013118Y01599D01*
X013113Y015999D01*
X013106Y016006D01*
X013084Y016001D01*
X013081Y01599D01*
X013095Y015968D01*
X013099Y015949D01*
X013104Y015936D01*
X013113Y015927D01*
X013122Y015904D01*
X013127Y015877D01*
X013136Y015868D01*
X013145Y015837D01*
X013154Y015814D01*
X013165Y015785D01*
X013169Y015762D01*
X013181Y015746D01*
X013185Y015733D01*
X01319Y015715D01*
X013194Y015701D01*
X013203Y015692D01*
X013208Y015674D01*
X013212Y015652D01*
X01323Y015611D01*
X013237Y015582D01*
X013246Y015559D01*
X013253Y015534D01*
X013257Y015494D01*
X013271Y015462D01*
X01328Y015399D01*
X013284Y015377D01*
X013289Y015363D01*
X013293Y015291D01*
X013289Y015259D01*
X01328Y01525D01*
X013266Y015219D01*
X013262Y015183D01*
X013257Y015169D01*
X013253Y015101D01*
X013257Y015088D01*
X013253Y015074D01*
X013248Y015025D01*
X013235Y014993D01*
X013239Y014948D01*
X013255Y014946D01*
X013269Y014959D01*
X013291Y014973D01*
X013305Y014986D01*
X013314Y014991D01*
X013321Y014998D01*
X01333Y01502D01*
X013343Y015034D01*
X013354Y015054D01*
X013363Y015059D01*
X013377Y015063D01*
X013379Y015052D01*
X013357Y01502D01*
X013352Y015011D01*
X013339Y014998D01*
X013334Y014989D01*
X013321Y014975D01*
X013307Y014953D01*
X013298Y014948D01*
X013293Y014939D01*
X013287Y014932D01*
X013278Y014928D01*
X013271Y014921D01*
X013266Y014912D01*
X013242Y014896D01*
X013224Y014878D01*
X013178Y01486D01*
X013172Y014867D01*
X013176Y014885D01*
X013181Y014898D01*
X01316Y014905D01*
X013131Y014916D01*
X013124Y014923D01*
X013095Y014934D01*
X013057Y014959D01*
X013048Y014968D01*
X013016Y014986D01*
X012991Y015007D01*
X01298Y015018D01*
X012971Y015022D01*
X012869Y015124D01*
X012865Y015133D01*
X012829Y015169D01*
X012815Y015192D01*
X012784Y015223D01*
X01277Y015246D01*
X012761Y015255D01*
X012757Y015264D01*
X012739Y015282D01*
X012725Y015304D01*
X012698Y015331D01*
X012684Y015354D01*
X012675Y015363D01*
X012671Y015372D01*
X01263Y015413D01*
X012617Y015435D01*
X012608Y015444D01*
X012601Y01546D01*
X012594Y015462D01*
X01259Y015471D01*
X012578Y015487D01*
X012569Y015492D01*
X012563Y015498D01*
X012558Y015507D01*
X012549Y015512D01*
X012536Y015534D01*
X012527Y015543D01*
X012513Y015566D01*
X012481Y015598D01*
X01247Y015618D01*
X012461Y015622D01*
X012441Y015643D01*
X012427Y015665D01*
X012396Y015697D01*
X012382Y015719D01*
X012351Y015751D01*
X012346Y01576D01*
X012328Y015778D01*
X012315Y015801D01*
X012287Y015828D01*
X012274Y01585D01*
X012265Y015859D01*
X01226Y015868D01*
X012242Y015886D01*
X012229Y015909D01*
X01222Y015918D01*
X012206Y01594D01*
X012197Y015949D01*
X012193Y015959D01*
X012157Y015995D01*
X012143Y016017D01*
X012134Y016026D01*
X012127Y016042D01*
X012121Y016044D01*
X012116Y016053D01*
X012096Y016078D01*
X012066Y016107D01*
X012062Y016116D01*
X012026Y016152D01*
X012012Y016175D01*
X011958Y016229D01*
X011954Y016238D01*
X011942Y016249D01*
X011936Y016252D01*
X011931Y016261D01*
X011924Y016268D01*
X011915Y016272D01*
X011879Y016308D01*
X01187Y016313D01*
X011861Y016331D01*
X011852Y016335D01*
X011845Y016342D01*
X011848Y016349D01*
X011857Y016344D01*
X01187Y016331D01*
X011893Y016317D01*
X011924Y016286D01*
X011931Y016283D01*
X011936Y016274D01*
X011942Y016268D01*
X011951Y016263D01*
X011969Y01624D01*
X011978Y016236D01*
X012017Y016198D01*
X012021Y016189D01*
X012175Y016035D01*
X012177Y016028D01*
X012199Y016015D01*
X012211Y016004D01*
X012215Y015995D01*
X012231Y015979D01*
X01224Y015974D01*
X012296Y015918D01*
X012301Y015909D01*
X012342Y015868D01*
X012346Y015859D01*
X012353Y015853D01*
X01236Y01585D01*
X012364Y015841D01*
X012407Y015785D01*
X012427Y015765D01*
X012432Y015756D01*
X01245Y015737D01*
X012463Y015715D01*
X012472Y015706D01*
X012475Y015699D01*
X012484Y015695D01*
X012506Y015681D01*
X012518Y015683D01*
X01252Y015695D01*
X012504Y015724D01*
X012499Y015733D01*
X012481Y015751D01*
X012477Y015769D01*
X012459Y015787D01*
X012445Y01581D01*
X012434Y015821D01*
X012425Y015825D01*
X012414Y015841D01*
X0124Y01585D01*
X012389Y015871D01*
X012382Y015873D01*
X012378Y015882D01*
X012369Y015891D01*
X012366Y015898D01*
X012357Y015902D01*
X012351Y015909D01*
X012346Y015918D01*
X01233Y015929D01*
X012315Y015954D01*
X012303Y015974D01*
X012294Y015979D01*
X012287Y015986D01*
X012283Y015995D01*
X012269Y016004D01*
X012265Y016013D01*
X012254Y016028D01*
X012245Y016033D01*
X012238Y01604D01*
X012233Y016049D01*
X012224Y016053D01*
X012211Y016076D01*
X012202Y016085D01*
X012188Y016107D01*
X012157Y016139D01*
X01215Y016155D01*
X012141Y016159D01*
X012134Y016166D01*
X012121Y016189D01*
X012112Y016198D01*
X012109Y016204D01*
X0121Y016209D01*
X012093Y016216D01*
X01208Y016238D01*
X012071Y016247D01*
X012066Y016256D01*
X012026Y016297D01*
X012021Y016306D01*
X01201Y016317D01*
X012003Y016319D01*
X01199Y016342D01*
X011978Y016353D01*
X011956Y016367D01*
X011942Y01638D01*
X011933Y016385D01*
X011897Y016421D01*
X011868Y016437D01*
X011863Y016446D01*
X011852Y016457D01*
X011805Y016477D01*
X011809Y016495D01*
X011816Y016502D01*
X011897Y016498D01*
X011947Y016471D01*
X011978Y016452D01*
X012033Y016398D01*
X012039Y016396D01*
X012044Y016387D01*
X012051Y01638D01*
X01206Y016376D01*
X012066Y016369D01*
X012071Y01636D01*
X012087Y016349D01*
X012096Y016335D01*
X012103Y016333D01*
X012116Y01631D01*
X01213Y016301D01*
X012134Y016292D01*
X012141Y016286D01*
X01215Y016281D01*
X012152Y01627D01*
X012136Y016268D01*
X012123Y01629D01*
X012114Y016295D01*
X012107Y016301D01*
X012103Y01631D01*
X012087Y016322D01*
X012082Y016331D01*
X012073Y016335D01*
X012066Y016342D01*
X012062Y016351D01*
X012055Y016358D01*
X012046Y016362D01*
X012033Y016376D01*
X01201Y016385D01*
X012003Y016383D01*
X012008Y016369D01*
X012024Y016349D01*
X01203Y016346D01*
X012042Y016326D01*
X012051Y016322D01*
X012057Y016315D01*
X012069Y016295D01*
X012075Y016292D01*
X012078Y016286D01*
X0121Y016272D01*
X012109Y016259D01*
X012152Y016238D01*
X012157Y016229D01*
X012204Y016182D01*
X012227Y016168D01*
X012324Y016071D01*
X012328Y016058D01*
X012306Y016049D01*
X012296Y016031D01*
X012328Y01599D01*
X012342Y015977D01*
X012355Y015954D01*
X012364Y015945D01*
X012366Y015938D01*
X012375Y015934D01*
X012382Y015927D01*
X012396Y015904D01*
X012495Y015805D01*
X012499Y015796D01*
X012536Y01576D01*
X012549Y015737D01*
X012558Y015728D01*
X012572Y015706D01*
X012581Y015697D01*
X012585Y015688D01*
X012596Y015677D01*
X012603Y015674D01*
X012617Y015652D01*
X012626Y015643D01*
X01263Y015634D01*
X012639Y015629D01*
X012644Y01562D01*
X012657Y015598D01*
X012671Y015589D01*
X01268Y015566D01*
X012693Y015553D01*
X012698Y015543D01*
X012709Y015541D01*
X012723Y015546D01*
X012725Y015539D01*
X012712Y01553D01*
X012716Y015512D01*
X012734Y015503D01*
X012739Y015485D01*
X012752Y015471D01*
X012757Y015462D01*
X01277Y015453D01*
X012786Y015424D01*
X012795Y015419D01*
X012806Y015404D01*
X01282Y01539D01*
X012824Y015377D01*
X012838Y015363D01*
X01284Y015356D01*
X012849Y015352D01*
X01286Y01534D01*
X012865Y015331D01*
X012881Y01532D01*
X012887Y015304D01*
X012905Y015286D01*
X012908Y015284D01*
X012928Y015264D01*
X012933Y015255D01*
X012969Y015219D01*
X012973Y01521D01*
X01298Y015203D01*
X012989Y015198D01*
X013005Y015174D01*
X013048Y015131D01*
X01307Y015122D01*
X013093Y015117D01*
X013099Y01511D01*
X013104Y015101D01*
X013115Y01509D01*
X013122Y015088D01*
X013136Y015065D01*
X013167Y015034D01*
X013169Y015027D01*
X013178Y015022D01*
X013201Y015013D01*
X01321Y015018D01*
X013217Y015025D01*
X013226Y015056D01*
X013235Y015079D01*
X01323Y015137D01*
X013226Y015169D01*
X013217Y015192D01*
X01321Y015262D01*
X013201Y015284D01*
X013194Y015309D01*
X01319Y01535D01*
X013172Y01539D01*
X013163Y015426D01*
X013154Y015449D01*
X013149Y01548D01*
X013145Y015498D01*
X013136Y015507D01*
X013127Y015543D01*
X013122Y015571D01*
X013108Y015602D01*
X013104Y01562D01*
X01309Y015643D01*
X013086Y015656D01*
X013081Y015683D01*
X013068Y015697D01*
X013061Y015731D01*
X01305Y015746D01*
X013041Y015769D01*
X013036Y015792D01*
X013027Y015801D01*
X013016Y01583D01*
X013Y015859D01*
X012933Y015999D01*
X012928Y016008D01*
X012919Y016017D01*
X012908Y016046D01*
X012892Y016076D01*
X012824Y016216D01*
X01282Y016225D01*
X012811Y016234D01*
X012799Y016263D01*
X012784Y016292D01*
X012777Y016308D01*
X012768Y016313D01*
X012761Y016319D01*
X012757Y016342D01*
X012743Y016356D01*
X012739Y016374D01*
X012725Y016396D01*
X012716Y016419D01*
X012709Y016434D01*
X012702Y016437D01*
X012689Y016473D01*
X01268Y016482D01*
X012675Y0165D01*
X012662Y016522D01*
X012653Y016545D01*
X012639Y016568D01*
X01263Y01659D01*
X012617Y016613D01*
X012608Y016635D01*
X012601Y016651D01*
X012594Y016653D01*
X012578Y016696D01*
X012572Y016716D01*
X012576Y016725D01*
X012572Y016739D01*
X012567Y016757D01*
X012572Y016775D01*
X012585Y016789D01*
X012592Y016813D01*
X012603Y016825D01*
X012617Y016847D01*
X012653Y016883D01*
X012657Y016892D01*
X012671Y016906D01*
X012684Y016928D01*
X012696Y016931D01*
X012709Y016926D01*
X01275Y016904D01*
X012779Y016883D01*
X012784Y016874D01*
X012806Y016861D01*
X012811Y016852D01*
X012827Y016845D01*
X01284Y016831D01*
X012863Y016822D01*
X012867Y016813D01*
X012876Y016809D01*
X012901Y016789D01*
X012917Y016777D01*
X012946Y016757D01*
X012951Y016748D01*
X012957Y016741D01*
X012966Y016737D01*
X013025Y016678D01*
X013034Y016674D01*
X013043Y016665D01*
X013052Y01666D01*
X013063Y016649D01*
X013066Y016642D01*
X013075Y016637D01*
X013106Y016615D01*
X013115Y01661D01*
X01314Y01659D01*
X013165Y016574D01*
X013196Y016556D01*
X013205Y016547D01*
X013228Y016534D01*
X013237Y016525D01*
X013253Y016518D01*
X013257Y016509D01*
X013264Y016502D01*
X013287Y016489D01*
X013296Y01648D01*
X013305Y016475D01*
X013368Y016412D01*
X013375Y01641D01*
X013377Y016398D01*
X013375Y016383D01*
X013384Y016374D01*
X013395Y016353D01*
X013404Y016349D01*
X013467Y016286D01*
X013487Y016274D01*
X013492Y016265D01*
X013499Y016259D01*
X013508Y016254D01*
X013519Y016238D01*
X013555Y016216D01*
X01356Y016207D01*
X013566Y0162D01*
X013587Y016189D01*
X013589Y016182D01*
X013611Y016168D01*
X013643Y016137D01*
X013666Y016123D01*
X013697Y016092D01*
X013706Y016087D01*
X013715Y016074D01*
X013724Y016069D01*
X013731Y016062D01*
X013727Y016053D01*
X013715Y016051D01*
X013693Y01606D01*
X01369Y016053D01*
X013711Y016024D01*
X01372Y016019D01*
X013738Y016001D01*
X013751Y015997D01*
X013776Y015972D01*
X013778Y015965D01*
X013787Y015961D01*
X013799Y015949D01*
X013801Y015943D01*
X01381Y015938D01*
X013839Y015909D01*
X013842Y015902D01*
X013851Y015898D01*
X01388Y015868D01*
X013884Y015859D01*
X013891Y015853D01*
X0139Y015848D01*
X013911Y015832D01*
X013925Y015823D01*
X013939Y015801D01*
X013943Y015787D01*
X013941Y015785D01*
X013923Y015803D01*
X013914Y015807D01*
X013902Y015819D01*
X0139Y015825D01*
X013891Y01583D01*
X013884Y015837D01*
X01388Y015846D01*
X013873Y015853D01*
X013851Y015866D01*
X013839Y015877D01*
X013837Y015884D01*
X013824Y015889D01*
X013817Y015882D01*
X013821Y015859D01*
X013837Y015848D01*
X013857Y015828D01*
X013862Y015819D01*
X01388Y015801D01*
X013884Y015792D01*
X0139Y01578D01*
X013909Y015767D01*
X013918Y015762D01*
X013925Y015756D01*
X01393Y015746D01*
X013943Y015737D01*
X013954Y015717D01*
X013961Y015715D01*
X013968Y015699D01*
X013977Y015695D01*
X013984Y015688D01*
X013968Y015686D01*
X013959Y015695D01*
X013952Y015688D01*
X01397Y015656D01*
X013984Y015647D01*
X013999Y015618D01*
X014008Y015613D01*
X014029Y015593D01*
X014033Y015584D01*
X014051Y015566D01*
X014065Y015543D01*
X014096Y015512D01*
X01411Y015489D01*
X014137Y015462D01*
X014142Y015453D01*
X01416Y015435D01*
X014164Y015426D01*
X014171Y015419D01*
X01418Y015415D01*
X014196Y01539D01*
X014207Y015379D01*
X014225Y015374D01*
X014239Y01537D01*
X014241Y015372D01*
X014218Y015413D01*
X014209Y015422D01*
X014205Y015431D01*
X014191Y015444D01*
X014189Y015465D01*
X014209Y015453D01*
X014214Y015444D01*
X014254Y015404D01*
X014259Y015395D01*
X014272Y015381D01*
X014275Y015374D01*
X014284Y01537D01*
X01429Y015363D01*
X014304Y01534D01*
X014331Y015313D01*
X014336Y015304D01*
X014342Y015293D01*
X014351Y015289D01*
X014367Y015264D01*
X014399Y015232D01*
X014412Y01521D01*
X014439Y015183D01*
X014444Y015174D01*
X014462Y015156D01*
X014475Y015133D01*
X014507Y015101D01*
X01452Y015079D01*
X01453Y01507D01*
X014534Y015061D01*
X014552Y015043D01*
X014566Y01502D01*
X014593Y014993D01*
X014606Y014971D01*
X014615Y014962D01*
X01462Y014953D01*
X014638Y014934D01*
X014651Y014912D01*
X014669Y01488D01*
X014678Y014876D01*
X014692Y014853D01*
X014712Y014815D01*
X014721Y01481D01*
X014737Y014786D01*
X014746Y014777D01*
X014751Y014763D01*
X014769Y014745D01*
X014773Y014736D01*
X014802Y014707D01*
X014811Y014702D01*
X014825Y014689D01*
X014848Y01468D01*
X014866Y014684D01*
X014877Y014695D01*
X014886Y014727D01*
X014899Y014759D01*
X014895Y014862D01*
X01489Y014876D01*
X014884Y014946D01*
X014879Y014968D01*
X014875Y015004D01*
X014863Y015016D01*
X014854Y01507D01*
X014845Y015092D01*
X014843Y015126D01*
X014854Y015137D01*
X014859Y015156D01*
X014852Y015162D01*
X014843Y015167D01*
X014836Y015174D01*
X014832Y01521D01*
X014823Y015219D01*
X014818Y015237D01*
X014805Y015259D01*
X014796Y015282D01*
X014782Y015304D01*
X014773Y015313D01*
X014766Y015338D01*
X01476Y015345D01*
X014751Y015368D01*
X014746Y015386D01*
X014733Y015395D01*
X014735Y015415D01*
X014746Y015404D01*
X01476Y015381D01*
X014769Y015372D01*
X014773Y015354D01*
X014787Y01534D01*
X014791Y015309D01*
X014796Y0153D01*
X014823Y015282D01*
X014829Y01528D01*
X014836Y015286D01*
X014841Y015304D01*
X014836Y015331D01*
X014827Y01534D01*
X014809Y015372D01*
X0148Y015381D01*
X014796Y015399D01*
X014778Y015417D01*
X014773Y015435D01*
X014755Y015453D01*
X014742Y015476D01*
X014733Y015485D01*
X014728Y015503D01*
X014721Y01551D01*
X014712Y015514D01*
X014705Y015521D01*
X014701Y015539D01*
X01469Y015541D01*
X014683Y015534D01*
X014678Y015521D01*
X014676Y015519D01*
X014669Y015525D01*
X014674Y015557D01*
X014656Y015562D01*
X014647Y015571D01*
X014638Y015593D01*
X014629Y015598D01*
X01462Y01562D01*
X014615Y015629D01*
X014606Y015638D01*
X014597Y015661D01*
X014584Y015674D01*
X014579Y015692D01*
X014575Y015701D01*
X014557Y015728D01*
X014552Y015737D01*
X014539Y015751D01*
X014534Y015778D01*
X014516Y015796D01*
X014484Y015855D01*
X014475Y015859D01*
X014462Y015882D01*
X014453Y015891D01*
X014446Y015916D01*
X01443Y015927D01*
X014417Y015949D01*
X014408Y015959D01*
X014403Y015981D01*
X014387Y015992D01*
X014383Y01601D01*
X014372Y016026D01*
X014363Y016035D01*
X014358Y016044D01*
X014345Y016058D01*
X014333Y016087D01*
X014317Y016103D01*
X014313Y016116D01*
X01429Y016148D01*
X014286Y016157D01*
X014279Y016164D01*
X014272Y016166D01*
X014263Y016189D01*
X014248Y016218D01*
X014239Y016222D01*
X014225Y016254D01*
X014216Y016259D01*
X014209Y016265D01*
X014205Y016292D01*
X014169Y016328D01*
X014162Y016358D01*
X014148Y016362D01*
X014133Y016365D01*
X014128Y016392D01*
X014114Y016401D01*
X01411Y01641D01*
X014099Y016421D01*
X014092Y016423D01*
X014087Y016432D01*
X01406Y016459D01*
X014047Y016482D01*
X014038Y016491D01*
X014015Y016531D01*
X014008Y016543D01*
X014002Y016545D01*
X013997Y016554D01*
X013986Y01657D01*
X013979Y016572D01*
X013966Y016595D01*
X013957Y016604D01*
X013943Y016626D01*
X013934Y016635D01*
X01393Y016653D01*
X013911Y016671D01*
X013898Y016694D01*
X013889Y016703D01*
X013884Y016712D01*
X013866Y01673D01*
X013853Y016752D01*
X013844Y016761D01*
X01383Y016784D01*
X013803Y016811D01*
X013799Y01682D01*
X013781Y016838D01*
X013767Y016861D01*
X013758Y01687D01*
X013745Y016892D01*
X013736Y016901D01*
X013731Y01691D01*
X013713Y016928D01*
X013699Y016951D01*
X01369Y01696D01*
X013684Y016976D01*
X013677Y016978D01*
X013672Y016987D01*
X013661Y017003D01*
X013654Y017005D01*
X013641Y017028D01*
X013632Y017037D01*
X013618Y017059D01*
X013609Y017068D01*
X013605Y017086D01*
X013587Y017104D01*
X01358Y017129D01*
X013571Y017134D01*
X013564Y01714D01*
X013555Y017177D01*
X013542Y017208D01*
X013537Y017253D01*
X013533Y017262D01*
X013537Y017276D01*
X013533Y017289D01*
X013537Y017303D01*
X013542Y017334D01*
X013546Y017348D01*
X01356Y017361D01*
X013573Y017384D01*
X013582Y017393D01*
X013587Y017407D01*
X013611Y017422D01*
X013621Y017431D01*
X013643Y017445D01*
X013652Y017454D01*
X013675Y017449D01*
D02*
G37*
G36*
X012964Y016599D02*
X012962Y016597D01*
X01296Y016599D01*
X012962Y016601D01*
X012964Y016599D01*
D02*
G37*
G36*
X013136Y016518D02*
X013129Y016516D01*
X013113Y016527D01*
X013111Y016529D01*
X013104Y016536D01*
X013115Y016538D01*
X013136Y016518D01*
D02*
G37*
G36*
X014297Y016588D02*
X014311Y016583D01*
X014317Y016577D01*
X014345Y016527D01*
X014358Y016513D01*
X014363Y016504D01*
X014372Y016495D01*
X014376Y016486D01*
X014381Y016473D01*
X014378Y016466D01*
X01436Y016471D01*
X014349Y016486D01*
X01434Y016495D01*
X014338Y016502D01*
X014336Y016504D01*
X014317Y016531D01*
X014313Y016545D01*
X014295Y016563D01*
X014288Y016588D01*
X014281Y016595D01*
X014284Y016601D01*
X014297Y016588D01*
D02*
G37*
G36*
X014525Y016193D02*
X014523Y016191D01*
X01452Y016193D01*
X014523Y016195D01*
X014525Y016193D01*
D02*
G37*
G36*
X014548Y016162D02*
X014545Y016159D01*
X014543Y016162D01*
X014539Y016166D01*
X014545Y016168D01*
X014548Y016162D01*
D02*
G37*
G36*
X01457Y01613D02*
Y016125D01*
X014568Y016123D01*
X014566Y01613D01*
X014568Y016132D01*
X01457Y01613D01*
D02*
G37*
G36*
X014006Y01567D02*
X014004Y015663D01*
X013995Y015668D01*
X013993Y01567D01*
X014004Y015672D01*
X014006Y01567D01*
D02*
G37*
G36*
X013235Y015805D02*
Y015801D01*
X013253Y01576D01*
X01326Y015735D01*
X013271Y015724D01*
X013284Y015688D01*
X013293Y015679D01*
X013298Y015661D01*
X013291Y015649D01*
X013282Y015654D01*
X013273Y015681D01*
X013264Y015686D01*
X013257Y015692D01*
X013253Y015719D01*
X013235Y015737D01*
X01323Y015769D01*
X013217Y015792D01*
X013221Y015814D01*
X013224Y015816D01*
X013235Y015805D01*
D02*
G37*
G36*
X014029Y015643D02*
X014022Y01564D01*
X01402Y015643D01*
X014022Y015649D01*
X014029Y015643D01*
D02*
G37*
G36*
X01277Y015498D02*
X012768Y015496D01*
X012761Y015498D01*
X012768Y015501D01*
X01277Y015498D01*
D02*
G37*
G36*
X01279Y015474D02*
X012793Y015471D01*
X012786Y015469D01*
X012784Y015476D01*
X012786Y015478D01*
X01279Y015474D01*
D02*
G37*
G36*
X014719Y015453D02*
X014723Y015435D01*
X014717Y015433D01*
X01471Y01544D01*
X014712Y015456D01*
X014717D01*
X014719Y015453D01*
D02*
G37*
G36*
X014211Y015523D02*
X01422Y015519D01*
X014232Y015507D01*
X014239Y015492D01*
X014248Y015487D01*
X014254Y01548D01*
X014259Y015471D01*
X014272Y015458D01*
X014277Y015449D01*
X014284Y015442D01*
X014293Y015437D01*
X014299Y015417D01*
X014297Y015415D01*
X014277Y015426D01*
X014275Y015433D01*
X014272Y015435D01*
X014232Y015476D01*
X014227Y015485D01*
X014205Y015507D01*
X0142Y015516D01*
X014196Y01553D01*
X014202Y015532D01*
X014211Y015523D01*
D02*
G37*
G36*
X011796Y015368D02*
X011793Y015361D01*
X011775Y015365D01*
X011773Y015368D01*
X011775Y01537D01*
X011796Y015368D01*
D02*
G37*
G36*
X013314Y015631D02*
X013321Y015625D01*
X013325Y015607D01*
X013339Y015584D01*
X013345Y015555D01*
X013357Y015548D01*
X013361Y01553D01*
Y015498D01*
X013363Y015496D01*
X01337Y015471D01*
X013375Y015372D01*
X013372Y015338D01*
X013368Y015379D01*
X013361Y015399D01*
X013366Y015408D01*
X013348Y015449D01*
X013343Y015503D01*
X013339Y015516D01*
X013334Y015534D01*
X013325Y015557D01*
X013314Y015586D01*
X013302Y015607D01*
X013298Y015625D01*
X0133Y015636D01*
X013314Y015631D01*
D02*
G37*
G36*
X012818Y015451D02*
X012829Y015435D01*
X012838Y015431D01*
X012842Y015422D01*
X012854Y01541D01*
X012863Y015406D01*
X012876Y015383D01*
X012885Y015379D01*
X012896Y015363D01*
X012912Y015352D01*
X012919Y015336D01*
X012928Y015327D01*
X012921Y015325D01*
X012912Y015334D01*
X012892Y015345D01*
X012887Y015354D01*
X012881Y015361D01*
X012876D01*
X012874Y015363D01*
X012865Y015372D01*
X012863Y015379D01*
X012854Y015383D01*
X012847Y01539D01*
X012833Y015413D01*
X012824Y015417D01*
X01282Y015426D01*
X012806Y01544D01*
X012809Y015456D01*
X012818Y015451D01*
D02*
G37*
G36*
X013379Y015304D02*
Y0153D01*
X013377Y01528D01*
X013375Y015327D01*
X013377Y015329D01*
X013379Y015304D01*
D02*
G37*
G36*
X011798Y016439D02*
X011814Y016432D01*
X011812Y016425D01*
X011782Y016414D01*
X011778Y016392D01*
X011791Y016369D01*
X011796Y016356D01*
X011787Y016346D01*
X011782Y016328D01*
X011787Y016247D01*
X011805Y016207D01*
X011809Y016198D01*
X011818Y016189D01*
X011823Y016171D01*
X011827Y016162D01*
X011845Y016134D01*
X01185Y016116D01*
X011863Y016094D01*
X011872Y016071D01*
X011881Y016062D01*
X011895Y016026D01*
X011904Y016017D01*
X011909Y015999D01*
X011913Y015977D01*
X011931Y015936D01*
X011938Y015907D01*
X011949Y015895D01*
X011954Y015877D01*
X011958Y015855D01*
X011967Y015846D01*
X011976Y015823D01*
X011994Y015783D01*
X012001Y015758D01*
X012017Y015742D01*
X012021Y015706D01*
X01203Y015697D01*
X012039Y015674D01*
X012042Y015663D01*
X012044Y015661D01*
X012048Y015643D01*
X012062Y015629D01*
X012066Y015584D01*
X01208Y015571D01*
X012087Y015546D01*
X012103Y015507D01*
X012098Y015471D01*
X012093Y015467D01*
X012098Y015453D01*
X012093Y015422D01*
X012084Y015399D01*
X01208Y015354D01*
X012062Y015327D01*
X012057Y015295D01*
X012044Y015282D01*
X012026Y01525D01*
X012006Y015225D01*
X011992Y015212D01*
X011963Y015201D01*
X011942Y015194D01*
X01192Y015207D01*
X011897Y015216D01*
X011866Y015221D01*
X011852Y015225D01*
X011834Y01523D01*
X011812Y015239D01*
X01178Y015253D01*
X011762Y015257D01*
X011748Y015271D01*
X011724Y015277D01*
X011712Y015293D01*
X011683Y015304D01*
X011672Y015316D01*
X011656Y015322D01*
X011651Y015331D01*
X011645Y015338D01*
X011622Y015352D01*
X011613Y015361D01*
X011604Y015365D01*
X011577Y015383D01*
X011568Y015388D01*
X011554Y015401D01*
X011523Y015419D01*
X0115Y015428D01*
X011491Y015433D01*
X011469Y015446D01*
X01146Y015451D01*
X011442Y015469D01*
X011401Y015492D01*
X011394Y015498D01*
X011381Y015525D01*
X011387Y015537D01*
X011406Y015541D01*
X011442Y015537D01*
X011464Y015528D01*
X011482Y015523D01*
X011491Y015519D01*
X011514Y015505D01*
X011557Y015489D01*
X011577Y015483D01*
X0116Y015469D01*
X011609Y01546D01*
X011631Y015446D01*
X011654Y015437D01*
X011663Y015433D01*
X011685Y015419D01*
X011703Y015415D01*
X011712Y015406D01*
X011721Y015401D01*
X011735Y015397D01*
X011755Y015386D01*
X011751Y015368D01*
X011746Y015354D01*
X011757Y015338D01*
X011775Y015334D01*
X011789Y015329D01*
X011807Y015311D01*
X011825Y015307D01*
X011832Y0153D01*
X011834Y015293D01*
X011852Y015289D01*
X011879Y015284D01*
X011888Y015275D01*
X01192Y015271D01*
X011942Y01528D01*
X011954Y015286D01*
X011958Y015304D01*
X011954Y015327D01*
X011945Y01535D01*
X01194Y015417D01*
X011922Y015458D01*
X011913Y015494D01*
X011895Y015539D01*
X011888Y015564D01*
X011877Y015575D01*
X011872Y015593D01*
X011868Y015629D01*
X011854Y015643D01*
X01185Y015674D01*
X011845Y015683D01*
X011836Y015692D01*
X011832Y01571D01*
X011827Y015742D01*
X011809Y015769D01*
X011805Y01581D01*
X011796Y015819D01*
X011787Y015841D01*
X011782Y015891D01*
X011764Y015931D01*
X011757Y015956D01*
X011746Y015968D01*
X011742Y015999D01*
X011737Y016008D01*
X011728Y016017D01*
X011724Y016035D01*
X011717Y01606D01*
X011706Y016089D01*
X011701Y016107D01*
X011692Y016134D01*
X011696Y016148D01*
X011678Y016166D01*
X011669Y016202D01*
X011654Y016222D01*
X01164Y016227D01*
X011633Y016234D01*
X011638Y016292D01*
X011656Y016319D01*
X01166Y016328D01*
X011674Y016342D01*
X011687Y016365D01*
X011696Y016374D01*
X01171Y016396D01*
X011764Y01645D01*
X011766Y016457D01*
X011778Y016459D01*
X011798Y016439D01*
D02*
G37*
G36*
X013397Y015219D02*
Y015165D01*
Y01516D01*
X013393Y015101D01*
X01339Y015099D01*
X013384Y015106D01*
X013393Y015137D01*
X013388Y015192D01*
X013384Y015205D01*
X013386Y015221D01*
X013397Y015219D01*
D02*
G37*
G36*
X015026Y014844D02*
Y01484D01*
X015019Y014828D01*
X015017Y014844D01*
X015023Y014851D01*
X015026Y014844D01*
D02*
G37*
G36*
X015021Y014781D02*
X015014Y014774D01*
X015008Y014781D01*
X015017Y014799D01*
Y014804D01*
X015019Y014806D01*
X015021Y014781D01*
D02*
G37*
G36*
X014263Y013903D02*
X014183D01*
Y014151D01*
X014117Y013903D01*
X014049D01*
X013985Y014151D01*
Y013903D01*
X013886D01*
Y01425D01*
X014026D01*
X014074Y014065D01*
X014124Y01425D01*
X014263D01*
Y013903D01*
D02*
G37*
G36*
X014619D02*
X014533D01*
Y014071D01*
X014534Y01408D01*
X014534Y014089D01*
X014536Y014099D01*
X014537Y014108D01*
X014539Y014115D01*
X01454Y014122D01*
X014541Y014124D01*
X014541Y014126D01*
X014542Y014127D01*
Y014128D01*
X014535Y014112D01*
X014528Y014099D01*
X014522Y014087D01*
X014517Y014076D01*
X014512Y014067D01*
X01451Y014064D01*
X014509Y014061D01*
X014507Y014059D01*
X014506Y014058D01*
X014505Y014057D01*
Y014056D01*
X01441Y013903D01*
X014323D01*
Y01425D01*
X01441D01*
Y014147D01*
X014409Y014129D01*
X014409Y014113D01*
X014408Y014097D01*
X014406Y014084D01*
X014405Y014078D01*
X014404Y014072D01*
X014404Y014067D01*
X014403Y014064D01*
X014403Y01406D01*
Y014058D01*
X014402Y014057D01*
Y014056D01*
X014407Y014067D01*
X014413Y014078D01*
X014419Y014089D01*
X014424Y0141D01*
X01443Y014109D01*
X014432Y014113D01*
X014434Y014116D01*
X014436Y014119D01*
X014437Y014121D01*
X014438Y014122D01*
X014438Y014123D01*
X014519Y01425D01*
X014619D01*
Y013903D01*
D02*
G37*
G36*
X014961Y014014D02*
X01496Y014003D01*
X014959Y013993D01*
X014957Y013983D01*
X014955Y013974D01*
X014951Y013966D01*
X014948Y013959D01*
X014945Y013952D01*
X014941Y013946D01*
X014937Y013941D01*
X014934Y013937D01*
X014931Y013933D01*
X014927Y01393D01*
X014925Y013928D01*
X014923Y013926D01*
X014922Y013925D01*
X014921Y013925D01*
X014914Y01392D01*
X014905Y013916D01*
X014897Y013912D01*
X014888Y013909D01*
X014871Y013904D01*
X014854Y013901D01*
X014846Y0139D01*
X014839Y013899D01*
X014832Y013899D01*
X014827Y013898D01*
X014822Y013898D01*
X014816D01*
X014804Y013898D01*
X014794Y013899D01*
X014784Y0139D01*
X014774Y013902D01*
X014765Y013904D01*
X014756Y013906D01*
X014749Y013909D01*
X014742Y013912D01*
X014736Y013915D01*
X01473Y013917D01*
X014726Y013919D01*
X014722Y013922D01*
X014719Y013923D01*
X014717Y013925D01*
X014715Y013925D01*
X014715Y013926D01*
X014708Y013932D01*
X014702Y013938D01*
X014697Y013945D01*
X014693Y013953D01*
X014689Y01396D01*
X014685Y013968D01*
X014683Y013976D01*
X014681Y013984D01*
X014679Y013991D01*
X014678Y013998D01*
X014677Y014004D01*
X014677Y014009D01*
X014676Y014014D01*
Y014017D01*
Y014019D01*
Y01402D01*
Y01425D01*
X01476D01*
Y014046D01*
Y014036D01*
X01476Y014027D01*
X014761Y01402D01*
Y014014D01*
X014761Y014011D01*
X014762Y014008D01*
X014762Y014006D01*
Y014006D01*
X014764Y014002D01*
X014766Y013999D01*
X014771Y013993D01*
X014773Y01399D01*
X014775Y013989D01*
X014777Y013988D01*
X014777Y013987D01*
X014782Y013984D01*
X014787Y013982D01*
X014792Y013981D01*
X014797Y01398D01*
X014802Y01398D01*
X014806Y013979D01*
X014809D01*
X014817Y01398D01*
X014824Y013981D01*
X01483Y013982D01*
X014834Y013984D01*
X014838Y013987D01*
X01484Y013988D01*
X014842Y013989D01*
X014842Y01399D01*
X014845Y013995D01*
X014848Y014D01*
X01485Y014006D01*
X014851Y014012D01*
X014852Y014018D01*
X014853Y014023D01*
Y014025D01*
Y014026D01*
Y01425D01*
X014961D01*
Y014014D01*
D02*
G37*
G36*
X013826Y013903D02*
X013565D01*
Y013986D01*
X013722D01*
Y014042D01*
X013595D01*
Y014119D01*
X013722D01*
Y01417D01*
X013565D01*
Y01425D01*
X013826D01*
Y013903D01*
D02*
G37*
G36*
X013523D02*
X013417D01*
Y01425D01*
X013523D01*
Y013903D01*
D02*
G37*
G36*
X013307Y01378D02*
X011444D01*
Y014373D01*
X013307D01*
Y01378D01*
D02*
G37*
G36*
X011575Y019262D02*
X010681D01*
Y031447D01*
X011575D01*
Y019262D01*
D02*
G37*
%LPC*%
G36*
X012705Y01684D02*
X012698Y016838D01*
X012702Y01682D01*
X012709Y016813D01*
X012723D01*
X012725Y016816D01*
X012721Y016825D01*
X012705Y01684D01*
D02*
G37*
G36*
X011987Y016407D02*
X011985Y016405D01*
X011987Y016403D01*
X01199Y016405D01*
X011987Y016407D01*
D02*
G37*
G36*
X014433Y016128D02*
X014426Y016116D01*
X014433Y016105D01*
X014437D01*
X014444Y016112D01*
X014439Y016121D01*
X014433Y016128D01*
D02*
G37*
G36*
X014478Y016065D02*
X014475Y016062D01*
X014478Y01606D01*
X01448Y016062D01*
X014478Y016065D01*
D02*
G37*
G36*
X01367Y015902D02*
X013663Y015895D01*
X013668Y015873D01*
X013693Y015839D01*
X013695Y015837D01*
X013731Y015801D01*
X013736Y015792D01*
X013751Y01578D01*
X01376Y015771D01*
X013774Y015767D01*
X013776Y015787D01*
X013763Y015801D01*
X013749Y015823D01*
X013717Y015864D01*
X013706Y01588D01*
X013697Y015884D01*
X01369Y015891D01*
X013686Y0159D01*
X01367Y015902D01*
D02*
G37*
G36*
X013787Y015762D02*
X013785Y01576D01*
X013787Y015758D01*
X01379Y01576D01*
X013787Y015762D01*
D02*
G37*
G36*
X014676Y015586D02*
X014674Y015584D01*
X014672Y015582D01*
X014669Y015571D01*
X014676Y015564D01*
X014681Y015582D01*
X014676Y015586D01*
D02*
G37*
G36*
X014261Y015347D02*
X014259Y015345D01*
X014261Y015343D01*
X014263Y015345D01*
X014261Y015347D01*
D02*
G37*
G36*
X014284Y015325D02*
X014281Y015322D01*
X014284Y01532D01*
X014286Y015322D01*
X014284Y015325D01*
D02*
G37*
G36*
X014852Y015113D02*
X01485Y01511D01*
X014857Y015104D01*
X014868Y015106D01*
Y01511D01*
X014852Y015113D01*
D02*
G37*
G36*
X011924Y015803D02*
X011918Y015796D01*
X011922Y015783D01*
X011924Y01578D01*
X011931Y015792D01*
X011927Y015801D01*
X011924Y015803D01*
D02*
G37*
G36*
X011929Y015767D02*
X011922Y015746D01*
X011927Y015728D01*
X011936Y015706D01*
X01194Y015697D01*
X011947Y01569D01*
X011954Y015688D01*
Y015683D01*
X011958Y015625D01*
X011972Y015593D01*
X011978Y015541D01*
X011985Y015525D01*
X012006Y015501D01*
X01201Y015496D01*
X012017Y015503D01*
X012021Y015521D01*
X012017Y015575D01*
X012008Y015598D01*
X012003Y015616D01*
X011999Y015638D01*
X011985Y015652D01*
X011978Y015677D01*
X011967Y015692D01*
X011958Y015701D01*
X011954Y015751D01*
X011947Y015758D01*
X011929Y015767D01*
D02*
G37*
G36*
X01201Y015487D02*
X012008Y01548D01*
X01201Y015478D01*
X012012Y015485D01*
X01201Y015487D01*
D02*
G37*
G36*
X013189Y01425D02*
X013002D01*
X012998Y014249D01*
X012994Y014249D01*
X012988Y014248D01*
X012981Y014248D01*
X012974Y014247D01*
X012959Y014243D01*
X012943Y014238D01*
X012936Y014235D01*
X012929Y014231D01*
X012921Y014226D01*
X012915Y014221D01*
X012914Y014221D01*
X012913Y01422D01*
X012912Y014219D01*
X012909Y014217D01*
X012907Y014214D01*
X012905Y01421D01*
X012901Y014206D01*
X012898Y014202D01*
X012892Y014191D01*
X012886Y014178D01*
X012885Y014171D01*
X012883Y014164D01*
X012882Y014156D01*
X012882Y014147D01*
Y014147D01*
Y014146D01*
Y014144D01*
Y014142D01*
X012882Y014137D01*
X012883Y01413D01*
X012885Y014122D01*
X012887Y014112D01*
X01289Y014103D01*
X012894Y014094D01*
X012895Y014093D01*
X012896Y01409D01*
X0129Y014086D01*
X012905Y014081D01*
X012912Y014075D01*
X01292Y014067D01*
X012925Y014064D01*
X012931Y01406D01*
X012937Y014057D01*
X012943Y014054D01*
X01288Y013903D01*
X012998D01*
X01305Y014036D01*
X013083D01*
Y013903D01*
X013189D01*
Y01425D01*
D02*
G37*
G36*
X012471D02*
X01229D01*
X012286Y014249D01*
X012282Y014249D01*
X012277Y014248D01*
X012265Y014247D01*
X012251Y014243D01*
X012238Y014238D01*
X012232Y014235D01*
X012226Y014231D01*
X01222Y014227D01*
X012215Y014222D01*
X012215Y014221D01*
X012214Y014221D01*
X012213Y014219D01*
X012212Y014217D01*
X012207Y014211D01*
X012202Y014203D01*
X012198Y014194D01*
X012194Y014184D01*
X012191Y014172D01*
X01219Y014165D01*
Y014159D01*
Y014158D01*
Y014158D01*
Y014154D01*
X01219Y014149D01*
X012191Y014143D01*
X012194Y014136D01*
X012196Y014128D01*
X0122Y01412D01*
X012205Y014112D01*
X012205Y014111D01*
X012207Y014108D01*
X012211Y014105D01*
X012215Y0141D01*
X012221Y014096D01*
X012229Y014091D01*
X012238Y014087D01*
X012248Y014083D01*
X012248D01*
X012245Y014083D01*
X012242Y014081D01*
X012238Y01408D01*
X012232Y014077D01*
X012227Y014075D01*
X012221Y014071D01*
X012214Y014067D01*
X012208Y014062D01*
X012202Y014057D01*
X012196Y01405D01*
X012191Y014042D01*
X012187Y014034D01*
X012183Y014024D01*
X012181Y014014D01*
X012181Y014002D01*
Y013999D01*
X012181Y013996D01*
Y013993D01*
X012182Y013989D01*
X012183Y01398D01*
X012187Y013969D01*
X012191Y013957D01*
X012196Y013945D01*
X0122Y013939D01*
X012205Y013933D01*
Y013933D01*
X012206Y013932D01*
X012207Y01393D01*
X012209Y013928D01*
X012213Y013926D01*
X012216Y013924D01*
X012221Y013921D01*
X012226Y013918D01*
X012232Y013915D01*
X01224Y013912D01*
X012248Y01391D01*
X012257Y013908D01*
X012268Y013906D01*
X012279Y013904D01*
X012292Y013904D01*
X012306Y013903D01*
X012471D01*
Y01425D01*
D02*
G37*
G36*
X011808D02*
X011562D01*
Y014167D01*
X011635D01*
Y013903D01*
X011736D01*
Y014167D01*
X011808D01*
Y01425D01*
D02*
G37*
G36*
X01268Y014255D02*
X012676D01*
X012672Y014255D01*
X012668D01*
X012662Y014254D01*
X012654Y014253D01*
X012646Y014251D01*
X012638Y014249D01*
X012628Y014247D01*
X012619Y014244D01*
X012609Y014239D01*
X012599Y014235D01*
X012589Y01423D01*
X01258Y014223D01*
X01257Y014216D01*
X012562Y014207D01*
X012561Y014207D01*
X012559Y014205D01*
X012557Y014202D01*
X012555Y014198D01*
X012551Y014194D01*
X012547Y014188D01*
X012543Y014181D01*
X012539Y014173D01*
X012534Y014165D01*
X01253Y014155D01*
X012526Y014144D01*
X012523Y014133D01*
X01252Y014121D01*
X012518Y014108D01*
X012516Y014094D01*
X012516Y014079D01*
Y014076D01*
X012516Y014071D01*
Y014066D01*
X012517Y014059D01*
X012518Y014051D01*
X01252Y014042D01*
X012522Y014032D01*
X012524Y014022D01*
X012527Y014011D01*
X012531Y014D01*
X012535Y013989D01*
X012541Y013978D01*
X012547Y013968D01*
X012554Y013957D01*
X012562Y013947D01*
X012563Y013947D01*
X012564Y013945D01*
X012567Y013943D01*
X01257Y01394D01*
X012575Y013936D01*
X012581Y013931D01*
X012587Y013927D01*
X012594Y013923D01*
X012602Y013918D01*
X012611Y013913D01*
X012621Y013909D01*
X012632Y013905D01*
X012643Y013902D01*
X012654Y0139D01*
X012668Y013898D01*
X012681Y013898D01*
X012684D01*
X012688Y013898D01*
X012693D01*
X012699Y013899D01*
X012706Y0139D01*
X012715Y013901D01*
X012723Y013904D01*
X012732Y013906D01*
X012742Y01391D01*
X012752Y013913D01*
X012761Y013918D01*
X012772Y013923D01*
X012781Y01393D01*
X012791Y013937D01*
X0128Y013946D01*
X0128Y013946D01*
X012802Y013948D01*
X012804Y013951D01*
X012807Y013954D01*
X01281Y013959D01*
X012814Y013965D01*
X012818Y013972D01*
X012823Y01398D01*
X012827Y013989D01*
X012831Y013999D01*
X012835Y01401D01*
X012838Y014021D01*
X012841Y014034D01*
X012843Y014047D01*
X012845Y014061D01*
X012846Y014076D01*
Y014079D01*
X012845Y014083D01*
Y014089D01*
X012844Y014095D01*
X012843Y014103D01*
X012842Y014112D01*
X01284Y014121D01*
X012838Y014131D01*
X012835Y014141D01*
X012831Y014152D01*
X012827Y014163D01*
X012822Y014174D01*
X012816Y014184D01*
X01281Y014195D01*
X012802Y014204D01*
X012801Y014205D01*
X0128Y014207D01*
X012797Y014209D01*
X012794Y014213D01*
X012789Y014217D01*
X012784Y01422D01*
X012777Y014225D01*
X01277Y01423D01*
X012761Y014235D01*
X012753Y014239D01*
X012742Y014243D01*
X012731Y014248D01*
X01272Y01425D01*
X012707Y014253D01*
X012694Y014255D01*
X01268Y014255D01*
D02*
G37*
G36*
X011986D02*
X011983D01*
X011979Y014255D01*
X011974D01*
X011968Y014254D01*
X011961Y014253D01*
X011953Y014251D01*
X011944Y014249D01*
X011935Y014247D01*
X011926Y014244D01*
X011916Y014239D01*
X011906Y014235D01*
X011896Y01423D01*
X011886Y014223D01*
X011877Y014216D01*
X011868Y014207D01*
X011868Y014207D01*
X011866Y014205D01*
X011864Y014202D01*
X011861Y014198D01*
X011857Y014194D01*
X011853Y014188D01*
X01185Y014181D01*
X011845Y014173D01*
X011841Y014165D01*
X011837Y014155D01*
X011833Y014144D01*
X011829Y014133D01*
X011827Y014121D01*
X011825Y014108D01*
X011823Y014094D01*
X011822Y014079D01*
Y014076D01*
X011823Y014071D01*
Y014066D01*
X011824Y014059D01*
X011825Y014051D01*
X011826Y014042D01*
X011828Y014032D01*
X011831Y014022D01*
X011834Y014011D01*
X011838Y014D01*
X011842Y013989D01*
X011847Y013978D01*
X011853Y013968D01*
X011861Y013957D01*
X011869Y013947D01*
X011869Y013947D01*
X011871Y013945D01*
X011874Y013943D01*
X011877Y01394D01*
X011882Y013936D01*
X011887Y013931D01*
X011893Y013927D01*
X011901Y013923D01*
X011909Y013918D01*
X011918Y013913D01*
X011928Y013909D01*
X011938Y013905D01*
X01195Y013902D01*
X011961Y0139D01*
X011974Y013898D01*
X011987Y013898D01*
X011991D01*
X011994Y013898D01*
X011999D01*
X012006Y013899D01*
X012013Y0139D01*
X012021Y013901D01*
X012029Y013904D01*
X012039Y013906D01*
X012048Y01391D01*
X012058Y013913D01*
X012068Y013918D01*
X012078Y013923D01*
X012088Y01393D01*
X012098Y013937D01*
X012106Y013946D01*
X012107Y013946D01*
X012108Y013948D01*
X012111Y013951D01*
X012113Y013954D01*
X012117Y013959D01*
X012121Y013965D01*
X012125Y013972D01*
X012129Y01398D01*
X012134Y013989D01*
X012137Y013999D01*
X012141Y01401D01*
X012145Y014021D01*
X012148Y014034D01*
X01215Y014047D01*
X012152Y014061D01*
X012152Y014076D01*
Y014079D01*
X012152Y014083D01*
Y014089D01*
X012151Y014095D01*
X01215Y014103D01*
X012148Y014112D01*
X012147Y014121D01*
X012144Y014131D01*
X012141Y014141D01*
X012138Y014152D01*
X012134Y014163D01*
X012129Y014174D01*
X012123Y014184D01*
X012116Y014195D01*
X012108Y014204D01*
X012108Y014205D01*
X012106Y014207D01*
X012104Y014209D01*
X0121Y014213D01*
X012096Y014217D01*
X01209Y01422D01*
X012084Y014225D01*
X012077Y01423D01*
X012068Y014235D01*
X012059Y014239D01*
X012049Y014243D01*
X012038Y014248D01*
X012027Y01425D01*
X012014Y014253D01*
X012Y014255D01*
X011986Y014255D01*
D02*
G37*
%LPD*%
G36*
X013083Y014109D02*
X013034D01*
X01303Y01411D01*
X013026Y014111D01*
X01302Y014112D01*
X013015Y014113D01*
X01301Y014115D01*
X013005Y014118D01*
X013004Y014118D01*
X013003Y014119D01*
X013001Y014121D01*
X012998Y014124D01*
X012996Y014128D01*
X012995Y014131D01*
X012993Y014136D01*
X012992Y014142D01*
Y014143D01*
Y014144D01*
Y014146D01*
X012993Y014148D01*
X012995Y014153D01*
X012997Y014159D01*
X013Y014162D01*
X013003Y014165D01*
X013006Y014168D01*
X01301Y014171D01*
X013015Y014173D01*
X01302Y014174D01*
X013027Y014176D01*
X013034Y014176D01*
X013083D01*
Y014109D01*
D02*
G37*
G36*
X012373Y014117D02*
X012321D01*
X012318Y014118D01*
X012314Y014118D01*
X012309Y014119D01*
X012305Y014121D01*
X012301Y014123D01*
X012298Y014126D01*
X012297Y014127D01*
X012297Y014128D01*
X012295Y01413D01*
X012294Y014132D01*
X012291Y014138D01*
X01229Y014142D01*
X01229Y014146D01*
Y014147D01*
Y014147D01*
X01229Y01415D01*
X012291Y014155D01*
X012294Y014161D01*
X012298Y014166D01*
X012301Y014169D01*
X012305Y014171D01*
X012309Y014173D01*
X012314Y014174D01*
X012319Y014175D01*
X012326Y014176D01*
X012373D01*
Y014117D01*
D02*
G37*
G36*
Y01398D02*
X012318D01*
X012315Y013981D01*
X01231Y013981D01*
X012306Y013982D01*
X012301Y013984D01*
X012297Y013986D01*
X012293Y013989D01*
X012292Y01399D01*
X012291Y013991D01*
X01229Y013993D01*
X012288Y013996D01*
X012286Y013999D01*
X012285Y014003D01*
X012284Y014007D01*
X012284Y014011D01*
Y014012D01*
Y014013D01*
X012284Y014016D01*
X012285Y014018D01*
X012286Y014022D01*
X012288Y014025D01*
X01229Y014029D01*
X012293Y014033D01*
X012294Y014034D01*
X012295Y014035D01*
X012297Y014036D01*
X0123Y014039D01*
X012304Y01404D01*
X01231Y014042D01*
X012317Y014043D01*
X012325Y014043D01*
X012373D01*
Y01398D01*
D02*
G37*
G36*
X012684Y014176D02*
X012687Y014175D01*
X012691Y014173D01*
X012695Y014171D01*
X0127Y014168D01*
X012705Y014164D01*
X01271Y014158D01*
X012715Y014152D01*
X012719Y014143D01*
X012723Y014133D01*
X012726Y014121D01*
X012729Y014107D01*
X01273Y0141D01*
X01273Y014091D01*
X012731Y014082D01*
Y014073D01*
Y014072D01*
Y014069D01*
X01273Y014064D01*
Y014058D01*
X012729Y014051D01*
X012728Y014042D01*
X012727Y014034D01*
X012725Y014025D01*
X012722Y014016D01*
X012719Y014007D01*
X012715Y013999D01*
X01271Y013992D01*
X012704Y013985D01*
X012698Y013981D01*
X01269Y013977D01*
X012686Y013977D01*
X012681Y013976D01*
X01268D01*
X012677Y013977D01*
X012672Y013977D01*
X012666Y013979D01*
X01266Y013982D01*
X012653Y013986D01*
X012647Y013992D01*
X012645Y013995D01*
X012642Y014D01*
Y014D01*
X012642Y014001D01*
X012641Y014002D01*
X012641Y014005D01*
X01264Y014007D01*
X012639Y014011D01*
X012638Y014014D01*
X012636Y014019D01*
X012635Y014025D01*
X012634Y014031D01*
X012633Y014038D01*
X012632Y014046D01*
X012632Y014054D01*
X012631Y014064D01*
X01263Y014074D01*
Y014085D01*
Y014087D01*
Y014089D01*
X012631Y014094D01*
Y0141D01*
X012632Y014107D01*
X012633Y014114D01*
X012634Y014123D01*
X012636Y014131D01*
X012639Y01414D01*
X012642Y014148D01*
X012646Y014155D01*
X012651Y014162D01*
X012657Y014168D01*
X012663Y014173D01*
X01267Y014176D01*
X012679Y014177D01*
X012681D01*
X012684Y014176D01*
D02*
G37*
G36*
X011991D02*
X011994Y014175D01*
X011998Y014173D01*
X012002Y014171D01*
X012007Y014168D01*
X012011Y014164D01*
X012016Y014158D01*
X012021Y014152D01*
X012025Y014143D01*
X012029Y014133D01*
X012033Y014121D01*
X012035Y014107D01*
X012036Y0141D01*
X012037Y014091D01*
X012037Y014082D01*
Y014073D01*
Y014072D01*
Y014069D01*
X012037Y014064D01*
Y014058D01*
X012036Y014051D01*
X012035Y014042D01*
X012033Y014034D01*
X012031Y014025D01*
X012029Y014016D01*
X012025Y014007D01*
X012021Y013999D01*
X012017Y013992D01*
X012011Y013985D01*
X012004Y013981D01*
X011997Y013977D01*
X011992Y013977D01*
X011988Y013976D01*
X011987D01*
X011983Y013977D01*
X011978Y013977D01*
X011973Y013979D01*
X011966Y013982D01*
X01196Y013986D01*
X011954Y013992D01*
X011951Y013995D01*
X011949Y014D01*
Y014D01*
X011948Y014001D01*
X011948Y014002D01*
X011947Y014005D01*
X011946Y014007D01*
X011945Y014011D01*
X011944Y014014D01*
X011943Y014019D01*
X011942Y014025D01*
X011941Y014031D01*
X01194Y014038D01*
X011939Y014046D01*
X011938Y014054D01*
X011938Y014064D01*
X011937Y014074D01*
Y014085D01*
Y014087D01*
Y014089D01*
X011938Y014094D01*
Y0141D01*
X011939Y014107D01*
X01194Y014114D01*
X011941Y014123D01*
X011943Y014131D01*
X011946Y01414D01*
X011949Y014148D01*
X011953Y014155D01*
X011958Y014162D01*
X011963Y014168D01*
X01197Y014173D01*
X011977Y014176D01*
X011986Y014177D01*
X011988D01*
X011991Y014176D01*
D02*
G37*
%LPC*%
G36*
X011378Y03125D02*
X010955D01*
Y030929D01*
X011047D01*
Y031032D01*
X011245D01*
Y031031D01*
X011244Y031029D01*
X011243Y031026D01*
X011242Y031022D01*
X01124Y031018D01*
X011237Y031012D01*
X011232Y030999D01*
X011226Y030983D01*
X011222Y030968D01*
X011218Y030953D01*
X011215Y03094D01*
X011309D01*
Y030941D01*
X01131Y030944D01*
X011311Y030949D01*
X011313Y030955D01*
X011315Y030962D01*
X011318Y03097D01*
X011321Y030979D01*
X011325Y030989D01*
X011334Y031008D01*
X011346Y031029D01*
X011353Y031038D01*
X011361Y031046D01*
X011369Y031054D01*
X011378Y031061D01*
Y031151D01*
X011047D01*
Y03125D01*
X011378D01*
Y03125D01*
D02*
G37*
G36*
X011371Y030888D02*
X010955D01*
Y030492D01*
X010955D01*
Y030628D01*
X011371Y030492D01*
X011371D01*
Y030627D01*
X011144Y030694D01*
X011144D01*
X011141Y030695D01*
X011137Y030696D01*
X011132Y030697D01*
X011126Y030699D01*
X011119Y030701D01*
X011105Y030705D01*
X011371Y030783D01*
Y030888D01*
X010955Y030758D01*
Y030888D01*
X011371D01*
Y030888D01*
D02*
G37*
G36*
Y030317D02*
X010955D01*
Y029946D01*
X011371D01*
Y030112D01*
X011371Y030117D01*
Y030124D01*
X011369Y030133D01*
X011368Y030143D01*
X011366Y030154D01*
X011364Y030166D01*
X01136Y030179D01*
X011356Y030192D01*
X011351Y030205D01*
X011345Y030218D01*
X011338Y03023D01*
X011329Y030243D01*
X01132Y030254D01*
X011309Y030264D01*
X011308Y030265D01*
X011306Y030266D01*
X011303Y030269D01*
X011298Y030273D01*
X011292Y030277D01*
X011285Y030281D01*
X011277Y030286D01*
X011268Y030291D01*
X011257Y030295D01*
X011247Y030301D01*
X011234Y030305D01*
X011222Y030309D01*
X011209Y030312D01*
X011194Y030315D01*
X01118Y030316D01*
X011165Y030317D01*
X011371D01*
Y030317D01*
D02*
G37*
G36*
Y029886D02*
X010955D01*
Y029515D01*
X011371D01*
Y02974D01*
X011371Y029744D01*
X01137Y02975D01*
X011369Y029757D01*
X011369Y029765D01*
X011367Y029774D01*
X011363Y029792D01*
X011357Y029811D01*
X011353Y02982D01*
X011348Y029828D01*
X011343Y029837D01*
X011337Y029845D01*
X011337Y029845D01*
X011336Y029847D01*
X011334Y029849D01*
X011331Y029851D01*
X011328Y029854D01*
X011324Y029857D01*
X011319Y029861D01*
X011314Y029865D01*
X011301Y029872D01*
X011285Y029879D01*
X011277Y029881D01*
X011268Y029883D01*
X011259Y029884D01*
X011248Y029885D01*
X011247D01*
X011247D01*
X011245D01*
X011242D01*
X011236Y029884D01*
X011227Y029883D01*
X011217Y029881D01*
X011206Y029878D01*
X011196Y029875D01*
X011184Y02987D01*
X011183Y029869D01*
X01118Y029867D01*
X011175Y029862D01*
X011168Y029857D01*
X011161Y029849D01*
X011152Y029839D01*
X011148Y029833D01*
X011144Y029826D01*
X01114Y029818D01*
X011136Y029811D01*
X010955Y029886D01*
X011371D01*
Y029886D01*
D02*
G37*
G36*
Y029477D02*
X010955D01*
Y029082D01*
X010955D01*
X011371Y029211D01*
Y029346D01*
X010955Y029477D01*
X011371D01*
Y029477D01*
D02*
G37*
G36*
X011378Y029063D02*
X010948D01*
Y028667D01*
X010948D01*
Y028861D01*
X010949Y028857D01*
Y028851D01*
X01095Y028843D01*
X010952Y028834D01*
X010953Y028825D01*
X010955Y028815D01*
X010959Y028804D01*
X010963Y028792D01*
X010967Y02878D01*
X010973Y028768D01*
X010979Y028756D01*
X010987Y028745D01*
X010996Y028733D01*
X011006Y028722D01*
X011007Y028722D01*
X011009Y02872D01*
X011012Y028717D01*
X011016Y028714D01*
X011022Y02871D01*
X01103Y028705D01*
X011038Y0287D01*
X011047Y028695D01*
X011058Y028689D01*
X01107Y028685D01*
X011083Y02868D01*
X011097Y028676D01*
X011112Y028672D01*
X011127Y02867D01*
X011144Y028668D01*
X011162Y028667D01*
X011166D01*
X011171Y028668D01*
X011178D01*
X011186Y028668D01*
X011195Y02867D01*
X011205Y028672D01*
X011217Y028674D01*
X011228Y028676D01*
X011241Y02868D01*
X011254Y028684D01*
X011267Y028689D01*
X01128Y028695D01*
X011293Y028703D01*
X011305Y02871D01*
X011317Y02872D01*
X011318Y02872D01*
X01132Y028722D01*
X011323Y028725D01*
X011327Y028729D01*
X011331Y028735D01*
X011336Y028741D01*
X011342Y028749D01*
X011348Y028758D01*
X011353Y028768D01*
X011359Y028779D01*
X011364Y028791D01*
X011369Y028804D01*
X011372Y028818D01*
X011375Y028833D01*
X011377Y028849D01*
X011378Y028867D01*
Y02887D01*
X011377Y028875D01*
Y028881D01*
X011376Y028888D01*
X011375Y028897D01*
X011373Y028907D01*
X011371Y028917D01*
X011367Y028928D01*
X011364Y028939D01*
X011359Y028951D01*
X011354Y028963D01*
X011347Y028975D01*
X011339Y028987D01*
X011331Y028998D01*
X01132Y029008D01*
X01132Y029009D01*
X011318Y029011D01*
X011314Y029014D01*
X01131Y029017D01*
X011304Y029021D01*
X011297Y029026D01*
X011289Y029031D01*
X01128Y029036D01*
X011269Y029041D01*
X011257Y029046D01*
X011245Y029051D01*
X011231Y029055D01*
X011217Y029058D01*
X011201Y029061D01*
X011184Y029063D01*
X011167Y029063D01*
X011378D01*
Y029063D01*
D02*
G37*
G36*
X011371Y028625D02*
X010955D01*
Y028255D01*
X011371D01*
Y028479D01*
X011371Y028483D01*
X01137Y028489D01*
X011369Y028497D01*
X011369Y028504D01*
X011367Y028513D01*
X011363Y028531D01*
X011357Y02855D01*
X011353Y028559D01*
X011348Y028567D01*
X011343Y028576D01*
X011337Y028584D01*
X011337Y028584D01*
X011336Y028586D01*
X011334Y028588D01*
X011331Y02859D01*
X011328Y028593D01*
X011324Y028596D01*
X011319Y0286D01*
X011314Y028604D01*
X011301Y028611D01*
X011285Y028618D01*
X011277Y02862D01*
X011268Y028622D01*
X011259Y028623D01*
X011248Y028624D01*
X011247D01*
X011247D01*
X011245D01*
X011242D01*
X011236Y028623D01*
X011227Y028622D01*
X011217Y02862D01*
X011206Y028617D01*
X011196Y028614D01*
X011184Y028609D01*
X011183Y028608D01*
X01118Y028606D01*
X011175Y028602D01*
X011168Y028596D01*
X011161Y028588D01*
X011152Y028578D01*
X011148Y028572D01*
X011144Y028565D01*
X01114Y028558D01*
X011136Y02855D01*
X010955Y028625D01*
X011371D01*
Y028625D01*
D02*
G37*
G36*
Y028202D02*
X010955D01*
Y027853D01*
X011371D01*
Y028071D01*
X011371Y028075D01*
X01137Y028081D01*
X011369Y028087D01*
X011367Y028101D01*
X011364Y028117D01*
X011358Y028132D01*
X011354Y02814D01*
X011349Y028148D01*
X011344Y028154D01*
X011338Y02816D01*
X011337Y028161D01*
X011337Y028161D01*
X011335Y028163D01*
X011332Y028165D01*
X011325Y02817D01*
X011316Y028176D01*
X011304Y028181D01*
X011292Y028186D01*
X011278Y02819D01*
X01127Y028191D01*
X011262D01*
X011261D01*
X011261D01*
X011257D01*
X011251Y02819D01*
X011243Y028189D01*
X011234Y028186D01*
X011225Y028184D01*
X011215Y028179D01*
X011205Y028173D01*
X011204Y028173D01*
X011201Y02817D01*
X011197Y028166D01*
X011192Y02816D01*
X011186Y028153D01*
X01118Y028144D01*
X011175Y028133D01*
X011171Y028121D01*
Y028121D01*
X011171Y028124D01*
X011169Y028128D01*
X011167Y028133D01*
X011164Y02814D01*
X011161Y028146D01*
X011157Y028153D01*
X011152Y028161D01*
X011146Y028169D01*
X011139Y028176D01*
X011131Y028183D01*
X011122Y02819D01*
X011112Y028195D01*
X0111Y028199D01*
X011088Y028201D01*
X011074Y028202D01*
X011371D01*
Y028202D01*
D02*
G37*
G36*
Y027659D02*
X010955D01*
Y027263D01*
X010955D01*
Y027399D01*
X011371Y027263D01*
X011371D01*
Y027398D01*
X011144Y027465D01*
X011144D01*
X011141Y027466D01*
X011137Y027467D01*
X011132Y027469D01*
X011126Y027471D01*
X011119Y027473D01*
X011105Y027476D01*
X011371Y027554D01*
Y027659D01*
X010955Y027529D01*
Y027659D01*
X011371D01*
Y027659D01*
D02*
G37*
G36*
Y027248D02*
X010955D01*
Y026934D01*
X011371D01*
Y027248D01*
D02*
G37*
G36*
Y02688D02*
X010955D01*
Y02651D01*
X011371D01*
Y026675D01*
X011371Y02668D01*
Y026687D01*
X011369Y026697D01*
X011368Y026706D01*
X011366Y026718D01*
X011364Y026729D01*
X01136Y026742D01*
X011356Y026755D01*
X011351Y026768D01*
X011345Y026781D01*
X011338Y026794D01*
X011329Y026806D01*
X01132Y026817D01*
X011309Y026828D01*
X011308Y026828D01*
X011306Y02683D01*
X011303Y026832D01*
X011298Y026836D01*
X011292Y02684D01*
X011285Y026844D01*
X011277Y026849D01*
X011268Y026854D01*
X011257Y026859D01*
X011247Y026864D01*
X011234Y026868D01*
X011222Y026872D01*
X011209Y026876D01*
X011194Y026878D01*
X01118Y02688D01*
X011165Y02688D01*
X011371D01*
Y02688D01*
D02*
G37*
G36*
Y026309D02*
X010955D01*
Y026017D01*
X011371D01*
Y026145D01*
X011057D01*
Y026309D01*
X011371D01*
Y026309D01*
D02*
G37*
G36*
X011378Y025963D02*
X010948D01*
Y025567D01*
X010948D01*
Y025761D01*
X010949Y025756D01*
Y025751D01*
X01095Y025743D01*
X010952Y025734D01*
X010953Y025724D01*
X010955Y025714D01*
X010959Y025703D01*
X010963Y025692D01*
X010967Y02568D01*
X010973Y025668D01*
X010979Y025655D01*
X010987Y025644D01*
X010996Y025632D01*
X011006Y025622D01*
X011007Y025621D01*
X011009Y025619D01*
X011012Y025617D01*
X011016Y025613D01*
X011022Y02561D01*
X01103Y025604D01*
X011038Y0256D01*
X011047Y025594D01*
X011058Y025589D01*
X01107Y025585D01*
X011083Y02558D01*
X011097Y025575D01*
X011112Y025572D01*
X011127Y02557D01*
X011144Y025568D01*
X011162Y025567D01*
X011166D01*
X011171Y025568D01*
X011178D01*
X011186Y025568D01*
X011195Y02557D01*
X011205Y025571D01*
X011217Y025573D01*
X011228Y025576D01*
X011241Y02558D01*
X011254Y025584D01*
X011267Y025589D01*
X01128Y025595D01*
X011293Y025602D01*
X011305Y02561D01*
X011317Y025619D01*
X011318Y02562D01*
X01132Y025622D01*
X011323Y025625D01*
X011327Y025629D01*
X011331Y025634D01*
X011336Y025641D01*
X011342Y025649D01*
X011348Y025657D01*
X011353Y025668D01*
X011359Y025678D01*
X011364Y025691D01*
X011369Y025704D01*
X011372Y025718D01*
X011375Y025733D01*
X011377Y025749D01*
X011378Y025766D01*
Y02577D01*
X011377Y025775D01*
Y025781D01*
X011376Y025788D01*
X011375Y025796D01*
X011373Y025806D01*
X011371Y025817D01*
X011367Y025828D01*
X011364Y025839D01*
X011359Y025851D01*
X011354Y025863D01*
X011347Y025875D01*
X011339Y025886D01*
X011331Y025898D01*
X01132Y025908D01*
X01132Y025909D01*
X011318Y025911D01*
X011314Y025913D01*
X01131Y025917D01*
X011304Y025921D01*
X011297Y025926D01*
X011289Y02593D01*
X01128Y025936D01*
X011269Y025941D01*
X011257Y025945D01*
X011245Y025951D01*
X011231Y025955D01*
X011217Y025958D01*
X011201Y02596D01*
X011184Y025962D01*
X011167Y025963D01*
X011378D01*
Y025963D01*
D02*
G37*
G36*
X011371Y025525D02*
X010955D01*
Y025154D01*
X011371D01*
Y025379D01*
X011371Y025383D01*
X01137Y025389D01*
X011369Y025396D01*
X011369Y025404D01*
X011367Y025413D01*
X011363Y02543D01*
X011357Y025449D01*
X011353Y025459D01*
X011348Y025467D01*
X011343Y025476D01*
X011337Y025484D01*
X011337Y025484D01*
X011336Y025486D01*
X011334Y025487D01*
X011331Y02549D01*
X011328Y025493D01*
X011324Y025496D01*
X011319Y0255D01*
X011314Y025504D01*
X011301Y025511D01*
X011285Y025518D01*
X011277Y02552D01*
X011268Y025522D01*
X011259Y025523D01*
X011248Y025524D01*
X011247D01*
X011247D01*
X011245D01*
X011242D01*
X011236Y025523D01*
X011227Y025522D01*
X011217Y02552D01*
X011206Y025517D01*
X011196Y025514D01*
X011184Y025508D01*
X011183Y025508D01*
X01118Y025506D01*
X011175Y025501D01*
X011168Y025496D01*
X011161Y025487D01*
X011152Y025478D01*
X011148Y025472D01*
X011144Y025465D01*
X01114Y025457D01*
X011136Y025449D01*
X010955Y025525D01*
X011371D01*
Y025525D01*
D02*
G37*
G36*
Y025119D02*
X010955D01*
Y024824D01*
X010955D01*
Y024911D01*
X011272D01*
Y024824D01*
X011371D01*
Y025119D01*
D02*
G37*
G36*
Y024788D02*
X010955D01*
Y024432D01*
X011371D01*
Y024553D01*
X011219Y02465D01*
X011218Y02465D01*
X011217Y024651D01*
X011214Y024652D01*
X011211Y024654D01*
X011207Y024657D01*
X011202Y02466D01*
X011192Y024666D01*
X011179Y024673D01*
X011165Y02468D01*
X011152Y024687D01*
X011139Y024693D01*
X011139D01*
X011141Y024692D01*
X011144D01*
X011148Y024692D01*
X011152Y024691D01*
X011158Y02469D01*
X011165Y024689D01*
X011172Y024688D01*
X011188Y024687D01*
X011207Y024685D01*
X011226Y024685D01*
X011247Y024684D01*
X011371D01*
Y024788D01*
D02*
G37*
G36*
X011378Y024378D02*
X010948D01*
Y023982D01*
X010948D01*
Y024176D01*
X010949Y024172D01*
Y024166D01*
X01095Y024158D01*
X010952Y024149D01*
X010953Y024139D01*
X010955Y02413D01*
X010959Y024118D01*
X010963Y024107D01*
X010967Y024095D01*
X010973Y024083D01*
X010979Y024071D01*
X010987Y024059D01*
X010996Y024048D01*
X011006Y024037D01*
X011007Y024036D01*
X011009Y024034D01*
X011012Y024032D01*
X011016Y024029D01*
X011022Y024025D01*
X01103Y024019D01*
X011038Y024015D01*
X011047Y02401D01*
X011058Y024004D01*
X01107Y024D01*
X011083Y023995D01*
X011097Y02399D01*
X011112Y023987D01*
X011127Y023985D01*
X011144Y023983D01*
X011162Y023982D01*
X011166D01*
X011171Y023983D01*
X011178D01*
X011186Y023983D01*
X011195Y023985D01*
X011205Y023987D01*
X011217Y023989D01*
X011228Y023991D01*
X011241Y023995D01*
X011254Y023999D01*
X011267Y024004D01*
X01128Y02401D01*
X011293Y024017D01*
X011305Y024025D01*
X011317Y024034D01*
X011318Y024035D01*
X01132Y024037D01*
X011323Y02404D01*
X011327Y024044D01*
X011331Y02405D01*
X011336Y024056D01*
X011342Y024064D01*
X011348Y024073D01*
X011353Y024083D01*
X011359Y024093D01*
X011364Y024106D01*
X011369Y024119D01*
X011372Y024133D01*
X011375Y024148D01*
X011377Y024164D01*
X011378Y024181D01*
Y024185D01*
X011377Y02419D01*
Y024196D01*
X011376Y024203D01*
X011375Y024212D01*
X011373Y024221D01*
X011371Y024232D01*
X011367Y024243D01*
X011364Y024254D01*
X011359Y024266D01*
X011354Y024278D01*
X011347Y02429D01*
X011339Y024301D01*
X011331Y024313D01*
X01132Y024323D01*
X01132Y024324D01*
X011318Y024326D01*
X011314Y024328D01*
X01131Y024332D01*
X011304Y024336D01*
X011297Y024341D01*
X011289Y024345D01*
X01128Y024351D01*
X011269Y024356D01*
X011257Y02436D01*
X011245Y024366D01*
X011231Y02437D01*
X011217Y024373D01*
X011201Y024376D01*
X011184Y024378D01*
X011167Y024378D01*
X011378D01*
Y024378D01*
D02*
G37*
G36*
Y023954D02*
X010948D01*
Y02359D01*
X010948D01*
Y023774D01*
X010949Y02377D01*
Y023764D01*
X01095Y023757D01*
X010952Y023748D01*
X010953Y023739D01*
X010955Y023729D01*
X010958Y023718D01*
X010962Y023708D01*
X010967Y023696D01*
X010972Y023685D01*
X010978Y023674D01*
X010986Y023663D01*
X010994Y023651D01*
X011004Y023642D01*
X011005Y023641D01*
X011007Y02364D01*
X01101Y023637D01*
X011015Y023634D01*
X01102Y02363D01*
X011027Y023625D01*
X011036Y023621D01*
X011045Y023616D01*
X011055Y023611D01*
X011067Y023606D01*
X011079Y023602D01*
X011093Y023598D01*
X011108Y023594D01*
X011124Y023592D01*
X011141Y02359D01*
X011159Y02359D01*
X011164D01*
X011169Y02359D01*
X011176D01*
X011184Y023591D01*
X011194Y023592D01*
X011204Y023594D01*
X011216Y023596D01*
X011228Y023598D01*
X011241Y023602D01*
X011254Y023605D01*
X011268Y023611D01*
X011281Y023616D01*
X011293Y023622D01*
X011306Y02363D01*
X011318Y023639D01*
X011318Y02364D01*
X01132Y023642D01*
X011324Y023644D01*
X011327Y023648D01*
X011331Y023653D01*
X011337Y023659D01*
X011342Y023666D01*
X011348Y023674D01*
X011354Y023684D01*
X011359Y023694D01*
X011364Y023706D01*
X011369Y023718D01*
X011373Y023731D01*
X011375Y023745D01*
X011377Y02376D01*
X011378Y023777D01*
Y023785D01*
X011377Y02379D01*
X011377Y023797D01*
X011375Y023805D01*
X011374Y023814D01*
X011372Y023823D01*
X01137Y023834D01*
X011367Y023844D01*
X011363Y023855D01*
X011359Y023865D01*
X011353Y023875D01*
X011347Y023886D01*
X01134Y023895D01*
X011332Y023903D01*
X011331Y023904D01*
X01133Y023905D01*
X011327Y023907D01*
X011324Y02391D01*
X011319Y023914D01*
X011314Y023918D01*
X011307Y023922D01*
X0113Y023926D01*
X011291Y023931D01*
X011282Y023935D01*
X011272Y023939D01*
X011261Y023943D01*
X01125Y023947D01*
X011238Y02395D01*
X011224Y023952D01*
X011211Y023954D01*
X011205Y023834D01*
X011205D01*
X011207D01*
X011209D01*
X011211D01*
X011219Y023834D01*
X011228Y023832D01*
X011238Y02383D01*
X011247Y023827D01*
X011257Y023823D01*
X011264Y023818D01*
X011265Y023817D01*
X011268Y023815D01*
X01127Y023812D01*
X011274Y023807D01*
X011278Y023802D01*
X011281Y023796D01*
X011283Y023788D01*
X011283Y023781D01*
Y023778D01*
X011283Y023775D01*
X011282Y023771D01*
X01128Y023767D01*
X011277Y023762D01*
X011273Y023756D01*
X011268Y023751D01*
X011262Y023745D01*
X011254Y02374D01*
X011244Y023735D01*
X011232Y02373D01*
X011218Y023726D01*
X011201Y023724D01*
X011193Y023722D01*
X011183Y023722D01*
X011173Y023721D01*
X011161D01*
X011161D01*
X011158D01*
X011155D01*
X01115D01*
X011145Y023722D01*
X011139D01*
X011124Y023723D01*
X011109Y023725D01*
X011094Y023727D01*
X011087Y023729D01*
X01108Y023731D01*
X011074Y023733D01*
X011069Y023736D01*
X011068Y023737D01*
X011065Y023739D01*
X011061Y023743D01*
X011057Y023747D01*
X011053Y023754D01*
X011049Y023761D01*
X011046Y02377D01*
X011045Y02378D01*
Y023782D01*
X011045Y023785D01*
X011046Y023788D01*
X011049Y023796D01*
X011051Y023801D01*
X011053Y023806D01*
X011057Y023811D01*
X011062Y023816D01*
X011067Y023821D01*
X011074Y023825D01*
X011081Y023829D01*
X011091Y023832D01*
X011102Y023835D01*
X011114Y023837D01*
X011106Y023954D01*
X011378D01*
Y023954D01*
D02*
G37*
G36*
X011371Y023392D02*
X010955D01*
Y023021D01*
X011371D01*
Y023245D01*
X011371Y02325D01*
X01137Y023256D01*
X011369Y023263D01*
X011369Y023271D01*
X011367Y023279D01*
X011363Y023297D01*
X011357Y023316D01*
X011353Y023325D01*
X011348Y023334D01*
X011343Y023342D01*
X011337Y02335D01*
X011337Y023351D01*
X011336Y023352D01*
X011334Y023354D01*
X011331Y023357D01*
X011328Y023359D01*
X011324Y023363D01*
X011319Y023367D01*
X011314Y023371D01*
X011301Y023378D01*
X011285Y023384D01*
X011277Y023386D01*
X011268Y023388D01*
X011259Y02339D01*
X011248Y02339D01*
X011247D01*
X011247D01*
X011245D01*
X011242D01*
X011236Y02339D01*
X011227Y023388D01*
X011217Y023386D01*
X011206Y023384D01*
X011196Y02338D01*
X011184Y023375D01*
X011183Y023375D01*
X01118Y023373D01*
X011175Y023368D01*
X011168Y023363D01*
X011161Y023354D01*
X011152Y023344D01*
X011148Y023338D01*
X011144Y023331D01*
X01114Y023324D01*
X011136Y023316D01*
X010955Y023392D01*
X011371D01*
Y023392D01*
D02*
G37*
G36*
Y02297D02*
X010955D01*
Y022657D01*
X011371D01*
Y02297D01*
D02*
G37*
G36*
Y022621D02*
X010955D01*
Y022327D01*
X010955D01*
Y022413D01*
X011272D01*
Y022327D01*
X011371D01*
Y022621D01*
D02*
G37*
G36*
Y022316D02*
X010955D01*
Y021962D01*
X011371D01*
Y02215D01*
X011371Y022156D01*
Y022162D01*
X01137Y022169D01*
X011369Y022177D01*
X011367Y022193D01*
X011365Y02221D01*
X011361Y022226D01*
X011358Y022234D01*
X011356Y02224D01*
Y022241D01*
X011355Y022242D01*
X011354Y022244D01*
X011353Y022246D01*
X011349Y022252D01*
X011344Y02226D01*
X011338Y022269D01*
X011329Y022278D01*
X01132Y022288D01*
X011309Y022295D01*
X011308D01*
X011308Y022296D01*
X011306Y022297D01*
X011304Y022299D01*
X011297Y022302D01*
X011289Y022306D01*
X011278Y022309D01*
X011266Y022312D01*
X011253Y022315D01*
X011239Y022316D01*
X011371D01*
Y022316D01*
D02*
G37*
G36*
X011378Y021908D02*
X010948D01*
Y021511D01*
X010948D01*
Y021706D01*
X010949Y021701D01*
Y021695D01*
X01095Y021687D01*
X010952Y021679D01*
X010953Y021669D01*
X010955Y021659D01*
X010959Y021648D01*
X010963Y021636D01*
X010967Y021624D01*
X010973Y021613D01*
X010979Y0216D01*
X010987Y021589D01*
X010996Y021577D01*
X011006Y021567D01*
X011007Y021566D01*
X011009Y021564D01*
X011012Y021561D01*
X011016Y021558D01*
X011022Y021554D01*
X01103Y021549D01*
X011038Y021544D01*
X011047Y021539D01*
X011058Y021534D01*
X01107Y021529D01*
X011083Y021525D01*
X011097Y02152D01*
X011112Y021517D01*
X011127Y021514D01*
X011144Y021512D01*
X011162Y021511D01*
X011166D01*
X011171Y021512D01*
X011178D01*
X011186Y021513D01*
X011195Y021514D01*
X011205Y021516D01*
X011217Y021518D01*
X011228Y021521D01*
X011241Y021525D01*
X011254Y021529D01*
X011267Y021534D01*
X01128Y02154D01*
X011293Y021547D01*
X011305Y021555D01*
X011317Y021564D01*
X011318Y021565D01*
X01132Y021567D01*
X011323Y021569D01*
X011327Y021574D01*
X011331Y021579D01*
X011336Y021586D01*
X011342Y021593D01*
X011348Y021602D01*
X011353Y021613D01*
X011359Y021623D01*
X011364Y021635D01*
X011369Y021649D01*
X011372Y021662D01*
X011375Y021677D01*
X011377Y021694D01*
X011378Y021711D01*
Y021715D01*
X011377Y021719D01*
Y021725D01*
X011376Y021733D01*
X011375Y021741D01*
X011373Y021751D01*
X011371Y021761D01*
X011367Y021773D01*
X011364Y021784D01*
X011359Y021796D01*
X011354Y021807D01*
X011347Y021819D01*
X011339Y021831D01*
X011331Y021842D01*
X01132Y021853D01*
X01132Y021853D01*
X011318Y021855D01*
X011314Y021858D01*
X01131Y021861D01*
X011304Y021866D01*
X011297Y02187D01*
X011289Y021875D01*
X01128Y02188D01*
X011269Y021885D01*
X011257Y02189D01*
X011245Y021895D01*
X011231Y021899D01*
X011217Y021902D01*
X011201Y021905D01*
X011184Y021907D01*
X011167Y021908D01*
X011378D01*
Y021908D01*
D02*
G37*
G36*
Y021483D02*
X010948D01*
Y021119D01*
X010948D01*
Y021304D01*
X010949Y0213D01*
Y021294D01*
X01095Y021286D01*
X010952Y021278D01*
X010953Y021269D01*
X010955Y021259D01*
X010958Y021248D01*
X010962Y021237D01*
X010967Y021225D01*
X010972Y021214D01*
X010978Y021203D01*
X010986Y021192D01*
X010994Y021181D01*
X011004Y021171D01*
X011005Y02117D01*
X011007Y021169D01*
X01101Y021166D01*
X011015Y021163D01*
X01102Y021159D01*
X011027Y021155D01*
X011036Y02115D01*
X011045Y021145D01*
X011055Y02114D01*
X011067Y021136D01*
X011079Y021131D01*
X011093Y021127D01*
X011108Y021124D01*
X011124Y021121D01*
X011141Y02112D01*
X011159Y021119D01*
X011164D01*
X011169Y02112D01*
X011176D01*
X011184Y021121D01*
X011194Y021122D01*
X011204Y021123D01*
X011216Y021125D01*
X011228Y021128D01*
X011241Y021131D01*
X011254Y021135D01*
X011268Y02114D01*
X011281Y021145D01*
X011293Y021152D01*
X011306Y02116D01*
X011318Y021168D01*
X011318Y021169D01*
X01132Y021171D01*
X011324Y021174D01*
X011327Y021178D01*
X011331Y021183D01*
X011337Y021189D01*
X011342Y021196D01*
X011348Y021204D01*
X011354Y021214D01*
X011359Y021223D01*
X011364Y021235D01*
X011369Y021247D01*
X011373Y021261D01*
X011375Y021275D01*
X011377Y02129D01*
X011378Y021306D01*
Y021314D01*
X011377Y02132D01*
X011377Y021326D01*
X011375Y021334D01*
X011374Y021344D01*
X011372Y021353D01*
X01137Y021363D01*
X011367Y021374D01*
X011363Y021384D01*
X011359Y021395D01*
X011353Y021405D01*
X011347Y021415D01*
X01134Y021424D01*
X011332Y021433D01*
X011331Y021433D01*
X01133Y021435D01*
X011327Y021437D01*
X011324Y02144D01*
X011319Y021443D01*
X011314Y021447D01*
X011307Y021451D01*
X0113Y021456D01*
X011291Y02146D01*
X011282Y021465D01*
X011272Y021469D01*
X011261Y021473D01*
X01125Y021477D01*
X011238Y021479D01*
X011224Y021482D01*
X011211Y021483D01*
X011205Y021364D01*
X011205D01*
X011207D01*
X011209D01*
X011211D01*
X011219Y021363D01*
X011228Y021362D01*
X011238Y02136D01*
X011247Y021357D01*
X011257Y021353D01*
X011264Y021347D01*
X011265Y021347D01*
X011268Y021345D01*
X01127Y021342D01*
X011274Y021337D01*
X011278Y021332D01*
X011281Y021325D01*
X011283Y021318D01*
X011283Y02131D01*
Y021307D01*
X011283Y021305D01*
X011282Y021301D01*
X01128Y021296D01*
X011277Y021291D01*
X011273Y021286D01*
X011268Y021281D01*
X011262Y021275D01*
X011254Y021269D01*
X011244Y021264D01*
X011232Y02126D01*
X011218Y021256D01*
X011201Y021253D01*
X011193Y021252D01*
X011183Y021251D01*
X011173Y02125D01*
X011161D01*
X011161D01*
X011158D01*
X011155D01*
X01115D01*
X011145Y021251D01*
X011139D01*
X011124Y021252D01*
X011109Y021254D01*
X011094Y021257D01*
X011087Y021258D01*
X01108Y02126D01*
X011074Y021263D01*
X011069Y021265D01*
X011068Y021266D01*
X011065Y021268D01*
X011061Y021272D01*
X011057Y021277D01*
X011053Y021283D01*
X011049Y02129D01*
X011046Y0213D01*
X011045Y021309D01*
Y021311D01*
X011045Y021314D01*
X011046Y021317D01*
X011049Y021326D01*
X011051Y02133D01*
X011053Y021336D01*
X011057Y02134D01*
X011062Y021346D01*
X011067Y02135D01*
X011074Y021355D01*
X011081Y021359D01*
X011091Y021362D01*
X011102Y021365D01*
X011114Y021367D01*
X011106Y021483D01*
X011378D01*
Y021483D01*
D02*
G37*
G36*
X011371Y021084D02*
X010955D01*
Y020713D01*
X011371D01*
Y020878D01*
X011371Y020884D01*
Y020891D01*
X011369Y0209D01*
X011368Y02091D01*
X011366Y020921D01*
X011364Y020933D01*
X01136Y020945D01*
X011356Y020958D01*
X011351Y020972D01*
X011345Y020985D01*
X011338Y020997D01*
X011329Y02101D01*
X01132Y021021D01*
X011309Y021031D01*
X011308Y021032D01*
X011306Y021033D01*
X011303Y021036D01*
X011298Y02104D01*
X011292Y021044D01*
X011285Y021048D01*
X011277Y021053D01*
X011268Y021058D01*
X011257Y021062D01*
X011247Y021067D01*
X011234Y021071D01*
X011222Y021076D01*
X011209Y021079D01*
X011194Y021082D01*
X01118Y021083D01*
X011165Y021084D01*
X011371D01*
Y021084D01*
D02*
G37*
G36*
Y020675D02*
X010955D01*
Y02028D01*
X010955D01*
X011371Y020409D01*
Y020544D01*
X010955Y020675D01*
X011371D01*
Y020675D01*
D02*
G37*
G36*
Y020247D02*
X010948D01*
Y019905D01*
X010948D01*
Y020071D01*
X010949Y020066D01*
X01095Y020059D01*
X01095Y020051D01*
X010951Y020043D01*
X010952Y020034D01*
X010956Y020013D01*
X010962Y019992D01*
X010966Y019982D01*
X010971Y019971D01*
X010975Y019961D01*
X010981Y019952D01*
X010982Y019952D01*
X010982Y01995D01*
X010984Y019948D01*
X010988Y019945D01*
X010991Y019941D01*
X010996Y019937D01*
X011001Y019933D01*
X011007Y019929D01*
X011014Y019924D01*
X011022Y01992D01*
X01103Y019916D01*
X01104Y019912D01*
X011051Y01991D01*
X011062Y019907D01*
X011075Y019906D01*
X011089Y019905D01*
X011371D01*
Y020035D01*
X011103D01*
X011102D01*
X011099D01*
X011093Y020035D01*
X011086Y020036D01*
X011079Y020038D01*
X011072Y02004D01*
X011065Y020043D01*
X011059Y020047D01*
X011058Y020048D01*
X011057Y02005D01*
X011055Y020053D01*
X011053Y020057D01*
X01105Y020062D01*
X011048Y02007D01*
X011047Y020077D01*
X011046Y020087D01*
Y020091D01*
X011047Y020096D01*
X011047Y020101D01*
X011049Y020107D01*
X01105Y020114D01*
X011053Y020119D01*
X011056Y020125D01*
X011057Y020126D01*
X011058Y020128D01*
X01106Y020131D01*
X011062Y020133D01*
X01107Y020139D01*
X011074Y020142D01*
X011078Y020143D01*
X011079D01*
X011081Y020144D01*
X011084Y020144D01*
X011089Y020145D01*
X011095D01*
X011104Y020146D01*
X011114Y020146D01*
X011127D01*
X011371D01*
Y020247D01*
D02*
G37*
G36*
X011378Y019855D02*
X010878D01*
Y019459D01*
X010878D01*
Y019794D01*
X010879Y019788D01*
X01088Y01978D01*
X010881Y01977D01*
X010884Y01976D01*
X010888Y019749D01*
X010893Y019739D01*
X010893Y019738D01*
X010896Y019734D01*
X0109Y01973D01*
X010906Y019725D01*
X010914Y019718D01*
X010924Y019711D01*
X010931Y019708D01*
X010937Y019705D01*
X010944Y019702D01*
X010953Y0197D01*
Y019699D01*
X010952Y019696D01*
X010952Y019692D01*
X010951Y019686D01*
X01095Y01968D01*
X010949Y019673D01*
X010948Y019658D01*
Y019654D01*
X010949Y019649D01*
Y019643D01*
X01095Y019635D01*
X010952Y019626D01*
X010954Y019616D01*
X010955Y019606D01*
X010959Y019595D01*
X010963Y019583D01*
X010967Y019571D01*
X010973Y019559D01*
X01098Y019547D01*
X010988Y019535D01*
X010997Y019524D01*
X011007Y019513D01*
X011008Y019513D01*
X01101Y019511D01*
X011013Y019508D01*
X011018Y019505D01*
X011024Y019501D01*
X011031Y019496D01*
X011039Y019491D01*
X011049Y019486D01*
X01106Y019481D01*
X011071Y019476D01*
X011084Y019471D01*
X011098Y019467D01*
X011112Y019464D01*
X011128Y019461D01*
X011144Y01946D01*
X011161Y019459D01*
X011165D01*
X011171Y01946D01*
X011177D01*
X011185Y01946D01*
X011194Y019461D01*
X011205Y019463D01*
X011217Y019465D01*
X011228Y019468D01*
X011241Y019472D01*
X011254Y019476D01*
X011267Y019481D01*
X01128Y019487D01*
X011293Y019494D01*
X011305Y019502D01*
X011317Y019511D01*
X011318Y019512D01*
X01132Y019514D01*
X011323Y019517D01*
X011327Y019521D01*
X011331Y019526D01*
X011336Y019533D01*
X011342Y019541D01*
X011348Y019549D01*
X011353Y01956D01*
X011359Y01957D01*
X011364Y019583D01*
X011369Y019596D01*
X011372Y01961D01*
X011375Y019625D01*
X011377Y019641D01*
X011378Y019658D01*
Y019662D01*
X011377Y019667D01*
Y019673D01*
X011376Y01968D01*
X011375Y019688D01*
X011373Y019698D01*
X011371Y019709D01*
X011367Y01972D01*
X011364Y019731D01*
X011359Y019743D01*
X011354Y019755D01*
X011347Y019767D01*
X011339Y019778D01*
X011331Y019789D01*
X01132Y0198D01*
X01132Y019801D01*
X011318Y019803D01*
X011314Y019805D01*
X01131Y019809D01*
X011304Y019813D01*
X011297Y019818D01*
X011289Y019822D01*
X01128Y019828D01*
X011269Y019833D01*
X011257Y019837D01*
X011245Y019843D01*
X011231Y019847D01*
X011217Y01985D01*
X011201Y019852D01*
X011184Y019854D01*
X011167Y019855D01*
X011378D01*
Y019855D01*
D02*
G37*
%LPD*%
G36*
X011156Y030316D02*
X011149D01*
X011141Y030315D01*
X011132Y030314D01*
X011122Y030312D01*
X011111Y03031D01*
X011099Y030307D01*
X011087Y030303D01*
X011074Y030299D01*
X011062Y030293D01*
X011049Y030287D01*
X011037Y030279D01*
X011024Y03027D01*
X011013Y030261D01*
X011013Y03026D01*
X011011Y030258D01*
X011008Y030255D01*
X011004Y030251D01*
X010999Y030245D01*
X010995Y030238D01*
X01099Y03023D01*
X010984Y030221D01*
X010978Y030211D01*
X010973Y0302D01*
X010969Y030188D01*
X010964Y030176D01*
X01096Y030161D01*
X010957Y030147D01*
X010955Y030131D01*
X010955Y030115D01*
Y030317D01*
X011161D01*
X011156Y030316D01*
D02*
G37*
G36*
X011177Y030182D02*
X011182Y030182D01*
X011192Y030181D01*
X011204Y030179D01*
X011217Y030175D01*
X011231Y03017D01*
X011243Y030163D01*
X011244D01*
X011245Y030163D01*
X011249Y03016D01*
X011254Y030156D01*
X011261Y030149D01*
X011266Y030141D01*
X011272Y030131D01*
X011276Y03012D01*
X011276Y030114D01*
X011277Y030107D01*
Y030074D01*
X011051D01*
Y030108D01*
X011051Y030112D01*
X011053Y030118D01*
X011055Y030126D01*
X011058Y030135D01*
X011064Y030143D01*
X011072Y030152D01*
X011076Y030157D01*
X011081Y030161D01*
X011082D01*
X011083Y030161D01*
X011085Y030163D01*
X011087Y030164D01*
X01109Y030166D01*
X011094Y030168D01*
X011104Y030172D01*
X011116Y030176D01*
X01113Y03018D01*
X011146Y030182D01*
X011165Y030183D01*
X011166D01*
X011167D01*
X01117D01*
X011173D01*
X011177Y030182D01*
D02*
G37*
G36*
X011249Y029751D02*
X011255Y029749D01*
X011263Y029746D01*
X011266Y029743D01*
X01127Y029739D01*
X011274Y029735D01*
X011276Y029731D01*
X011279Y029725D01*
X011281Y029718D01*
X011282Y02971D01*
X011283Y029702D01*
Y029643D01*
X011203D01*
Y029702D01*
X011203Y029706D01*
X011204Y029711D01*
X011205Y029718D01*
X011207Y029725D01*
X011209Y029731D01*
X011213Y029736D01*
X011213Y029737D01*
X011215Y029739D01*
X011217Y029741D01*
X01122Y029744D01*
X011224Y029747D01*
X011229Y029749D01*
X011235Y029751D01*
X011242Y029752D01*
X011243D01*
X011244D01*
X011246D01*
X011249Y029751D01*
D02*
G37*
G36*
X011114Y029683D02*
Y029643D01*
X010955D01*
Y029744D01*
X011114Y029683D01*
D02*
G37*
G36*
X011246Y029267D02*
X011128Y029234D01*
Y0293D01*
X011246Y029267D01*
D02*
G37*
G36*
X011037Y029324D02*
Y029211D01*
X010955Y029186D01*
Y029347D01*
X011037Y029324D01*
D02*
G37*
G36*
X011157Y029063D02*
X01115D01*
X011142Y029061D01*
X011132Y029061D01*
X011121Y029059D01*
X01111Y029056D01*
X011097Y029054D01*
X011085Y02905D01*
X011071Y029045D01*
X011058Y02904D01*
X011045Y029033D01*
X011032Y029026D01*
X01102Y029017D01*
X011008Y029008D01*
X011007Y029007D01*
X011005Y029005D01*
X011003Y029002D01*
X010999Y028998D01*
X010994Y028992D01*
X010989Y028985D01*
X010984Y028978D01*
X010978Y028969D01*
X010973Y02896D01*
X010967Y028949D01*
X010962Y028937D01*
X010957Y028924D01*
X010954Y028911D01*
X010951Y028897D01*
X010949Y028881D01*
X010948Y028865D01*
Y029063D01*
X011162D01*
X011157Y029063D01*
D02*
G37*
G36*
X011184Y028925D02*
X011191D01*
X0112Y028924D01*
X011209Y028922D01*
X011219Y028921D01*
X011229Y028918D01*
X011239Y028915D01*
X011249Y028911D01*
X011258Y028907D01*
X011266Y028901D01*
X011274Y028894D01*
X011279Y028886D01*
X011282Y028878D01*
X011283Y028867D01*
Y028865D01*
X011283Y028861D01*
X011282Y028857D01*
X01128Y028853D01*
X011277Y028848D01*
X011273Y028842D01*
X011268Y028836D01*
X011261Y02883D01*
X011253Y028825D01*
X011243Y028819D01*
X011231Y028815D01*
X011217Y028811D01*
X0112Y028808D01*
X011191Y028806D01*
X01118Y028806D01*
X01117Y028805D01*
X011159D01*
X011158D01*
X011154D01*
X011148Y028806D01*
X01114D01*
X011132Y028807D01*
X011122Y028808D01*
X011112Y02881D01*
X011101Y028812D01*
X01109Y028815D01*
X011079Y028819D01*
X01107Y028825D01*
X011061Y02883D01*
X011053Y028837D01*
X011048Y028845D01*
X011044Y028854D01*
X011043Y028859D01*
X011043Y028865D01*
Y028866D01*
X011043Y02887D01*
X011044Y028876D01*
X011046Y028882D01*
X01105Y02889D01*
X011055Y028898D01*
X011062Y028905D01*
X011066Y028909D01*
X011071Y028911D01*
X011072D01*
X011072Y028912D01*
X011074Y028912D01*
X011077Y028913D01*
X011079Y028914D01*
X011084Y028916D01*
X011089Y028917D01*
X011095Y028918D01*
X011101Y02892D01*
X011108Y028921D01*
X011117Y028922D01*
X011126Y028924D01*
X011137Y028924D01*
X011148Y028925D01*
X01116Y028926D01*
X011174D01*
X011175D01*
X011179D01*
X011184Y028925D01*
D02*
G37*
G36*
X011249Y02849D02*
X011255Y028488D01*
X011263Y028485D01*
X011266Y028482D01*
X01127Y028478D01*
X011274Y028474D01*
X011276Y02847D01*
X011279Y028464D01*
X011281Y028457D01*
X011282Y028449D01*
X011283Y028441D01*
Y028382D01*
X011203D01*
Y028441D01*
X011203Y028445D01*
X011204Y028451D01*
X011205Y028457D01*
X011207Y028464D01*
X011209Y02847D01*
X011213Y028476D01*
X011213Y028476D01*
X011215Y028478D01*
X011217Y02848D01*
X01122Y028483D01*
X011224Y028486D01*
X011229Y028488D01*
X011235Y02849D01*
X011242Y028491D01*
X011243D01*
X011244D01*
X011246D01*
X011249Y02849D01*
D02*
G37*
G36*
X011114Y028422D02*
Y028382D01*
X010955D01*
Y028483D01*
X011114Y028422D01*
D02*
G37*
G36*
X011066Y028201D02*
X011062D01*
X011058Y028201D01*
X011047Y028199D01*
X011034Y028195D01*
X01102Y02819D01*
X011005Y028183D01*
X010998Y028178D01*
X010991Y028173D01*
X01099D01*
X01099Y028172D01*
X010988Y02817D01*
X010985Y028167D01*
X010982Y028163D01*
X01098Y028159D01*
X010976Y028153D01*
X010973Y028147D01*
X010969Y02814D01*
X010966Y028131D01*
X010963Y028121D01*
X010961Y02811D01*
X010958Y028097D01*
X010956Y028083D01*
X010955Y028068D01*
X010955Y028051D01*
Y028202D01*
X01107D01*
X011066Y028201D01*
D02*
G37*
G36*
X011252Y02807D02*
X011258Y028069D01*
X011264Y028066D01*
X011271Y02806D01*
X011274Y028057D01*
X011277Y028052D01*
X011279Y028048D01*
X011281Y028042D01*
X011282Y028035D01*
X011282Y028028D01*
Y02797D01*
X011212D01*
Y028033D01*
X011213Y028037D01*
X011213Y028042D01*
X011215Y028047D01*
X011217Y028052D01*
X011219Y028057D01*
X011223Y028061D01*
X011224Y028062D01*
X011225Y028062D01*
X011227Y028064D01*
X01123Y028066D01*
X011238Y02807D01*
X011242Y02807D01*
X011247Y028071D01*
X011247D01*
X011248D01*
X011252Y02807D01*
D02*
G37*
G36*
X01109Y028077D02*
X011093Y028077D01*
X011097Y028075D01*
X011102Y028073D01*
X011106Y028071D01*
X011111Y028067D01*
X011112Y028066D01*
X011113Y028065D01*
X011115Y028062D01*
X011118Y028058D01*
X011119Y028053D01*
X011121Y028046D01*
X011123Y028038D01*
X011123Y028028D01*
Y02797D01*
X011047D01*
Y028037D01*
X011048Y028041D01*
X011049Y028046D01*
X01105Y028051D01*
X011052Y028057D01*
X011055Y028062D01*
X011058Y028067D01*
X011059Y028068D01*
X01106Y028069D01*
X011063Y02807D01*
X011066Y028073D01*
X01107Y028075D01*
X011075Y028076D01*
X011079Y028077D01*
X011085Y028078D01*
X011085D01*
X011087D01*
X01109Y028077D01*
D02*
G37*
G36*
X011276Y027059D02*
X011215D01*
Y027211D01*
X011122D01*
Y027059D01*
X011055D01*
Y027248D01*
X011276D01*
Y027059D01*
D02*
G37*
G36*
X011156Y02688D02*
X011149D01*
X011141Y026878D01*
X011132Y026877D01*
X011122Y026876D01*
X011111Y026873D01*
X011099Y02687D01*
X011087Y026866D01*
X011074Y026862D01*
X011062Y026857D01*
X011049Y02685D01*
X011037Y026842D01*
X011024Y026834D01*
X011013Y026824D01*
X011013Y026823D01*
X011011Y026821D01*
X011008Y026818D01*
X011004Y026814D01*
X010999Y026808D01*
X010995Y026801D01*
X01099Y026794D01*
X010984Y026784D01*
X010978Y026775D01*
X010973Y026763D01*
X010969Y026752D01*
X010964Y026739D01*
X01096Y026725D01*
X010957Y02671D01*
X010955Y026695D01*
X010955Y026678D01*
Y02688D01*
X011161D01*
X011156Y02688D01*
D02*
G37*
G36*
X011177Y026746D02*
X011182Y026745D01*
X011192Y026744D01*
X011204Y026742D01*
X011217Y026738D01*
X011231Y026733D01*
X011243Y026727D01*
X011244D01*
X011245Y026726D01*
X011249Y026723D01*
X011254Y026719D01*
X011261Y026712D01*
X011266Y026704D01*
X011272Y026695D01*
X011276Y026683D01*
X011276Y026677D01*
X011277Y02667D01*
Y026637D01*
X011051D01*
Y026672D01*
X011051Y026676D01*
X011053Y026681D01*
X011055Y026689D01*
X011058Y026698D01*
X011064Y026706D01*
X011072Y026716D01*
X011076Y02672D01*
X011081Y026724D01*
X011082D01*
X011083Y026725D01*
X011085Y026726D01*
X011087Y026727D01*
X01109Y026729D01*
X011094Y026731D01*
X011104Y026735D01*
X011116Y026739D01*
X01113Y026743D01*
X011146Y026746D01*
X011165Y026746D01*
X011166D01*
X011167D01*
X01117D01*
X011173D01*
X011177Y026746D01*
D02*
G37*
G36*
X011157Y025962D02*
X01115D01*
X011142Y025961D01*
X011132Y02596D01*
X011121Y025959D01*
X01111Y025956D01*
X011097Y025953D01*
X011085Y025949D01*
X011071Y025945D01*
X011058Y025939D01*
X011045Y025933D01*
X011032Y025926D01*
X01102Y025917D01*
X011008Y025907D01*
X011007Y025907D01*
X011005Y025905D01*
X011003Y025901D01*
X010999Y025898D01*
X010994Y025892D01*
X010989Y025885D01*
X010984Y025878D01*
X010978Y025869D01*
X010973Y025859D01*
X010967Y025848D01*
X010962Y025836D01*
X010957Y025824D01*
X010954Y02581D01*
X010951Y025796D01*
X010949Y025781D01*
X010948Y025765D01*
Y025963D01*
X011162D01*
X011157Y025962D01*
D02*
G37*
G36*
X011184Y025825D02*
X011191D01*
X0112Y025823D01*
X011209Y025822D01*
X011219Y025821D01*
X011229Y025818D01*
X011239Y025815D01*
X011249Y025811D01*
X011258Y025806D01*
X011266Y0258D01*
X011274Y025794D01*
X011279Y025786D01*
X011282Y025777D01*
X011283Y025767D01*
Y025764D01*
X011283Y025761D01*
X011282Y025757D01*
X01128Y025753D01*
X011277Y025747D01*
X011273Y025741D01*
X011268Y025736D01*
X011261Y02573D01*
X011253Y025724D01*
X011243Y025719D01*
X011231Y025714D01*
X011217Y025711D01*
X0112Y025707D01*
X011191Y025706D01*
X01118Y025705D01*
X01117Y025705D01*
X011159D01*
X011158D01*
X011154D01*
X011148Y025705D01*
X01114D01*
X011132Y025707D01*
X011122Y025708D01*
X011112Y02571D01*
X011101Y025712D01*
X01109Y025715D01*
X011079Y025719D01*
X01107Y025724D01*
X011061Y02573D01*
X011053Y025737D01*
X011048Y025745D01*
X011044Y025754D01*
X011043Y025759D01*
X011043Y025764D01*
Y025766D01*
X011043Y02577D01*
X011044Y025775D01*
X011046Y025782D01*
X01105Y02579D01*
X011055Y025798D01*
X011062Y025805D01*
X011066Y025808D01*
X011071Y025811D01*
X011072D01*
X011072Y025812D01*
X011074Y025812D01*
X011077Y025813D01*
X011079Y025814D01*
X011084Y025815D01*
X011089Y025817D01*
X011095Y025818D01*
X011101Y025819D01*
X011108Y025821D01*
X011117Y025822D01*
X011126Y025823D01*
X011137Y025824D01*
X011148Y025825D01*
X01116Y025825D01*
X011174D01*
X011175D01*
X011179D01*
X011184Y025825D01*
D02*
G37*
G36*
X011249Y02539D02*
X011255Y025388D01*
X011263Y025385D01*
X011266Y025382D01*
X01127Y025378D01*
X011274Y025374D01*
X011276Y025369D01*
X011279Y025364D01*
X011281Y025357D01*
X011282Y025349D01*
X011283Y025341D01*
Y025282D01*
X011203D01*
Y025341D01*
X011203Y025345D01*
X011204Y02535D01*
X011205Y025357D01*
X011207Y025364D01*
X011209Y025369D01*
X011213Y025375D01*
X011213Y025376D01*
X011215Y025378D01*
X011217Y02538D01*
X01122Y025383D01*
X011224Y025386D01*
X011229Y025388D01*
X011235Y02539D01*
X011242Y02539D01*
X011243D01*
X011244D01*
X011246D01*
X011249Y02539D01*
D02*
G37*
G36*
X011114Y025322D02*
Y025282D01*
X010955D01*
Y025383D01*
X011114Y025322D01*
D02*
G37*
G36*
X011272Y025032D02*
X010955D01*
Y025119D01*
X011272D01*
Y025032D01*
D02*
G37*
G36*
X011139Y024569D02*
X011139D01*
X01114Y024568D01*
X011142Y024567D01*
X011145Y024565D01*
X011148Y024563D01*
X011152Y024561D01*
X011163Y024555D01*
X011175Y024549D01*
X01119Y024542D01*
X011206Y024534D01*
X011224Y024525D01*
X011224D01*
X011222Y024526D01*
X011221Y024526D01*
X011218Y024527D01*
X01121Y024528D01*
X011201Y02453D01*
X01119Y024532D01*
X011179Y024534D01*
X011167Y024535D01*
X011156Y024536D01*
X010955D01*
Y024684D01*
X011139Y024569D01*
D02*
G37*
G36*
X011157Y024378D02*
X01115D01*
X011142Y024376D01*
X011132Y024376D01*
X011121Y024374D01*
X01111Y024371D01*
X011097Y024368D01*
X011085Y024364D01*
X011071Y02436D01*
X011058Y024355D01*
X011045Y024348D01*
X011032Y024341D01*
X01102Y024332D01*
X011008Y024322D01*
X011007Y024322D01*
X011005Y02432D01*
X011003Y024317D01*
X010999Y024313D01*
X010994Y024307D01*
X010989Y0243D01*
X010984Y024293D01*
X010978Y024284D01*
X010973Y024275D01*
X010967Y024263D01*
X010962Y024252D01*
X010957Y024239D01*
X010954Y024225D01*
X010951Y024212D01*
X010949Y024196D01*
X010948Y02418D01*
Y024378D01*
X011162D01*
X011157Y024378D01*
D02*
G37*
G36*
X011184Y02424D02*
X011191D01*
X0112Y024238D01*
X011209Y024237D01*
X011219Y024236D01*
X011229Y024233D01*
X011239Y02423D01*
X011249Y024226D01*
X011258Y024221D01*
X011266Y024216D01*
X011274Y024209D01*
X011279Y024201D01*
X011282Y024193D01*
X011283Y024182D01*
Y024179D01*
X011283Y024176D01*
X011282Y024172D01*
X01128Y024168D01*
X011277Y024162D01*
X011273Y024156D01*
X011268Y024151D01*
X011261Y024145D01*
X011253Y024139D01*
X011243Y024134D01*
X011231Y02413D01*
X011217Y024126D01*
X0112Y024122D01*
X011191Y024121D01*
X01118Y02412D01*
X01117Y02412D01*
X011159D01*
X011158D01*
X011154D01*
X011148Y02412D01*
X01114D01*
X011132Y024122D01*
X011122Y024123D01*
X011112Y024125D01*
X011101Y024127D01*
X01109Y02413D01*
X011079Y024134D01*
X01107Y024139D01*
X011061Y024145D01*
X011053Y024152D01*
X011048Y02416D01*
X011044Y024169D01*
X011043Y024174D01*
X011043Y024179D01*
Y024181D01*
X011043Y024185D01*
X011044Y024191D01*
X011046Y024197D01*
X01105Y024205D01*
X011055Y024213D01*
X011062Y02422D01*
X011066Y024223D01*
X011071Y024226D01*
X011072D01*
X011072Y024227D01*
X011074Y024227D01*
X011077Y024228D01*
X011079Y024229D01*
X011084Y024231D01*
X011089Y024232D01*
X011095Y024233D01*
X011101Y024235D01*
X011108Y024236D01*
X011117Y024237D01*
X011126Y024238D01*
X011137Y024239D01*
X011148Y02424D01*
X01116Y02424D01*
X011174D01*
X011175D01*
X011179D01*
X011184Y02424D01*
D02*
G37*
G36*
X011103Y023953D02*
X011099Y023952D01*
X011094Y023952D01*
X011087Y02395D01*
X01108Y023949D01*
X011072Y023947D01*
X011063Y023943D01*
X011054Y02394D01*
X011044Y023936D01*
X011034Y023931D01*
X011024Y023926D01*
X011015Y02392D01*
X011006Y023913D01*
X010997Y023905D01*
X010989Y023897D01*
X010988Y023896D01*
X010987Y023895D01*
X010985Y023892D01*
X010982Y023888D01*
X01098Y023884D01*
X010976Y023878D01*
X010973Y023871D01*
X010969Y023864D01*
X010965Y023856D01*
X010961Y023847D01*
X010957Y023837D01*
X010955Y023827D01*
X010952Y023815D01*
X01095Y023804D01*
X010949Y023791D01*
X010948Y023778D01*
Y023954D01*
X011106D01*
X011103Y023953D01*
D02*
G37*
G36*
X011249Y023256D02*
X011255Y023254D01*
X011263Y023251D01*
X011266Y023249D01*
X01127Y023245D01*
X011274Y023241D01*
X011276Y023236D01*
X011279Y02323D01*
X011281Y023224D01*
X011282Y023216D01*
X011283Y023207D01*
Y023149D01*
X011203D01*
Y023207D01*
X011203Y023212D01*
X011204Y023217D01*
X011205Y023224D01*
X011207Y02323D01*
X011209Y023236D01*
X011213Y023242D01*
X011213Y023243D01*
X011215Y023245D01*
X011217Y023247D01*
X01122Y02325D01*
X011224Y023253D01*
X011229Y023254D01*
X011235Y023256D01*
X011242Y023257D01*
X011243D01*
X011244D01*
X011246D01*
X011249Y023256D01*
D02*
G37*
G36*
X011114Y023188D02*
Y023149D01*
X010955D01*
Y02325D01*
X011114Y023188D01*
D02*
G37*
G36*
X011276Y022782D02*
X011215D01*
Y022934D01*
X011122D01*
Y022782D01*
X011055D01*
Y02297D01*
X011276D01*
Y022782D01*
D02*
G37*
G36*
X011272Y022535D02*
X010955D01*
Y022621D01*
X011272D01*
Y022535D01*
D02*
G37*
G36*
X011229Y022315D02*
X011224Y022314D01*
X011218Y022314D01*
X011211Y022312D01*
X011205Y02231D01*
X011189Y022305D01*
X011181Y022302D01*
X011173Y022298D01*
X011165Y022293D01*
X011157Y022288D01*
X01115Y022281D01*
X011142Y022274D01*
X011142Y022273D01*
X011141Y022272D01*
X011139Y02227D01*
X011137Y022267D01*
X011134Y022262D01*
X011131Y022257D01*
X011128Y022251D01*
X011125Y022244D01*
X011121Y022237D01*
X011118Y022228D01*
X011115Y02222D01*
X011112Y02221D01*
X01111Y0222D01*
X011108Y022188D01*
X011107Y022176D01*
X011106Y022164D01*
Y022091D01*
X010955D01*
Y022316D01*
X011233D01*
X011229Y022315D01*
D02*
G37*
G36*
X011243Y022188D02*
X011249Y022186D01*
X011257Y022182D01*
X011261Y022179D01*
X011264Y022176D01*
X011268Y022171D01*
X011271Y022166D01*
X011273Y02216D01*
X011275Y022153D01*
X011276Y022145D01*
X011277Y022136D01*
Y022089D01*
X011196D01*
Y022137D01*
X011196Y022141D01*
X011197Y022145D01*
X011198Y02215D01*
X011201Y02216D01*
X011205Y022171D01*
X011209Y022175D01*
X011213Y02218D01*
X011218Y022183D01*
X011223Y022186D01*
X01123Y022188D01*
X011237Y022188D01*
X011238D01*
X011239D01*
X011241D01*
X011243Y022188D01*
D02*
G37*
G36*
X011157Y021907D02*
X01115D01*
X011142Y021906D01*
X011132Y021905D01*
X011121Y021903D01*
X01111Y0219D01*
X011097Y021898D01*
X011085Y021894D01*
X011071Y021889D01*
X011058Y021884D01*
X011045Y021878D01*
X011032Y02187D01*
X01102Y021862D01*
X011008Y021852D01*
X011007Y021851D01*
X011005Y021849D01*
X011003Y021846D01*
X010999Y021842D01*
X010994Y021836D01*
X010989Y02183D01*
X010984Y021822D01*
X010978Y021813D01*
X010973Y021804D01*
X010967Y021793D01*
X010962Y021781D01*
X010957Y021769D01*
X010954Y021755D01*
X010951Y021741D01*
X010949Y021725D01*
X010948Y02171D01*
Y021908D01*
X011162D01*
X011157Y021907D01*
D02*
G37*
G36*
X011184Y021769D02*
X011191D01*
X0112Y021768D01*
X011209Y021767D01*
X011219Y021765D01*
X011229Y021763D01*
X011239Y021759D01*
X011249Y021756D01*
X011258Y021751D01*
X011266Y021745D01*
X011274Y021738D01*
X011279Y021731D01*
X011282Y021722D01*
X011283Y021712D01*
Y021709D01*
X011283Y021706D01*
X011282Y021702D01*
X01128Y021697D01*
X011277Y021692D01*
X011273Y021686D01*
X011268Y021681D01*
X011261Y021675D01*
X011253Y021669D01*
X011243Y021664D01*
X011231Y021659D01*
X011217Y021655D01*
X0112Y021652D01*
X011191Y021651D01*
X01118Y02165D01*
X01117Y021649D01*
X011159D01*
X011158D01*
X011154D01*
X011148Y02165D01*
X01114D01*
X011132Y021651D01*
X011122Y021653D01*
X011112Y021654D01*
X011101Y021656D01*
X01109Y02166D01*
X011079Y021664D01*
X01107Y021669D01*
X011061Y021674D01*
X011053Y021681D01*
X011048Y021689D01*
X011044Y021698D01*
X011043Y021704D01*
X011043Y021709D01*
Y02171D01*
X011043Y021714D01*
X011044Y02172D01*
X011046Y021727D01*
X01105Y021735D01*
X011055Y021742D01*
X011062Y02175D01*
X011066Y021753D01*
X011071Y021756D01*
X011072D01*
X011072Y021756D01*
X011074Y021757D01*
X011077Y021757D01*
X011079Y021759D01*
X011084Y02176D01*
X011089Y021761D01*
X011095Y021763D01*
X011101Y021764D01*
X011108Y021765D01*
X011117Y021767D01*
X011126Y021768D01*
X011137Y021769D01*
X011148Y021769D01*
X01116Y02177D01*
X011174D01*
X011175D01*
X011179D01*
X011184Y021769D01*
D02*
G37*
G36*
X011103Y021483D02*
X011099Y021482D01*
X011094Y021481D01*
X011087Y02148D01*
X01108Y021478D01*
X011072Y021476D01*
X011063Y021473D01*
X011054Y02147D01*
X011044Y021466D01*
X011034Y021461D01*
X011024Y021456D01*
X011015Y02145D01*
X011006Y021443D01*
X010997Y021435D01*
X010989Y021426D01*
X010988Y021426D01*
X010987Y021424D01*
X010985Y021422D01*
X010982Y021418D01*
X01098Y021413D01*
X010976Y021407D01*
X010973Y021401D01*
X010969Y021393D01*
X010965Y021386D01*
X010961Y021376D01*
X010957Y021367D01*
X010955Y021356D01*
X010952Y021345D01*
X01095Y021333D01*
X010949Y021321D01*
X010948Y021307D01*
Y021483D01*
X011106D01*
X011103Y021483D01*
D02*
G37*
G36*
X011156Y021083D02*
X011149D01*
X011141Y021082D01*
X011132Y02108D01*
X011122Y021079D01*
X011111Y021077D01*
X011099Y021074D01*
X011087Y02107D01*
X011074Y021065D01*
X011062Y02106D01*
X011049Y021054D01*
X011037Y021046D01*
X011024Y021037D01*
X011013Y021027D01*
X011013Y021027D01*
X011011Y021025D01*
X011008Y021021D01*
X011004Y021018D01*
X010999Y021012D01*
X010995Y021005D01*
X01099Y020997D01*
X010984Y020988D01*
X010978Y020978D01*
X010973Y020967D01*
X010969Y020955D01*
X010964Y020943D01*
X01096Y020928D01*
X010957Y020914D01*
X010955Y020898D01*
X010955Y020882D01*
Y021084D01*
X011161D01*
X011156Y021083D01*
D02*
G37*
G36*
X011177Y020949D02*
X011182Y020949D01*
X011192Y020947D01*
X011204Y020945D01*
X011217Y020941D01*
X011231Y020937D01*
X011243Y02093D01*
X011244D01*
X011245Y02093D01*
X011249Y020926D01*
X011254Y020922D01*
X011261Y020916D01*
X011266Y020908D01*
X011272Y020898D01*
X011276Y020887D01*
X011276Y02088D01*
X011277Y020874D01*
Y020841D01*
X011051D01*
Y020875D01*
X011051Y020879D01*
X011053Y020885D01*
X011055Y020893D01*
X011058Y020901D01*
X011064Y02091D01*
X011072Y020919D01*
X011076Y020924D01*
X011081Y020928D01*
X011082D01*
X011083Y020928D01*
X011085Y02093D01*
X011087Y020931D01*
X01109Y020933D01*
X011094Y020935D01*
X011104Y020939D01*
X011116Y020943D01*
X01113Y020947D01*
X011146Y020949D01*
X011165Y02095D01*
X011166D01*
X011167D01*
X01117D01*
X011173D01*
X011177Y020949D01*
D02*
G37*
G36*
X011246Y020464D02*
X011128Y020432D01*
Y020498D01*
X011246Y020464D01*
D02*
G37*
G36*
X011037Y020522D02*
Y020409D01*
X010955Y020384D01*
Y020545D01*
X011037Y020522D01*
D02*
G37*
G36*
X011082Y020246D02*
X011076Y020245D01*
X011068Y020244D01*
X01106Y020243D01*
X011052Y020241D01*
X011043Y020238D01*
X011033Y020236D01*
X011024Y020232D01*
X011015Y020227D01*
X011005Y020222D01*
X010997Y020215D01*
X01099Y020209D01*
X010982Y0202D01*
X010982Y020199D01*
X010981Y020198D01*
X010979Y020196D01*
X010977Y020192D01*
X010975Y020187D01*
X010972Y020182D01*
X010969Y020175D01*
X010965Y020167D01*
X010962Y020159D01*
X010959Y02015D01*
X010956Y02014D01*
X010954Y020129D01*
X010952Y020117D01*
X01095Y020106D01*
X010949Y020093D01*
X010948Y020079D01*
Y020247D01*
X011088D01*
X011082Y020246D01*
D02*
G37*
G36*
X011156Y019854D02*
X011148Y019854D01*
X011138Y019853D01*
X011127Y019851D01*
X011114Y019849D01*
X011101Y019846D01*
X011087Y019842D01*
X011072Y019837D01*
X011058Y019831D01*
X011043Y019824D01*
X011028Y019814D01*
X011015Y019805D01*
X011001Y019793D01*
X01099Y01978D01*
X010989Y01978D01*
X010987Y019781D01*
X010984Y019784D01*
X010981Y019787D01*
X010978Y019792D01*
X010975Y019799D01*
X010973Y019808D01*
X010972Y019819D01*
Y019825D01*
X010973Y019829D01*
Y019834D01*
X010974Y01984D01*
X010975Y019847D01*
X010976Y019854D01*
X010882D01*
Y019852D01*
X010881Y01985D01*
Y019848D01*
X010881Y019842D01*
X01088Y019834D01*
X010879Y019826D01*
X010879Y019817D01*
X010878Y019808D01*
Y019855D01*
X011161D01*
X011156Y019854D01*
D02*
G37*
G36*
X011184Y019717D02*
X011191D01*
X0112Y019715D01*
X011209Y019714D01*
X011219Y019713D01*
X011229Y01971D01*
X011239Y019707D01*
X011249Y019703D01*
X011258Y019698D01*
X011266Y019692D01*
X011274Y019686D01*
X011279Y019678D01*
X011282Y019669D01*
X011283Y019659D01*
Y019656D01*
X011283Y019653D01*
X011282Y019649D01*
X01128Y019645D01*
X011277Y019639D01*
X011273Y019633D01*
X011268Y019628D01*
X011261Y019622D01*
X011253Y019616D01*
X011243Y019611D01*
X011231Y019606D01*
X011217Y019603D01*
X0112Y019599D01*
X011191Y019598D01*
X01118Y019597D01*
X01117Y019597D01*
X011159D01*
X011158D01*
X011154D01*
X011148Y019597D01*
X01114D01*
X011132Y019599D01*
X011122Y0196D01*
X011112Y019602D01*
X011101Y019604D01*
X01109Y019607D01*
X011079Y019611D01*
X01107Y019616D01*
X011061Y019622D01*
X011053Y019629D01*
X011048Y019637D01*
X011044Y019646D01*
X011043Y019651D01*
X011043Y019656D01*
Y019658D01*
X011043Y019662D01*
X011044Y019667D01*
X011046Y019674D01*
X01105Y019682D01*
X011055Y01969D01*
X011062Y019697D01*
X011066Y0197D01*
X011071Y019703D01*
X011072D01*
X011072Y019704D01*
X011074Y019704D01*
X011077Y019705D01*
X011079Y019706D01*
X011084Y019707D01*
X011089Y019709D01*
X011095Y01971D01*
X011101Y019711D01*
X011108Y019713D01*
X011117Y019714D01*
X011126Y019715D01*
X011137Y019716D01*
X011148Y019717D01*
X01116Y019717D01*
X011174D01*
X011175D01*
X011179D01*
X011184Y019717D01*
D02*
G37*
D11*
X036988Y038494D02*
Y039695D01*
Y038494D02*
X037579D01*
Y039695D01*
X036988D02*
X037579D01*
X03562Y039862D02*
X036821D01*
X03562Y039272D02*
Y039862D01*
Y039272D02*
X036821D01*
Y039862D01*
X035581Y038327D02*
X036781D01*
Y038917D01*
X035581D02*
X036781D01*
X035581Y038327D02*
Y038917D01*
Y037461D02*
X036781D01*
Y038051D01*
X035581D02*
X036781D01*
X035581Y037461D02*
Y038051D01*
X03564Y036033D02*
X036722D01*
Y036565D01*
X03564D02*
X036722D01*
X03564Y036033D02*
Y036565D01*
X035581Y034547D02*
X036781D01*
Y035138D01*
X035581D02*
X036781D01*
X035581Y034547D02*
Y035138D01*
X03564Y035856D02*
X036722D01*
X03564Y035325D02*
Y035856D01*
Y035325D02*
X036722D01*
Y035856D01*
X034016Y033957D02*
X034094D01*
X033898Y034075D02*
X034016Y033957D01*
X034961D02*
X035039D01*
X035157Y034075D01*
Y035846D01*
X033898D02*
X035157D01*
X034882Y033957D02*
X034961D01*
X034094D02*
X034882D01*
X033898Y034571D02*
Y035846D01*
X034528Y03372D02*
Y033839D01*
Y03372D02*
X034646D01*
X034409D02*
X034528D01*
Y033602D02*
Y03372D01*
X033898Y034075D02*
Y034571D01*
X034606Y037087D02*
Y038425D01*
X031693Y037087D02*
X034606D01*
X031693Y038425D02*
X034606D01*
X031693Y037087D02*
Y038425D01*
X031535Y037087D02*
Y038425D01*
X04123Y038238D02*
X042313D01*
Y03877D01*
X04123D02*
X042313D01*
X04123Y038238D02*
Y03877D01*
X042215Y033337D02*
Y034419D01*
X041683D02*
X042215D01*
X041683Y033337D02*
Y034419D01*
Y033337D02*
X042215D01*
X040935Y033317D02*
Y0344D01*
Y033317D02*
X041467D01*
Y0344D01*
X040935D02*
X041467D01*
X040167Y033317D02*
Y0344D01*
Y033317D02*
X040699D01*
Y0344D01*
X040167D02*
X040699D01*
X03936Y033317D02*
Y0344D01*
Y033317D02*
X039892D01*
Y0344D01*
X03936D02*
X039892D01*
X041043Y038819D02*
Y040118D01*
X040413Y038819D02*
X041043D01*
X038091D02*
X03872D01*
X038091D02*
Y040118D01*
Y041122D02*
Y041378D01*
X041043D01*
Y041142D02*
Y041378D01*
X027185Y038839D02*
X027815D01*
X027185D02*
Y040217D01*
X030098Y038839D02*
X030728D01*
Y040217D01*
Y041201D02*
Y041398D01*
X027185D02*
X030728D01*
X027185Y041201D02*
Y041398D01*
X023937Y041496D02*
X026299D01*
Y04122D02*
Y041496D01*
X023937Y04122D02*
Y041496D01*
Y039016D02*
Y040236D01*
Y039016D02*
X024567D01*
X025669D02*
X026299D01*
Y040197D01*
X013376Y039862D02*
X014577D01*
Y040453D01*
X013376D02*
X014577D01*
X013376Y039862D02*
Y040453D01*
X020492Y032634D02*
X021909D01*
X020492Y035197D02*
X021909D01*
X020492Y032634D02*
Y035197D01*
X021909Y032634D02*
Y035197D01*
X017205Y033319D02*
X018543D01*
X017205Y032547D02*
Y033319D01*
X018543Y032547D02*
Y033319D01*
X017205Y032547D02*
X018543D01*
X029488Y032195D02*
Y033396D01*
X028898D02*
X029488D01*
X028898Y032195D02*
Y033396D01*
Y032195D02*
X029488D01*
X027224Y032429D02*
X028563D01*
Y033201D01*
X027224Y032429D02*
Y033201D01*
X028563D01*
X02387Y031063D02*
Y032402D01*
X023098D02*
X02387D01*
X023098Y031063D02*
X02387D01*
X023098D02*
Y032402D01*
X019508Y028848D02*
Y030049D01*
Y028848D02*
X020098D01*
Y030049D01*
X019508D02*
X020098D01*
X023091Y028297D02*
Y029498D01*
X0225D02*
X023091D01*
X0225Y028297D02*
Y029498D01*
Y028297D02*
X023091D01*
X020187Y027539D02*
X021388D01*
Y02813D01*
X020187D02*
X021388D01*
X020187Y027539D02*
Y02813D01*
X014911Y021358D02*
Y021949D01*
X016112D01*
Y021358D02*
Y021949D01*
X014911Y021358D02*
X016112D01*
X021476Y017904D02*
X022067D01*
X021476D02*
Y019104D01*
X022067D01*
Y017904D02*
Y019104D01*
X030541Y024096D02*
Y024686D01*
X031742D01*
Y024096D02*
Y024686D01*
X030541Y024096D02*
X031742D01*
X03187Y023948D02*
X032461D01*
X03187D02*
Y025149D01*
X032461D01*
Y023948D02*
Y025149D01*
X03187Y02257D02*
X032461D01*
X03187D02*
Y023771D01*
X032461D01*
Y02257D02*
Y023771D01*
X030541Y023269D02*
Y02386D01*
X031742D01*
Y023269D02*
Y02386D01*
X030541Y023269D02*
X031742D01*
X030541Y024903D02*
Y025494D01*
X031742D01*
Y024903D02*
Y025494D01*
X030541Y024903D02*
X031742D01*
X030541Y022403D02*
Y022994D01*
X031742D01*
Y022403D02*
Y022994D01*
X030541Y022403D02*
X031742D01*
X030364D02*
Y022994D01*
X029163Y022403D02*
X030364D01*
X029163D02*
Y022994D01*
X030364D01*
X027514Y023584D02*
Y024175D01*
X026313Y023584D02*
X027514D01*
X026313D02*
Y024175D01*
X027514D01*
X0425Y016486D02*
Y017687D01*
X041909D02*
X0425D01*
X041909Y016486D02*
Y017687D01*
Y016486D02*
X0425D01*
X04065D02*
Y017687D01*
X040059D02*
X04065D01*
X040059Y016486D02*
Y017687D01*
Y016486D02*
X04065D01*
X041043D02*
Y017687D01*
Y016486D02*
X041634D01*
Y017687D01*
X041043D02*
X041634D01*
X034665Y015718D02*
Y016919D01*
Y015718D02*
X035256D01*
Y016919D01*
X034665D02*
X035256D01*
X044872Y011122D02*
X046073D01*
Y011713D01*
X044872D02*
X046073D01*
X044872Y011122D02*
Y011713D01*
X040197Y011417D02*
Y012717D01*
X040827D01*
X04252D02*
X04315D01*
Y011417D02*
Y012717D01*
Y010157D02*
Y010413D01*
X040197Y010157D02*
X04315D01*
X040197D02*
Y010394D01*
X036681Y011413D02*
Y012594D01*
X037311D01*
X038413D02*
X039043D01*
Y011374D02*
Y012594D01*
Y010114D02*
Y01039D01*
X036681Y010114D02*
Y01039D01*
Y010114D02*
X039043D01*
X032902Y011413D02*
Y012594D01*
X033531D01*
X034634D02*
X035264D01*
Y011374D02*
Y012594D01*
Y010114D02*
Y01039D01*
X032902Y010114D02*
Y01039D01*
Y010114D02*
X035264D01*
X029122Y011413D02*
Y012594D01*
X029752D01*
X030854D02*
X031484D01*
Y011374D02*
Y012594D01*
Y010114D02*
Y01039D01*
X029122Y010114D02*
Y01039D01*
Y010114D02*
X031484D01*
X025343Y011413D02*
Y012594D01*
X025972D01*
X027075D02*
X027705D01*
Y011374D02*
Y012594D01*
Y010114D02*
Y01039D01*
X025343Y010114D02*
Y01039D01*
Y010114D02*
X027705D01*
X023563Y012756D02*
X024193D01*
Y011378D02*
Y012756D01*
X02065D02*
X02128D01*
X02065Y011378D02*
Y012756D01*
Y010197D02*
Y010394D01*
Y010197D02*
X024193D01*
Y010394D01*
X019232Y012756D02*
X019862D01*
Y011378D02*
Y012756D01*
X016319D02*
X016949D01*
X016319Y011378D02*
Y012756D01*
Y010197D02*
Y010394D01*
Y010197D02*
X019862D01*
Y010394D01*
X031211Y032234D02*
Y033317D01*
X030679D02*
X031211D01*
X030679Y032234D02*
Y033317D01*
Y032234D02*
X031211D01*
X029813Y033317D02*
X030344D01*
Y032234D02*
Y033317D01*
X029813Y032234D02*
X030344D01*
X029813D02*
Y033317D01*
X016937Y033583D02*
Y034921D01*
Y033583D02*
X017709D01*
X016937Y034921D02*
X017709D01*
Y033583D02*
Y034921D01*
X018039Y033583D02*
Y034921D01*
Y033583D02*
X018811D01*
X018039Y034921D02*
X018811D01*
Y033583D02*
Y034921D01*
X039154Y016486D02*
X039744D01*
X039154D02*
Y017687D01*
X039744D01*
Y016486D02*
Y017687D01*
X044872Y039823D02*
Y040413D01*
X046073D01*
Y039823D02*
Y040413D01*
X044872Y039823D02*
X046073D01*
X025492Y033396D02*
X026083D01*
Y032195D02*
Y033396D01*
X025492Y032195D02*
X026083D01*
X025492D02*
Y033396D01*
X024626Y033396D02*
X025217D01*
Y032195D02*
Y033396D01*
X024626Y032195D02*
X025217D01*
X024626D02*
Y033396D01*
X013297Y011043D02*
Y011634D01*
X014498D01*
Y011043D02*
Y011634D01*
X013297Y011043D02*
X014498D01*
X014911Y01939D02*
X016112D01*
X014911Y018799D02*
Y01939D01*
Y018799D02*
X016112D01*
Y01939D01*
X023063Y017835D02*
Y019173D01*
X022291D02*
X023063D01*
X022291Y017835D02*
X023063D01*
X022291D02*
Y019173D01*
X03561Y033354D02*
X036949D01*
Y034126D01*
X03561Y033354D02*
Y034126D01*
X036949D01*
X04123Y037411D02*
Y037943D01*
X042313D01*
Y037411D02*
Y037943D01*
X04123Y037411D02*
X042313D01*
X041191Y036545D02*
Y037077D01*
X042274D01*
Y036545D02*
Y037077D01*
X041191Y036545D02*
X042274D01*
X036722Y036742D02*
Y037274D01*
X03564Y036742D02*
X036722D01*
X03564D02*
Y037274D01*
X036722D01*
X04689Y03185D02*
X048071D01*
X04689D02*
Y03248D01*
Y033583D02*
Y034213D01*
X04811D01*
X049094D02*
X04937D01*
X049094Y03185D02*
X04937D01*
Y034213D01*
X026313Y02512D02*
X027514D01*
X026313Y024529D02*
Y02512D01*
Y024529D02*
X027514D01*
Y02512D01*
X029163Y02386D02*
X030364D01*
X029163Y023269D02*
Y02386D01*
Y023269D02*
X030364D01*
Y02386D01*
X029163Y025494D02*
X030364D01*
X029163Y024903D02*
Y025494D01*
Y024903D02*
X030364D01*
Y025494D01*
X026313Y023308D02*
X027514D01*
X026313Y022718D02*
Y023308D01*
Y022718D02*
X027514D01*
Y023308D01*
X029163Y024096D02*
X030364D01*
Y024686D01*
X029163D02*
X030364D01*
X029163Y024096D02*
Y024686D01*
D16*
X013406Y01435D02*
X014941D01*
X013406Y013799D02*
X014941D01*
X04122Y035354D02*
X042244D01*
Y035827D01*
X04122D02*
X042244D01*
X04122Y035354D02*
Y035827D01*
X038189Y033366D02*
Y03439D01*
Y033366D02*
X038661D01*
Y03439D01*
X038189D02*
X038661D01*
X020531Y029783D02*
X02061D01*
X020531Y029114D02*
X02061D01*
X020531D02*
Y029783D01*
X021752Y029114D02*
X021831D01*
X021752Y029783D02*
X021831D01*
Y029114D02*
Y029783D01*
X021004D02*
X021358D01*
X015374Y020059D02*
X015728D01*
X014902D02*
Y020728D01*
Y020059D02*
X01498D01*
X014902Y020728D02*
X01498D01*
X016201Y020059D02*
Y020728D01*
X016122D02*
X016201D01*
X016122Y020059D02*
X016201D01*
D18*
X037823Y035264D02*
X038097D01*
X037823Y037334D02*
X038097D01*
X039893Y037061D02*
Y037334D01*
X03962Y035264D02*
X039893D01*
X037823D02*
Y035538D01*
Y037061D02*
Y037334D01*
X03962D02*
X039893D01*
Y035264D02*
Y035538D01*
D21*
X0375Y034761D02*
X037833Y035094D01*
X0375D02*
X037833Y034761D01*
X0375Y034927D02*
X037833D01*
X037667Y035094D02*
Y034761D01*
D124*
X033583Y03337D02*
Y033488D01*
X033386Y033173D02*
X033583Y03337D01*
X032835Y032937D02*
Y033055D01*
Y032937D02*
X032953D01*
X032717D02*
X032835D01*
Y032819D02*
Y032937D01*
Y033173D02*
X033346D01*
X032329Y033174D02*
X032841D01*
X033346Y033173D02*
X033386D01*
X032283Y033174D02*
X032329D01*
X032087Y03337D02*
X032283Y033174D01*
X032087Y03337D02*
Y033488D01*
X033583D02*
Y036417D01*
X032087Y033488D02*
Y036417D01*
X033583D01*
D161*
X027441Y03622D02*
Y036496D01*
X027303D01*
X027257Y03645D01*
Y036358D01*
X027303Y036312D01*
X027441D01*
X027165Y036496D02*
Y03622D01*
X027028D01*
X026982Y036266D01*
Y036312D01*
X027028Y036358D01*
X027165D01*
X027028D01*
X026982Y036404D01*
Y03645D01*
X027028Y036496D01*
X027165D01*
X02689D02*
X026706D01*
Y03645D01*
X02689Y036266D01*
Y03622D01*
X027441Y037244D02*
Y03752D01*
X027303D01*
X027257Y037474D01*
Y037382D01*
X027303Y037336D01*
X027441D01*
X027165Y03752D02*
Y037244D01*
X027028D01*
X026982Y03729D01*
Y037336D01*
X027028Y037382D01*
X027165D01*
X027028D01*
X026982Y037428D01*
Y037474D01*
X027028Y03752D01*
X027165D01*
X026706D02*
X026798Y037474D01*
X02689Y037382D01*
Y03729D01*
X026844Y037244D01*
X026752D01*
X026706Y03729D01*
Y037336D01*
X026752Y037382D01*
X02689D01*
X014291Y036024D02*
Y035748D01*
X0142Y03584D01*
X014108Y035748D01*
Y036024D01*
X014016D02*
X013924D01*
X01397D01*
Y035748D01*
X014016D01*
X013924D01*
X013603Y036024D02*
X013786D01*
Y035886D01*
X013694D01*
X013786D01*
Y035748D01*
X013511Y036024D02*
X013419D01*
X013465D01*
Y035748D01*
X013511D01*
X013419D01*
X022113Y039252D02*
X022323D01*
Y039094D01*
X022218Y039147D01*
X022165D01*
X022113Y039094D01*
Y038989D01*
X022165Y038937D01*
X02227D01*
X022323Y038989D01*
X022008Y039252D02*
Y039042D01*
X021903Y038937D01*
X021798Y039042D01*
Y039252D01*
X020945Y03918D02*
X020892Y039232D01*
X020787D01*
X020735Y03918D01*
Y039127D01*
X020787Y039075D01*
X02084D01*
X020787D01*
X020735Y039022D01*
Y03897D01*
X020787Y038917D01*
X020892D01*
X020945Y03897D01*
X02063Y039232D02*
Y039022D01*
X020525Y038917D01*
X02042Y039022D01*
Y039232D01*
X020315Y03918D02*
X020263Y039232D01*
X020158D01*
X020105Y03918D01*
Y039127D01*
X020158Y039075D01*
X02021D01*
X020158D01*
X020105Y039022D01*
Y03897D01*
X020158Y038917D01*
X020263D01*
X020315Y03897D01*
X018432Y039219D02*
X018484Y039272D01*
X018589D01*
X018642Y039219D01*
Y039009D01*
X018589Y038957D01*
X018484D01*
X018432Y039009D01*
Y039114D01*
X018537D01*
X018327Y038957D02*
Y039272D01*
X018117Y038957D01*
Y039272D01*
X018012D02*
Y038957D01*
X017855D01*
X017802Y039009D01*
Y039219D01*
X017855Y039272D01*
X018012D01*
X017087Y039252D02*
Y039042D01*
X016982Y038937D01*
X016877Y039042D01*
Y039252D01*
X016772D02*
X016667D01*
X016719D01*
Y038937D01*
X016772D01*
X016667D01*
X016509D02*
Y039252D01*
X016299Y038937D01*
Y039252D01*
M02*
