G04*
G04 #@! TF.GenerationSoftware,Altium Limited,Altium Designer,21.2.2 (38)*
G04*
G04 Layer_Color=32768*
%FSTAX24Y24*%
%MOIN*%
G70*
G04*
G04 #@! TF.SameCoordinates,D9C69337-02A0-443D-9D67-ED1C811D3BAA*
G04*
G04*
G04 #@! TF.FilePolarity,Positive*
G04*
G01*
G75*
%ADD10C,0.0100*%
%ADD11C,0.0079*%
%ADD12C,0.0157*%
%ADD13C,0.0197*%
%ADD14C,0.0276*%
%ADD16C,0.0039*%
D10*
X04126Y028622D02*
X041496D01*
Y028858D01*
Y028622D02*
X041732D01*
X041496Y028386D02*
Y028622D01*
X03539Y032624D02*
X043657D01*
Y040498D01*
X03539D02*
X043657D01*
X03539Y032624D02*
Y040498D01*
D11*
X01752Y028839D02*
X017913D01*
Y028445D02*
Y028839D01*
X018307D01*
X017913D02*
Y029232D01*
X010787Y020039D02*
X010984D01*
X010787D02*
Y020236D01*
X010591Y020039D02*
X010787D01*
Y019843D02*
Y020039D01*
X030157Y036862D02*
X030354D01*
X030236Y036783D02*
Y036941D01*
X013858Y037835D02*
Y038031D01*
X01378Y037953D02*
X013937D01*
X013858Y036575D02*
Y036772D01*
X01378Y036693D02*
X013937D01*
Y040118D02*
Y040315D01*
X01374Y040118D02*
X013937D01*
Y039921D02*
Y040118D01*
X014134D01*
X034528Y034902D02*
X034646D01*
X034528Y034783D02*
Y034902D01*
X034409D02*
X034528D01*
Y03502D01*
X03315Y037756D02*
X033346D01*
X03315D02*
Y037953D01*
X032953Y037756D02*
X03315D01*
Y037559D02*
Y037756D01*
X032835Y034803D02*
Y034921D01*
X032717Y034803D02*
X032835D01*
Y034685D02*
Y034803D01*
X032953D01*
X038858Y036181D02*
Y036299D01*
X03874D02*
X038858D01*
Y036417D01*
Y036299D02*
X038976D01*
X039567Y040433D02*
Y04063D01*
Y040827D01*
Y04063D02*
X039764D01*
X039363Y040624D02*
X03956D01*
X028957Y040374D02*
Y040571D01*
Y040768D01*
Y040571D02*
X029154D01*
X028753Y040565D02*
X02895D01*
X025118Y040709D02*
X025315D01*
X025118D02*
Y040906D01*
X024921Y040709D02*
X025118D01*
Y040512D02*
Y040709D01*
X041673Y010906D02*
Y011102D01*
Y010709D02*
Y010906D01*
X041476D02*
X041673D01*
X04168Y010911D02*
X041877D01*
X037862Y010902D02*
Y011098D01*
Y010902D02*
X038059D01*
X037862Y010705D02*
Y010902D01*
X037665D02*
X037862D01*
X034083Y010902D02*
Y011098D01*
Y010902D02*
X03428D01*
X034083Y010705D02*
Y010902D01*
X033886D02*
X034083D01*
X030303D02*
Y011098D01*
Y010902D02*
X0305D01*
X030303Y010705D02*
Y010902D01*
X030106D02*
X030303D01*
X026524D02*
Y011098D01*
Y010902D02*
X02672D01*
X026524Y010705D02*
Y010902D01*
X026327D02*
X026524D01*
X022421Y011024D02*
Y01122D01*
Y010827D02*
Y011024D01*
X022224D02*
X022421D01*
X022428Y01103D02*
X022625D01*
X018091Y011024D02*
Y01122D01*
Y010827D02*
Y011024D01*
X017894D02*
X018091D01*
X018097Y01103D02*
X018294D01*
X032874Y037756D02*
X033071D01*
Y037953D01*
Y037756D02*
X033268D01*
X033071Y037559D02*
Y037756D01*
X03313Y035945D02*
X033327D01*
X03313Y035748D02*
Y035945D01*
X032933D02*
X03313D01*
Y036142D01*
X033484Y032559D02*
X033642D01*
Y032717D01*
Y032559D02*
X033799D01*
X033642Y032402D02*
Y032559D01*
X027126Y034291D02*
X031299D01*
X027126Y032953D02*
Y034291D01*
X031299Y032953D02*
Y034291D01*
X027126Y031299D02*
X031299D01*
Y032953D01*
X027126Y031299D02*
Y032953D01*
X029213Y032402D02*
Y032795D01*
X028819D02*
X029213D01*
Y033189D01*
Y032795D02*
X029606D01*
X028189Y036752D02*
Y036909D01*
X028071Y036831D02*
X028268D01*
X028957Y040374D02*
Y040571D01*
Y040768D01*
X02876Y040571D02*
X028957D01*
X028964Y040565D02*
X02916D01*
X025086Y040703D02*
X025283D01*
X024882Y040709D02*
X025079D01*
Y040906D01*
Y040512D02*
Y040709D01*
X021142Y03408D02*
X021378D01*
X021142Y033844D02*
Y03408D01*
Y034316D01*
X020906Y03408D02*
X021142D01*
X017736Y032854D02*
X017894D01*
Y032697D02*
Y032854D01*
Y033012D01*
Y032854D02*
X018051D01*
X014409Y028843D02*
X014685D01*
X014409D02*
Y029118D01*
X014134Y028843D02*
X014409D01*
Y028567D02*
Y028843D01*
X024693Y024433D02*
Y024591D01*
Y024433D02*
X02485D01*
X024693Y024276D02*
Y024433D01*
X024535D02*
X024693D01*
X013858Y024213D02*
X014055D01*
Y024016D02*
Y024213D01*
X014252D01*
X014055D02*
Y024409D01*
X015157Y020394D02*
X015354D01*
X015157Y020197D02*
Y020394D01*
X014961D02*
X015157D01*
Y020591D01*
X015315Y014055D02*
X015512D01*
X015315Y013858D02*
Y014055D01*
X015118D02*
X015315D01*
Y014252D01*
Y016181D02*
X015512D01*
X015315Y015984D02*
Y016181D01*
X015118D02*
X015315D01*
Y016378D01*
Y018307D02*
Y018504D01*
X015118Y018307D02*
X015315D01*
Y01811D02*
Y018307D01*
X015512D01*
X020394Y020236D02*
X02063D01*
X020866D01*
X02063Y02D02*
Y020236D01*
Y020472D01*
X025929Y020472D02*
Y020906D01*
X025496Y020472D02*
X025929D01*
X025928Y020055D02*
Y020488D01*
Y020472D02*
X026361D01*
X026024Y017283D02*
Y01752D01*
Y017756D01*
X025787Y01752D02*
X026024D01*
X02626D01*
X030748Y023879D02*
Y024116D01*
X030512Y023879D02*
X030748D01*
Y023643D02*
Y023879D01*
X030984D01*
X033071Y027362D02*
Y02748D01*
X033189D01*
X033071D02*
Y027598D01*
X032953Y02748D02*
X033071D01*
X03626Y020512D02*
Y020748D01*
X036142Y02063D02*
X036378D01*
X034626D02*
X034862D01*
X034744Y020512D02*
Y020748D01*
X03626Y017382D02*
X036457D01*
X036378Y017303D02*
Y017461D01*
X040709Y016693D02*
Y017087D01*
X040315D02*
X040709D01*
Y01748D01*
Y017087D02*
X041102D01*
X036378Y015098D02*
Y015256D01*
X036299Y015177D02*
X036496D01*
X047567Y017972D02*
Y018169D01*
X047488Y018091D02*
X047646D01*
X047583Y015055D02*
Y015528D01*
X04711D02*
X047583D01*
Y016D01*
Y015528D02*
X048055D01*
X047575Y036512D02*
Y036984D01*
X047102D02*
X047575D01*
Y037457D01*
Y036984D02*
X048047D01*
X047583Y020173D02*
Y020646D01*
X04711D02*
X047583D01*
Y021118D01*
Y020646D02*
X048055D01*
X048386Y025354D02*
X048583D01*
X04878D01*
X048583D02*
Y025551D01*
X048577Y025151D02*
Y025347D01*
X048248Y029331D02*
X048445D01*
X048642D01*
X048445D02*
Y029528D01*
X048439Y029127D02*
Y029324D01*
X048583Y033012D02*
Y033209D01*
Y033012D02*
X04878D01*
X048583Y032815D02*
Y033012D01*
X048386D02*
X048583D01*
X045433Y040118D02*
X04563D01*
X045433Y039921D02*
Y040118D01*
X045236D02*
X045433D01*
Y040315D01*
Y011378D02*
Y011575D01*
X045236Y011378D02*
X045433D01*
Y011181D02*
Y011378D01*
X04563D01*
X041673Y010906D02*
Y011102D01*
Y010709D02*
Y010906D01*
X04187D01*
X041469Y010911D02*
X041666D01*
X037654Y010907D02*
X037851D01*
X037858Y010902D02*
X038055D01*
X037858Y010705D02*
Y010902D01*
Y011098D01*
X033875Y010907D02*
X034072D01*
X034079Y010902D02*
X034276D01*
X034079Y010705D02*
Y010902D01*
Y011098D01*
X030095Y010907D02*
X030292D01*
X030299Y010902D02*
X030496D01*
X030299Y010705D02*
Y010902D01*
Y011098D01*
X026316Y010907D02*
X026513D01*
X02652Y010902D02*
X026717D01*
X02652Y010705D02*
Y010902D01*
Y011098D01*
X022445Y011039D02*
Y011236D01*
Y010843D02*
Y011039D01*
X022642D01*
X022241Y011045D02*
X022438D01*
X018075Y010886D02*
Y011083D01*
Y010689D02*
Y010886D01*
X018272D01*
X017871Y010892D02*
X018068D01*
X013937Y011378D02*
Y011575D01*
X01374Y011378D02*
X013937D01*
Y011181D02*
Y011378D01*
X014134D01*
X010787Y015965D02*
X010984D01*
X010591D02*
X010787D01*
Y015768D02*
Y015965D01*
X010793Y015972D02*
Y016168D01*
X010807Y02376D02*
X011004D01*
X010807D02*
Y023957D01*
X01061Y02376D02*
X010807D01*
Y023563D02*
Y02376D01*
X010813Y027842D02*
Y028038D01*
X010807Y027638D02*
Y027835D01*
X01061D02*
X010807D01*
X011004D01*
X010807Y031909D02*
X011004D01*
X010807D02*
Y032106D01*
X01061Y031909D02*
X010807D01*
Y031713D02*
Y031909D01*
X01689Y036176D02*
Y036412D01*
X016884Y036176D02*
X017121D01*
X01689Y035945D02*
Y036181D01*
X016654D02*
X01689D01*
X021297Y03815D02*
Y038346D01*
X021494D01*
X021297D02*
Y038543D01*
X0211Y038346D02*
X021297D01*
X022205Y028509D02*
Y028745D01*
X021974D02*
X02221D01*
X022205Y02874D02*
Y028976D01*
Y02874D02*
X022441D01*
X014084Y033697D02*
Y033894D01*
Y033699D02*
X014281D01*
X014086Y033507D02*
Y033704D01*
X013898Y033701D02*
X014094D01*
X024803Y029091D02*
X025039D01*
X024921Y028972D02*
Y029209D01*
X019843Y015925D02*
Y016161D01*
X019724Y016043D02*
X019961D01*
X041707Y023933D02*
Y024091D01*
X041864D01*
X041707D02*
Y024248D01*
X041549Y024091D02*
X041707D01*
X017435Y03815D02*
Y038346D01*
X017632D01*
X017435D02*
Y038543D01*
X017238Y038346D02*
X017435D01*
X048386Y033031D02*
X048583D01*
Y033228D01*
Y033031D02*
X04878D01*
X048583Y032835D02*
Y033031D01*
D12*
X045209Y022321D02*
G03*
X045209Y022321I-000748J0D01*
G01*
X039209D02*
G03*
X039209Y022321I-000748J0D01*
G01*
Y030821D02*
G03*
X039209Y030821I-000748J0D01*
G01*
X045209D02*
G03*
X045209Y030821I-000748J0D01*
G01*
D13*
X045461D02*
G03*
X044461Y031821I-001J0D01*
G01*
Y021321D02*
G03*
X045461Y022321I0J001D01*
G01*
X037461D02*
G03*
X038461Y021321I001J0D01*
G01*
Y031821D02*
G03*
X037461Y030821I0J-001D01*
G01*
X045461Y022321D02*
Y026571D01*
Y030821D01*
X037461Y022321D02*
Y026571D01*
Y030821D01*
X038461Y021321D02*
X041461D01*
X044461D01*
X038461Y031821D02*
X041461D01*
X044461D01*
X041461Y026571D02*
X042248D01*
X041461D02*
Y027358D01*
X040673Y026571D02*
X041461D01*
Y025783D02*
Y026571D01*
X039427Y036561D02*
Y037348D01*
Y036561D02*
X040215D01*
X039427Y035774D02*
Y036561D01*
X03864D02*
X039427D01*
D14*
X030886Y033819D02*
G03*
X030886Y033819I-000059J0D01*
G01*
D16*
X026795Y021832D02*
X027032D01*
X026913Y021714D02*
Y02195D01*
X011063Y035394D02*
X011378D01*
X01122Y035236D02*
Y035551D01*
X03315Y040016D02*
Y040213D01*
X033346D01*
X03315D02*
Y040409D01*
X032953Y040213D02*
X03315D01*
X041732Y035512D02*
Y035591D01*
X041654D02*
X041732D01*
Y035669D01*
X041734Y035593D02*
X041813D01*
X037283Y039035D02*
Y039154D01*
X037224Y039094D02*
X037343D01*
X036161Y039567D02*
X03628D01*
X03622Y039508D02*
Y039626D01*
X036122Y038622D02*
X03624D01*
X036181Y038563D02*
Y038681D01*
X036122Y037756D02*
X03624D01*
X036181Y037697D02*
Y037815D01*
X036181Y036181D02*
Y036417D01*
X036063Y036299D02*
X036299D01*
X036122Y034843D02*
X03624D01*
X036181Y034783D02*
Y034902D01*
X036181Y035472D02*
Y035709D01*
X036063Y035591D02*
X036299D01*
X041772Y038386D02*
Y038622D01*
X041654Y038504D02*
X04189D01*
X041831Y033878D02*
X042067D01*
X041949Y03376D02*
Y033996D01*
X041083Y033858D02*
X041319D01*
X041201Y03374D02*
Y033976D01*
X040315Y033858D02*
X040551D01*
X040433Y03374D02*
Y033976D01*
X039508Y033858D02*
X039744D01*
X039626Y03374D02*
Y033976D01*
X038346Y033878D02*
X038425D01*
Y033957D01*
Y033878D02*
X038504D01*
X038427Y033798D02*
Y033876D01*
X013917Y040157D02*
X014035D01*
X013976Y040098D02*
Y040217D01*
X021102Y03372D02*
Y034114D01*
X020906Y033917D02*
X021299D01*
X017874Y032776D02*
Y033091D01*
X017717Y032933D02*
X018032D01*
X029193Y032736D02*
Y032854D01*
X029134Y032795D02*
X029252D01*
X027736Y032815D02*
X028051D01*
X027894Y032657D02*
Y032972D01*
X023327Y031732D02*
X023642D01*
X023484Y031575D02*
Y03189D01*
X021181Y029449D02*
Y029528D01*
Y029449D02*
X02126D01*
X021181Y02937D02*
Y029449D01*
X021102D02*
X021181D01*
X019803Y02939D02*
Y029508D01*
X019744Y029449D02*
X019862D01*
X022795Y028839D02*
Y028957D01*
X022736Y028898D02*
X022854D01*
X020728Y027835D02*
X020846D01*
X020787Y027776D02*
Y027894D01*
X015512Y021594D02*
Y021713D01*
X015453Y021654D02*
X015571D01*
X015551Y020394D02*
X01563D01*
X015551D02*
Y020472D01*
X015472Y020394D02*
X015551D01*
Y020315D02*
Y020394D01*
X021713Y018504D02*
X021831D01*
X021772Y018445D02*
Y018563D01*
X031142Y024332D02*
Y02445D01*
X031083Y024391D02*
X031201D01*
X032106Y024549D02*
X032224D01*
X032165Y02449D02*
Y024608D01*
X032106Y023171D02*
X032224D01*
X032165Y023112D02*
Y02323D01*
X031142Y023505D02*
Y023623D01*
X031083Y023564D02*
X031201D01*
X031142Y025139D02*
Y025257D01*
X031083Y025198D02*
X031201D01*
X031142Y022639D02*
Y022757D01*
X031083Y022698D02*
X031201D01*
X029764Y022639D02*
Y022757D01*
X029705Y022698D02*
X029823D01*
X026913Y02382D02*
Y023938D01*
X026854Y023879D02*
X026972D01*
X042205Y017028D02*
Y017146D01*
X042146Y017087D02*
X042264D01*
X040354Y017028D02*
Y017146D01*
X040295Y017087D02*
X040413D01*
X041339Y017028D02*
Y017146D01*
X04128Y017087D02*
X041398D01*
X034961Y01626D02*
Y016378D01*
X034902Y016319D02*
X03502D01*
X045413Y011417D02*
X045532D01*
X045472Y011358D02*
Y011476D01*
X01811Y02002D02*
Y020098D01*
X018189D01*
X01811D02*
Y020177D01*
X01803Y020101D02*
X018109D01*
X015039Y031457D02*
X015276D01*
X015157Y031339D02*
Y031575D01*
X025197Y032677D02*
X025591D01*
X025394Y03248D02*
Y032874D01*
X025315Y03622D02*
X025709D01*
X025512Y036024D02*
Y036417D01*
X018937Y024217D02*
X019173D01*
Y024453D01*
Y024217D02*
X019409D01*
X019173Y02398D02*
Y024217D01*
X01813Y019134D02*
X018248D01*
X018189Y019075D02*
Y019193D01*
X018071Y021378D02*
X018307D01*
X018189Y02126D02*
Y021496D01*
X023701Y016811D02*
Y017047D01*
X023583Y016929D02*
X023819D01*
X023701Y018346D02*
Y018583D01*
X023583Y018465D02*
X023819D01*
X028189Y018268D02*
Y018504D01*
X028071Y018386D02*
X028307D01*
X028189Y016693D02*
Y016929D01*
X028071Y016811D02*
X028307D01*
X027126Y015157D02*
Y015472D01*
X026969Y015315D02*
X027283D01*
X024843Y015157D02*
Y015472D01*
X024685Y015315D02*
X025D01*
X026795Y02262D02*
X027032D01*
X026913Y022501D02*
Y022738D01*
Y023289D02*
Y023525D01*
X026795Y023407D02*
X027032D01*
X026913Y024116D02*
Y024431D01*
X026756Y024273D02*
X027071D01*
X026795Y025139D02*
X027032D01*
X026913Y025021D02*
Y025257D01*
X026795Y026005D02*
X027032D01*
X026913Y025887D02*
Y026123D01*
X02698Y02726D02*
Y027339D01*
X026902Y02726D02*
X02698D01*
Y027181D02*
Y02726D01*
X026982Y027258D02*
X027061D01*
X029232Y02752D02*
X029547D01*
X02939Y027362D02*
Y027677D01*
X030551Y027362D02*
Y027598D01*
X030433Y02748D02*
X030669D01*
X03565Y027657D02*
X035886D01*
X035768Y027539D02*
Y027776D01*
X035571Y022913D02*
X035807D01*
X035689Y022795D02*
Y023031D01*
X033228Y019882D02*
X033465D01*
X033346Y019764D02*
Y02D01*
X032009Y019919D02*
X032088D01*
X032008Y019843D02*
Y019921D01*
X031929D02*
X032008D01*
Y02D01*
X044843Y019331D02*
X045157D01*
X045Y019173D02*
Y019488D01*
X044961Y015354D02*
Y015591D01*
X044843Y015472D02*
X045079D01*
X04498Y016693D02*
X045059D01*
X04498Y016614D02*
Y016693D01*
X044902D02*
X04498D01*
Y016772D01*
X044882Y018425D02*
X045118D01*
X045Y018307D02*
Y018543D01*
X046083Y014028D02*
Y017039D01*
Y014028D02*
X049094D01*
Y017039D01*
X046083D02*
X049094D01*
X046075Y035484D02*
Y038496D01*
Y035484D02*
X049087D01*
Y038496D01*
X046075D02*
X049087D01*
X046083Y019146D02*
Y022157D01*
Y019146D02*
X049094D01*
Y022157D01*
X046083D02*
X049094D01*
X044921Y032756D02*
X045157D01*
X045039Y032638D02*
Y032874D01*
X044882Y034016D02*
X045197D01*
X045039Y033858D02*
Y034173D01*
X044882Y035354D02*
X045197D01*
X045039Y035197D02*
Y035512D01*
Y037874D02*
Y038189D01*
X044882Y038031D02*
X045197D01*
X045039Y036535D02*
Y03685D01*
X044882Y036693D02*
X045197D01*
X015945Y033858D02*
X01626D01*
X016102Y033701D02*
Y034016D01*
X015945Y032854D02*
X01626D01*
X016102Y032697D02*
Y033012D01*
X011063Y037264D02*
X011378D01*
X01122Y037106D02*
Y037421D01*
X030197Y019902D02*
X030433D01*
X030315Y019783D02*
Y02002D01*
X028386Y027265D02*
Y027501D01*
X028268Y027383D02*
X028504D01*
X030827Y032776D02*
X031063D01*
X030945Y032657D02*
Y032894D01*
X030079Y032657D02*
Y032894D01*
X029961Y032776D02*
X030197D01*
X017323Y034094D02*
Y034409D01*
X017165Y034252D02*
X01748D01*
X018425Y034094D02*
Y034409D01*
X018268Y034252D02*
X018583D01*
X03939Y017087D02*
X039508D01*
X039449Y017028D02*
Y017146D01*
X045472Y040059D02*
Y040177D01*
X045413Y040118D02*
X045532D01*
X025728Y032795D02*
X025846D01*
X025787Y032736D02*
Y032854D01*
X024862Y032795D02*
X02498D01*
X024921Y032736D02*
Y032854D01*
X013898Y01128D02*
Y011398D01*
X013839Y011339D02*
X013957D01*
X015453Y019094D02*
X015571D01*
X015512Y019035D02*
Y019154D01*
X022677Y018346D02*
Y018661D01*
X02252Y018504D02*
X022835D01*
X03628Y033583D02*
Y033898D01*
X036122Y03374D02*
X036437D01*
X041654Y037677D02*
X04189D01*
X041772Y037559D02*
Y037795D01*
X041614Y036811D02*
X04185D01*
X041732Y036693D02*
Y036929D01*
X036063Y037008D02*
X036299D01*
X036181Y03689D02*
Y037126D01*
X026854Y024824D02*
X026972D01*
X026913Y024765D02*
Y024883D01*
X029705Y023564D02*
X029823D01*
X029764Y023505D02*
Y023623D01*
X029705Y025198D02*
X029823D01*
X029764Y025139D02*
Y025257D01*
X026854Y023013D02*
X026972D01*
X026913Y022954D02*
Y023072D01*
X029705Y024391D02*
X029823D01*
X029764Y024332D02*
Y02445D01*
M02*
