G04*
G04 #@! TF.GenerationSoftware,Altium Limited,Altium Designer,21.2.2 (38)*
G04*
G04 Layer_Color=8388736*
%FSTAX24Y24*%
%MOIN*%
G70*
G04*
G04 #@! TF.SameCoordinates,D9C69337-02A0-443D-9D67-ED1C811D3BAA*
G04*
G04*
G04 #@! TF.FilePolarity,Negative*
G04*
G01*
G75*
%ADD63R,0.0336X0.0415*%
%ADD64R,0.0867X0.1340*%
%ADD65R,0.1222X0.0356*%
%ADD66R,0.0867X0.0513*%
%ADD67R,0.0651X0.0474*%
%ADD68R,0.0671X0.0474*%
%ADD69R,0.0828X0.0828*%
%ADD70R,0.0218X0.0611*%
%ADD71R,0.0316X0.0356*%
%ADD72R,0.2049X0.2049*%
%ADD73R,0.0434X0.0867*%
%ADD74R,0.0867X0.0434*%
%ADD75R,0.1064X0.0552*%
%ADD76R,0.0379X0.0580*%
%ADD77O,0.0395X0.0789*%
%ADD78R,0.0513X0.0867*%
%ADD79R,0.0356X0.1222*%
%ADD80R,0.3320X0.2792*%
%ADD81R,0.0461X0.0890*%
%ADD82R,0.1415X0.0852*%
%ADD83R,0.0867X0.2245*%
%ADD84R,0.1458X0.0867*%
%ADD85R,0.0474X0.0867*%
%ADD86R,0.0867X0.0474*%
%ADD87R,0.0867X0.1458*%
%ADD88R,0.1182X0.0946*%
%ADD89R,0.0946X0.1182*%
%ADD90R,0.0454X0.0474*%
%ADD91O,0.0710X0.0297*%
%ADD92R,0.0710X0.0297*%
%ADD93R,0.0415X0.0336*%
%ADD94R,0.0474X0.0651*%
%ADD95R,0.0611X0.0198*%
%ADD96R,0.0198X0.0611*%
%ADD97R,0.0619X0.0718*%
%ADD98R,0.0680X0.0290*%
%ADD99R,0.0290X0.0750*%
%ADD100R,0.0631X0.0946*%
%ADD101R,0.0336X0.0497*%
%ADD102R,0.0474X0.1104*%
%ADD103R,0.1379X0.0867*%
%ADD104R,0.0631X0.0631*%
%ADD105C,0.0631*%
%ADD106R,0.0730X0.0730*%
%ADD107C,0.0730*%
%ADD108R,0.0730X0.0730*%
%ADD109C,0.0237*%
%ADD110C,0.1655*%
%ADD111C,0.0671*%
%ADD112O,0.0730X0.0980*%
%ADD113R,0.0730X0.0980*%
%ADD114C,0.0474*%
%ADD115C,0.0710*%
%ADD116O,0.1340X0.1379*%
%ADD117C,0.1340*%
%ADD118R,0.0710X0.0710*%
%ADD119C,0.0907*%
%ADD120C,0.0277*%
%ADD121C,0.2049*%
G36*
X019626Y037577D02*
X018996D01*
Y036785D01*
X019626D01*
Y037577D01*
D02*
G37*
G36*
X023288D02*
X022697D01*
Y036785D01*
X023288D01*
Y037577D01*
D02*
G37*
D63*
X027228Y021832D02*
D03*
X026598D02*
D03*
X014843Y031457D02*
D03*
X015472D02*
D03*
X018504Y021378D02*
D03*
X017874D02*
D03*
X027228Y02262D02*
D03*
X026598D02*
D03*
Y023407D02*
D03*
X027228D02*
D03*
Y025139D02*
D03*
X026598D02*
D03*
X027228Y026005D02*
D03*
X026598D02*
D03*
X036083Y027657D02*
D03*
X035453D02*
D03*
X036004Y022913D02*
D03*
X035374D02*
D03*
X045276Y015472D02*
D03*
X044646D02*
D03*
X044685Y018425D02*
D03*
X045315D02*
D03*
X045354Y032756D02*
D03*
X044724D02*
D03*
X03Y019902D02*
D03*
X03063D02*
D03*
D64*
X019744Y028839D02*
D03*
X016083D02*
D03*
D65*
X012244Y019744D02*
D03*
Y020335D02*
D03*
X047126Y024764D02*
D03*
Y025354D02*
D03*
X047126Y025945D02*
D03*
Y030217D02*
D03*
X047126Y028445D02*
D03*
Y029035D02*
D03*
X047126Y029626D02*
D03*
X047126Y032717D02*
D03*
Y033307D02*
D03*
X012244Y016555D02*
D03*
Y015965D02*
D03*
X012244Y015374D02*
D03*
X012264Y023465D02*
D03*
Y024055D02*
D03*
Y027244D02*
D03*
X012264Y027835D02*
D03*
Y028425D02*
D03*
Y031614D02*
D03*
Y032205D02*
D03*
D66*
X010787Y018937D02*
D03*
Y021142D02*
D03*
X048583Y023957D02*
D03*
Y026752D02*
D03*
Y031024D02*
D03*
Y027638D02*
D03*
Y031909D02*
D03*
Y034114D02*
D03*
X010787Y017362D02*
D03*
Y014567D02*
D03*
X010807Y022657D02*
D03*
Y024862D02*
D03*
X010807Y026437D02*
D03*
Y029232D02*
D03*
Y030807D02*
D03*
Y033012D02*
D03*
D67*
X01122Y035768D02*
D03*
Y03502D02*
D03*
X027126Y015689D02*
D03*
Y014941D02*
D03*
X024843D02*
D03*
Y015689D02*
D03*
X02939Y027894D02*
D03*
Y027146D02*
D03*
X01122Y037638D02*
D03*
Y03689D02*
D03*
D68*
X012972Y040768D02*
D03*
X014902D02*
D03*
X012972Y039469D02*
D03*
X014902D02*
D03*
X046398D02*
D03*
X044468D02*
D03*
X046398Y040768D02*
D03*
X044468D02*
D03*
Y012028D02*
D03*
X046398D02*
D03*
X044468Y010728D02*
D03*
X046398D02*
D03*
X012972Y012028D02*
D03*
X014902D02*
D03*
X012972Y010728D02*
D03*
X014902D02*
D03*
D69*
X031594Y040213D02*
D03*
X034705D02*
D03*
D70*
X033661Y039159D02*
D03*
X033406D02*
D03*
X03315D02*
D03*
X032894D02*
D03*
X032638D02*
D03*
D71*
X01811Y019705D02*
D03*
X017736Y020492D02*
D03*
X018484D02*
D03*
X02698Y027654D02*
D03*
X027354Y026866D02*
D03*
X026606D02*
D03*
X031634Y019528D02*
D03*
X032382D02*
D03*
X032008Y020315D02*
D03*
D72*
X038736Y036167D02*
D03*
D73*
X042677Y033215D02*
D03*
X042177D02*
D03*
X041677D02*
D03*
X041177D02*
D03*
X040677D02*
D03*
X040177D02*
D03*
X039677D02*
D03*
X039177D02*
D03*
X038677D02*
D03*
X038177D02*
D03*
X037677D02*
D03*
X037177D02*
D03*
X036677D02*
D03*
X036177D02*
D03*
X042677Y039907D02*
D03*
X042177D02*
D03*
X041677D02*
D03*
X041177D02*
D03*
X040677D02*
D03*
X040177D02*
D03*
X039677D02*
D03*
X039177D02*
D03*
X038677D02*
D03*
X038177D02*
D03*
X037677D02*
D03*
X037177D02*
D03*
X036677D02*
D03*
X036177D02*
D03*
D74*
X043071Y034311D02*
D03*
Y034811D02*
D03*
Y035311D02*
D03*
Y035811D02*
D03*
Y036311D02*
D03*
Y036811D02*
D03*
Y037311D02*
D03*
Y037811D02*
D03*
Y038311D02*
D03*
Y038811D02*
D03*
D75*
X031594Y037756D02*
D03*
X034547D02*
D03*
X034606Y035945D02*
D03*
X031654D02*
D03*
X016791Y014055D02*
D03*
X013839D02*
D03*
X016791Y016181D02*
D03*
X013839D02*
D03*
Y018307D02*
D03*
X016791D02*
D03*
D76*
X033892Y031059D02*
D03*
Y034059D02*
D03*
X034392Y031059D02*
D03*
Y034059D02*
D03*
X033392Y031059D02*
D03*
Y034059D02*
D03*
X032892Y031059D02*
D03*
Y034059D02*
D03*
X040957Y025591D02*
D03*
Y022591D02*
D03*
X041457Y025591D02*
D03*
Y022591D02*
D03*
X042457Y025591D02*
D03*
Y022591D02*
D03*
X041957Y025591D02*
D03*
Y022591D02*
D03*
D77*
X027463Y030827D02*
D03*
X027963D02*
D03*
X028463D02*
D03*
X028963D02*
D03*
X029463D02*
D03*
X029963D02*
D03*
X030463D02*
D03*
X030963D02*
D03*
X027463Y034764D02*
D03*
X027963D02*
D03*
X028463D02*
D03*
X028963D02*
D03*
X029463D02*
D03*
X029963D02*
D03*
X030463D02*
D03*
X030963D02*
D03*
D78*
X027264Y040709D02*
D03*
X03065D02*
D03*
X023681D02*
D03*
X026476D02*
D03*
X040276Y010906D02*
D03*
X043071D02*
D03*
X039256Y010902D02*
D03*
X036461D02*
D03*
X035476D02*
D03*
X032681D02*
D03*
X031697D02*
D03*
X028902D02*
D03*
X027917D02*
D03*
X025122D02*
D03*
X024138D02*
D03*
X020752D02*
D03*
X016677Y010886D02*
D03*
X019472D02*
D03*
D79*
X028071Y039252D02*
D03*
X029843Y039252D02*
D03*
X029252D02*
D03*
X028661Y039252D02*
D03*
X024488D02*
D03*
X025079Y039252D02*
D03*
X025669D02*
D03*
X041083Y012362D02*
D03*
X041673D02*
D03*
X042264Y012362D02*
D03*
X038449Y012358D02*
D03*
X037858Y012358D02*
D03*
X037268D02*
D03*
X034669Y012358D02*
D03*
X034079Y012358D02*
D03*
X033488D02*
D03*
X03089Y012358D02*
D03*
X030299Y012358D02*
D03*
X029709D02*
D03*
X02711Y012358D02*
D03*
X02652Y012358D02*
D03*
X025929D02*
D03*
X023331Y012358D02*
D03*
X021559Y012358D02*
D03*
X02215D02*
D03*
X02274Y012358D02*
D03*
X017484Y012343D02*
D03*
X018075D02*
D03*
X018665Y012343D02*
D03*
D80*
X021142Y036181D02*
D03*
D81*
X02248Y031978D02*
D03*
X021811D02*
D03*
X021144D02*
D03*
X020472D02*
D03*
X019803D02*
D03*
D82*
X017894Y03376D02*
D03*
Y031949D02*
D03*
D83*
X024693Y022957D02*
D03*
Y025909D02*
D03*
D84*
X025394Y031614D02*
D03*
D85*
X024488Y033937D02*
D03*
X025394D02*
D03*
X026299D02*
D03*
D86*
X024252Y037126D02*
D03*
Y03622D02*
D03*
Y035315D02*
D03*
D87*
X026575Y03622D02*
D03*
D88*
X014055Y025118D02*
D03*
Y023307D02*
D03*
D89*
X014252Y020394D02*
D03*
X016063D02*
D03*
D90*
X018504Y019134D02*
D03*
X017874D02*
D03*
D91*
X02176Y019482D02*
D03*
Y019982D02*
D03*
Y020482D02*
D03*
Y020982D02*
D03*
X01955Y019982D02*
D03*
Y020482D02*
D03*
Y019482D02*
D03*
X027104Y018274D02*
D03*
Y017274D02*
D03*
Y017774D02*
D03*
X024894Y016774D02*
D03*
Y017274D02*
D03*
Y017774D02*
D03*
Y018274D02*
D03*
D92*
X01955Y020982D02*
D03*
X027104Y016774D02*
D03*
D93*
X023701Y016614D02*
D03*
Y017244D02*
D03*
X023701Y01878D02*
D03*
Y01815D02*
D03*
X028189Y018071D02*
D03*
Y018701D02*
D03*
X028189Y017126D02*
D03*
Y016496D02*
D03*
X030551Y027165D02*
D03*
Y027795D02*
D03*
X033346Y019567D02*
D03*
Y020197D02*
D03*
X028386Y027068D02*
D03*
Y027698D02*
D03*
D94*
X026539Y024273D02*
D03*
X027287D02*
D03*
X044626Y019331D02*
D03*
X045374D02*
D03*
X045413Y034016D02*
D03*
X044665D02*
D03*
X045413Y035354D02*
D03*
X044665D02*
D03*
Y038031D02*
D03*
X045413D02*
D03*
X044665Y036693D02*
D03*
X045413D02*
D03*
X015728Y033858D02*
D03*
X016476D02*
D03*
X015728Y032854D02*
D03*
X016476D02*
D03*
D95*
X028504Y024962D02*
D03*
Y023978D02*
D03*
Y023781D02*
D03*
Y023584D02*
D03*
Y023387D02*
D03*
Y02319D02*
D03*
Y022994D02*
D03*
Y022797D02*
D03*
Y024175D02*
D03*
Y024371D02*
D03*
Y024568D02*
D03*
Y024765D02*
D03*
Y025356D02*
D03*
Y025159D02*
D03*
Y0226D02*
D03*
Y022403D02*
D03*
X032992Y023978D02*
D03*
Y023781D02*
D03*
Y022797D02*
D03*
Y022994D02*
D03*
Y02319D02*
D03*
Y023387D02*
D03*
Y023584D02*
D03*
Y024175D02*
D03*
Y024371D02*
D03*
Y024568D02*
D03*
Y024765D02*
D03*
Y024962D02*
D03*
Y025159D02*
D03*
Y025356D02*
D03*
Y0226D02*
D03*
Y022403D02*
D03*
D96*
X030846Y026123D02*
D03*
X03065D02*
D03*
X029272D02*
D03*
X029469D02*
D03*
X029665D02*
D03*
X029862D02*
D03*
X030059D02*
D03*
X031043D02*
D03*
X03124D02*
D03*
X031437D02*
D03*
X031634D02*
D03*
X031831D02*
D03*
X030256D02*
D03*
X032224D02*
D03*
X032028D02*
D03*
X030453D02*
D03*
Y021635D02*
D03*
X03124D02*
D03*
X031437D02*
D03*
X031634D02*
D03*
X031831D02*
D03*
X032028D02*
D03*
X032224D02*
D03*
X03065D02*
D03*
X030256D02*
D03*
X030059D02*
D03*
X029862D02*
D03*
X029665D02*
D03*
X029469D02*
D03*
X030846D02*
D03*
X031043D02*
D03*
X029272D02*
D03*
D97*
X032341Y02748D02*
D03*
X033801D02*
D03*
D98*
X034744Y023724D02*
D03*
Y024224D02*
D03*
Y024724D02*
D03*
Y025224D02*
D03*
Y025724D02*
D03*
Y026224D02*
D03*
X036744Y026724D02*
D03*
Y026224D02*
D03*
Y025724D02*
D03*
Y025224D02*
D03*
Y024724D02*
D03*
Y024224D02*
D03*
Y023724D02*
D03*
X034744Y026724D02*
D03*
D99*
X034965Y018032D02*
D03*
X034465D02*
D03*
X033965D02*
D03*
X033465D02*
D03*
X032965D02*
D03*
X032465D02*
D03*
X031965D02*
D03*
X031465D02*
D03*
X030965D02*
D03*
X030465D02*
D03*
Y014272D02*
D03*
X030965D02*
D03*
X031465D02*
D03*
X031965D02*
D03*
X032465D02*
D03*
X032965D02*
D03*
X033465D02*
D03*
X033965D02*
D03*
X034465D02*
D03*
X034965D02*
D03*
D100*
X042677Y020236D02*
D03*
X043465D02*
D03*
X04189D02*
D03*
X041102D02*
D03*
X040315D02*
D03*
X039528D02*
D03*
X03874D02*
D03*
X037953D02*
D03*
X04258Y013998D02*
D03*
X043367D02*
D03*
X041793D02*
D03*
X041005D02*
D03*
X040218D02*
D03*
X03943D02*
D03*
X038643D02*
D03*
X037856D02*
D03*
D101*
X044606Y017126D02*
D03*
Y01626D02*
D03*
X04498D02*
D03*
X045354Y017126D02*
D03*
Y01626D02*
D03*
D102*
X01689Y035276D02*
D03*
Y037087D02*
D03*
X022205Y029646D02*
D03*
Y027835D02*
D03*
D103*
X014094Y032736D02*
D03*
Y034665D02*
D03*
D104*
X042283Y028622D02*
D03*
D105*
X040709D02*
D03*
D106*
X030236Y037362D02*
D03*
X028189Y036331D02*
D03*
X036378Y016882D02*
D03*
Y015677D02*
D03*
D107*
X030236Y036362D02*
D03*
X013358Y037953D02*
D03*
Y036693D02*
D03*
X028189Y037331D02*
D03*
X036378Y017882D02*
D03*
Y014677D02*
D03*
X047067Y018091D02*
D03*
D108*
X014358Y037953D02*
D03*
Y036693D02*
D03*
X048067Y018091D02*
D03*
D109*
X033937Y039366D02*
D03*
X032362D02*
D03*
D110*
X044461Y030821D02*
D03*
X038461D02*
D03*
X044461Y022321D02*
D03*
X038461D02*
D03*
D111*
X037961Y029071D02*
D03*
Y024071D02*
D03*
Y025071D02*
D03*
Y026071D02*
D03*
Y027071D02*
D03*
Y028071D02*
D03*
X044961Y025071D02*
D03*
Y026071D02*
D03*
Y027071D02*
D03*
Y028071D02*
D03*
X027929Y020472D02*
D03*
X023929D02*
D03*
X024929D02*
D03*
X026929D02*
D03*
X025929D02*
D03*
D112*
X034016Y029488D02*
D03*
X032016D02*
D03*
X030016D02*
D03*
X029016D02*
D03*
X028016D02*
D03*
X031016D02*
D03*
X033016D02*
D03*
X035016D02*
D03*
X036016D02*
D03*
D113*
X027016D02*
D03*
D114*
X014409Y029843D02*
D03*
Y028843D02*
D03*
Y027843D02*
D03*
D115*
X022673Y025717D02*
D03*
X016673Y022717D02*
D03*
X015673Y025717D02*
D03*
X018673D02*
D03*
X022673Y022717D02*
D03*
X03626Y02063D02*
D03*
Y02163D02*
D03*
X034744D02*
D03*
Y02063D02*
D03*
X020547Y038346D02*
D03*
X022047D02*
D03*
X024921Y030091D02*
D03*
Y029091D02*
D03*
X019843Y016043D02*
D03*
Y015043D02*
D03*
X016685Y038346D02*
D03*
X018185D02*
D03*
D116*
X028606Y014606D02*
D03*
D117*
X023252D02*
D03*
D118*
X03626Y01963D02*
D03*
X034744D02*
D03*
X024921Y028091D02*
D03*
X019843Y017043D02*
D03*
D119*
X047583Y015528D02*
D03*
X046583Y016528D02*
D03*
Y014528D02*
D03*
X048583D02*
D03*
Y016528D02*
D03*
X047575Y036984D02*
D03*
X046575Y037984D02*
D03*
Y035984D02*
D03*
X048575D02*
D03*
Y037984D02*
D03*
X047583Y020646D02*
D03*
X046583Y021646D02*
D03*
Y019646D02*
D03*
X048583D02*
D03*
Y021646D02*
D03*
D120*
X048524Y011909D02*
D03*
X047461D02*
D03*
Y010846D02*
D03*
X048524D02*
D03*
X04874Y011378D02*
D03*
X047244D02*
D03*
X047992Y01063D02*
D03*
Y012126D02*
D03*
X048524Y04065D02*
D03*
X047461D02*
D03*
Y039587D02*
D03*
X048524D02*
D03*
X04874Y040118D02*
D03*
X047244D02*
D03*
X047992Y03937D02*
D03*
Y040866D02*
D03*
X011378Y012126D02*
D03*
Y01063D02*
D03*
X01063Y011378D02*
D03*
X012126D02*
D03*
X011909Y010846D02*
D03*
X010846D02*
D03*
Y011909D02*
D03*
X011909D02*
D03*
Y04065D02*
D03*
X010846D02*
D03*
Y039587D02*
D03*
X011909D02*
D03*
X012126Y040118D02*
D03*
X01063D02*
D03*
X011378Y03937D02*
D03*
Y040866D02*
D03*
D121*
X047992Y011378D02*
D03*
Y040118D02*
D03*
X011378Y011378D02*
D03*
Y040118D02*
D03*
M02*
