G04*
G04 #@! TF.GenerationSoftware,Altium Limited,Altium Designer,21.2.2 (38)*
G04*
G04 Layer_Color=2752767*
%FSTAX24Y24*%
%MOIN*%
G70*
G04*
G04 #@! TF.SameCoordinates,D9C69337-02A0-443D-9D67-ED1C811D3BAA*
G04*
G04*
G04 #@! TF.FilePolarity,Positive*
G04*
G01*
G75*
%ADD162C,0.0020*%
%ADD163C,0.0027*%
%ADD164C,0.0013*%
D162*
X042203Y028542D02*
Y028702D01*
X042363D01*
Y028542D01*
X042203D01*
X040629D02*
Y028702D01*
X040789D01*
Y028542D01*
X040629D01*
X033937Y039286D02*
X033857Y039446D01*
X034017D01*
X033937Y039286D01*
X032362D02*
X032282Y039446D01*
X032442D01*
X032362Y039286D01*
X044461Y030741D02*
X044501Y030781D01*
X044541D01*
X044501Y030821D01*
X044541Y030861D01*
X044501D01*
X044461Y030901D01*
X044421Y030861D01*
X044381D01*
X044421Y030821D01*
X044381Y030781D01*
X044421D01*
X044461Y030741D01*
X037881Y028991D02*
Y029151D01*
X038041D01*
Y028991D01*
X037881D01*
Y023991D02*
Y024151D01*
X038041D01*
Y023991D01*
X037881D01*
Y024991D02*
Y025151D01*
X038041D01*
Y024991D01*
X037881D01*
Y025991D02*
Y026151D01*
X038041D01*
Y025991D01*
X037881D01*
Y026991D02*
Y027151D01*
X038041D01*
Y026991D01*
X037881D01*
Y027991D02*
Y028151D01*
X038041D01*
Y027991D01*
X037881D01*
X044881Y024991D02*
Y025151D01*
X045041D01*
Y024991D01*
X044881D01*
Y025991D02*
Y026151D01*
X045041D01*
Y025991D01*
X044881D01*
Y026991D02*
Y027151D01*
X045041D01*
Y026991D01*
X044881D01*
Y027991D02*
Y028151D01*
X045041D01*
Y027991D01*
X044881D01*
X038461Y030741D02*
X038501Y030781D01*
X038541D01*
X038501Y030821D01*
X038541Y030861D01*
X038501D01*
X038461Y030901D01*
X038421Y030861D01*
X038381D01*
X038421Y030821D01*
X038381Y030781D01*
X038421D01*
X038461Y030741D01*
X044461Y022241D02*
X044501Y022281D01*
X044541D01*
X044501Y022321D01*
X044541Y022361D01*
X044501D01*
X044461Y022401D01*
X044421Y022361D01*
X044381D01*
X044421Y022321D01*
X044381Y022281D01*
X044421D01*
X044461Y022241D01*
X038461D02*
X038501Y022281D01*
X038541D01*
X038501Y022321D01*
X038541Y022361D01*
X038501D01*
X038461Y022401D01*
X038421Y022361D01*
X038381D01*
X038421Y022321D01*
X038381Y022281D01*
X038421D01*
X038461Y022241D01*
X033936Y029408D02*
X033976Y029488D01*
X033936Y029568D01*
X034016Y029528D01*
X034096Y029568D01*
X034056Y029488D01*
X034096Y029408D01*
X034016Y029448D01*
X033936Y029408D01*
X031936D02*
X031976Y029488D01*
X031936Y029568D01*
X032016Y029528D01*
X032096Y029568D01*
X032056Y029488D01*
X032096Y029408D01*
X032016Y029448D01*
X031936Y029408D01*
X029936D02*
X029976Y029488D01*
X029936Y029568D01*
X030016Y029528D01*
X030096Y029568D01*
X030056Y029488D01*
X030096Y029408D01*
X030016Y029448D01*
X029936Y029408D01*
X028936D02*
X028976Y029488D01*
X028936Y029568D01*
X029016Y029528D01*
X029096Y029568D01*
X029056Y029488D01*
X029096Y029408D01*
X029016Y029448D01*
X028936Y029408D01*
X027936D02*
X027976Y029488D01*
X027936Y029568D01*
X028016Y029528D01*
X028096Y029568D01*
X028056Y029488D01*
X028096Y029408D01*
X028016Y029448D01*
X027936Y029408D01*
X026936D02*
X026976Y029488D01*
X026936Y029568D01*
X027016Y029528D01*
X027096Y029568D01*
X027056Y029488D01*
X027096Y029408D01*
X027016Y029448D01*
X026936Y029408D01*
X030936D02*
X030976Y029488D01*
X030936Y029568D01*
X031016Y029528D01*
X031096Y029568D01*
X031056Y029488D01*
X031096Y029408D01*
X031016Y029448D01*
X030936Y029408D01*
X032936D02*
X032976Y029488D01*
X032936Y029568D01*
X033016Y029528D01*
X033096Y029568D01*
X033056Y029488D01*
X033096Y029408D01*
X033016Y029448D01*
X032936Y029408D01*
X034936D02*
X034976Y029488D01*
X034936Y029568D01*
X035016Y029528D01*
X035096Y029568D01*
X035056Y029488D01*
X035096Y029408D01*
X035016Y029448D01*
X034936Y029408D01*
X035936D02*
X035976Y029488D01*
X035936Y029568D01*
X036016Y029528D01*
X036096Y029568D01*
X036056Y029488D01*
X036096Y029408D01*
X036016Y029448D01*
X035936Y029408D01*
X014369Y029803D02*
Y029763D01*
X014449D01*
Y029803D01*
X014489D01*
Y029883D01*
X014449D01*
Y029923D01*
X014369D01*
Y029883D01*
X014329D01*
Y029803D01*
X014369D01*
Y028803D02*
Y028763D01*
X014449D01*
Y028803D01*
X014489D01*
Y028883D01*
X014449D01*
Y028923D01*
X014369D01*
Y028883D01*
X014329D01*
Y028803D01*
X014369D01*
Y027803D02*
Y027763D01*
X014449D01*
Y027803D01*
X014489D01*
Y027883D01*
X014449D01*
Y027923D01*
X014369D01*
Y027883D01*
X014329D01*
Y027803D01*
X014369D01*
X022593Y025637D02*
X022633D01*
X022673Y025677D01*
X022713Y025637D01*
X022753D01*
Y025677D01*
X022713Y025717D01*
X022753Y025757D01*
Y025797D01*
X022713D01*
X022673Y025757D01*
X022633Y025797D01*
X022593D01*
Y025757D01*
X022633Y025717D01*
X022593Y025677D01*
Y025637D01*
X016593Y022637D02*
X016633D01*
X016673Y022677D01*
X016713Y022637D01*
X016753D01*
Y022677D01*
X016713Y022717D01*
X016753Y022757D01*
Y022797D01*
X016713D01*
X016673Y022757D01*
X016633Y022797D01*
X016593D01*
Y022757D01*
X016633Y022717D01*
X016593Y022677D01*
Y022637D01*
X015593Y025637D02*
X015633D01*
X015673Y025677D01*
X015713Y025637D01*
X015753D01*
Y025677D01*
X015713Y025717D01*
X015753Y025757D01*
Y025797D01*
X015713D01*
X015673Y025757D01*
X015633Y025797D01*
X015593D01*
Y025757D01*
X015633Y025717D01*
X015593Y025677D01*
Y025637D01*
X018593D02*
X018633D01*
X018673Y025677D01*
X018713Y025637D01*
X018753D01*
Y025677D01*
X018713Y025717D01*
X018753Y025757D01*
Y025797D01*
X018713D01*
X018673Y025757D01*
X018633Y025797D01*
X018593D01*
Y025757D01*
X018633Y025717D01*
X018593Y025677D01*
Y025637D01*
X022593Y022637D02*
X022633D01*
X022673Y022677D01*
X022713Y022637D01*
X022753D01*
Y022677D01*
X022713Y022717D01*
X022753Y022757D01*
Y022797D01*
X022713D01*
X022673Y022757D01*
X022633Y022797D01*
X022593D01*
Y022757D01*
X022633Y022717D01*
X022593Y022677D01*
Y022637D01*
X028606Y014526D02*
X028646Y014566D01*
X028686D01*
X028646Y014606D01*
X028686Y014646D01*
X028646D01*
X028606Y014686D01*
X028566Y014646D01*
X028526D01*
X028566Y014606D01*
X028526Y014566D01*
X028566D01*
X028606Y014526D01*
X023252D02*
X023292Y014566D01*
X023332D01*
X023292Y014606D01*
X023332Y014646D01*
X023292D01*
X023252Y014686D01*
X023212Y014646D01*
X023172D01*
X023212Y014606D01*
X023172Y014566D01*
X023212D01*
X023252Y014526D01*
X027849Y020392D02*
Y020552D01*
X028009D01*
Y020392D01*
X027849D01*
X023849D02*
Y020552D01*
X024009D01*
Y020392D01*
X023849D01*
X024849D02*
Y020552D01*
X025009D01*
Y020392D01*
X024849D01*
X026849D02*
Y020552D01*
X027009D01*
Y020392D01*
X026849D01*
X025849D02*
Y020552D01*
X026009D01*
Y020392D01*
X025849D01*
X047503Y015528D02*
X047583Y015608D01*
X047663Y015528D01*
X047583Y015448D01*
X047503Y015528D01*
X046503Y016448D02*
Y016608D01*
X046663D01*
Y016448D01*
X046503D01*
X046543Y016488D02*
Y016568D01*
X046623D01*
Y016488D01*
X046543D01*
X046503Y014448D02*
Y014608D01*
X046663D01*
Y014448D01*
X046503D01*
X046543Y014488D02*
Y014568D01*
X046623D01*
Y014488D01*
X046543D01*
X048503Y014448D02*
Y014608D01*
X048663D01*
Y014448D01*
X048503D01*
X048543Y014488D02*
Y014568D01*
X048623D01*
Y014488D01*
X048543D01*
X048503Y016448D02*
Y016608D01*
X048663D01*
Y016448D01*
X048503D01*
X048543Y016488D02*
Y016568D01*
X048623D01*
Y016488D01*
X048543D01*
X047495Y036984D02*
X047575Y037064D01*
X047655Y036984D01*
X047575Y036904D01*
X047495Y036984D01*
X046495Y037904D02*
Y038064D01*
X046655D01*
Y037904D01*
X046495D01*
X046535Y037944D02*
Y038024D01*
X046615D01*
Y037944D01*
X046535D01*
X046495Y035904D02*
Y036064D01*
X046655D01*
Y035904D01*
X046495D01*
X046535Y035944D02*
Y036024D01*
X046615D01*
Y035944D01*
X046535D01*
X048495Y035904D02*
Y036064D01*
X048655D01*
Y035904D01*
X048495D01*
X048535Y035944D02*
Y036024D01*
X048615D01*
Y035944D01*
X048535D01*
X048495Y037904D02*
Y038064D01*
X048655D01*
Y037904D01*
X048495D01*
X048535Y037944D02*
Y038024D01*
X048615D01*
Y037944D01*
X048535D01*
X047503Y020646D02*
X047583Y020726D01*
X047663Y020646D01*
X047583Y020566D01*
X047503Y020646D01*
X046503Y021566D02*
Y021726D01*
X046663D01*
Y021566D01*
X046503D01*
X046543Y021606D02*
Y021686D01*
X046623D01*
Y021606D01*
X046543D01*
X046503Y019566D02*
Y019726D01*
X046663D01*
Y019566D01*
X046503D01*
X046543Y019606D02*
Y019686D01*
X046623D01*
Y019606D01*
X046543D01*
X048503Y019566D02*
Y019726D01*
X048663D01*
Y019566D01*
X048503D01*
X048543Y019606D02*
Y019686D01*
X048623D01*
Y019606D01*
X048543D01*
X048503Y021566D02*
Y021726D01*
X048663D01*
Y021566D01*
X048503D01*
X048543Y021606D02*
Y021686D01*
X048623D01*
Y021606D01*
X048543D01*
X048524Y011829D02*
X048444Y011989D01*
X048604D01*
X048524Y011829D01*
Y011869D02*
X048484Y011949D01*
X048564D01*
X048524Y011869D01*
X047461Y011829D02*
X047381Y011989D01*
X047541D01*
X047461Y011829D01*
Y011869D02*
X047421Y011949D01*
X047501D01*
X047461Y011869D01*
Y010766D02*
X047381Y010926D01*
X047541D01*
X047461Y010766D01*
Y010806D02*
X047421Y010886D01*
X047501D01*
X047461Y010806D01*
X048524Y010766D02*
X048444Y010926D01*
X048604D01*
X048524Y010766D01*
Y010806D02*
X048484Y010886D01*
X048564D01*
X048524Y010806D01*
X04874Y011298D02*
X04866Y011458D01*
X04882D01*
X04874Y011298D01*
Y011338D02*
X0487Y011418D01*
X04878D01*
X04874Y011338D01*
X047244Y011298D02*
X047164Y011458D01*
X047324D01*
X047244Y011298D01*
Y011338D02*
X047204Y011418D01*
X047284D01*
X047244Y011338D01*
X047992Y01055D02*
X047912Y01071D01*
X048072D01*
X047992Y01055D01*
Y01059D02*
X047952Y01067D01*
X048032D01*
X047992Y01059D01*
Y012046D02*
X047912Y012206D01*
X048072D01*
X047992Y012046D01*
Y012086D02*
X047952Y012166D01*
X048032D01*
X047992Y012086D01*
Y011298D02*
X048032Y011338D01*
X048072D01*
X048032Y011378D01*
X048072Y011418D01*
X048032D01*
X047992Y011458D01*
X047952Y011418D01*
X047912D01*
X047952Y011378D01*
X047912Y011338D01*
X047952D01*
X047992Y011298D01*
Y011338D02*
X048012Y011358D01*
X048032D01*
X048012Y011378D01*
X048032Y011398D01*
X048012D01*
X047992Y011418D01*
X047972Y011398D01*
X047952D01*
X047972Y011378D01*
X047952Y011358D01*
X047972D01*
X047992Y011338D01*
X048524Y04057D02*
X048444Y04073D01*
X048604D01*
X048524Y04057D01*
Y04061D02*
X048484Y04069D01*
X048564D01*
X048524Y04061D01*
X047461Y04057D02*
X047381Y04073D01*
X047541D01*
X047461Y04057D01*
Y04061D02*
X047421Y04069D01*
X047501D01*
X047461Y04061D01*
Y039507D02*
X047381Y039667D01*
X047541D01*
X047461Y039507D01*
Y039547D02*
X047421Y039627D01*
X047501D01*
X047461Y039547D01*
X048524Y039507D02*
X048444Y039667D01*
X048604D01*
X048524Y039507D01*
Y039547D02*
X048484Y039627D01*
X048564D01*
X048524Y039547D01*
X04874Y040038D02*
X04866Y040198D01*
X04882D01*
X04874Y040038D01*
Y040078D02*
X0487Y040158D01*
X04878D01*
X04874Y040078D01*
X047244Y040038D02*
X047164Y040198D01*
X047324D01*
X047244Y040038D01*
Y040078D02*
X047204Y040158D01*
X047284D01*
X047244Y040078D01*
X047992Y03929D02*
X047912Y03945D01*
X048072D01*
X047992Y03929D01*
Y03933D02*
X047952Y03941D01*
X048032D01*
X047992Y03933D01*
Y040786D02*
X047912Y040946D01*
X048072D01*
X047992Y040786D01*
Y040826D02*
X047952Y040906D01*
X048032D01*
X047992Y040826D01*
Y040038D02*
X048032Y040078D01*
X048072D01*
X048032Y040118D01*
X048072Y040158D01*
X048032D01*
X047992Y040198D01*
X047952Y040158D01*
X047912D01*
X047952Y040118D01*
X047912Y040078D01*
X047952D01*
X047992Y040038D01*
Y040078D02*
X048012Y040098D01*
X048032D01*
X048012Y040118D01*
X048032Y040138D01*
X048012D01*
X047992Y040158D01*
X047972Y040138D01*
X047952D01*
X047972Y040118D01*
X047952Y040098D01*
X047972D01*
X047992Y040078D01*
X011378Y011298D02*
X011418Y011338D01*
X011458D01*
X011418Y011378D01*
X011458Y011418D01*
X011418D01*
X011378Y011458D01*
X011338Y011418D01*
X011298D01*
X011338Y011378D01*
X011298Y011338D01*
X011338D01*
X011378Y011298D01*
Y011338D02*
X011398Y011358D01*
X011418D01*
X011398Y011378D01*
X011418Y011398D01*
X011398D01*
X011378Y011418D01*
X011358Y011398D01*
X011338D01*
X011358Y011378D01*
X011338Y011358D01*
X011358D01*
X011378Y011338D01*
Y012046D02*
X011298Y012206D01*
X011458D01*
X011378Y012046D01*
Y012086D02*
X011338Y012166D01*
X011418D01*
X011378Y012086D01*
Y01055D02*
X011298Y01071D01*
X011458D01*
X011378Y01055D01*
Y01059D02*
X011338Y01067D01*
X011418D01*
X011378Y01059D01*
X01063Y011298D02*
X01055Y011458D01*
X01071D01*
X01063Y011298D01*
Y011338D02*
X01059Y011418D01*
X01067D01*
X01063Y011338D01*
X012126Y011298D02*
X012046Y011458D01*
X012206D01*
X012126Y011298D01*
Y011338D02*
X012086Y011418D01*
X012166D01*
X012126Y011338D01*
X011909Y010766D02*
X011829Y010926D01*
X011989D01*
X011909Y010766D01*
Y010806D02*
X011869Y010886D01*
X011949D01*
X011909Y010806D01*
X010846Y010766D02*
X010766Y010926D01*
X010926D01*
X010846Y010766D01*
Y010806D02*
X010806Y010886D01*
X010886D01*
X010846Y010806D01*
Y011829D02*
X010766Y011989D01*
X010926D01*
X010846Y011829D01*
Y011869D02*
X010806Y011949D01*
X010886D01*
X010846Y011869D01*
X011909Y011829D02*
X011829Y011989D01*
X011989D01*
X011909Y011829D01*
Y011869D02*
X011869Y011949D01*
X011949D01*
X011909Y011869D01*
Y04057D02*
X011829Y04073D01*
X011989D01*
X011909Y04057D01*
Y04061D02*
X011869Y04069D01*
X011949D01*
X011909Y04061D01*
X010846Y04057D02*
X010766Y04073D01*
X010926D01*
X010846Y04057D01*
Y04061D02*
X010806Y04069D01*
X010886D01*
X010846Y04061D01*
Y039507D02*
X010766Y039667D01*
X010926D01*
X010846Y039507D01*
Y039547D02*
X010806Y039627D01*
X010886D01*
X010846Y039547D01*
X011909Y039507D02*
X011829Y039667D01*
X011989D01*
X011909Y039507D01*
Y039547D02*
X011869Y039627D01*
X011949D01*
X011909Y039547D01*
X012126Y040038D02*
X012046Y040198D01*
X012206D01*
X012126Y040038D01*
Y040078D02*
X012086Y040158D01*
X012166D01*
X012126Y040078D01*
X01063Y040038D02*
X01055Y040198D01*
X01071D01*
X01063Y040038D01*
Y040078D02*
X01059Y040158D01*
X01067D01*
X01063Y040078D01*
X011378Y040038D02*
X011418Y040078D01*
X011458D01*
X011418Y040118D01*
X011458Y040158D01*
X011418D01*
X011378Y040198D01*
X011338Y040158D01*
X011298D01*
X011338Y040118D01*
X011298Y040078D01*
X011338D01*
X011378Y040038D01*
Y040078D02*
X011398Y040098D01*
X011418D01*
X011398Y040118D01*
X011418Y040138D01*
X011398D01*
X011378Y040158D01*
X011358Y040138D01*
X011338D01*
X011358Y040118D01*
X011338Y040098D01*
X011358D01*
X011378Y040078D01*
Y03929D02*
X011298Y03945D01*
X011458D01*
X011378Y03929D01*
Y03933D02*
X011338Y03941D01*
X011418D01*
X011378Y03933D01*
Y040786D02*
X011298Y040946D01*
X011458D01*
X011378Y040786D01*
Y040826D02*
X011338Y040906D01*
X011418D01*
X011378Y040826D01*
X030448Y035185D02*
X030368Y035345D01*
X030528D01*
X030448Y035185D01*
Y035225D02*
X030408Y035305D01*
X030488D01*
X030448Y035225D01*
X030945Y033444D02*
X030865Y033604D01*
X031025D01*
X030945Y033444D01*
Y033484D02*
X030905Y033564D01*
X030985D01*
X030945Y033484D01*
X026539Y030503D02*
X026459Y030663D01*
X026619D01*
X026539Y030503D01*
Y030543D02*
X026499Y030623D01*
X026579D01*
X026539Y030543D01*
X026181Y030492D02*
X026101Y030652D01*
X026261D01*
X026181Y030492D01*
Y030532D02*
X026141Y030612D01*
X026221D01*
X026181Y030532D01*
X019111Y013913D02*
X019151Y013993D01*
X019111Y014073D01*
X019191Y014033D01*
X019271Y014073D01*
X019231Y013993D01*
X019271Y013913D01*
X019191Y013953D01*
X019111Y013913D01*
X019151Y013953D02*
X019171Y013993D01*
X019151Y014033D01*
X019191Y014013D01*
X019231Y014033D01*
X019211Y013993D01*
X019231Y013953D01*
X019191Y013973D01*
X019151Y013953D01*
X045097Y011977D02*
X045137Y012057D01*
X045097Y012137D01*
X045177Y012097D01*
X045257Y012137D01*
X045217Y012057D01*
X045257Y011977D01*
X045177Y012017D01*
X045097Y011977D01*
X045137Y012017D02*
X045157Y012057D01*
X045137Y012097D01*
X045177Y012077D01*
X045217Y012097D01*
X045197Y012057D01*
X045217Y012017D01*
X045177Y012037D01*
X045137Y012017D01*
X03307Y018475D02*
X03299Y018635D01*
X03315D01*
X03307Y018475D01*
Y018515D02*
X03303Y018595D01*
X03311D01*
X03307Y018515D01*
X032402Y016554D02*
X032322Y016714D01*
X032482D01*
X032402Y016554D01*
Y016594D02*
X032362Y016674D01*
X032442D01*
X032402Y016594D01*
X032262Y019081D02*
X032182Y019241D01*
X032342D01*
X032262Y019081D01*
Y019121D02*
X032222Y019201D01*
X032302D01*
X032262Y019121D01*
X034961Y014349D02*
X034881Y014509D01*
X035041D01*
X034961Y014349D01*
Y014389D02*
X034921Y014469D01*
X035001D01*
X034961Y014389D01*
X039711Y013008D02*
X039631Y013168D01*
X039791D01*
X039711Y013008D01*
Y013048D02*
X039671Y013128D01*
X039751D01*
X039711Y013048D01*
X041782Y013257D02*
X041702Y013417D01*
X041862D01*
X041782Y013257D01*
Y013297D02*
X041742Y013377D01*
X041822D01*
X041782Y013297D01*
X030078Y022722D02*
X029998Y022882D01*
X030158D01*
X030078Y022722D01*
Y022762D02*
X030038Y022842D01*
X030118D01*
X030078Y022762D01*
X029114Y02307D02*
X029034Y02323D01*
X029194D01*
X029114Y02307D01*
Y02311D02*
X029074Y02319D01*
X029154D01*
X029114Y02311D01*
X013033Y020271D02*
X012953Y020431D01*
X013113D01*
X013033Y020271D01*
Y020311D02*
X012993Y020391D01*
X013073D01*
X013033Y020311D01*
X03019Y028277D02*
X03011Y028437D01*
X03027D01*
X03019Y028277D01*
Y028317D02*
X03015Y028397D01*
X03023D01*
X03019Y028317D01*
X023881Y023345D02*
X023801Y023505D01*
X023961D01*
X023881Y023345D01*
Y023385D02*
X023841Y023465D01*
X023921D01*
X023881Y023385D01*
X024101Y023545D02*
X024021Y023705D01*
X024181D01*
X024101Y023545D01*
Y023585D02*
X024061Y023665D01*
X024141D01*
X024101Y023585D01*
X026101Y02232D02*
X026021Y02248D01*
X026181D01*
X026101Y02232D01*
Y02236D02*
X026061Y02244D01*
X026141D01*
X026101Y02236D01*
X027224Y022522D02*
X027144Y022682D01*
X027304D01*
X027224Y022522D01*
Y022562D02*
X027184Y022642D01*
X027264D01*
X027224Y022562D01*
X048583Y034054D02*
X048503Y034214D01*
X048663D01*
X048583Y034054D01*
Y034094D02*
X048543Y034174D01*
X048623D01*
X048583Y034094D01*
X027696Y021954D02*
X027616Y022114D01*
X027776D01*
X027696Y021954D01*
Y021994D02*
X027656Y022074D01*
X027736D01*
X027696Y021994D01*
X030636Y040643D02*
X030556Y040803D01*
X030716D01*
X030636Y040643D01*
Y040683D02*
X030596Y040763D01*
X030676D01*
X030636Y040683D01*
X025935Y012687D02*
X025855Y012846D01*
X026015D01*
X025935Y012687D01*
Y012727D02*
X025895Y012807D01*
X025975D01*
X025935Y012727D01*
X025933Y012272D02*
X025853Y012432D01*
X026013D01*
X025933Y012272D01*
Y012312D02*
X025893Y012392D01*
X025973D01*
X025933Y012312D01*
X025921Y011921D02*
X025841Y012081D01*
X026001D01*
X025921Y011921D01*
Y011961D02*
X025881Y012041D01*
X025961D01*
X025921Y011961D01*
X036605Y033681D02*
X036645Y033761D01*
X036605Y033841D01*
X036685Y033801D01*
X036765Y033841D01*
X036725Y033761D01*
X036765Y033681D01*
X036685Y033721D01*
X036605Y033681D01*
X036645Y033721D02*
X036665Y033761D01*
X036645Y033801D01*
X036685Y033781D01*
X036725Y033801D01*
X036705Y033761D01*
X036725Y033721D01*
X036685Y033741D01*
X036645Y033721D01*
X036603Y033265D02*
X036643Y033345D01*
X036603Y033425D01*
X036683Y033385D01*
X036763Y033425D01*
X036723Y033345D01*
X036763Y033265D01*
X036683Y033305D01*
X036603Y033265D01*
X036643Y033305D02*
X036663Y033345D01*
X036643Y033385D01*
X036683Y033365D01*
X036723Y033385D01*
X036703Y033345D01*
X036723Y033305D01*
X036683Y033325D01*
X036643Y033305D01*
X017348Y033752D02*
X017268Y033912D01*
X017428D01*
X017348Y033752D01*
Y033792D02*
X017308Y033872D01*
X017388D01*
X017348Y033792D01*
X018401Y03785D02*
X018321Y03801D01*
X018481D01*
X018401Y03785D01*
Y03789D02*
X018361Y03797D01*
X018441D01*
X018401Y03789D01*
X01796Y037855D02*
X01788Y038015D01*
X01804D01*
X01796Y037855D01*
Y037895D02*
X01792Y037975D01*
X018D01*
X01796Y037895D01*
X018185Y037841D02*
X018105Y038001D01*
X018265D01*
X018185Y037841D01*
Y037881D02*
X018145Y037961D01*
X018225D01*
X018185Y037881D01*
X01622Y038581D02*
X01614Y038741D01*
X0163D01*
X01622Y038581D01*
Y038621D02*
X01618Y038701D01*
X01626D01*
X01622Y038621D01*
Y038326D02*
X01614Y038486D01*
X0163D01*
X01622Y038326D01*
Y038366D02*
X01618Y038446D01*
X01626D01*
X01622Y038366D01*
Y03807D02*
X01614Y03823D01*
X0163D01*
X01622Y03807D01*
Y03811D02*
X01618Y03819D01*
X01626D01*
X01622Y03811D01*
X025985Y026521D02*
X025905Y026681D01*
X026065D01*
X025985Y026521D01*
Y026561D02*
X025945Y026641D01*
X026025D01*
X025985Y026561D01*
X027526Y022817D02*
X027446Y022977D01*
X027606D01*
X027526Y022817D01*
Y022857D02*
X027486Y022937D01*
X027566D01*
X027526Y022857D01*
X028001Y022923D02*
X027921Y023083D01*
X028081D01*
X028001Y022923D01*
Y022963D02*
X027961Y023043D01*
X028041D01*
X028001Y022963D01*
X016498Y021312D02*
X016418Y021472D01*
X016578D01*
X016498Y021312D01*
Y021352D02*
X016458Y021432D01*
X016538D01*
X016498Y021352D01*
X044841Y023995D02*
X044881Y024075D01*
X044841Y024155D01*
X044921Y024115D01*
X045001Y024155D01*
X044961Y024075D01*
X045001Y023995D01*
X044921Y024035D01*
X044841Y023995D01*
X044881Y024035D02*
X044901Y024075D01*
X044881Y024115D01*
X044921Y024095D01*
X044961Y024115D01*
X044941Y024075D01*
X044961Y024035D01*
X044921Y024055D01*
X044881Y024035D01*
X038858Y036219D02*
X038778Y036379D01*
X038938D01*
X038858Y036219D01*
Y036259D02*
X038818Y036339D01*
X038898D01*
X038858Y036259D01*
X037308Y0347D02*
X037228Y03486D01*
X037388D01*
X037308Y0347D01*
Y03474D02*
X037268Y03482D01*
X037348D01*
X037308Y03474D01*
X036496Y034763D02*
X036416Y034923D01*
X036576D01*
X036496Y034763D01*
Y034803D02*
X036456Y034883D01*
X036536D01*
X036496Y034803D01*
X037214Y032902D02*
X037134Y033062D01*
X037294D01*
X037214Y032902D01*
Y032942D02*
X037174Y033022D01*
X037254D01*
X037214Y032942D01*
X036142Y033109D02*
X036062Y033269D01*
X036222D01*
X036142Y033109D01*
Y033149D02*
X036102Y033229D01*
X036182D01*
X036142Y033149D01*
X042474Y03426D02*
X042394Y03442D01*
X042554D01*
X042474Y03426D01*
Y0343D02*
X042434Y03438D01*
X042514D01*
X042474Y0343D01*
X04246Y036004D02*
X04238Y036164D01*
X04254D01*
X04246Y036004D01*
Y036044D02*
X04242Y036124D01*
X0425D01*
X04246Y036044D01*
X041713Y036731D02*
X041633Y036891D01*
X041793D01*
X041713Y036731D01*
Y036771D02*
X041673Y036851D01*
X041753D01*
X041713Y036771D01*
X04437Y032676D02*
X04429Y032836D01*
X04445D01*
X04437Y032676D01*
Y032716D02*
X04433Y032796D01*
X04441D01*
X04437Y032716D01*
X043346Y033503D02*
X043266Y033663D01*
X043426D01*
X043346Y033503D01*
Y033543D02*
X043306Y033623D01*
X043386D01*
X043346Y033543D01*
X037324Y036689D02*
X037244Y036849D01*
X037404D01*
X037324Y036689D01*
Y036729D02*
X037284Y036809D01*
X037364D01*
X037324Y036729D01*
X038989Y034765D02*
X038909Y034925D01*
X039069D01*
X038989Y034765D01*
Y034805D02*
X038949Y034885D01*
X039029D01*
X038989Y034805D01*
X039614Y03424D02*
X039534Y0344D01*
X039694D01*
X039614Y03424D01*
Y03428D02*
X039574Y03436D01*
X039654D01*
X039614Y03428D01*
X03611Y040102D02*
X03603Y040262D01*
X03619D01*
X03611Y040102D01*
Y040142D02*
X03607Y040222D01*
X03615D01*
X03611Y040142D01*
X033265Y034795D02*
X033185Y034955D01*
X033345D01*
X033265Y034795D01*
Y034835D02*
X033225Y034915D01*
X033305D01*
X033265Y034835D01*
X033071Y035963D02*
X032991Y036123D01*
X033151D01*
X033071Y035963D01*
Y036003D02*
X033031Y036083D01*
X033111D01*
X033071Y036003D01*
X03313Y037322D02*
X03305Y037482D01*
X03321D01*
X03313Y037322D01*
Y037362D02*
X03309Y037442D01*
X03317D01*
X03313Y037362D01*
X040374Y034488D02*
X040294Y034648D01*
X040454D01*
X040374Y034488D01*
Y034528D02*
X040334Y034608D01*
X040414D01*
X040374Y034528D01*
X030138Y033837D02*
X030058Y033997D01*
X030218D01*
X030138Y033837D01*
Y033877D02*
X030098Y033957D01*
X030178D01*
X030138Y033877D01*
X031078Y037011D02*
X031118Y037091D01*
X031078Y037171D01*
X031158Y037131D01*
X031238Y037171D01*
X031198Y037091D01*
X031238Y037011D01*
X031158Y037051D01*
X031078Y037011D01*
X031118Y037051D02*
X031138Y037091D01*
X031118Y037131D01*
X031158Y037111D01*
X031198Y037131D01*
X031178Y037091D01*
X031198Y037051D01*
X031158Y037071D01*
X031118Y037051D01*
X029469Y037666D02*
X029388Y037826D01*
X029548D01*
X029469Y037666D01*
Y037706D02*
X029429Y037786D01*
X029509D01*
X029469Y037706D01*
X027302Y038286D02*
X027342Y038366D01*
X027302Y038446D01*
X027382Y038406D01*
X027462Y038446D01*
X027422Y038366D01*
X027462Y038286D01*
X027382Y038326D01*
X027302Y038286D01*
X027342Y038326D02*
X027362Y038366D01*
X027342Y038406D01*
X027382Y038386D01*
X027422Y038406D01*
X027402Y038366D01*
X027422Y038326D01*
X027382Y038346D01*
X027342Y038326D01*
X026771Y037911D02*
X026811Y037991D01*
X026771Y038071D01*
X026851Y038031D01*
X026931Y038071D01*
X026891Y037991D01*
X026931Y037911D01*
X026851Y037951D01*
X026771Y037911D01*
X026811Y037951D02*
X026831Y037991D01*
X026811Y038031D01*
X026851Y038011D01*
X026891Y038031D01*
X026871Y037991D01*
X026891Y037951D01*
X026851Y037971D01*
X026811Y037951D01*
X02498Y037095D02*
X0249Y037255D01*
X02506D01*
X02498Y037095D01*
Y037135D02*
X02494Y037215D01*
X02502D01*
X02498Y037135D01*
X025429Y03671D02*
X025349Y03687D01*
X025509D01*
X025429Y03671D01*
Y03675D02*
X025389Y03683D01*
X025469D01*
X025429Y03675D01*
X024252Y035235D02*
X024172Y035395D01*
X024332D01*
X024252Y035235D01*
Y035275D02*
X024212Y035355D01*
X024292D01*
X024252Y035275D01*
X032657Y032912D02*
X032577Y033072D01*
X032737D01*
X032657Y032912D01*
Y032952D02*
X032617Y033032D01*
X032697D01*
X032657Y032952D01*
X030871Y031935D02*
X030791Y032095D01*
X030951D01*
X030871Y031935D01*
Y031975D02*
X030831Y032055D01*
X030911D01*
X030871Y031975D01*
X030439Y031847D02*
X030359Y032007D01*
X030519D01*
X030439Y031847D01*
Y031887D02*
X030399Y031967D01*
X030479D01*
X030439Y031887D01*
X028287Y040297D02*
X028207Y040457D01*
X028367D01*
X028287Y040297D01*
Y040337D02*
X028247Y040417D01*
X028327D01*
X028287Y040337D01*
X027549Y036201D02*
X027469Y036361D01*
X027629D01*
X027549Y036201D01*
Y036241D02*
X027509Y036321D01*
X027589D01*
X027549Y036241D01*
X028658Y035343D02*
X028578Y035503D01*
X028738D01*
X028658Y035343D01*
Y035383D02*
X028618Y035463D01*
X028698D01*
X028658Y035383D01*
X028302Y035223D02*
X028222Y035383D01*
X028382D01*
X028302Y035223D01*
Y035263D02*
X028262Y035343D01*
X028342D01*
X028302Y035263D01*
X02939Y036278D02*
X02931Y036438D01*
X02947D01*
X02939Y036278D01*
Y036318D02*
X02935Y036398D01*
X02943D01*
X02939Y036318D01*
X030465Y034455D02*
X030385Y034615D01*
X030545D01*
X030465Y034455D01*
Y034495D02*
X030425Y034575D01*
X030505D01*
X030465Y034495D01*
X031358Y035196D02*
X031278Y035356D01*
X031438D01*
X031358Y035196D01*
Y035236D02*
X031318Y035316D01*
X031398D01*
X031358Y035236D01*
X032657Y034664D02*
X032577Y034824D01*
X032737D01*
X032657Y034664D01*
Y034704D02*
X032617Y034784D01*
X032697D01*
X032657Y034704D01*
X028484Y030766D02*
X028404Y030926D01*
X028564D01*
X028484Y030766D01*
Y030806D02*
X028444Y030886D01*
X028524D01*
X028484Y030806D01*
X028258Y031879D02*
X028178Y032039D01*
X028338D01*
X028258Y031879D01*
Y031919D02*
X028218Y031999D01*
X028298D01*
X028258Y031919D01*
X028248Y032774D02*
X028168Y032934D01*
X028328D01*
X028248Y032774D01*
Y032814D02*
X028208Y032894D01*
X028288D01*
X028248Y032814D01*
X027881Y031975D02*
X027801Y032135D01*
X027961D01*
X027881Y031975D01*
Y032015D02*
X027841Y032095D01*
X027921D01*
X027881Y032015D01*
X03221Y030704D02*
X03213Y030864D01*
X03229D01*
X03221Y030704D01*
Y030744D02*
X03217Y030824D01*
X03225D01*
X03221Y030744D01*
X034252Y030373D02*
X034172Y030533D01*
X034332D01*
X034252Y030373D01*
Y030413D02*
X034212Y030493D01*
X034292D01*
X034252Y030413D01*
X031537Y03092D02*
X031457Y03108D01*
X031617D01*
X031537Y03092D01*
Y03096D02*
X031497Y03104D01*
X031577D01*
X031537Y03096D01*
X02972Y033764D02*
X02964Y033924D01*
X0298D01*
X02972Y033764D01*
Y033804D02*
X02968Y033884D01*
X02976D01*
X02972Y033804D01*
X029424Y033626D02*
X029344Y033786D01*
X029504D01*
X029424Y033626D01*
Y033666D02*
X029384Y033746D01*
X029464D01*
X029424Y033666D01*
X028695Y033608D02*
X028615Y033768D01*
X028775D01*
X028695Y033608D01*
Y033648D02*
X028655Y033728D01*
X028735D01*
X028695Y033648D01*
X027254Y036232D02*
X027174Y036392D01*
X027334D01*
X027254Y036232D01*
Y036272D02*
X027214Y036352D01*
X027294D01*
X027254Y036272D01*
X030945Y030707D02*
X030865Y030867D01*
X031025D01*
X030945Y030707D01*
Y030747D02*
X030905Y030827D01*
X030985D01*
X030945Y030747D01*
X030472Y030747D02*
X030392Y030907D01*
X030552D01*
X030472Y030747D01*
Y030787D02*
X030432Y030867D01*
X030512D01*
X030472Y030787D01*
X027885Y033957D02*
X027805Y034117D01*
X027965D01*
X027885Y033957D01*
Y033997D02*
X027845Y034077D01*
X027925D01*
X027885Y033997D01*
X027521Y031942D02*
X027441Y032102D01*
X027601D01*
X027521Y031942D01*
Y031982D02*
X027481Y032062D01*
X027561D01*
X027521Y031982D01*
X037774Y017577D02*
X037814Y017657D01*
X037774Y017737D01*
X037854Y017697D01*
X037934Y017737D01*
X037894Y017657D01*
X037934Y017577D01*
X037854Y017617D01*
X037774Y017577D01*
X037814Y017617D02*
X037834Y017657D01*
X037814Y017697D01*
X037854Y017677D01*
X037894Y017697D01*
X037874Y017657D01*
X037894Y017617D01*
X037854Y017637D01*
X037814Y017617D01*
X040498Y018838D02*
X040418Y018998D01*
X040578D01*
X040498Y018838D01*
Y018878D02*
X040458Y018958D01*
X040538D01*
X040498Y018878D01*
X04557Y021081D02*
X04561Y021161D01*
X04557Y021241D01*
X04565Y021201D01*
X04573Y021241D01*
X04569Y021161D01*
X04573Y021081D01*
X04565Y021121D01*
X04557Y021081D01*
X04561Y021121D02*
X04563Y021161D01*
X04561Y021201D01*
X04565Y021181D01*
X04569Y021201D01*
X04567Y021161D01*
X04569Y021121D01*
X04565Y021141D01*
X04561Y021121D01*
X03063Y039625D02*
X03055Y039785D01*
X03071D01*
X03063Y039625D01*
Y039665D02*
X03059Y039745D01*
X03067D01*
X03063Y039665D01*
X023874Y030154D02*
X023794Y030314D01*
X023954D01*
X023874Y030154D01*
Y030194D02*
X023834Y030274D01*
X023914D01*
X023874Y030194D01*
X023248Y027499D02*
X023168Y027659D01*
X023328D01*
X023248Y027499D01*
Y027539D02*
X023208Y027619D01*
X023288D01*
X023248Y027539D01*
X022815Y028345D02*
X022735Y028505D01*
X022895D01*
X022815Y028345D01*
Y028385D02*
X022775Y028465D01*
X022855D01*
X022815Y028385D01*
X024193Y027341D02*
X024113Y027501D01*
X024273D01*
X024193Y027341D01*
Y027381D02*
X024153Y027461D01*
X024233D01*
X024193Y027381D01*
X028803Y026774D02*
X028723Y026934D01*
X028883D01*
X028803Y026774D01*
Y026814D02*
X028763Y026894D01*
X028843D01*
X028803Y026814D01*
X028287Y026298D02*
X028207Y026458D01*
X028367D01*
X028287Y026298D01*
Y026338D02*
X028247Y026418D01*
X028327D01*
X028287Y026338D01*
X027968Y025909D02*
X027888Y026069D01*
X028048D01*
X027968Y025909D01*
Y025949D02*
X027928Y026029D01*
X028008D01*
X027968Y025949D01*
X027671Y025904D02*
X027591Y026064D01*
X027751D01*
X027671Y025904D01*
Y025944D02*
X027631Y026024D01*
X027711D01*
X027671Y025944D01*
X027688Y026223D02*
X027608Y026383D01*
X027768D01*
X027688Y026223D01*
Y026263D02*
X027648Y026343D01*
X027728D01*
X027688Y026263D01*
X028819Y027164D02*
X028739Y027324D01*
X028899D01*
X028819Y027164D01*
Y027204D02*
X028779Y027284D01*
X028859D01*
X028819Y027204D01*
X026368Y03251D02*
X026288Y03267D01*
X026448D01*
X026368Y03251D01*
Y03255D02*
X026328Y03263D01*
X026408D01*
X026368Y03255D01*
X024481Y031132D02*
X024401Y031292D01*
X024561D01*
X024481Y031132D01*
Y031172D02*
X024441Y031252D01*
X024521D01*
X024481Y031172D01*
X026476Y031472D02*
X026396Y031632D01*
X026556D01*
X026476Y031472D01*
Y031512D02*
X026436Y031592D01*
X026516D01*
X026476Y031512D01*
X024186Y03139D02*
X024106Y03155D01*
X024266D01*
X024186Y03139D01*
Y03143D02*
X024146Y03151D01*
X024226D01*
X024186Y03143D01*
X024243Y030578D02*
X024163Y030738D01*
X024323D01*
X024243Y030578D01*
Y030618D02*
X024203Y030698D01*
X024283D01*
X024243Y030618D01*
X024912Y030732D02*
X024832Y030892D01*
X024992D01*
X024912Y030732D01*
Y030772D02*
X024872Y030852D01*
X024952D01*
X024912Y030772D01*
X026221Y028512D02*
X026141Y028672D01*
X026301D01*
X026221Y028512D01*
Y028552D02*
X026181Y028632D01*
X026261D01*
X026221Y028552D01*
X025945Y028404D02*
X025865Y028564D01*
X026025D01*
X025945Y028404D01*
Y028444D02*
X025905Y028524D01*
X025985D01*
X025945Y028444D01*
X02566Y027936D02*
X02558Y028096D01*
X02574D01*
X02566Y027936D01*
Y027976D02*
X02562Y028056D01*
X0257D01*
X02566Y027976D01*
X023957Y03931D02*
X023877Y03947D01*
X024037D01*
X023957Y03931D01*
Y03935D02*
X023917Y03943D01*
X023997D01*
X023957Y03935D01*
X025118Y03805D02*
X025038Y03821D01*
X025198D01*
X025118Y03805D01*
Y03809D02*
X025078Y03817D01*
X025158D01*
X025118Y03809D01*
X026161Y039172D02*
X026081Y039332D01*
X026241D01*
X026161Y039172D01*
Y039212D02*
X026121Y039292D01*
X026201D01*
X026161Y039212D01*
X02705Y034299D02*
X02697Y034459D01*
X02713D01*
X02705Y034299D01*
Y034339D02*
X02701Y034419D01*
X02709D01*
X02705Y034339D01*
X026738Y034288D02*
X026658Y034448D01*
X026818D01*
X026738Y034288D01*
Y034328D02*
X026698Y034408D01*
X026778D01*
X026738Y034328D01*
X039629Y040732D02*
X039549Y040892D01*
X039709D01*
X039629Y040732D01*
Y040772D02*
X039589Y040852D01*
X039669D01*
X039629Y040772D01*
X037195Y041038D02*
X037115Y041198D01*
X037275D01*
X037195Y041038D01*
Y041078D02*
X037155Y041158D01*
X037235D01*
X037195Y041078D01*
X029805Y039995D02*
X029725Y040155D01*
X029885D01*
X029805Y039995D01*
Y040035D02*
X029765Y040115D01*
X029845D01*
X029805Y040035D01*
X038177Y040738D02*
X038097Y040898D01*
X038257D01*
X038177Y040738D01*
Y040778D02*
X038137Y040858D01*
X038217D01*
X038177Y040778D01*
X035866Y036219D02*
X035786Y036379D01*
X035946D01*
X035866Y036219D01*
Y036259D02*
X035826Y036339D01*
X035906D01*
X035866Y036259D01*
X037026Y036413D02*
X036946Y036573D01*
X037106D01*
X037026Y036413D01*
Y036453D02*
X036986Y036533D01*
X037066D01*
X037026Y036453D01*
X040492Y038247D02*
X040412Y038407D01*
X040572D01*
X040492Y038247D01*
Y038287D02*
X040452Y038367D01*
X040532D01*
X040492Y038287D01*
X038642Y037794D02*
X038562Y037954D01*
X038722D01*
X038642Y037794D01*
Y037834D02*
X038602Y037914D01*
X038682D01*
X038642Y037834D01*
X037697Y037794D02*
X037617Y037954D01*
X037777D01*
X037697Y037794D01*
Y037834D02*
X037657Y037914D01*
X037737D01*
X037697Y037834D01*
X041348Y03558D02*
X041268Y03574D01*
X041428D01*
X041348Y03558D01*
Y03562D02*
X041308Y0357D01*
X041388D01*
X041348Y03562D01*
X022415Y014652D02*
X022335Y014812D01*
X022495D01*
X022415Y014652D01*
Y014692D02*
X022375Y014772D01*
X022455D01*
X022415Y014692D01*
X022194Y013947D02*
X022114Y014107D01*
X022274D01*
X022194Y013947D01*
Y013987D02*
X022154Y014067D01*
X022234D01*
X022194Y013987D01*
X038718Y012998D02*
X038638Y013158D01*
X038798D01*
X038718Y012998D01*
Y013038D02*
X038678Y013118D01*
X038758D01*
X038718Y013038D01*
X027772Y015415D02*
X027812Y015495D01*
X027772Y015575D01*
X027852Y015534D01*
X027932Y015575D01*
X027892Y015495D01*
X027932Y015415D01*
X027852Y015454D01*
X027772Y015415D01*
X027812Y015454D02*
X027832Y015495D01*
X027812Y015534D01*
X027852Y015515D01*
X027892Y015534D01*
X027872Y015495D01*
X027892Y015454D01*
X027852Y015474D01*
X027812Y015454D01*
X039145Y029699D02*
X039065Y029859D01*
X039225D01*
X039145Y029699D01*
Y029739D02*
X039105Y029819D01*
X039185D01*
X039145Y029739D01*
X038524Y029448D02*
X038444Y029608D01*
X038604D01*
X038524Y029448D01*
Y029488D02*
X038484Y029568D01*
X038564D01*
X038524Y029488D01*
X03714Y028747D02*
X03706Y028907D01*
X03722D01*
X03714Y028747D01*
Y028787D02*
X0371Y028867D01*
X03718D01*
X03714Y028787D01*
X037006Y027204D02*
X037046Y027284D01*
X037006Y027364D01*
X037086Y027324D01*
X037166Y027364D01*
X037126Y027284D01*
X037166Y027204D01*
X037086Y027244D01*
X037006Y027204D01*
X037046Y027244D02*
X037066Y027284D01*
X037046Y027324D01*
X037086Y027304D01*
X037126Y027324D01*
X037106Y027284D01*
X037126Y027244D01*
X037086Y027264D01*
X037046Y027244D01*
X027722Y017939D02*
X027762Y018019D01*
X027722Y018099D01*
X027802Y018059D01*
X027882Y018099D01*
X027842Y018019D01*
X027882Y017939D01*
X027802Y017979D01*
X027722Y017939D01*
X027762Y017979D02*
X027782Y018019D01*
X027762Y018059D01*
X027802Y018039D01*
X027842Y018059D01*
X027822Y018019D01*
X027842Y017979D01*
X027802Y017999D01*
X027762Y017979D01*
X037867Y014482D02*
X037787Y014642D01*
X037947D01*
X037867Y014482D01*
Y014522D02*
X037827Y014602D01*
X037907D01*
X037867Y014522D01*
X037028Y014684D02*
X036948Y014844D01*
X037108D01*
X037028Y014684D01*
Y014724D02*
X036988Y014804D01*
X037068D01*
X037028Y014724D01*
X035198Y018838D02*
X035118Y018998D01*
X035278D01*
X035198Y018838D01*
Y018878D02*
X035158Y018958D01*
X035238D01*
X035198Y018878D01*
X035531Y021869D02*
X035452Y022029D01*
X035612D01*
X035531Y021869D01*
Y021909D02*
X035491Y021989D01*
X035571D01*
X035531Y021909D01*
X034562Y023651D02*
X034482Y023811D01*
X034642D01*
X034562Y023651D01*
Y023691D02*
X034522Y023771D01*
X034602D01*
X034562Y023691D01*
X040984Y023995D02*
X040904Y024155D01*
X041064D01*
X040984Y023995D01*
Y024035D02*
X040944Y024115D01*
X041024D01*
X040984Y024035D01*
X036412Y02779D02*
Y02775D01*
X036492D01*
Y02779D01*
X036532D01*
Y02787D01*
X036492D01*
Y02791D01*
X036412D01*
Y02787D01*
X036372D01*
Y02779D01*
X036412D01*
X022579Y035511D02*
X022499Y035671D01*
X022659D01*
X022579Y035511D01*
Y035551D02*
X022539Y035631D01*
X022619D01*
X022579Y035551D01*
X02189Y035491D02*
X02181Y035651D01*
X02197D01*
X02189Y035491D01*
Y035531D02*
X02185Y035611D01*
X02193D01*
X02189Y035531D01*
X032323Y0274D02*
X032243Y02756D01*
X032403D01*
X032323Y0274D01*
Y02744D02*
X032283Y02752D01*
X032363D01*
X032323Y02744D01*
X033031Y028247D02*
X032952Y028407D01*
X033112D01*
X033031Y028247D01*
Y028287D02*
X032991Y028367D01*
X033071D01*
X033031Y028287D01*
X033642Y028109D02*
X033562Y028269D01*
X033722D01*
X033642Y028109D01*
Y028149D02*
X033602Y028229D01*
X033682D01*
X033642Y028149D01*
X032618Y028168D02*
X032538Y028328D01*
X032698D01*
X032618Y028168D01*
Y028208D02*
X032578Y028288D01*
X032658D01*
X032618Y028208D01*
X032599Y028758D02*
X032519Y028918D01*
X032679D01*
X032599Y028758D01*
Y028798D02*
X032559Y028878D01*
X032639D01*
X032599Y028798D01*
X033564Y025903D02*
X033484Y026063D01*
X033644D01*
X033564Y025903D01*
Y025943D02*
X033524Y026023D01*
X033604D01*
X033564Y025943D01*
X03379Y02613D02*
X03371Y02629D01*
X03387D01*
X03379Y02613D01*
Y02617D02*
X03375Y02625D01*
X03383D01*
X03379Y02617D01*
X034306Y027959D02*
X034226Y028119D01*
X034386D01*
X034306Y027959D01*
Y027999D02*
X034266Y028079D01*
X034346D01*
X034306Y027999D01*
X032067Y025432D02*
X031987Y025592D01*
X032147D01*
X032067Y025432D01*
Y025472D02*
X032027Y025552D01*
X032107D01*
X032067Y025472D01*
X032523Y026823D02*
X032443Y026983D01*
X032603D01*
X032523Y026823D01*
Y026863D02*
X032483Y026943D01*
X032563D01*
X032523Y026863D01*
X035906Y024113D02*
X035826Y024273D01*
X035986D01*
X035906Y024113D01*
Y024153D02*
X035866Y024233D01*
X035946D01*
X035906Y024153D01*
X035604Y026287D02*
X035524Y026447D01*
X035684D01*
X035604Y026287D01*
Y026327D02*
X035564Y026407D01*
X035644D01*
X035604Y026327D01*
X035366Y024316D02*
X035286Y024476D01*
X035446D01*
X035366Y024316D01*
Y024356D02*
X035326Y024436D01*
X035406D01*
X035366Y024356D01*
X03624Y024389D02*
X03616Y024549D01*
X03632D01*
X03624Y024389D01*
Y024429D02*
X0362Y024509D01*
X03628D01*
X03624Y024429D01*
X03722Y024366D02*
X03714Y024526D01*
X0373D01*
X03722Y024366D01*
Y024406D02*
X03718Y024486D01*
X03726D01*
X03722Y024406D01*
X037468Y024054D02*
X037388Y024214D01*
X037548D01*
X037468Y024054D01*
Y024094D02*
X037428Y024174D01*
X037508D01*
X037468Y024094D01*
X035965Y025236D02*
X035885Y025396D01*
X036045D01*
X035965Y025236D01*
Y025276D02*
X035925Y025356D01*
X036005D01*
X035965Y025276D01*
X036922Y023041D02*
X036842Y023201D01*
X037002D01*
X036922Y023041D01*
Y023081D02*
X036882Y023161D01*
X036962D01*
X036922Y023081D01*
X036113Y025842D02*
X036033Y026002D01*
X036193D01*
X036113Y025842D01*
Y025882D02*
X036073Y025962D01*
X036153D01*
X036113Y025882D01*
X035358Y026074D02*
X035278Y026234D01*
X035438D01*
X035358Y026074D01*
Y026114D02*
X035318Y026194D01*
X035398D01*
X035358Y026114D01*
X038701Y026554D02*
X038621Y026714D01*
X038781D01*
X038701Y026554D01*
Y026594D02*
X038661Y026674D01*
X038741D01*
X038701Y026594D01*
X039272Y025786D02*
X039192Y025946D01*
X039352D01*
X039272Y025786D01*
Y025826D02*
X039232Y025906D01*
X039312D01*
X039272Y025826D01*
X039547Y024763D02*
X039467Y024923D01*
X039627D01*
X039547Y024763D01*
Y024803D02*
X039507Y024883D01*
X039587D01*
X039547Y024803D01*
X038898Y02503D02*
X038818Y02519D01*
X038978D01*
X038898Y02503D01*
Y02507D02*
X038858Y02515D01*
X038938D01*
X038898Y02507D01*
X042461Y025491D02*
X042381Y025651D01*
X042541D01*
X042461Y025491D01*
Y025531D02*
X042421Y025611D01*
X042501D01*
X042461Y025531D01*
X041968Y025491D02*
X041888Y025651D01*
X042049D01*
X041968Y025491D01*
Y025531D02*
X041929Y025611D01*
X042009D01*
X041968Y025531D01*
X041437Y025511D02*
X041357Y025671D01*
X041517D01*
X041437Y025511D01*
Y025551D02*
X041397Y025631D01*
X041477D01*
X041437Y025551D01*
X040965Y025511D02*
X040885Y025671D01*
X041045D01*
X040965Y025511D01*
Y025551D02*
X040925Y025631D01*
X041005D01*
X040965Y025551D01*
X037224Y024861D02*
X037144Y025021D01*
X037304D01*
X037224Y024861D01*
Y024901D02*
X037184Y024981D01*
X037264D01*
X037224Y024901D01*
X034173Y025196D02*
X034093Y025356D01*
X034253D01*
X034173Y025196D01*
Y025236D02*
X034133Y025316D01*
X034213D01*
X034173Y025236D01*
X048091Y025452D02*
X048011Y025612D01*
X048171D01*
X048091Y025452D01*
Y025491D02*
X048051Y025571D01*
X048131D01*
X048091Y025491D01*
X042441Y022085D02*
X042361Y022245D01*
X042521D01*
X042441Y022085D01*
Y022125D02*
X042401Y022205D01*
X042481D01*
X042441Y022125D01*
X041949Y020865D02*
X041869Y021025D01*
X042029D01*
X041949Y020865D01*
Y020905D02*
X041909Y020985D01*
X041989D01*
X041949Y020905D01*
X040177Y023129D02*
X040097Y023289D01*
X040257D01*
X040177Y023129D01*
Y023169D02*
X040137Y023249D01*
X040217D01*
X040177Y023169D01*
X041772Y02179D02*
X041692Y02195D01*
X041852D01*
X041772Y02179D01*
Y02183D02*
X041732Y02191D01*
X041812D01*
X041772Y02183D01*
X037972Y020904D02*
X037892Y021064D01*
X038052D01*
X037972Y020904D01*
Y020944D02*
X037932Y021024D01*
X038012D01*
X037972Y020944D01*
X044705Y019251D02*
X044625Y019411D01*
X044785D01*
X044705Y019251D01*
Y019291D02*
X044665Y019371D01*
X044745D01*
X044705Y019291D01*
X044291Y019959D02*
X044211Y020119D01*
X044371D01*
X044291Y019959D01*
Y019999D02*
X044251Y020079D01*
X044331D01*
X044291Y019999D01*
X043642Y017282D02*
X043562Y017442D01*
X043722D01*
X043642Y017282D01*
Y017322D02*
X043602Y017402D01*
X043682D01*
X043642Y017322D01*
X043262Y015835D02*
X043182Y015995D01*
X043342D01*
X043262Y015835D01*
Y015875D02*
X043222Y015955D01*
X043302D01*
X043262Y015875D01*
X040062Y015727D02*
X039982Y015887D01*
X040142D01*
X040062Y015727D01*
Y015767D02*
X040022Y015847D01*
X040102D01*
X040062Y015767D01*
X039075Y015845D02*
X038995Y016005D01*
X039155D01*
X039075Y015845D01*
Y015885D02*
X039035Y015965D01*
X039115D01*
X039075Y015885D01*
X043091Y016633D02*
X043011Y016793D01*
X043171D01*
X043091Y016633D01*
Y016673D02*
X043051Y016753D01*
X043131D01*
X043091Y016673D01*
X039841Y018268D02*
X039761Y018428D01*
X039921D01*
X039841Y018268D01*
Y018308D02*
X039801Y018388D01*
X039881D01*
X039841Y018308D01*
X041378Y017892D02*
X041298Y018052D01*
X041458D01*
X041378Y017892D01*
Y017932D02*
X041338Y018012D01*
X041418D01*
X041378Y017932D01*
X04498Y01618D02*
X0449Y01634D01*
X04506D01*
X04498Y01618D01*
Y01622D02*
X04494Y0163D01*
X04502D01*
X04498Y01622D01*
X03378Y025235D02*
X0337Y025395D01*
X03386D01*
X03378Y025235D01*
Y025275D02*
X03374Y025355D01*
X03382D01*
X03378Y025275D01*
X034078Y024457D02*
X033998Y024617D01*
X034158D01*
X034078Y024457D01*
Y024497D02*
X034038Y024577D01*
X034118D01*
X034078Y024497D01*
X034135Y024813D02*
X034055Y024973D01*
X034215D01*
X034135Y024813D01*
Y024853D02*
X034095Y024933D01*
X034175D01*
X034135Y024853D01*
X029409Y018266D02*
X029329Y018426D01*
X029489D01*
X029409Y018266D01*
Y018306D02*
X029369Y018386D01*
X029449D01*
X029409Y018306D01*
X028892Y018648D02*
X028932Y018728D01*
X028892Y018807D01*
X028972Y018767D01*
X029052Y018807D01*
X029012Y018728D01*
X029052Y018648D01*
X028972Y018687D01*
X028892Y018648D01*
X028932Y018687D02*
X028952Y018728D01*
X028932Y018767D01*
X028972Y018748D01*
X029012Y018767D01*
X028992Y018728D01*
X029012Y018687D01*
X028972Y018707D01*
X028932Y018687D01*
X032164Y021048D02*
X032084Y021208D01*
X032244D01*
X032164Y021048D01*
Y021088D02*
X032124Y021168D01*
X032204D01*
X032164Y021088D01*
X033739Y021406D02*
X033659Y021566D01*
X033819D01*
X033739Y021406D01*
Y021446D02*
X033699Y021526D01*
X033779D01*
X033739Y021446D01*
X032777Y021053D02*
X032697Y021213D01*
X032857D01*
X032777Y021053D01*
Y021093D02*
X032737Y021173D01*
X032817D01*
X032777Y021093D01*
X035452Y017873D02*
X035372Y018033D01*
X035532D01*
X035452Y017873D01*
Y017913D02*
X035412Y017993D01*
X035492D01*
X035452Y017913D01*
X034977Y01864D02*
X034897Y0188D01*
X035057D01*
X034977Y01864D01*
Y01868D02*
X034937Y01876D01*
X035017D01*
X034977Y01868D01*
X034469Y018402D02*
X034388Y018562D01*
X034548D01*
X034469Y018402D01*
Y018442D02*
X034429Y018522D01*
X034509D01*
X034469Y018442D01*
X036792Y018561D02*
X036832Y018641D01*
X036792Y018721D01*
X036872Y018681D01*
X036952Y018721D01*
X036912Y018641D01*
X036952Y018561D01*
X036872Y018601D01*
X036792Y018561D01*
X036832Y018601D02*
X036852Y018641D01*
X036832Y018681D01*
X036872Y018661D01*
X036912Y018681D01*
X036892Y018641D01*
X036912Y018601D01*
X036872Y018621D01*
X036832Y018601D01*
X037461Y019172D02*
X037381Y019332D01*
X037541D01*
X037461Y019172D01*
Y019212D02*
X037421Y019292D01*
X037501D01*
X037461Y019212D01*
X043044Y015633D02*
X042964Y015793D01*
X043124D01*
X043044Y015633D01*
Y015673D02*
X043004Y015753D01*
X043084D01*
X043044Y015673D01*
X04053Y016081D02*
X04057Y016161D01*
X04053Y016241D01*
X04061Y016201D01*
X04069Y016241D01*
X04065Y016161D01*
X04069Y016081D01*
X04061Y016121D01*
X04053Y016081D01*
X04057Y016121D02*
X04059Y016161D01*
X04057Y016201D01*
X04061Y016181D01*
X04065Y016201D01*
X04063Y016161D01*
X04065Y016121D01*
X04061Y016141D01*
X04057Y016121D01*
X044646Y015412D02*
X044566Y015572D01*
X044726D01*
X044646Y015412D01*
Y015452D02*
X044606Y015532D01*
X044686D01*
X044646Y015452D01*
Y014526D02*
X044566Y014686D01*
X044726D01*
X044646Y014526D01*
Y014566D02*
X044606Y014646D01*
X044686D01*
X044646Y014566D01*
X043071Y014684D02*
X042991Y014844D01*
X043151D01*
X043071Y014684D01*
Y014724D02*
X043031Y014804D01*
X043111D01*
X043071Y014724D01*
X040512Y014684D02*
X040432Y014844D01*
X040592D01*
X040512Y014684D01*
Y014724D02*
X040472Y014804D01*
X040552D01*
X040512Y014724D01*
X037756Y015038D02*
X037676Y015198D01*
X037836D01*
X037756Y015038D01*
Y015078D02*
X037716Y015158D01*
X037796D01*
X037756Y015078D01*
X037776Y01618D02*
X037696Y01634D01*
X037856D01*
X037776Y01618D01*
Y01622D02*
X037736Y0163D01*
X037816D01*
X037776Y01622D01*
X033729Y021048D02*
X033649Y021208D01*
X033809D01*
X033729Y021048D01*
Y021088D02*
X033689Y021168D01*
X033769D01*
X033729Y021088D01*
X033469Y018488D02*
X033389Y018648D01*
X033549D01*
X033469Y018488D01*
Y018528D02*
X033429Y018608D01*
X033509D01*
X033469Y018528D01*
X033965Y018514D02*
X033885Y018674D01*
X034045D01*
X033965Y018514D01*
Y018554D02*
X033925Y018634D01*
X034005D01*
X033965Y018554D01*
X033886Y02418D02*
X033806Y02434D01*
X033966D01*
X033886Y02418D01*
Y02422D02*
X033846Y0243D01*
X033926D01*
X033886Y02422D01*
X032376Y019448D02*
X032296Y019608D01*
X032456D01*
X032376Y019448D01*
Y019488D02*
X032336Y019568D01*
X032416D01*
X032376Y019488D01*
X031454Y019783D02*
X031374Y019943D01*
X031534D01*
X031454Y019783D01*
Y019823D02*
X031414Y019903D01*
X031494D01*
X031454Y019823D01*
X034193Y024034D02*
X034113Y024194D01*
X034273D01*
X034193Y024034D01*
Y024074D02*
X034153Y024154D01*
X034233D01*
X034193Y024074D01*
X030453Y017971D02*
X030373Y018131D01*
X030533D01*
X030453Y017971D01*
Y018011D02*
X030413Y018091D01*
X030493D01*
X030453Y018011D01*
X031908Y02206D02*
X031828Y02222D01*
X031988D01*
X031908Y02206D01*
Y0221D02*
X031868Y02218D01*
X031948D01*
X031908Y0221D01*
X032126Y020707D02*
X032046Y020867D01*
X032206D01*
X032126Y020707D01*
Y020747D02*
X032086Y020827D01*
X032166D01*
X032126Y020747D01*
X031692Y020078D02*
X031612Y020238D01*
X031772D01*
X031692Y020078D01*
Y020118D02*
X031652Y020198D01*
X031732D01*
X031692Y020118D01*
X031791Y020452D02*
X031711Y020612D01*
X031871D01*
X031791Y020452D01*
Y020491D02*
X031751Y020571D01*
X031831D01*
X031791Y020491D01*
X031687Y02078D02*
X031607Y02094D01*
X031767D01*
X031687Y02078D01*
Y02082D02*
X031647Y0209D01*
X031727D01*
X031687Y02082D01*
X038445Y012007D02*
X038365Y012167D01*
X038525D01*
X038445Y012007D01*
Y012047D02*
X038405Y012127D01*
X038485D01*
X038445Y012047D01*
X044606Y015845D02*
X044526Y016005D01*
X044686D01*
X044606Y015845D01*
Y015885D02*
X044566Y015965D01*
X044646D01*
X044606Y015885D01*
X031391Y026548D02*
X031311Y026708D01*
X031471D01*
X031391Y026548D01*
Y026588D02*
X031351Y026668D01*
X031431D01*
X031391Y026588D01*
X0312Y026775D02*
X03112Y026935D01*
X03128D01*
X0312Y026775D01*
Y026815D02*
X03116Y026895D01*
X03124D01*
X0312Y026815D01*
X020077Y013071D02*
X020117Y013151D01*
X020077Y013231D01*
X020157Y013191D01*
X020237Y013231D01*
X020197Y013151D01*
X020237Y013071D01*
X020157Y013111D01*
X020077Y013071D01*
X020117Y013111D02*
X020137Y013151D01*
X020117Y013191D01*
X020157Y013171D01*
X020197Y013191D01*
X020177Y013151D01*
X020197Y013111D01*
X020157Y013131D01*
X020117Y013111D01*
X01815Y014222D02*
X01807Y014382D01*
X01823D01*
X01815Y014222D01*
Y014262D02*
X01811Y014342D01*
X01819D01*
X01815Y014262D01*
X030984Y015589D02*
X030904Y015749D01*
X031064D01*
X030984Y015589D01*
Y015629D02*
X030944Y015709D01*
X031024D01*
X030984Y015629D01*
X029724Y016003D02*
X029644Y016163D01*
X029804D01*
X029724Y016003D01*
Y016043D02*
X029684Y016123D01*
X029764D01*
X029724Y016043D01*
X029369Y017341D02*
X029409Y017421D01*
X029369Y017501D01*
X029449Y017461D01*
X029529Y017501D01*
X029489Y017421D01*
X029529Y017341D01*
X029449Y017381D01*
X029369Y017341D01*
X029409Y017381D02*
X029429Y017421D01*
X029409Y017461D01*
X029449Y017441D01*
X029489Y017461D01*
X029469Y017421D01*
X029489Y017381D01*
X029449Y017401D01*
X029409Y017381D01*
X030176Y018857D02*
X030216Y018937D01*
X030176Y019017D01*
X030256Y018977D01*
X030336Y019017D01*
X030296Y018937D01*
X030336Y018857D01*
X030256Y018897D01*
X030176Y018857D01*
X030216Y018897D02*
X030236Y018937D01*
X030216Y018977D01*
X030256Y018957D01*
X030296Y018977D01*
X030276Y018937D01*
X030296Y018897D01*
X030256Y018917D01*
X030216Y018897D01*
X031526Y028748D02*
X031446Y028908D01*
X031606D01*
X031526Y028748D01*
Y028788D02*
X031486Y028868D01*
X031566D01*
X031526Y028788D01*
X02872Y028286D02*
X02864Y028446D01*
X0288D01*
X02872Y028286D01*
Y028326D02*
X02868Y028406D01*
X02876D01*
X02872Y028326D01*
X030551Y027715D02*
X030471Y027875D01*
X030631D01*
X030551Y027715D01*
Y027755D02*
X030511Y027835D01*
X030591D01*
X030551Y027755D01*
X028386Y027613D02*
X028306Y027773D01*
X028466D01*
X028386Y027613D01*
Y027653D02*
X028346Y027733D01*
X028426D01*
X028386Y027653D01*
X028944Y027459D02*
X028864Y027619D01*
X029024D01*
X028944Y027459D01*
Y027499D02*
X028904Y027578D01*
X028984D01*
X028944Y027499D01*
X027465Y028331D02*
X027385Y028491D01*
X027545D01*
X027465Y028331D01*
Y028371D02*
X027425Y028451D01*
X027505D01*
X027465Y028371D01*
X027301Y028582D02*
X027221Y028742D01*
X027381D01*
X027301Y028582D01*
Y028622D02*
X027261Y028702D01*
X027341D01*
X027301Y028622D01*
X02698Y027574D02*
X0269Y027734D01*
X02706D01*
X02698Y027574D01*
Y027614D02*
X02694Y027694D01*
X02702D01*
X02698Y027614D01*
X028327Y028321D02*
X028247Y028481D01*
X028407D01*
X028327Y028321D01*
Y028361D02*
X028287Y028441D01*
X028367D01*
X028327Y028361D01*
X034449Y014822D02*
X034369Y014982D01*
X034529D01*
X034449Y014822D01*
Y014862D02*
X034409Y014942D01*
X034489D01*
X034449Y014862D01*
X027222Y022158D02*
X027142Y022318D01*
X027302D01*
X027222Y022158D01*
Y022198D02*
X027182Y022278D01*
X027262D01*
X027222Y022198D01*
X027964Y021791D02*
X027884Y021951D01*
X028044D01*
X027964Y021791D01*
Y021831D02*
X027924Y021911D01*
X028004D01*
X027964Y021831D01*
X028695Y021247D02*
X028615Y021407D01*
X028775D01*
X028695Y021247D01*
Y021287D02*
X028655Y021367D01*
X028735D01*
X028695Y021287D01*
X029512Y021115D02*
X029432Y021275D01*
X029592D01*
X029512Y021115D01*
Y021155D02*
X029472Y021235D01*
X029552D01*
X029512Y021155D01*
X028671Y018985D02*
X028591Y019145D01*
X028751D01*
X028671Y018985D01*
Y019025D02*
X028631Y019105D01*
X028711D01*
X028671Y019025D01*
X030426Y02074D02*
X030346Y0209D01*
X030506D01*
X030426Y02074D01*
Y02078D02*
X030386Y02086D01*
X030466D01*
X030426Y02078D01*
X029272Y019014D02*
X029192Y019174D01*
X029352D01*
X029272Y019014D01*
Y019054D02*
X029232Y019134D01*
X029312D01*
X029272Y019054D01*
X02939Y027479D02*
X02931Y027639D01*
X02947D01*
X02939Y027479D01*
Y027519D02*
X02935Y027599D01*
X02943D01*
X02939Y027519D01*
X027126Y027203D02*
X027046Y027363D01*
X027206D01*
X027126Y027203D01*
Y027243D02*
X027086Y027323D01*
X027166D01*
X027126Y027243D01*
X027343Y02679D02*
X027263Y02695D01*
X027423D01*
X027343Y02679D01*
Y02683D02*
X027303Y02691D01*
X027383D01*
X027343Y02683D01*
X028986Y028836D02*
X028906Y028996D01*
X029066D01*
X028986Y028836D01*
Y028876D02*
X028946Y028956D01*
X029026D01*
X028986Y028876D01*
X030959Y030226D02*
X030879Y030386D01*
X031039D01*
X030959Y030226D01*
Y030266D02*
X030919Y030346D01*
X030999D01*
X030959Y030266D01*
X044528Y034566D02*
X044448Y034726D01*
X044608D01*
X044528Y034566D01*
Y034606D02*
X044488Y034686D01*
X044568D01*
X044528Y034606D01*
X043882Y034425D02*
X043802Y034585D01*
X043962D01*
X043882Y034425D01*
Y034465D02*
X043842Y034545D01*
X043922D01*
X043882Y034465D01*
X042316Y033802D02*
X042236Y033962D01*
X042396D01*
X042316Y033802D01*
Y033842D02*
X042276Y033922D01*
X042356D01*
X042316Y033842D01*
X044094Y035826D02*
X044014Y035986D01*
X044174D01*
X044094Y035826D01*
Y035866D02*
X044054Y035946D01*
X044134D01*
X044094Y035866D01*
X045374Y035314D02*
X045294Y035474D01*
X045454D01*
X045374Y035314D01*
Y035354D02*
X045334Y035434D01*
X045414D01*
X045374Y035354D01*
X044173Y037066D02*
X044093Y037226D01*
X044253D01*
X044173Y037066D01*
Y037106D02*
X044133Y037186D01*
X044213D01*
X044173Y037106D01*
X044567Y037243D02*
X044487Y037403D01*
X044647D01*
X044567Y037243D01*
Y037283D02*
X044527Y037363D01*
X044607D01*
X044567Y037283D01*
X045374Y037184D02*
X045294Y037344D01*
X045454D01*
X045374Y037184D01*
Y037224D02*
X045334Y037304D01*
X045414D01*
X045374Y037224D01*
X036988Y036119D02*
X036908Y036279D01*
X037068D01*
X036988Y036119D01*
Y036159D02*
X036948Y036239D01*
X037028D01*
X036988Y036159D01*
X032185Y024152D02*
X032105Y024312D01*
X032265D01*
X032185Y024152D01*
Y024192D02*
X032145Y024272D01*
X032225D01*
X032185Y024192D01*
X04252Y013951D02*
X04244Y014111D01*
X0426D01*
X04252Y013951D01*
Y013991D02*
X04248Y014071D01*
X04256D01*
X04252Y013991D01*
X040532Y013266D02*
X040451Y013426D01*
X040612D01*
X040532Y013266D01*
Y013306D02*
X040491Y013386D01*
X040571D01*
X040532Y013306D01*
X043012Y012282D02*
X042932Y012442D01*
X043092D01*
X043012Y012282D01*
Y012322D02*
X042972Y012402D01*
X043052D01*
X043012Y012322D01*
X039158Y040644D02*
X039078Y040804D01*
X039238D01*
X039158Y040644D01*
Y040684D02*
X039118Y040764D01*
X039198D01*
X039158Y040684D01*
X024232Y017833D02*
X024152Y017993D01*
X024312D01*
X024232Y017833D01*
Y017873D02*
X024192Y017953D01*
X024272D01*
X024232Y017873D01*
X034669Y012278D02*
X034589Y012438D01*
X034749D01*
X034669Y012278D01*
Y012318D02*
X034629Y012398D01*
X034709D01*
X034669Y012318D01*
X013839Y018227D02*
X013759Y018387D01*
X013919D01*
X013839Y018227D01*
Y018267D02*
X013799Y018347D01*
X013879D01*
X013839Y018267D01*
X03786Y023254D02*
X03778Y023414D01*
X03794D01*
X03786Y023254D01*
Y023294D02*
X03782Y023374D01*
X0379D01*
X03786Y023294D01*
X024646Y011652D02*
X024566Y011812D01*
X024726D01*
X024646Y011652D01*
Y011692D02*
X024606Y011772D01*
X024686D01*
X024646Y011692D01*
X024862Y012746D02*
X024782Y012906D01*
X024942D01*
X024862Y012746D01*
Y012786D02*
X024822Y012866D01*
X024902D01*
X024862Y012786D01*
X021181Y013975D02*
X021101Y014135D01*
X021261D01*
X021181Y013975D01*
Y014015D02*
X021141Y014095D01*
X021221D01*
X021181Y014015D01*
X027638Y016633D02*
X027558Y016793D01*
X027718D01*
X027638Y016633D01*
Y016673D02*
X027598Y016753D01*
X027678D01*
X027638Y016673D01*
X027697Y016042D02*
X027617Y016202D01*
X027777D01*
X027697Y016042D01*
Y016082D02*
X027657Y016162D01*
X027737D01*
X027697Y016082D01*
X027283Y018621D02*
X027203Y018781D01*
X027363D01*
X027283Y018621D01*
Y018661D02*
X027243Y018741D01*
X027323D01*
X027283Y018661D01*
X024961Y018581D02*
X024881Y018741D01*
X025041D01*
X024961Y018581D01*
Y018621D02*
X024921Y018701D01*
X025001D01*
X024961Y018621D01*
X017848Y01906D02*
X017768Y01922D01*
X017928D01*
X017848Y01906D01*
Y0191D02*
X017808Y01918D01*
X017888D01*
X017848Y0191D01*
X019168Y018949D02*
X019088Y019109D01*
X019248D01*
X019168Y018949D01*
Y018989D02*
X019128Y019069D01*
X019208D01*
X019168Y018989D01*
X02063Y018188D02*
X02055Y018348D01*
X02071D01*
X02063Y018188D01*
Y018228D02*
X02059Y018308D01*
X02067D01*
X02063Y018228D01*
X019511Y018864D02*
X019431Y019024D01*
X019591D01*
X019511Y018864D01*
Y018904D02*
X019471Y018984D01*
X019551D01*
X019511Y018904D01*
X024114Y021593D02*
X024034Y021753D01*
X024194D01*
X024114Y021593D01*
Y021633D02*
X024074Y021713D01*
X024154D01*
X024114Y021633D01*
X02373Y021593D02*
X02365Y021753D01*
X02381D01*
X02373Y021593D01*
Y021633D02*
X02369Y021713D01*
X02377D01*
X02373Y021633D01*
X025374Y021888D02*
X025294Y022048D01*
X025454D01*
X025374Y021888D01*
Y021929D02*
X025334Y022009D01*
X025414D01*
X025374Y021929D01*
X02565Y022095D02*
X02557Y022255D01*
X02573D01*
X02565Y022095D01*
Y022135D02*
X02561Y022215D01*
X02569D01*
X02565Y022135D01*
X018189Y018227D02*
X018109Y018387D01*
X018269D01*
X018189Y018227D01*
Y018267D02*
X018149Y018347D01*
X018229D01*
X018189Y018267D01*
X013858Y013955D02*
X013778Y014115D01*
X013938D01*
X013858Y013955D01*
Y013995D02*
X013818Y014075D01*
X013898D01*
X013858Y013995D01*
X013819Y01614D02*
X013739Y0163D01*
X013899D01*
X013819Y01614D01*
Y01618D02*
X013779Y01626D01*
X013859D01*
X013819Y01618D01*
X022953Y029074D02*
X022873Y029234D01*
X023033D01*
X022953Y029074D01*
Y029114D02*
X022913Y029194D01*
X022993D01*
X022953Y029114D01*
X021969Y028581D02*
X021888Y028741D01*
X022048D01*
X021969Y028581D01*
Y028621D02*
X021929Y028701D01*
X022009D01*
X021969Y028621D01*
X045039Y040688D02*
X044959Y040848D01*
X045119D01*
X045039Y040688D01*
Y040728D02*
X044999Y040808D01*
X045079D01*
X045039Y040728D01*
X017579Y027085D02*
X017499Y027245D01*
X017659D01*
X017579Y027085D01*
Y027125D02*
X017539Y027205D01*
X017619D01*
X017579Y027125D01*
X017559Y027459D02*
X017479Y027619D01*
X017639D01*
X017559Y027459D01*
Y027499D02*
X017519Y027579D01*
X017599D01*
X017559Y027499D01*
X028918Y016928D02*
X028838Y017088D01*
X028998D01*
X028918Y016928D01*
Y016968D02*
X028878Y017048D01*
X028958D01*
X028918Y016968D01*
X023064Y016797D02*
X022984Y016957D01*
X023144D01*
X023064Y016797D01*
Y016837D02*
X023024Y016917D01*
X023104D01*
X023064Y016837D01*
X020945Y017617D02*
X020865Y017777D01*
X021025D01*
X020945Y017617D01*
Y017657D02*
X020905Y017737D01*
X020985D01*
X020945Y017657D01*
X022789Y019326D02*
X022709Y019486D01*
X022869D01*
X022789Y019326D01*
Y019366D02*
X022749Y019446D01*
X022829D01*
X022789Y019366D01*
X022343Y019822D02*
X022263Y019982D01*
X022423D01*
X022343Y019822D01*
Y019862D02*
X022303Y019942D01*
X022383D01*
X022343Y019862D01*
X022598Y020117D02*
X022518Y020277D01*
X022678D01*
X022598Y020117D01*
Y020157D02*
X022558Y020237D01*
X022638D01*
X022598Y020157D01*
X022701Y020525D02*
X022621Y020685D01*
X022781D01*
X022701Y020525D01*
Y020565D02*
X022661Y020645D01*
X022741D01*
X022701Y020565D01*
X025768Y016042D02*
X025688Y016202D01*
X025848D01*
X025768Y016042D01*
Y016082D02*
X025728Y016162D01*
X025808D01*
X025768Y016082D01*
X025748Y016731D02*
X025668Y016891D01*
X025828D01*
X025748Y016731D01*
Y016771D02*
X025708Y016851D01*
X025788D01*
X025748Y016771D01*
X031317Y019431D02*
X031237Y019591D01*
X031397D01*
X031317Y019431D01*
Y019471D02*
X031277Y019551D01*
X031357D01*
X031317Y019471D01*
X03063Y019822D02*
X03055Y019982D01*
X03071D01*
X03063Y019822D01*
Y019862D02*
X03059Y019942D01*
X03067D01*
X03063Y019862D01*
X030965Y018483D02*
X030885Y018643D01*
X031045D01*
X030965Y018483D01*
Y018523D02*
X030925Y018603D01*
X031005D01*
X030965Y018523D01*
X034961Y017105D02*
X034881Y017265D01*
X035041D01*
X034961Y017105D01*
Y017145D02*
X034921Y017225D01*
X035001D01*
X034961Y017145D01*
X020181Y019971D02*
X020101Y020131D01*
X020261D01*
X020181Y019971D01*
Y020011D02*
X020141Y020091D01*
X020221D01*
X020181Y020011D01*
X021201Y018739D02*
X021121Y018899D01*
X021281D01*
X021201Y018739D01*
Y018779D02*
X021161Y018859D01*
X021241D01*
X021201Y018779D01*
X023153Y020544D02*
X023073Y020704D01*
X023233D01*
X023153Y020544D01*
Y020584D02*
X023113Y020664D01*
X023193D01*
X023153Y020584D01*
X030965Y014822D02*
X030885Y014982D01*
X031045D01*
X030965Y014822D01*
Y014862D02*
X030925Y014942D01*
X031005D01*
X030965Y014862D01*
X030465Y014833D02*
X030385Y014993D01*
X030545D01*
X030465Y014833D01*
Y014873D02*
X030425Y014953D01*
X030505D01*
X030465Y014873D01*
X021161Y01242D02*
X021081Y01258D01*
X021241D01*
X021161Y01242D01*
Y01246D02*
X021121Y01254D01*
X021201D01*
X021161Y01246D01*
X02185Y01614D02*
X02177Y0163D01*
X02193D01*
X02185Y01614D01*
Y01618D02*
X02181Y01626D01*
X02189D01*
X02185Y01618D01*
X025293Y023365D02*
X025213Y023525D01*
X025373D01*
X025293Y023365D01*
Y023405D02*
X025253Y023485D01*
X025333D01*
X025293Y023405D01*
X025789Y023353D02*
X025709Y023513D01*
X025869D01*
X025789Y023353D01*
Y023393D02*
X025749Y023473D01*
X025829D01*
X025789Y023393D01*
X025256Y021593D02*
X025176Y021753D01*
X025336D01*
X025256Y021593D01*
Y021633D02*
X025216Y021713D01*
X025296D01*
X025256Y021633D01*
X022815Y017558D02*
X022735Y017718D01*
X022895D01*
X022815Y017558D01*
Y017598D02*
X022775Y017678D01*
X022855D01*
X022815Y017598D01*
X024311Y018759D02*
X024231Y018919D01*
X024391D01*
X024311Y018759D01*
Y018799D02*
X024271Y018879D01*
X024351D01*
X024311Y018799D01*
X02248Y017184D02*
X0224Y017344D01*
X02256D01*
X02248Y017184D01*
Y017224D02*
X02244Y017304D01*
X02252D01*
X02248Y017224D01*
X01671Y017566D02*
X01663Y017726D01*
X01679D01*
X01671Y017566D01*
Y017606D02*
X01667Y017686D01*
X01675D01*
X01671Y017606D01*
X017574Y017865D02*
X017494Y018025D01*
X017654D01*
X017574Y017865D01*
Y017905D02*
X017534Y017985D01*
X017614D01*
X017574Y017905D01*
X020053Y021824D02*
X020093Y021904D01*
X020053Y021984D01*
X020133Y021944D01*
X020213Y021984D01*
X020173Y021904D01*
X020213Y021824D01*
X020133Y021864D01*
X020053Y021824D01*
X020093Y021864D02*
X020113Y021904D01*
X020093Y021944D01*
X020133Y021924D01*
X020173Y021944D01*
X020153Y021904D01*
X020173Y021864D01*
X020133Y021884D01*
X020093Y021864D01*
X014941Y019467D02*
X014861Y019627D01*
X015021D01*
X014941Y019467D01*
Y019507D02*
X014901Y019587D01*
X014981D01*
X014941Y019507D01*
X015846Y021593D02*
X015766Y021753D01*
X015926D01*
X015846Y021593D01*
Y021633D02*
X015806Y021713D01*
X015886D01*
X015846Y021633D01*
X016864Y021482D02*
X016784Y021642D01*
X016944D01*
X016864Y021482D01*
Y021522D02*
X016824Y021602D01*
X016904D01*
X016864Y021522D01*
X028023Y023524D02*
X027943Y023684D01*
X028103D01*
X028023Y023524D01*
Y023564D02*
X027983Y023644D01*
X028063D01*
X028023Y023564D01*
X030883Y023075D02*
X030803Y023235D01*
X030963D01*
X030883Y023075D01*
Y023115D02*
X030843Y023195D01*
X030923D01*
X030883Y023115D01*
X040983Y023089D02*
X040903Y023249D01*
X041063D01*
X040983Y023089D01*
Y023129D02*
X040943Y023209D01*
X041023D01*
X040983Y023129D01*
X025866Y02429D02*
X025786Y02445D01*
X025946D01*
X025866Y02429D01*
Y02433D02*
X025826Y02441D01*
X025906D01*
X025866Y02433D01*
X025217Y024369D02*
X025137Y024529D01*
X025297D01*
X025217Y024369D01*
Y024409D02*
X025177Y024489D01*
X025257D01*
X025217Y024409D01*
X025894Y023858D02*
X025814Y024018D01*
X025974D01*
X025894Y023858D01*
Y023898D02*
X025854Y023978D01*
X025934D01*
X025894Y023898D01*
X026142Y022991D02*
X026062Y023151D01*
X026222D01*
X026142Y022991D01*
Y023031D02*
X026102Y023111D01*
X026182D01*
X026142Y023031D01*
X030033Y028654D02*
X029953Y028814D01*
X030113D01*
X030033Y028654D01*
Y028694D02*
X029993Y028774D01*
X030073D01*
X030033Y028694D01*
X016274Y010676D02*
X016314Y010756D01*
X016274Y010836D01*
X016354Y010796D01*
X016434Y010836D01*
X016394Y010756D01*
X016434Y010676D01*
X016354Y010716D01*
X016274Y010676D01*
X016314Y010716D02*
X016334Y010756D01*
X016314Y010796D01*
X016354Y010776D01*
X016394Y010796D01*
X016374Y010756D01*
X016394Y010716D01*
X016354Y010736D01*
X016314Y010716D01*
X018937Y011121D02*
X018857Y011281D01*
X019017D01*
X018937Y011121D01*
Y011161D02*
X018897Y011241D01*
X018977D01*
X018937Y011161D01*
X01626Y011967D02*
X01618Y012127D01*
X01634D01*
X01626Y011967D01*
Y012007D02*
X01622Y012087D01*
X0163D01*
X01626Y012007D01*
X02274Y012278D02*
X02266Y012438D01*
X02282D01*
X02274Y012278D01*
Y012318D02*
X0227Y012398D01*
X02278D01*
X02274Y012318D01*
X023331Y012278D02*
X023251Y012438D01*
X023411D01*
X023331Y012278D01*
Y012318D02*
X023291Y012398D01*
X023371D01*
X023331Y012318D01*
X022126Y012263D02*
X022046Y012423D01*
X022206D01*
X022126Y012263D01*
Y012303D02*
X022086Y012383D01*
X022166D01*
X022126Y012303D01*
X025217Y012499D02*
X025137Y012659D01*
X025297D01*
X025217Y012499D01*
Y012539D02*
X025177Y012619D01*
X025257D01*
X025217Y012539D01*
X037264Y011849D02*
X037184Y012009D01*
X037344D01*
X037264Y011849D01*
Y011889D02*
X037224Y011969D01*
X037304D01*
X037264Y011889D01*
Y012263D02*
X037184Y012423D01*
X037344D01*
X037264Y012263D01*
Y012303D02*
X037224Y012383D01*
X037304D01*
X037264Y012303D01*
Y012676D02*
X037184Y012836D01*
X037344D01*
X037264Y012676D01*
Y012716D02*
X037224Y012796D01*
X037304D01*
X037264Y012716D01*
X0309Y012272D02*
X03082Y012432D01*
X03098D01*
X0309Y012272D01*
Y012312D02*
X03086Y012392D01*
X03094D01*
X0309Y012312D01*
X033488Y011912D02*
X033408Y012072D01*
X033568D01*
X033488Y011912D01*
Y011952D02*
X033448Y012032D01*
X033528D01*
X033488Y011952D01*
X033484Y012243D02*
X033404Y012403D01*
X033564D01*
X033484Y012243D01*
Y012283D02*
X033444Y012363D01*
X033524D01*
X033484Y012283D01*
Y012637D02*
X033404Y012797D01*
X033564D01*
X033484Y012637D01*
Y012677D02*
X033444Y012757D01*
X033524D01*
X033484Y012677D01*
X029709Y012278D02*
X029629Y012438D01*
X029789D01*
X029709Y012278D01*
Y012318D02*
X029669Y012398D01*
X029749D01*
X029709Y012318D01*
X029705Y011869D02*
X029625Y012029D01*
X029785D01*
X029705Y011869D01*
Y011909D02*
X029665Y011989D01*
X029745D01*
X029705Y011909D01*
Y012656D02*
X029625Y012816D01*
X029785D01*
X029705Y012656D01*
Y012696D02*
X029665Y012776D01*
X029745D01*
X029705Y012696D01*
X017918Y020862D02*
X017838Y021022D01*
X017998D01*
X017918Y020862D01*
Y020902D02*
X017878Y020982D01*
X017958D01*
X017918Y020902D01*
X018228Y018621D02*
X018148Y018781D01*
X018308D01*
X018228Y018621D01*
Y018661D02*
X018188Y018741D01*
X018268D01*
X018228Y018661D01*
X01628Y019467D02*
X0162Y019627D01*
X01636D01*
X01628Y019467D01*
Y019507D02*
X01624Y019587D01*
X01632D01*
X01628Y019507D01*
X015455Y019456D02*
X015375Y019616D01*
X015535D01*
X015455Y019456D01*
Y019496D02*
X015415Y019576D01*
X015495D01*
X015455Y019496D01*
X014331Y010668D02*
X014251Y010828D01*
X014411D01*
X014331Y010668D01*
Y010708D02*
X014291Y010788D01*
X014371D01*
X014331Y010708D01*
X014193Y011751D02*
X014113Y011911D01*
X014273D01*
X014193Y011751D01*
Y011791D02*
X014153Y011871D01*
X014233D01*
X014193Y011791D01*
X013453Y011904D02*
Y012064D01*
X013613D01*
Y011904D01*
X013453D01*
X012972Y01116D02*
X012892Y01132D01*
X013052D01*
X012972Y01116D01*
Y0112D02*
X012932Y01128D01*
X013012D01*
X012972Y0112D01*
X016949Y020727D02*
X016869Y020887D01*
X017029D01*
X016949Y020727D01*
Y020767D02*
X016909Y020847D01*
X016989D01*
X016949Y020767D01*
X026566Y023709D02*
X026486Y023869D01*
X026646D01*
X026566Y023709D01*
Y023749D02*
X026526Y023829D01*
X026606D01*
X026566Y023749D01*
X025541Y025144D02*
X025461Y025304D01*
X025621D01*
X025541Y025144D01*
Y025184D02*
X025501Y025264D01*
X025581D01*
X025541Y025184D01*
X027067Y025471D02*
X026987Y025631D01*
X027147D01*
X027067Y025471D01*
Y025511D02*
X027027Y025591D01*
X027107D01*
X027067Y025511D01*
X029029Y023665D02*
X028949Y023825D01*
X029109D01*
X029029Y023665D01*
Y023705D02*
X028989Y023785D01*
X029069D01*
X029029Y023705D01*
X02937Y022558D02*
X02929Y022718D01*
X02945D01*
X02937Y022558D01*
Y022598D02*
X02933Y022678D01*
X02941D01*
X02937Y022598D01*
X028991Y023371D02*
X028911Y023531D01*
X029071D01*
X028991Y023371D01*
Y023411D02*
X028951Y023491D01*
X029031D01*
X028991Y023411D01*
X031595Y022113D02*
X031515Y022273D01*
X031675D01*
X031595Y022113D01*
Y022153D02*
X031555Y022233D01*
X031635D01*
X031595Y022153D01*
X029004Y024463D02*
X028924Y024623D01*
X029084D01*
X029004Y024463D01*
Y024503D02*
X028964Y024583D01*
X029044D01*
X029004Y024503D01*
X028966Y02497D02*
X028886Y02513D01*
X029046D01*
X028966Y02497D01*
Y02501D02*
X028926Y02509D01*
X029006D01*
X028966Y02501D01*
X029104Y023994D02*
X029024Y024154D01*
X029184D01*
X029104Y023994D01*
Y024034D02*
X029064Y024114D01*
X029144D01*
X029104Y024034D01*
X031763Y02474D02*
X031683Y0249D01*
X031843D01*
X031763Y02474D01*
Y02478D02*
X031723Y02486D01*
X031803D01*
X031763Y02478D01*
X029568Y025544D02*
X029488Y025704D01*
X029648D01*
X029568Y025544D01*
Y025584D02*
X029528Y025664D01*
X029608D01*
X029568Y025584D01*
X030097Y022519D02*
X030017Y022679D01*
X030177D01*
X030097Y022519D01*
Y022559D02*
X030057Y022639D01*
X030137D01*
X030097Y022559D01*
X03537Y037676D02*
X03529Y037836D01*
X03545D01*
X03537Y037676D01*
Y037716D02*
X03533Y037796D01*
X03541D01*
X03537Y037716D01*
X03367Y038659D02*
X03359Y038819D01*
X03375D01*
X03367Y038659D01*
Y038699D02*
X03363Y038779D01*
X03371D01*
X03367Y038699D01*
X01895Y021326D02*
X01899Y021406D01*
X01895Y021486D01*
X01903Y021446D01*
X01911Y021486D01*
X01907Y021406D01*
X01911Y021326D01*
X01903Y021366D01*
X01895Y021326D01*
X01899Y021366D02*
X01901Y021406D01*
X01899Y021446D01*
X01903Y021426D01*
X01907Y021446D01*
X01905Y021406D01*
X01907Y021366D01*
X01903Y021386D01*
X01899Y021366D01*
X018506Y020847D02*
X018426Y021007D01*
X018586D01*
X018506Y020847D01*
Y020887D02*
X018466Y020967D01*
X018546D01*
X018506Y020887D01*
X027486Y012003D02*
X027526Y012083D01*
X027486Y012163D01*
X027566Y012123D01*
X027646Y012163D01*
X027606Y012083D01*
X027646Y012003D01*
X027566Y012043D01*
X027486Y012003D01*
X027526Y012043D02*
X027546Y012083D01*
X027526Y012123D01*
X027566Y012103D01*
X027606Y012123D01*
X027586Y012083D01*
X027606Y012043D01*
X027566Y012063D01*
X027526Y012043D01*
X046337Y01114D02*
X046377Y01122D01*
X046337Y0113D01*
X046417Y01126D01*
X046497Y0113D01*
X046457Y01122D01*
X046497Y01114D01*
X046417Y01118D01*
X046337Y01114D01*
X046377Y01118D02*
X046397Y01122D01*
X046377Y01126D01*
X046417Y01124D01*
X046457Y01126D01*
X046437Y01122D01*
X046457Y01118D01*
X046417Y0112D01*
X046377Y01118D01*
X012207Y038743D02*
X012127Y038903D01*
X012287D01*
X012207Y038743D01*
Y038783D02*
X012167Y038863D01*
X012247D01*
X012207Y038783D01*
X011114Y025693D02*
X011154Y025773D01*
X011114Y025853D01*
X011194Y025813D01*
X011274Y025853D01*
X011234Y025773D01*
X011274Y025693D01*
X011194Y025733D01*
X011114Y025693D01*
X011154Y025733D02*
X011174Y025773D01*
X011154Y025813D01*
X011194Y025793D01*
X011234Y025813D01*
X011214Y025773D01*
X011234Y025733D01*
X011194Y025753D01*
X011154Y025733D01*
X011278Y021948D02*
X011318Y022028D01*
X011278Y022108D01*
X011358Y022068D01*
X011438Y022108D01*
X011398Y022028D01*
X011438Y021948D01*
X011358Y021988D01*
X011278Y021948D01*
X011318Y021988D02*
X011338Y022028D01*
X011318Y022068D01*
X011358Y022048D01*
X011398Y022068D01*
X011378Y022028D01*
X011398Y021988D01*
X011358Y022008D01*
X011318Y021988D01*
X015433Y040038D02*
X015353Y040198D01*
X015513D01*
X015433Y040038D01*
Y040078D02*
X015393Y040158D01*
X015473D01*
X015433Y040078D01*
X013824Y039616D02*
X013744Y039776D01*
X013904D01*
X013824Y039616D01*
Y039656D02*
X013784Y039736D01*
X013864D01*
X013824Y039656D01*
X017938Y040147D02*
X017858Y040307D01*
X018018D01*
X017938Y040147D01*
Y040187D02*
X017898Y040267D01*
X017978D01*
X017938Y040187D01*
X018917Y02614D02*
X018837Y0263D01*
X018997D01*
X018917Y02614D01*
Y02618D02*
X018877Y02626D01*
X018957D01*
X018917Y02618D01*
X018445Y02614D02*
X018365Y0263D01*
X018525D01*
X018445Y02614D01*
Y02618D02*
X018405Y02626D01*
X018485D01*
X018445Y02618D01*
X018681Y02614D02*
X018601Y0263D01*
X018761D01*
X018681Y02614D01*
Y02618D02*
X018641Y02626D01*
X018721D01*
X018681Y02618D01*
X015559Y031525D02*
X015479Y031685D01*
X015639D01*
X015559Y031525D01*
Y031565D02*
X015519Y031645D01*
X015599D01*
X015559Y031565D01*
X024055Y033903D02*
Y033863D01*
X024135D01*
Y033903D01*
X024175D01*
Y033983D01*
X024135D01*
Y034023D01*
X024055D01*
Y033983D01*
X024015D01*
Y033903D01*
X024055D01*
X024075Y033923D02*
Y033903D01*
X024115D01*
Y033923D01*
X024135D01*
Y033963D01*
X024115D01*
Y033983D01*
X024075D01*
Y033963D01*
X024055D01*
Y033923D01*
X024075D01*
X024055Y033618D02*
Y033578D01*
X024135D01*
Y033618D01*
X024175D01*
Y033698D01*
X024135D01*
Y033738D01*
X024055D01*
Y033698D01*
X024015D01*
Y033618D01*
X024055D01*
X024075Y033638D02*
Y033618D01*
X024115D01*
Y033638D01*
X024135D01*
Y033678D01*
X024115D01*
Y033698D01*
X024075D01*
Y033678D01*
X024055D01*
Y033638D01*
X024075D01*
X024054Y034196D02*
Y034156D01*
X024134D01*
Y034196D01*
X024174D01*
Y034276D01*
X024134D01*
Y034316D01*
X024054D01*
Y034276D01*
X024014D01*
Y034196D01*
X024054D01*
X024074Y034216D02*
Y034196D01*
X024114D01*
Y034216D01*
X024134D01*
Y034256D01*
X024114D01*
Y034276D01*
X024074D01*
Y034256D01*
X024054D01*
Y034216D01*
X024074D01*
X014328Y031557D02*
X014248Y031717D01*
X014408D01*
X014328Y031557D01*
Y031597D02*
X014288Y031677D01*
X014368D01*
X014328Y031597D01*
X022598Y03116D02*
X022518Y03132D01*
X022678D01*
X022598Y03116D01*
Y0312D02*
X022558Y03128D01*
X022638D01*
X022598Y0312D01*
X022362Y03116D02*
X022282Y03132D01*
X022442D01*
X022362Y03116D01*
Y0312D02*
X022322Y03128D01*
X022402D01*
X022362Y0312D01*
X02126Y031022D02*
X02118Y031182D01*
X02134D01*
X02126Y031022D01*
Y031062D02*
X02122Y031142D01*
X0213D01*
X02126Y031062D01*
X021043Y031022D02*
X020963Y031182D01*
X021123D01*
X021043Y031022D01*
Y031062D02*
X021003Y031142D01*
X021083D01*
X021043Y031062D01*
X013504Y040688D02*
X013424Y040848D01*
X013584D01*
X013504Y040688D01*
Y040728D02*
X013464Y040808D01*
X013544D01*
X013504Y040728D01*
X022618Y033759D02*
X022538Y033919D01*
X022698D01*
X022618Y033759D01*
Y033799D02*
X022578Y033879D01*
X022658D01*
X022618Y033799D01*
X022362Y033759D02*
X022282Y033919D01*
X022442D01*
X022362Y033759D01*
Y033799D02*
X022322Y033879D01*
X022402D01*
X022362Y033799D01*
X022106Y033759D02*
X022026Y033919D01*
X022186D01*
X022106Y033759D01*
Y033799D02*
X022066Y033879D01*
X022146D01*
X022106Y033799D01*
X02122Y03309D02*
Y03305D01*
X0213D01*
Y03309D01*
X02134D01*
Y03317D01*
X0213D01*
Y03321D01*
X02122D01*
Y03317D01*
X02118D01*
Y03309D01*
X02122D01*
X02124Y03311D02*
Y03309D01*
X02128D01*
Y03311D01*
X0213D01*
Y03315D01*
X02128D01*
Y03317D01*
X02124D01*
Y03315D01*
X02122D01*
Y03311D01*
X02124D01*
X021023Y03309D02*
Y03305D01*
X021103D01*
Y03309D01*
X021143D01*
Y03317D01*
X021103D01*
Y03321D01*
X021023D01*
Y03317D01*
X020983D01*
Y03309D01*
X021023D01*
X021043Y03311D02*
Y03309D01*
X021083D01*
Y03311D01*
X021103D01*
Y03315D01*
X021083D01*
Y03317D01*
X021043D01*
Y03315D01*
X021023D01*
Y03311D01*
X021043D01*
X023071Y032794D02*
X022991Y032954D01*
X023151D01*
X023071Y032794D01*
Y032834D02*
X023031Y032914D01*
X023111D01*
X023071Y032834D01*
Y032991D02*
X022991Y033151D01*
X023151D01*
X023071Y032991D01*
Y033031D02*
X023031Y033111D01*
X023111D01*
X023071Y033031D01*
Y033188D02*
X022991Y033348D01*
X023151D01*
X023071Y033188D01*
Y033228D02*
X023031Y033308D01*
X023111D01*
X023071Y033228D01*
X018425Y033798D02*
X018345Y033958D01*
X018505D01*
X018425Y033798D01*
Y033838D02*
X018385Y033918D01*
X018465D01*
X018425Y033838D01*
X022598Y034783D02*
Y034743D01*
X022678D01*
Y034783D01*
X022718D01*
Y034863D01*
X022678D01*
Y034903D01*
X022598D01*
Y034863D01*
X022558D01*
Y034783D01*
X022598D01*
X022618Y034803D02*
Y034783D01*
X022658D01*
Y034803D01*
X022678D01*
Y034843D01*
X022658D01*
Y034863D01*
X022618D01*
Y034843D01*
X022598D01*
Y034803D01*
X022618D01*
X022579Y037243D02*
X022499Y037403D01*
X022659D01*
X022579Y037243D01*
Y037283D02*
X022539Y037363D01*
X022619D01*
X022579Y037283D01*
Y036652D02*
X022499Y036812D01*
X022659D01*
X022579Y036652D01*
Y036692D02*
X022539Y036772D01*
X022619D01*
X022579Y036692D01*
X019744Y037243D02*
X019664Y037403D01*
X019824D01*
X019744Y037243D01*
Y037283D02*
X019704Y037363D01*
X019784D01*
X019744Y037283D01*
Y036652D02*
X019664Y036812D01*
X019824D01*
X019744Y036652D01*
Y036692D02*
X019704Y036772D01*
X019784D01*
X019744Y036692D01*
X022579Y036101D02*
X022499Y036261D01*
X022659D01*
X022579Y036101D01*
Y036141D02*
X022539Y036221D01*
X022619D01*
X022579Y036141D01*
X019744Y035471D02*
X019664Y035631D01*
X019824D01*
X019744Y035471D01*
Y035511D02*
X019704Y035591D01*
X019784D01*
X019744Y035511D01*
Y0349D02*
X019664Y03506D01*
X019824D01*
X019744Y0349D01*
Y03494D02*
X019704Y03502D01*
X019784D01*
X019744Y03494D01*
X020413Y0349D02*
X020333Y03506D01*
X020493D01*
X020413Y0349D01*
Y03494D02*
X020373Y03502D01*
X020453D01*
X020413Y03494D01*
Y035471D02*
X020333Y035631D01*
X020493D01*
X020413Y035471D01*
Y035511D02*
X020373Y035591D01*
X020453D01*
X020413Y035511D01*
Y037243D02*
X020333Y037403D01*
X020493D01*
X020413Y037243D01*
Y037283D02*
X020373Y037363D01*
X020453D01*
X020413Y037283D01*
Y036652D02*
X020333Y036812D01*
X020493D01*
X020413Y036652D01*
Y036692D02*
X020373Y036772D01*
X020453D01*
X020413Y036692D01*
X02189Y037243D02*
X02181Y037403D01*
X02197D01*
X02189Y037243D01*
Y037283D02*
X02185Y037363D01*
X02193D01*
X02189Y037283D01*
Y036652D02*
X02181Y036812D01*
X02197D01*
X02189Y036652D01*
Y036692D02*
X02185Y036772D01*
X02193D01*
X02189Y036692D01*
X020413Y036101D02*
X020333Y036261D01*
X020493D01*
X020413Y036101D01*
Y036141D02*
X020373Y036221D01*
X020453D01*
X020413Y036141D01*
X02189Y036101D02*
X02181Y036261D01*
X02197D01*
X02189Y036101D01*
Y036141D02*
X02185Y036221D01*
X02193D01*
X02189Y036141D01*
X021142Y035471D02*
X021062Y035631D01*
X021222D01*
X021142Y035471D01*
Y035511D02*
X021102Y035591D01*
X021182D01*
X021142Y035511D01*
Y036652D02*
X021062Y036812D01*
X021222D01*
X021142Y036652D01*
Y036692D02*
X021102Y036772D01*
X021182D01*
X021142Y036692D01*
X019744Y036081D02*
X019664Y036241D01*
X019824D01*
X019744Y036081D01*
Y036121D02*
X019704Y036201D01*
X019784D01*
X019744Y036121D01*
X021142Y03492D02*
X021062Y03508D01*
X021222D01*
X021142Y03492D01*
Y03496D02*
X021102Y03504D01*
X021182D01*
X021142Y03496D01*
Y037243D02*
X021062Y037403D01*
X021222D01*
X021142Y037243D01*
Y037283D02*
X021102Y037363D01*
X021182D01*
X021142Y037283D01*
Y036101D02*
X021062Y036261D01*
X021222D01*
X021142Y036101D01*
Y036141D02*
X021102Y036221D01*
X021182D01*
X021142Y036141D01*
X022322Y034783D02*
Y034743D01*
X022402D01*
Y034783D01*
X022442D01*
Y034863D01*
X022402D01*
Y034903D01*
X022322D01*
Y034863D01*
X022282D01*
Y034783D01*
X022322D01*
X022342Y034803D02*
Y034783D01*
X022382D01*
Y034803D01*
X022402D01*
Y034843D01*
X022382D01*
Y034863D01*
X022342D01*
Y034843D01*
X022322D01*
Y034803D01*
X022342D01*
X022047Y034783D02*
Y034743D01*
X022127D01*
Y034783D01*
X022167D01*
Y034863D01*
X022127D01*
Y034903D01*
X022047D01*
Y034863D01*
X022007D01*
Y034783D01*
X022047D01*
X022067Y034803D02*
Y034783D01*
X022107D01*
Y034803D01*
X022127D01*
Y034843D01*
X022107D01*
Y034863D01*
X022067D01*
Y034843D01*
X022047D01*
Y034803D01*
X022067D01*
D163*
X030316Y037362D02*
G03*
X030316Y037362I-00008J0D01*
G01*
Y036362D02*
G03*
X030316Y036362I-00008J0D01*
G01*
X014438Y037953D02*
G03*
X014438Y037953I-00008J0D01*
G01*
X013438D02*
G03*
X013438Y037953I-00008J0D01*
G01*
X014438Y036693D02*
G03*
X014438Y036693I-00008J0D01*
G01*
X013438D02*
G03*
X013438Y036693I-00008J0D01*
G01*
X028269Y037331D02*
G03*
X028269Y037331I-00008J0D01*
G01*
Y036331D02*
G03*
X028269Y036331I-00008J0D01*
G01*
X03634Y02063D02*
G03*
X03634Y02063I-00008J0D01*
G01*
Y01963D02*
G03*
X03634Y01963I-00008J0D01*
G01*
Y02163D02*
G03*
X03634Y02163I-00008J0D01*
G01*
X034824D02*
G03*
X034824Y02163I-00008J0D01*
G01*
Y01963D02*
G03*
X034824Y01963I-00008J0D01*
G01*
Y02063D02*
G03*
X034824Y02063I-00008J0D01*
G01*
X036458Y016882D02*
G03*
X036458Y016882I-00008J0D01*
G01*
Y017882D02*
G03*
X036458Y017882I-00008J0D01*
G01*
Y014677D02*
G03*
X036458Y014677I-00008J0D01*
G01*
Y015677D02*
G03*
X036458Y015677I-00008J0D01*
G01*
X048147Y018091D02*
G03*
X048147Y018091I-00008J0D01*
G01*
X047147D02*
G03*
X047147Y018091I-00008J0D01*
G01*
X020627Y038346D02*
G03*
X020627Y038346I-00008J0D01*
G01*
X022127D02*
G03*
X022127Y038346I-00008J0D01*
G01*
X025001Y030091D02*
G03*
X025001Y030091I-00008J0D01*
G01*
Y028091D02*
G03*
X025001Y028091I-00008J0D01*
G01*
Y029091D02*
G03*
X025001Y029091I-00008J0D01*
G01*
X019923Y016043D02*
G03*
X019923Y016043I-00008J0D01*
G01*
Y017043D02*
G03*
X019923Y017043I-00008J0D01*
G01*
Y015043D02*
G03*
X019923Y015043I-00008J0D01*
G01*
X016765Y038346D02*
G03*
X016765Y038346I-00008J0D01*
G01*
X018265D02*
G03*
X018265Y038346I-00008J0D01*
G01*
D164*
X020587D02*
G03*
X020587Y038346I-00004J0D01*
G01*
X022087D02*
G03*
X022087Y038346I-00004J0D01*
G01*
X016725D02*
G03*
X016725Y038346I-00004J0D01*
G01*
X018225D02*
G03*
X018225Y038346I-00004J0D01*
G01*
M02*
