G04*
G04 #@! TF.GenerationSoftware,Altium Limited,Altium Designer,21.2.2 (38)*
G04*
G04 Layer_Color=8421504*
%FSTAX24Y24*%
%MOIN*%
G70*
G04*
G04 #@! TF.SameCoordinates,D9C69337-02A0-443D-9D67-ED1C811D3BAA*
G04*
G04*
G04 #@! TF.FilePolarity,Positive*
G04*
G01*
G75*
%ADD22R,0.0256X0.0335*%
%ADD23R,0.0787X0.1260*%
%ADD24R,0.1142X0.0276*%
%ADD25R,0.0787X0.0433*%
%ADD26R,0.0571X0.0394*%
%ADD27R,0.0591X0.0394*%
%ADD28R,0.0748X0.0748*%
%ADD29R,0.0138X0.0531*%
%ADD30R,0.0236X0.0276*%
%ADD31R,0.1969X0.1969*%
%ADD32R,0.0354X0.0787*%
%ADD33R,0.0787X0.0354*%
%ADD34R,0.0984X0.0472*%
%ADD35R,0.0299X0.0500*%
%ADD36O,0.0315X0.0709*%
%ADD37R,0.0433X0.0787*%
%ADD38R,0.0276X0.1142*%
%ADD39R,0.3200X0.2672*%
%ADD40R,0.0341X0.0770*%
%ADD41R,0.1335X0.0772*%
%ADD42R,0.0787X0.2165*%
%ADD43R,0.1378X0.0787*%
%ADD44R,0.0394X0.0787*%
%ADD45R,0.0787X0.0394*%
%ADD46R,0.0787X0.1378*%
%ADD47R,0.1102X0.0866*%
%ADD48R,0.0866X0.1102*%
%ADD49R,0.0374X0.0394*%
%ADD50O,0.0630X0.0217*%
%ADD51R,0.0630X0.0217*%
%ADD52R,0.0335X0.0256*%
%ADD53R,0.0394X0.0571*%
%ADD54R,0.0531X0.0118*%
%ADD55R,0.0118X0.0531*%
%ADD56R,0.0539X0.0638*%
%ADD57R,0.0600X0.0210*%
%ADD58R,0.0210X0.0670*%
%ADD59R,0.0551X0.0866*%
%ADD60R,0.0256X0.0417*%
%ADD61R,0.0394X0.1024*%
%ADD62R,0.1299X0.0787*%
G36*
X019566Y037517D02*
X019056D01*
Y036845D01*
X019566D01*
Y037517D01*
D02*
G37*
G36*
X023228D02*
X022757D01*
Y036845D01*
X023228D01*
Y037517D01*
D02*
G37*
D22*
X027228Y021832D02*
D03*
X026598D02*
D03*
X014843Y031457D02*
D03*
X015472D02*
D03*
X018504Y021378D02*
D03*
X017874D02*
D03*
X027228Y02262D02*
D03*
X026598D02*
D03*
Y023407D02*
D03*
X027228D02*
D03*
Y025139D02*
D03*
X026598D02*
D03*
X027228Y026005D02*
D03*
X026598D02*
D03*
X036083Y027657D02*
D03*
X035453D02*
D03*
X036004Y022913D02*
D03*
X035374D02*
D03*
X045276Y015472D02*
D03*
X044646D02*
D03*
X044685Y018425D02*
D03*
X045315D02*
D03*
X045354Y032756D02*
D03*
X044724D02*
D03*
X03Y019902D02*
D03*
X03063D02*
D03*
D23*
X019744Y028839D02*
D03*
X016083D02*
D03*
D24*
X012244Y019744D02*
D03*
Y020335D02*
D03*
X047126Y024764D02*
D03*
Y025354D02*
D03*
X047126Y025945D02*
D03*
Y030217D02*
D03*
X047126Y028445D02*
D03*
Y029035D02*
D03*
X047126Y029626D02*
D03*
X047126Y032717D02*
D03*
Y033307D02*
D03*
X012244Y016555D02*
D03*
Y015965D02*
D03*
X012244Y015374D02*
D03*
X012264Y023465D02*
D03*
Y024055D02*
D03*
Y027244D02*
D03*
X012264Y027835D02*
D03*
Y028425D02*
D03*
Y031614D02*
D03*
Y032205D02*
D03*
D25*
X010787Y018937D02*
D03*
Y021142D02*
D03*
X048583Y023957D02*
D03*
Y026752D02*
D03*
Y031024D02*
D03*
Y027638D02*
D03*
Y031909D02*
D03*
Y034114D02*
D03*
X010787Y017362D02*
D03*
Y014567D02*
D03*
X010807Y022657D02*
D03*
Y024862D02*
D03*
X010807Y026437D02*
D03*
Y029232D02*
D03*
Y030807D02*
D03*
Y033012D02*
D03*
D26*
X01122Y035768D02*
D03*
Y03502D02*
D03*
X027126Y015689D02*
D03*
Y014941D02*
D03*
X024843D02*
D03*
Y015689D02*
D03*
X02939Y027894D02*
D03*
Y027146D02*
D03*
X01122Y037638D02*
D03*
Y03689D02*
D03*
D27*
X012972Y040768D02*
D03*
X014902D02*
D03*
X012972Y039469D02*
D03*
X014902D02*
D03*
X046398D02*
D03*
X044468D02*
D03*
X046398Y040768D02*
D03*
X044468D02*
D03*
Y012028D02*
D03*
X046398D02*
D03*
X044468Y010728D02*
D03*
X046398D02*
D03*
X012972Y012028D02*
D03*
X014902D02*
D03*
X012972Y010728D02*
D03*
X014902D02*
D03*
D28*
X031594Y040213D02*
D03*
X034705D02*
D03*
D29*
X033661Y039159D02*
D03*
X033406D02*
D03*
X03315D02*
D03*
X032894D02*
D03*
X032638D02*
D03*
D30*
X01811Y019705D02*
D03*
X017736Y020492D02*
D03*
X018484D02*
D03*
X02698Y027654D02*
D03*
X027354Y026866D02*
D03*
X026606D02*
D03*
X031634Y019528D02*
D03*
X032382D02*
D03*
X032008Y020315D02*
D03*
D31*
X038736Y036167D02*
D03*
D32*
X042677Y033215D02*
D03*
X042177D02*
D03*
X041677D02*
D03*
X041177D02*
D03*
X040677D02*
D03*
X040177D02*
D03*
X039677D02*
D03*
X039177D02*
D03*
X038677D02*
D03*
X038177D02*
D03*
X037677D02*
D03*
X037177D02*
D03*
X036677D02*
D03*
X036177D02*
D03*
X042677Y039907D02*
D03*
X042177D02*
D03*
X041677D02*
D03*
X041177D02*
D03*
X040677D02*
D03*
X040177D02*
D03*
X039677D02*
D03*
X039177D02*
D03*
X038677D02*
D03*
X038177D02*
D03*
X037677D02*
D03*
X037177D02*
D03*
X036677D02*
D03*
X036177D02*
D03*
D33*
X043071Y034311D02*
D03*
Y034811D02*
D03*
Y035311D02*
D03*
Y035811D02*
D03*
Y036311D02*
D03*
Y036811D02*
D03*
Y037311D02*
D03*
Y037811D02*
D03*
Y038311D02*
D03*
Y038811D02*
D03*
D34*
X031594Y037756D02*
D03*
X034547D02*
D03*
X034606Y035945D02*
D03*
X031654D02*
D03*
X016791Y014055D02*
D03*
X013839D02*
D03*
X016791Y016181D02*
D03*
X013839D02*
D03*
Y018307D02*
D03*
X016791D02*
D03*
D35*
X033892Y031059D02*
D03*
Y034059D02*
D03*
X034392Y031059D02*
D03*
Y034059D02*
D03*
X033392Y031059D02*
D03*
Y034059D02*
D03*
X032892Y031059D02*
D03*
Y034059D02*
D03*
X040957Y025591D02*
D03*
Y022591D02*
D03*
X041457Y025591D02*
D03*
Y022591D02*
D03*
X042457Y025591D02*
D03*
Y022591D02*
D03*
X041957Y025591D02*
D03*
Y022591D02*
D03*
D36*
X027463Y030827D02*
D03*
X027963D02*
D03*
X028463D02*
D03*
X028963D02*
D03*
X029463D02*
D03*
X029963D02*
D03*
X030463D02*
D03*
X030963D02*
D03*
X027463Y034764D02*
D03*
X027963D02*
D03*
X028463D02*
D03*
X028963D02*
D03*
X029463D02*
D03*
X029963D02*
D03*
X030463D02*
D03*
X030963D02*
D03*
D37*
X027264Y040709D02*
D03*
X03065D02*
D03*
X023681D02*
D03*
X026476D02*
D03*
X040276Y010906D02*
D03*
X043071D02*
D03*
X039256Y010902D02*
D03*
X036461D02*
D03*
X035476D02*
D03*
X032681D02*
D03*
X031697D02*
D03*
X028902D02*
D03*
X027917D02*
D03*
X025122D02*
D03*
X024138D02*
D03*
X020752D02*
D03*
X016677Y010886D02*
D03*
X019472D02*
D03*
D38*
X028071Y039252D02*
D03*
X029843Y039252D02*
D03*
X029252D02*
D03*
X028661Y039252D02*
D03*
X024488D02*
D03*
X025079Y039252D02*
D03*
X025669D02*
D03*
X041083Y012362D02*
D03*
X041673D02*
D03*
X042264Y012362D02*
D03*
X038449Y012358D02*
D03*
X037858Y012358D02*
D03*
X037268D02*
D03*
X034669Y012358D02*
D03*
X034079Y012358D02*
D03*
X033488D02*
D03*
X03089Y012358D02*
D03*
X030299Y012358D02*
D03*
X029709D02*
D03*
X02711Y012358D02*
D03*
X02652Y012358D02*
D03*
X025929D02*
D03*
X023331Y012358D02*
D03*
X021559Y012358D02*
D03*
X02215D02*
D03*
X02274Y012358D02*
D03*
X017484Y012343D02*
D03*
X018075D02*
D03*
X018665Y012343D02*
D03*
D39*
X021142Y036181D02*
D03*
D40*
X02248Y031978D02*
D03*
X021811D02*
D03*
X021144D02*
D03*
X020472D02*
D03*
X019803D02*
D03*
D41*
X017894Y03376D02*
D03*
Y031949D02*
D03*
D42*
X024693Y022957D02*
D03*
Y025909D02*
D03*
D43*
X025394Y031614D02*
D03*
D44*
X024488Y033937D02*
D03*
X025394D02*
D03*
X026299D02*
D03*
D45*
X024252Y037126D02*
D03*
Y03622D02*
D03*
Y035315D02*
D03*
D46*
X026575Y03622D02*
D03*
D47*
X014055Y025118D02*
D03*
Y023307D02*
D03*
D48*
X014252Y020394D02*
D03*
X016063D02*
D03*
D49*
X018504Y019134D02*
D03*
X017874D02*
D03*
D50*
X02176Y019482D02*
D03*
Y019982D02*
D03*
Y020482D02*
D03*
Y020982D02*
D03*
X01955Y019982D02*
D03*
Y020482D02*
D03*
Y019482D02*
D03*
X027104Y018274D02*
D03*
Y017274D02*
D03*
Y017774D02*
D03*
X024894Y016774D02*
D03*
Y017274D02*
D03*
Y017774D02*
D03*
Y018274D02*
D03*
D51*
X01955Y020982D02*
D03*
X027104Y016774D02*
D03*
D52*
X023701Y016614D02*
D03*
Y017244D02*
D03*
X023701Y01878D02*
D03*
Y01815D02*
D03*
X028189Y018071D02*
D03*
Y018701D02*
D03*
X028189Y017126D02*
D03*
Y016496D02*
D03*
X030551Y027165D02*
D03*
Y027795D02*
D03*
X033346Y019567D02*
D03*
Y020197D02*
D03*
X028386Y027068D02*
D03*
Y027698D02*
D03*
D53*
X026539Y024273D02*
D03*
X027287D02*
D03*
X044626Y019331D02*
D03*
X045374D02*
D03*
X045413Y034016D02*
D03*
X044665D02*
D03*
X045413Y035354D02*
D03*
X044665D02*
D03*
Y038031D02*
D03*
X045413D02*
D03*
X044665Y036693D02*
D03*
X045413D02*
D03*
X015728Y033858D02*
D03*
X016476D02*
D03*
X015728Y032854D02*
D03*
X016476D02*
D03*
D54*
X028504Y024962D02*
D03*
Y023978D02*
D03*
Y023781D02*
D03*
Y023584D02*
D03*
Y023387D02*
D03*
Y02319D02*
D03*
Y022994D02*
D03*
Y022797D02*
D03*
Y024175D02*
D03*
Y024371D02*
D03*
Y024568D02*
D03*
Y024765D02*
D03*
Y025356D02*
D03*
Y025159D02*
D03*
Y0226D02*
D03*
Y022403D02*
D03*
X032992Y023978D02*
D03*
Y023781D02*
D03*
Y022797D02*
D03*
Y022994D02*
D03*
Y02319D02*
D03*
Y023387D02*
D03*
Y023584D02*
D03*
Y024175D02*
D03*
Y024371D02*
D03*
Y024568D02*
D03*
Y024765D02*
D03*
Y024962D02*
D03*
Y025159D02*
D03*
Y025356D02*
D03*
Y0226D02*
D03*
Y022403D02*
D03*
D55*
X030846Y026123D02*
D03*
X03065D02*
D03*
X029272D02*
D03*
X029469D02*
D03*
X029665D02*
D03*
X029862D02*
D03*
X030059D02*
D03*
X031043D02*
D03*
X03124D02*
D03*
X031437D02*
D03*
X031634D02*
D03*
X031831D02*
D03*
X030256D02*
D03*
X032224D02*
D03*
X032028D02*
D03*
X030453D02*
D03*
Y021635D02*
D03*
X03124D02*
D03*
X031437D02*
D03*
X031634D02*
D03*
X031831D02*
D03*
X032028D02*
D03*
X032224D02*
D03*
X03065D02*
D03*
X030256D02*
D03*
X030059D02*
D03*
X029862D02*
D03*
X029665D02*
D03*
X029469D02*
D03*
X030846D02*
D03*
X031043D02*
D03*
X029272D02*
D03*
D56*
X032341Y02748D02*
D03*
X033801D02*
D03*
D57*
X034744Y023724D02*
D03*
Y024224D02*
D03*
Y024724D02*
D03*
Y025224D02*
D03*
Y025724D02*
D03*
Y026224D02*
D03*
X036744Y026724D02*
D03*
Y026224D02*
D03*
Y025724D02*
D03*
Y025224D02*
D03*
Y024724D02*
D03*
Y024224D02*
D03*
Y023724D02*
D03*
X034744Y026724D02*
D03*
D58*
X034965Y018032D02*
D03*
X034465D02*
D03*
X033965D02*
D03*
X033465D02*
D03*
X032965D02*
D03*
X032465D02*
D03*
X031965D02*
D03*
X031465D02*
D03*
X030965D02*
D03*
X030465D02*
D03*
Y014272D02*
D03*
X030965D02*
D03*
X031465D02*
D03*
X031965D02*
D03*
X032465D02*
D03*
X032965D02*
D03*
X033465D02*
D03*
X033965D02*
D03*
X034465D02*
D03*
X034965D02*
D03*
D59*
X042677Y020236D02*
D03*
X043465D02*
D03*
X04189D02*
D03*
X041102D02*
D03*
X040315D02*
D03*
X039528D02*
D03*
X03874D02*
D03*
X037953D02*
D03*
X04258Y013998D02*
D03*
X043367D02*
D03*
X041793D02*
D03*
X041005D02*
D03*
X040218D02*
D03*
X03943D02*
D03*
X038643D02*
D03*
X037856D02*
D03*
D60*
X044606Y017126D02*
D03*
Y01626D02*
D03*
X04498D02*
D03*
X045354Y017126D02*
D03*
Y01626D02*
D03*
D61*
X01689Y035276D02*
D03*
Y037087D02*
D03*
X022205Y029646D02*
D03*
Y027835D02*
D03*
D62*
X014094Y032736D02*
D03*
Y034665D02*
D03*
M02*
